<?xml version="1.0" encoding="utf-8"?>
<!-- Generator: Adobe Illustrator 21.0.2, SVG Export Plug-In . SVG Version: 6.00 Build 0)  -->
<svg version="1.1" id="Layer_1" xmlns="http://www.w3.org/2000/svg" xmlns:xlink="http://www.w3.org/1999/xlink" x="0px" y="0px"
	 viewBox="0 0 792 612" enable-background="new 0 0 792 612" xml:space="preserve">
<g>
	<g>
		<path fill-rule="evenodd" clip-rule="evenodd" fill="#404041" d="M604.1,373.5c0-2.9,2.4-5.3,5.3-5.3c2.9,0,5.3,2.4,5.3,5.3
			c0,2.9-2.4,5.3-5.3,5.3C606.5,378.8,604.1,376.4,604.1,373.5"/>
		<path fill="#404041" d="M609.4,379.4c-3.2,0-5.9-2.6-5.9-5.9c0-3.3,2.6-5.9,5.9-5.9c3.2,0,5.9,2.6,5.9,5.9
			C615.3,376.7,612.6,379.4,609.4,379.4z M609.4,368.8c-2.6,0-4.7,2.1-4.7,4.7c0,2.6,2.1,4.7,4.7,4.7c2.6,0,4.7-2.1,4.7-4.7
			C614,370.9,612,368.8,609.4,368.8z"/>
	</g>
	<g>
		<path fill="#232323" d="M320.1,389.2c0.2-0.5,0.1-1-0.2-1.4c-0.5-0.6-1.3-1-2.3-1l-3.1,0c-1.1,0-2.6,0.8-2.9,2l-9.3,32.8
			l-9.2-32.7c-0.3-1-1.2-2.1-2.6-2.1h-3.6c-1.3,0-2.3,1.1-2.5,2.1l-8.6,32.4l-8.8-32.5c-0.4-1.2-1.8-2-3-2l-4.4,0
			c-0.9,0-1.8,0.4-2.3,1.1c-0.3,0.4-0.4,0.9-0.3,1.4l13.7,48.4c0.3,1,1.2,2,2.5,2h4.4c1.2,0,2.2-0.9,2.5-2.1l8.4-32.2l9.2,32.3
			c0.3,1,1.2,2.1,2.5,2.1h4.3c1.2,0,2.2-0.8,2.5-2.1L320.1,389.2z"/>
		<path fill="#232323" d="M364.5,424.4c-0.3-0.6-1-1-1.7-1.2l-4.3-0.8c-1.2-0.2-2.5,0.5-2.9,1.5c-2.1,4.8-6,7.6-10.8,7.7
			c-4.7-0.1-8.9-2.9-10.9-7c-1.6-3.4-1.8-6.7-1.9-10.1l31.5,0c0.7,0,1.3-0.3,1.8-0.8c0.4-0.4,0.6-0.9,0.6-1.4
			c-0.1-12.5-5.8-25.9-21.6-25.9c-15.7,0-22.8,13.9-22.8,26.7c0,16.1,8.9,26.4,22.6,26.4c9.8,0,17.3-5,20.6-13.6
			C364.8,425.5,364.7,424.9,364.5,424.4z M332.4,407.3c0.5-6.5,4.8-13.3,11.9-13.5c7.6,0.2,11.1,6.8,11.3,13.5H332.4z"/>
		<path fill="#232323" d="M414.7,412c0-6.7-1.7-13.1-4.5-17.6c-3.3-5.2-9.1-8.4-15-8.4h-0.8c-5.2,0-9.3,2.2-12.4,6.6l0-20.4
			c0-1.1-1.2-2.2-2.5-2.2H375c-1.2,0-2.5,0.9-2.5,2.2v63.7c0,1.2,1.2,2.2,2.5,2.2l1.3,0c1.3,0,2.1-1,2.5-2l1.4-4.5
			c3.3,4.7,8.2,7.4,13.6,7.4h0.8C408.5,439,414.7,425.4,414.7,412z M404.6,413.2c0,3-0.5,17.8-11.1,18.1c-3.5-0.1-7.1-2.2-9.1-5.3
			c-1.5-2.3-2.3-5.5-2.5-9.5v-8.7c0.2-6.7,4.9-14,11.6-14.3C404.1,394.1,404.6,410,404.6,413.2z"/>
		<path fill="#232323" d="M470.3,423.6c0-4.8-2.2-9.1-5.9-11.8c-2.9-2.1-6.5-2.8-10-3.5l-6.8-1.3c-4.9-0.8-7.7-2.1-7.7-6.4
			c0-4.6,4.7-6.3,8.7-6.4c4.9,0.1,8.6,2.3,10.3,6.1c0.4,0.9,1.4,1.5,2.3,1.5c0.2,0,0.3,0,0.5-0.1l4.2-0.9c0.7-0.2,1.3-0.6,1.7-1.2
			c0.3-0.5,0.3-1,0.2-1.5c-2.6-7.6-9.2-11.6-19.2-11.6c-9,0-18.6,4-18.6,15.2c0,7.7,4.8,12.5,14.3,14.4l7.6,1.5
			c4.2,0.8,8.5,2.2,8.5,6.7c0,6.6-7.7,7.3-10.1,7.4c-5.2-0.1-11.2-2.5-12.6-7.4c-0.3-1.1-1.7-1.9-2.9-1.6l-4.4,0.9
			c-0.7,0.1-1.3,0.6-1.6,1.2c-0.3,0.5-0.4,1-0.2,1.5c2.3,8.2,10.2,13.2,21.2,13.3l0.2,0C459.8,439.6,470.3,435.4,470.3,423.6z"/>
		<path fill="#232323" d="M518.1,424.5c-0.3-0.6-1-1-1.7-1.2l-4.4-0.8c-1-0.2-2.4,0.4-2.9,1.5c-2.1,4.8-6,7.6-10.8,7.7
			c-4.7-0.1-8.9-2.9-10.9-7c-1.6-3.4-1.8-6.7-1.9-10.1l31.5,0c0.7,0,1.3-0.3,1.8-0.8c0.4-0.4,0.6-0.9,0.6-1.4
			c-0.1-12.5-5.8-25.9-21.6-25.9c-15.7,0-22.8,13.9-22.8,26.7c0,16.1,8.9,26.4,22.6,26.4c9.8,0,17.3-5,20.6-13.6
			C518.5,425.5,518.4,425,518.1,424.5z M486,407.4c0.5-6.5,4.8-13.3,11.9-13.5c7.6,0.2,11.1,6.8,11.3,13.5H486z"/>
		<path fill="#232323" d="M535.7,413.7c0-3.9,0.4-6.8,2.2-10.3c2.6-4.9,6.4-7.3,11.3-7.4c1.2,0,2.3-1.1,2.3-2.3v-4.4
			c0-1.1-1-2.1-2.3-2.3c-0.6-0.1-1.2-0.1-1.8-0.1c-5.3,0-9.6,2.9-12.6,8.4l0-4.8c0-1.2-1.2-2.2-2.5-2.2h-3.9c-1.3,0-2.4,1-2.4,2.2
			l0,46.7c0,1.2,1.1,2.2,2.4,2.2l4.6,0c1.2,0,2.5-0.9,2.5-2.2L535.7,413.7z"/>
		<path fill="#232323" d="M600,388.6c0.2-0.5,0.1-1-0.2-1.4c-0.5-0.7-1.4-1.1-2.3-1.1l-3.6,0c-1.1,0-2.6,0.8-2.9,2l-11.7,36.9
			l-12-36.9c-0.4-1.2-1.8-2-3-2l-5.2,0c-1,0-1.9,0.4-2.3,1.1c-0.3,0.4-0.4,0.9-0.2,1.4l16.4,48.7c0.3,1,1.2,2.1,2.5,2.1h6.3
			c1.1,0,2.1-0.8,2.5-2.1L600,388.6z"/>
		<path fill="#232323" d="M614.5,388.1c0-1.2-1.2-2.3-2.6-2.3l-5,0c-1.4,0-2.6,1.1-2.6,2.3l0,49.6c0,0.6,0.3,1.2,0.8,1.6
			c0.5,0.4,1.1,0.6,1.7,0.6l5,0h0c1.4,0,2.6-1.1,2.6-2.3V388.1z"/>
		<path fill="#232323" d="M660.9,421.9c0-0.5-0.1-1-0.5-1.5c-0.5-0.5-1.2-0.9-2.1-0.9l-4.2,0c-1.2,0-2.1,0.7-2.6,1.9
			c-1.5,6.5-5,9.9-10.2,10.1c-10.1-0.3-10.9-14.4-10.9-18.8c0-8.6,3-17.9,11.3-18.2c5,0.2,8.7,3.8,9.8,9.6c0.2,1.2,1.1,2.1,2.4,2.3
			l4.4,0c1.3-0.1,2.4-1.1,2.4-2.4c-1.6-10.6-8.9-17.5-18.8-17.5l-0.3,0l-0.4,0c-14.3,0-20.7,13.4-20.7,26.6
			c0,12.1,5.4,26.3,20.6,26.3h0.7C651.6,439.5,658.8,432.8,660.9,421.9z"/>
		<path fill="#232323" d="M708.2,424.5c-0.3-0.6-0.9-1-1.7-1.2l-4.3-0.8c-1-0.2-2.4,0.4-2.9,1.5c-2.1,4.8-6,7.6-10.8,7.7
			c-4.7-0.1-8.9-2.9-10.9-7c-1.6-3.4-1.8-6.7-1.9-10.1l31.5,0c0.7,0,1.3-0.3,1.8-0.8c0.4-0.4,0.6-0.9,0.6-1.4
			c-0.1-12.5-5.8-25.9-21.6-25.9c-15.7,0-22.8,13.9-22.8,26.7c0,16.1,8.9,26.4,22.6,26.4c9.8,0,17.3-5,20.6-13.6
			C708.5,425.5,708.5,425,708.2,424.5z M676.1,407.4c0.5-6.5,4.8-13.3,11.9-13.5c7.6,0.2,11.1,6.8,11.3,13.5H676.1z"/>
		<path fill="#232323" d="M755,423.6c0-4.8-2.2-9.1-5.9-11.8c-2.9-2.1-6.5-2.8-10-3.5l-6.8-1.3c-4.9-0.8-7.7-2.1-7.7-6.4
			c0-5.9,7.3-6.4,8.7-6.4c4.9,0.1,8.6,2.3,10.3,6.1c0.4,0.9,1.4,1.5,2.3,1.5c0.2,0,0.3,0,0.5-0.1l4.2-0.9c0.7-0.2,1.3-0.6,1.7-1.2
			c0.3-0.5,0.3-1,0.2-1.5c-2.6-7.6-9.2-11.6-19.2-11.6c-9,0-18.6,4-18.6,15.2c0,7.7,4.8,12.5,14.3,14.4l7.6,1.5
			c4.2,0.8,8.5,2.2,8.5,6.7c0,6.6-7.7,7.3-10.1,7.4c-4.9-0.1-11.1-2.1-12.6-7.4c-0.3-1.1-1.7-1.9-2.9-1.6l-4.4,0.9
			c-0.7,0.1-1.3,0.6-1.6,1.2c-0.3,0.5-0.4,1-0.2,1.5c2.3,8.2,10.2,13.2,21.2,13.3l0.2,0C744.5,439.6,755,435.4,755,423.6z"/>
	</g>
	<g>
		<path fill-rule="evenodd" clip-rule="evenodd" fill="#232323" d="M544.9,289.5v-11.3c0-1.7,1.3-2.9,2.9-2.9l50.4,0
			c1.6,0,2.9,1.2,2.9,2.8v9.7c0,1.6-1.4,3.7-3.8,7.1l-26.1,37.3c9.7-0.2,20,1.2,28.8,6.2c2,1.1,2.5,2.8,2.7,4.4v12
			c0,1.7-1.8,3.6-3.7,2.6c-15.5-8.1-36.1-9-53.3,0.1c-1.8,0.9-3.6-0.9-3.6-2.6v-11.4c0-1.8,0-5,1.9-7.7l30.3-43.4l-26.4,0
			C546.2,292.3,544.9,291.1,544.9,289.5"/>
		<path fill-rule="evenodd" clip-rule="evenodd" fill="#232323" d="M360.9,359.8h-15.4c-1.5-0.1-2.6-1.2-2.7-2.6l0-78.8
			c0-1.6,1.3-2.8,3-2.8l14.3,0c1.5,0.1,2.7,1.2,2.8,2.6v10.3h0.3c3.7-10,10.7-14.6,20.2-14.6c9.6,0,15.6,4.6,19.9,14.6
			c3.7-10,12.2-14.6,21.2-14.6c6.4,0,13.5,2.6,17.8,8.6c4.9,6.6,3.9,16.2,3.9,24.7l0,49.7c0,1.6-1.3,2.8-3,2.8h-15.3
			c-1.5-0.1-2.8-1.3-2.8-2.8v-41.8c0-3.3,0.3-11.6-0.4-14.8c-1.1-5.3-4.6-6.8-9-6.8c-3.7,0-7.6,2.5-9.2,6.5
			c-1.6,4-1.4,10.6-1.4,15.1v41.8c0,1.6-1.3,2.8-3,2.8h-15.3c-1.5-0.1-2.8-1.3-2.8-2.8l0-41.8c0-8.8,1.4-21.7-9.4-21.7
			c-11,0-10.6,12.6-10.6,21.7l0,41.8C363.8,358.5,362.5,359.8,360.9,359.8"/>
		<path fill-rule="evenodd" clip-rule="evenodd" fill="#232323" d="M644.6,273.9c22.8,0,35.1,19.6,35.1,44.4
			c0,24-13.6,43.1-35.1,43.1c-22.4,0-34.5-19.6-34.5-43.9C610,293,622.3,273.9,644.6,273.9 M644.7,290c-11.3,0-12,15.4-12,25
			c0,9.6-0.1,30.2,11.9,30.2c11.9,0,12.5-16.6,12.5-26.7c0-6.6-0.3-14.6-2.3-20.9C653,292.1,649.6,290,644.7,290z"/>
		<path fill-rule="evenodd" clip-rule="evenodd" fill="#232323" d="M709.2,359.8h-15.3c-1.5-0.1-2.8-1.3-2.8-2.8l0-78.8
			c0.1-1.4,1.4-2.6,2.9-2.6l14.2,0c1.3,0.1,2.4,1,2.7,2.2v12.1h0.3c4.3-10.8,10.3-15.9,20.9-15.9c6.9,0,13.6,2.5,17.9,9.3
			c4,6.3,4,16.9,4,24.5v49.6c-0.2,1.4-1.4,2.5-2.9,2.5h-15.4c-1.4-0.1-2.6-1.1-2.7-2.5v-42.8c0-8.6,1-21.2-9.6-21.2
			c-3.7,0-7.2,2.5-8.9,6.3c-2.2,4.8-2.4,9.6-2.4,14.9v42.4C712.2,358.5,710.8,359.8,709.2,359.8"/>
		<path fill-rule="evenodd" clip-rule="evenodd" fill="#232323" d="M504.7,322.1c0,6,0.1,11-2.9,16.3c-2.4,4.3-6.3,7-10.6,7
			c-5.9,0-9.3-4.5-9.3-11.1c0-13.1,11.7-15.4,22.8-15.4V322.1 M520.2,359.6c-1,0.9-2.5,1-3.6,0.4c-5.1-4.2-6-6.2-8.8-10.2
			c-8.4,8.6-14.4,11.2-25.3,11.2c-12.9,0-23-8-23-23.9c0-12.5,6.7-20.9,16.4-25.1c8.3-3.7,20-4.3,28.9-5.3v-2c0-3.7,0.3-8-1.9-11.1
			c-1.9-2.8-5.4-4-8.6-4c-5.9,0-11.1,3-12.3,9.2c-0.3,1.4-1.3,2.8-2.7,2.8l-14.9-1.6c-1.3-0.3-2.7-1.3-2.3-3.2
			c3.4-18.1,19.7-23.5,34.3-23.5c7.5,0,17.2,2,23.1,7.6c7.5,7,6.7,16.3,6.7,26.4v23.9c0,7.2,3,10.4,5.8,14.2c1,1.4,1.2,3.1-0.1,4.1
			C528.8,352,523.3,356.9,520.2,359.6L520.2,359.6z"/>
		<path fill-rule="evenodd" clip-rule="evenodd" fill="#232323" d="M303.5,322.1c0,6,0.1,11-2.9,16.3c-2.4,4.3-6.3,7-10.6,7
			c-5.9,0-9.3-4.5-9.3-11.1c0-13.1,11.7-15.4,22.8-15.4V322.1 M319,359.6c-1,0.9-2.5,1-3.6,0.4c-5.1-4.2-6-6.2-8.8-10.2
			c-8.4,8.6-14.4,11.2-25.3,11.2c-12.9,0-23-8-23-23.9c0-12.5,6.8-20.9,16.4-25.1c8.3-3.7,20-4.3,28.9-5.3v-2c0-3.7,0.3-8-1.9-11.1
			c-1.9-2.8-5.5-4-8.6-4c-5.9,0-11.1,3-12.3,9.2c-0.3,1.4-1.3,2.8-2.7,2.8l-14.9-1.6c-1.3-0.3-2.7-1.3-2.3-3.2
			c3.4-18.1,19.7-23.5,34.3-23.5c7.5,0,17.2,2,23.1,7.6c7.5,7,6.7,16.3,6.7,26.4v23.9c0,7.2,3,10.4,5.8,14.2c1,1.4,1.2,3.1,0,4.1
			C327.6,352,322.1,356.9,319,359.6L319,359.6z"/>
	</g>
	<g>
		<g>
			<polygon fill="#FAAF34" points="89.5,366.7 89.5,426.9 132,441.3 132,380.3 			"/>
			<polygon fill="#FAAF34" points="142,380.3 184.4,366.7 184.4,427 142,441.3 			"/>
			<polyline fill="#FAAF34" points="176.3,359.9 137,347.1 97.8,359.9 137.1,372.6 176.3,359.9 			"/>
		</g>
		<g>
			<polygon fill="#FAAF34" points="37,278.3 37,338.6 79.6,352.9 79.6,291.9 			"/>
			<polygon fill="#FAAF34" points="89.5,291.9 131.9,278.3 131.9,338.6 89.5,352.9 			"/>
			<polyline fill="#FAAF34" points="123.8,271.5 84.6,258.7 45.3,271.5 84.6,284.2 123.8,271.5 			"/>
		</g>
		<g>
			<polygon fill="#FAAF34" points="141.9,278.3 141.9,338.6 184.5,352.9 184.5,291.9 			"/>
			<polygon fill="#FAAF34" points="194.5,291.9 236.9,278.3 236.9,338.6 194.5,352.9 			"/>
			<polyline fill="#FAAF34" points="228.7,271.5 189.5,258.7 150.2,271.5 189.6,284.2 228.7,271.5 			"/>
		</g>
		<g>
			<polygon fill="#FAAF34" points="195.8,190.3 195.8,250.6 238.4,264.9 238.4,203.9 			"/>
			<polygon fill="#FAAF34" points="248.3,204 290.8,190.3 290.8,250.6 248.3,264.9 			"/>
			<polyline fill="#FAAF34" points="282.6,183.5 243.4,170.7 204.1,183.5 243.4,196.3 282.6,183.5 			"/>
		</g>
		<g>
			<polygon fill="#FAAF34" points="300,190.3 300,250.6 342.6,264.9 342.6,203.9 			"/>
			<polygon fill="#FAAF34" points="352.5,204 395,190.3 395,250.6 352.5,264.9 			"/>
			<polyline fill="#FAAF34" points="386.8,183.5 347.6,170.7 308.3,183.5 347.6,196.3 386.8,183.5 			"/>
		</g>
	</g>
</g>
</svg>
