<?xml version="1.0" encoding="utf-8"?>
<!-- Generator: Adobe Illustrator 21.0.2, SVG Export Plug-In . SVG Version: 6.00 Build 0)  -->
<svg version="1.1" id="Layer_1" xmlns="http://www.w3.org/2000/svg" xmlns:xlink="http://www.w3.org/1999/xlink" x="0px" y="0px"
	 viewBox="0 0 792 100.8" enable-background="new 0 0 792 100.8" xml:space="preserve">
<g>
	<path fill="#00ADEE" d="M469.2,3.5h-30.7v93.7h30.7c29.4,0,47.6-18,47.6-46.9C516.9,21.5,498.6,3.5,469.2,3.5z M507.2,50.4
		c0,23.8-14.5,38-38.9,38h-20.4V12.4h20.4C492.7,12.4,507.2,26.6,507.2,50.4z"/>
	<path fill="#00ADEE" d="M597.3,63.1c0,15.7-10.3,25.4-26.8,25.4c-16.5,0-26.7-9.6-26.7-25.2V3.5h-9.4v60
		c0,20.2,14.6,33.7,36.2,33.7c21.6,0,36.1-13.5,36.1-33.7v-60h-9.4V63.1z"/>
	<path fill="#00ADEE" d="M697.1,78.3c-0.1,0.1-11.1,11.6-29.7,11.6c-21.8,0-38.3-17.3-38.3-40.1c0-22.2,16.3-38.9,37.9-38.9
		c17.3,0,27.8,9.6,28,9.7l1.5,1.4l5.7-6.9l-1.1-1.2c-0.5-0.5-11.8-11.9-34.1-11.9c-27,0-47.4,20.6-47.4,47.8
		c0,28,20.6,49.1,47.9,49.1c22.9,0,35.5-13.7,36-14.3l1.1-1.2l-6-6.6L697.1,78.3z"/>
	<polygon fill="#00ADEE" points="744,48 790.4,3.5 778.2,3.5 735.8,43.7 730.1,43.7 730.1,3.5 720.7,3.5 720.7,97.3 730.1,97.3 
		730.1,52.5 735.8,52.5 780,97.3 792,97.3 	"/>
	<path d="M0,3.5h37.8c18.7,0,31.9,8.4,31.9,24.5c0,7.9-3.8,15.9-10.9,19.9v0.3c10.8,3.3,14.7,12.8,14.7,21.1
		c0,20.5-17,27.9-35.7,27.9H0V3.5z M38.1,39.8c5.8,0,8.3-4.2,8.3-8.7c0-4.3-2.5-8-8.7-8H22.9v16.7H38.1z M40.1,77.6
		c6.7,0,10-4.6,10-9.8s-3.1-9.6-9.8-9.6H22.9v19.4H40.1z"/>
	<path d="M85.2,3.5h22.9v74.1h38.3v19.7H85.2V3.5z"/>
	<path d="M213.5,77.6h-29.2l-5.6,19.7H155l31.9-93.8H211l31.9,93.8h-23.6L213.5,77.6z M198.8,24.9c0,0-2.1,10.2-3.8,16.1l-5.4,18.2
		h18.5L202.9,41c-1.7-5.9-3.8-16.1-3.8-16.1H198.8z"/>
	<path d="M294.9,1.9c23.2,0,35.1,13.2,35.1,13.2l-10.6,17.3c0,0-10.5-9.6-23.5-9.6c-18,0-26.5,13.2-26.5,26.8
		c0,13.9,9.2,28.2,26.5,28.2c14.2,0,24.9-11.5,24.9-11.5l11.8,16.8c0,0-13.2,15.7-37.8,15.7c-29.4,0-49.2-20.9-49.2-48.7
		C245.7,22.9,266.7,1.9,294.9,1.9z"/>
	<path d="M346.5,3.5h22.9v36.2h3.2l24.1-36.2h24.7l-30,44.9v0.3l31.5,48.7h-25.7l-24.5-38h-3.2v38h-22.9V3.5z"/>
</g>
</svg>
