<?xml version="1.0" encoding="utf-8"?>
<!-- Generator: Adobe Illustrator 21.0.2, SVG Export Plug-In . SVG Version: 6.00 Build 0)  -->
<svg version="1.1" id="Layer_1" xmlns="http://www.w3.org/2000/svg" xmlns:xlink="http://www.w3.org/1999/xlink" x="0px" y="0px"
	 viewBox="0 0 650 120.8" enable-background="new 0 0 650 120.8" xml:space="preserve">
<g>
	<path fill="#028CC7" d="M325.4,74.3c-9.5,0-16.1-7.3-16.1-17.7c0-10.6,6.5-17.7,16.1-17.7c9.5,0,16.1,7.3,16.1,17.7
		S334.9,74.3,325.4,74.3 M325.4,27.6c-16.7,0-28.7,12.2-28.7,29c0,16.8,12.1,29,28.7,29s28.7-12.2,28.7-29
		C354.2,39.8,342.1,27.6,325.4,27.6"/>
	<polygon fill="#028CC7" points="394.1,49.2 380.7,27.8 365,27.8 365,83.8 378,83.8 378,47.3 394.5,70.4 411,47.3 411,83.8 
		423,83.8 423,27.8 407.6,27.8 394.1,49.2 	"/>
	<path fill="#028CC7" d="M460.1,54.8H448v-15h12.1c4.5,0,7.6,3.4,7.6,7.5C467.6,51.4,464.6,54.8,460.1,54.8 M461.3,27.8H436v56h12
		v-18h13.3c11.1,0,18.9-8.3,18.9-19S472.5,27.8,461.3,27.8"/>
	<path fill="#028CC7" d="M516.1,74.3c-9.5,0-16.1-7.3-16.1-17.7c0-10.6,6.5-17.7,16.1-17.7c9.5,0,16.1,7.3,16.1,17.7
		S525.6,74.3,516.1,74.3 M516.1,27.6c-16.7,0-28.7,12.2-28.7,29c0,16.8,12.1,29,28.7,29s28.7-12.2,28.7-29
		C544.9,39.8,532.8,27.6,516.1,27.6"/>
	<path fill="#028CC7" d="M576.9,49.7c-6.5-1.6-10.4-2.8-10.4-5.5c0-3.1,2.9-5.1,7.5-5.1c5.6,0,10.7,2,14.3,5.6l1.2,1.2l7.2-9.4
		l-1-0.9c-5.4-5.2-12.5-7.8-21-7.8c-12.1,0-20.9,7.2-20.9,17c0,12.3,11,15.1,19.9,17.4c6.9,1.8,11.1,3.1,11.1,6.4
		c0,2.6-2.4,5.7-9.2,5.7c-8.1,0-13.3-4.3-15.7-6.8l-1.3-1.3l-7,9.7l0.9,0.9c5.5,5.8,13.3,8.9,22.7,8.9c16.3,0,22.1-9.3,22.1-17.9
		C597.5,54.9,585.6,51.9,576.9,49.7"/>
	<polygon fill="#028CC7" points="650,39.8 650,27.8 608,27.8 608,83.8 650,83.8 650,72.8 620,72.8 620,60.8 646,60.8 646,49.8 
		620,49.8 620,39.8 650,39.8 	"/>
	<path fill="#028CC7" d="M238,56.9c0,16.8,11.9,29,29,29c8.9,0,16.4-3.6,21.7-10.7l-8-8c-2.4,4-8.3,7.4-13.2,7.4
		c-9.8,0-16.8-7.6-16.8-17.8s7.1-17.8,16.9-17.8c4.9,0,10.9,3.4,13.3,7.4l8.1-8c-5.3-7.1-13-10.7-21.9-10.7
		C249.9,27.9,238,40.1,238,56.9L238,56.9L238,56.9z"/>
	<path fill="#028CC7" d="M385.9,120.5l-8.2-20.8h-4.6l-8.2,20.8h4.1l1.5-4h9.5l1.5,4H385.9L385.9,120.5z M379.2,113.3h-7.5l3.7-9.9
		L379.2,113.3L379.2,113.3z"/>
	<polygon fill="#028CC7" points="407.7,120.5 407.7,99.7 404.1,99.7 404.1,114.1 393.5,99.7 389.7,99.7 389.7,120.5 393.4,120.5 
		393.4,105.6 404.2,120.5 407.7,120.5 	"/>
	<polygon fill-rule="evenodd" clip-rule="evenodd" fill="#028CC7" points="427,99.7 423.3,99.7 423.3,120.5 427,120.5 427,99.7 	"/>
	<path fill="#028CC7" d="M443.4,120.5c3.9,0,6-2.4,6-5.6c0-2.6-1.8-4.8-4-5.1c1.9-0.4,3.6-2.2,3.6-4.8c0-2.9-2.1-5.3-5.9-5.3h-10.2
		v20.8H443.4L443.4,120.5z M442.4,108.3h-5.8v-5.4h5.8c1.9,0,2.9,1.2,2.9,2.7C445.3,107.1,444.3,108.3,442.4,108.3 M442.6,117.2h-6
		v-5.8h6c2.1,0,3.2,1.3,3.2,2.9C445.8,116.2,444.6,117.2,442.6,117.2"/>
	<polygon fill="#028CC7" points="476.3,120.5 476.3,99.7 471.2,99.7 465.5,113.3 459.8,99.7 454.7,99.7 454.7,120.5 458.3,120.5 
		458.3,105 464.7,120.5 466.3,120.5 472.7,105 472.7,120.5 476.3,120.5 	"/>
	<path fill="#028CC7" d="M501.8,120.8c4.2,0,6.8-2.2,8.4-4.7l-3.1-1.6c-1,1.7-3,3-5.2,3c-4.1,0-7.2-3.1-7.2-7.5
		c0-4.4,3.1-7.5,7.2-7.5c2.2,0,4.2,1.3,5.2,3l3.1-1.6c-1.6-2.5-4.1-4.7-8.4-4.7c-6.1,0-10.9,4.4-10.9,10.8
		C490.9,116.5,495.7,120.8,501.8,120.8"/>
	<path fill="#028CC7" d="M524.4,120.8c6.2,0,10.6-4.6,10.6-10.8c0-6.2-4.4-10.8-10.6-10.8s-10.6,4.6-10.6,10.8
		C513.8,116.3,518.1,120.8,524.4,120.8 M524.4,117.6c-4.2,0-6.9-3.2-6.9-7.5c0-4.3,2.7-7.5,6.9-7.5c4.2,0,6.9,3.2,6.9,7.5
		C531.3,114.3,528.6,117.6,524.4,117.6"/>
	<polygon fill="#028CC7" points="561.7,120.5 561.7,99.7 556.6,99.7 550.9,113.3 545.2,99.7 540.1,99.7 540.1,120.5 543.7,120.5 
		543.7,105 550.1,120.5 551.7,120.5 558.1,105 558.1,120.5 561.7,120.5 	"/>
	<path fill="#028CC7" d="M571.3,120.5v-7.8h5.5c4.3,0,6.8-3,6.8-6.5c0-3.5-2.4-6.5-6.8-6.5h-9.1v20.8H571.3L571.3,120.5z
		 M576.3,109.5h-5v-6.6h5c2.1,0,3.6,1.3,3.6,3.3C579.9,108.2,578.4,109.5,576.3,109.5"/>
	<path fill="#028CC7" d="M604.6,120.5l-8.2-20.8h-4.6l-8.2,20.8h4.1l1.5-4h9.5l1.5,4H604.6L604.6,120.5z M597.9,113.3h-7.5l3.7-9.9
		L597.9,113.3L597.9,113.3z"/>
	<polygon fill="#028CC7" points="626.4,120.5 626.4,99.7 622.8,99.7 622.8,114.1 612.1,99.7 608.4,99.7 608.4,120.5 612.1,120.5 
		612.1,105.6 622.9,120.5 626.4,120.5 	"/>
	<polygon fill="#028CC7" points="642,120.5 642,111.8 650,99.7 645.8,99.7 640.1,108.6 634.4,99.7 630.2,99.7 638.3,111.8 
		638.3,120.5 642,120.5 	"/>
	<path fill-rule="evenodd" clip-rule="evenodd" fill="#028CC7" d="M120.1,96.8L81,119.3L39.1,95.2L0,72.6V24.2L41.9,0L81,22.6
		L120.1,0L162,24.2l39.1,22.6v48.4l-41.9,24.2L120.1,96.8L120.1,96.8z M122.9,91.9l0-38.7l33.5,19.4l0,38.7L122.9,91.9L122.9,91.9z
		 M44.7,91.9V53.2l33.5,19.4l0,38.7L44.7,91.9L44.7,91.9z M5.6,69.4V30.6L39.1,50l0,38.7L5.6,69.4L5.6,69.4z M81,29l33.5,19.4
		L81,67.7L47.5,48.4L81,29L81,29z M159.2,29l33.5,19.4l-33.5,19.4l-33.5-19.4L159.2,29L159.2,29z M41.9,6.4l33.5,19.4L41.9,45.2
		L8.4,25.8L41.9,6.4L41.9,6.4z M120.1,6.4l33.5,19.4l-33.5,19.4L86.6,25.8L120.1,6.4L120.1,6.4z"/>
</g>
</svg>
