<?xml version="1.0" encoding="utf-8"?>
<!-- Generator: Adobe Illustrator 21.0.2, SVG Export Plug-In . SVG Version: 6.00 Build 0)  -->
<svg version="1.1" id="Layer_1" xmlns="http://www.w3.org/2000/svg" xmlns:xlink="http://www.w3.org/1999/xlink" x="0px" y="0px"
	 viewBox="0 0 642.3 82.6" enable-background="new 0 0 642.3 82.6" xml:space="preserve">
<g>
	<g>
		<path fill="#58595B" d="M0,41.5v-0.2C0,18.7,17,0.1,41.1,0.1c14.7,0,23.6,5.1,31.2,12.4l-9,10.3C56.9,17,50.1,13,41,13
			c-15.1,0-26.3,12.5-26.3,28.1v0.2c0,15.6,11,28.2,26.3,28.2c9.8,0,16.1-3.9,22.9-10.2l9,9.1c-8.3,8.6-17.4,14.1-32.3,14.1
			C17.3,82.5,0,64.4,0,41.5z"/>
		<path fill="#58595B" d="M78.9,41.5v-0.2C78.9,18.8,96.2,0,120.7,0c24.5,0,41.6,18.6,41.6,41v0.2c0,22.5-17.3,41.3-41.8,41.3
			C96,82.5,78.9,63.9,78.9,41.5z M147.6,41.5v-0.2c0-15.5-11.3-28.4-27.1-28.4c-15.8,0-26.9,12.7-26.9,28.2v0.2
			c0,15.5,11.3,28.3,27.1,28.3C136.5,69.5,147.6,57,147.6,41.5z"/>
		<path fill="#58595B" d="M175.3,0h13.4l44.2,57V0h14.3v82.5H235l-45.5-58.7v58.7h-14.3V0z"/>
		<path fill="#58595B" d="M287.8,13.5h-26.2V0h66.9v13.4h-26.2v69h-14.6V13.5z"/>
		<path fill="#58595B" d="M343.3,0h61.2v13h-46.7v21.5h41.4v13h-41.4v22.2H405v13h-61.8V0z"/>
		<path fill="#58595B" d="M415.5,41.5v-0.2C415.5,19,432.6,0,456.6,0c13.9,0,22.4,3.9,30.7,10.8l-8.9,10.6
			c-6.1-5.2-12.2-8.5-22.3-8.5c-14.7,0-25.9,12.9-25.9,28.1v0.2c0,16.4,10.8,28.5,27.1,28.5c7.5,0,14.4-2.4,19.2-6V48.8h-20.4V36.6
			h34v33.5c-7.9,6.7-19.1,12.4-33.3,12.4C431.9,82.5,415.5,64.7,415.5,41.5z"/>
		<path fill="#58595B" d="M508.4,0h14.5v82.5h-14.5V0z"/>
		<g>
			<g>
				<linearGradient id="SVGID_1_" gradientUnits="userSpaceOnUse" x1="536.77" y1="41.2637" x2="618.9555" y2="41.2637">
					<stop  offset="0" style="stop-color:#3A8A3A"/>
					<stop  offset="0.1454" style="stop-color:#67A13E"/>
					<stop  offset="0.2331" style="stop-color:#7AAC40"/>
					<stop  offset="0.2853" style="stop-color:#87B541"/>
					<stop  offset="0.4251" style="stop-color:#A5C742"/>
					<stop  offset="0.5153" style="stop-color:#B3D143"/>
					<stop  offset="0.6614" style="stop-color:#94BD41"/>
					<stop  offset="0.7853" style="stop-color:#79AC3F"/>
					<stop  offset="1" style="stop-color:#438E3B"/>
				</linearGradient>
				<path fill="url(#SVGID_1_)" d="M619,0.1l-56.8,82.4h-25.4l56.8-82.4H619z"/>
			</g>
			<g>
				<linearGradient id="SVGID_2_" gradientUnits="userSpaceOnUse" x1="537.354" y1="17.709" x2="573.602" y2="17.709">
					<stop  offset="0" style="stop-color:#075D98"/>
					<stop  offset="0.1354" style="stop-color:#09609B"/>
					<stop  offset="0.3245" style="stop-color:#106AA5"/>
					<stop  offset="0.5443" style="stop-color:#1779B5"/>
					<stop  offset="0.589" style="stop-color:#187DB9"/>
					<stop  offset="1" style="stop-color:#0091C9"/>
				</linearGradient>
				<path fill="url(#SVGID_2_)" d="M560.8,35.3L537.4,0.1l25.9,0l10.3,16.5L560.8,35.3z"/>
			</g>
			<g>
				<linearGradient id="SVGID_3_" gradientUnits="userSpaceOnUse" x1="582.4575" y1="64.4378" x2="619.5385" y2="64.4378">
					<stop  offset="0" style="stop-color:#EA148C"/>
					<stop  offset="0.5153" style="stop-color:#AE1B6A"/>
					<stop  offset="0.5406" style="stop-color:#AA1B68"/>
					<stop  offset="0.7196" style="stop-color:#931C5A"/>
					<stop  offset="0.8785" style="stop-color:#851C52"/>
					<stop  offset="1" style="stop-color:#801C50"/>
				</linearGradient>
				<path fill="url(#SVGID_3_)" d="M595.4,46.3l24.2,36.2l-25.9,0.1l-11.2-17.5L595.4,46.3z"/>
			</g>
		</g>
	</g>
	<g>
		<path fill="#58595B" d="M627.9,7.2L627.9,7.2c0-4,3.2-7.2,7.2-7.2c4,0,7.2,3.2,7.2,7.2v0c0,3.9-3.2,7.2-7.2,7.2
			C631.1,14.4,627.9,11.1,627.9,7.2z M641.4,7.2L641.4,7.2c0-3.5-2.7-6.4-6.3-6.4c-3.6,0-6.3,2.9-6.3,6.4v0c0,3.5,2.7,6.4,6.3,6.4
			C638.7,13.6,641.4,10.7,641.4,7.2z M632.3,3.4h3.3c1.6,0,2.8,0.8,2.8,2.3c0,1.2-0.7,1.9-1.7,2.2l1.9,2.8H637l-1.7-2.5h-1.5v2.5
			h-1.4V3.4z M635.5,7c0.9,0,1.5-0.5,1.5-1.2c0-0.8-0.5-1.2-1.5-1.2h-1.8V7H635.5z"/>
	</g>
</g>
</svg>
