<?xml version="1.0" encoding="utf-8"?>
<!-- Generator: Adobe Illustrator 21.0.2, SVG Export Plug-In . SVG Version: 6.00 Build 0)  -->
<svg version="1.1" xmlns="http://www.w3.org/2000/svg" xmlns:xlink="http://www.w3.org/1999/xlink" x="0px" y="0px"
	 viewBox="0 0 360 152" enable-background="new 0 0 360 152" xml:space="preserve">
<g id="work" display="none">
	<g id="logo_v3__x28_stroke_x29_" display="inline">
		<g id="logo-8pt-stroke">
		</g>
		<g id="logo-9pt-stroke">
		</g>
	</g>
</g>
<g id="white">
</g>
<g id="purple">
	<g>
		<g>
			<path fill="#430096" d="M100.8,36H43.2c-3.976,0-7.2,3.224-7.2,7.2v65.6c0,3.976,3.224,7.2,7.2,7.2h57.6
				c3.976,0,7.2-3.224,7.2-7.2V43.2C108,39.224,104.776,36,100.8,36z M104,108.8c0,1.764-1.435,3.2-3.2,3.2H43.2
				c-1.764,0-3.2-1.436-3.2-3.2V43.2c0-1.765,1.436-3.2,3.2-3.2h57.6c1.765,0,3.2,1.435,3.2,3.2V108.8z"/>
			<polygon fill="#430096" points="54,104 63,96 54,88 			"/>
			<path fill="#430096" d="M86.517,71.575C84.905,69.944,81.945,68,77,68c-5.423,0-11.006,1.411-15,2.711V48h-8v34.692l5.651-2.56
				C59.742,80.091,68.866,76,77,76c4.062,0,4.961,2.243,5,4.11V104h8l0-24C90.005,79.488,89.958,75.055,86.517,71.575z"/>
			<path fill="#430096" d="M76,61h8c3.618-4.1,5.46-8.456,6-13h-8C81.118,52.534,79.144,56.875,76,61z"/>
		</g>
		<g>
			<path fill="#430096" d="M126,62.047h7.975v10.965h9.809V62.047h7.976v29.508h-7.976V79.632h-9.809v11.923H126V62.047z"/>
			<path fill="#430096" d="M162.032,62.047h21.054v6.62h-13.079v4.785h9.331v6.221h-9.331v5.462h13.758v6.42h-21.732V62.047z"/>
			<path fill="#430096" d="M192.524,62.047h11.524c7.576,0,12.202,2.513,12.202,9.61c0,4.625-1.955,7.298-5.822,8.612l6.26,11.286
				h-8.453l-5.702-10.247h-2.193v10.247h-7.815V62.047z M203.768,75.245c3.27,0,4.705-0.917,4.705-3.389s-1.435-3.35-4.705-3.35
				h-3.429v6.739H203.768z"/>
			<path fill="#430096" d="M224.57,76.8c0-10.804,7.376-15.312,14.514-15.312c7.098,0,14.475,4.508,14.475,15.312
				c0,10.807-7.377,15.312-14.475,15.312C231.946,92.112,224.57,87.606,224.57,76.8z M245.583,76.8c0-5.423-2.353-8.731-6.499-8.731
				c-4.187,0-6.539,3.309-6.539,8.731c0,5.425,2.353,8.933,6.539,8.933C243.231,85.733,245.583,82.225,245.583,76.8z"/>
			<path fill="#430096" d="M262.437,62.047h7.975v10.687l8.135-10.687h9.251l-9.93,11.643l10.807,17.864h-9.012l-6.977-11.804
				l-2.273,2.632v9.172h-7.975V62.047z"/>
			<path fill="#430096" d="M296.037,79.712V62.047h7.975v17.626c0,4.065,1.316,5.9,4.507,5.9c3.189,0,4.465-1.834,4.465-5.9V62.047
				h7.815v17.665c0,7.817-3.748,12.281-12.361,12.281C299.825,91.993,296.037,87.529,296.037,79.712z"/>
		</g>
	</g>
</g>
</svg>
