<?xml version="1.0" encoding="utf-8"?>
<!-- Generator: Adobe Illustrator 21.0.2, SVG Export Plug-In . SVG Version: 6.00 Build 0)  -->
<svg version="1.1" id="Layer_1" xmlns="http://www.w3.org/2000/svg" xmlns:xlink="http://www.w3.org/1999/xlink" x="0px" y="0px"
	 viewBox="0 0 422.8 99.5" enable-background="new 0 0 422.8 99.5" xml:space="preserve">
<g>
	<g>
		<g>
			<path fill="#EC3F2E" d="M41.6,48.3c-0.3,0-0.6,0-0.9,0c-0.1,2.3-0.6,4.5-1.3,6.6c0.7,0.1,1.5,0.1,2.3,0.1
				c12.4,0,22.5-9.9,22.8-22.2c-2.6,0.3-5,1.3-7.1,2.8C55.7,42.8,49.3,48.3,41.6,48.3z"/>
		</g>
	</g>
	<g>
		<g>
			<path fill="#971D38" d="M43.6,46.9C43.6,46.9,43.6,46.9,43.6,46.9c2.3-0.2,4.4-1.1,6.2-2.3c1.7-6.8,7.4-12.1,14.5-12.9
				c-0.1-2.6-0.5-5-1.4-7.3C52,26,43.6,35.5,43.6,46.9z"/>
		</g>
	</g>
	<g>
		<g>
			<path fill="#F69831" d="M66.5,65.7c-7.4,0-13.6-4.6-16-11.2c-1.6,0.6-3.2,1.1-4.9,1.4c3.5,8.1,11.6,13.8,21,13.8V65.7z"/>
		</g>
	</g>
	<g>
		<g>
			<path fill="#106898" d="M16.7,69.7c12.6,0,22.8-10.2,22.8-22.8c0-8.6-4.8-16.1-11.8-20c-0.6,1.7-1,3.5-1,5.3
				c0,0.9,0.1,1.8,0.2,2.7c4.2,3.1,6.8,8.1,6.8,13.7c0,9.4-7.7,17.1-17.1,17.1V69.7z"/>
		</g>
	</g>
	<g>
		<g>
			<path fill="#1E994B" d="M32,52.9c0.4-1.4,0.6-2.8,0.6-4.3c0-1.1-0.1-2.2-0.3-3.3c-4.1-2.9-6.7-7.7-6.7-13.1
				c0-2.1,0.4-4.1,1.1-5.9c-2-1-4.2-1.7-6.4-2c-0.9,2.5-1.4,5.1-1.4,7.9C18.8,41.3,24.2,49.3,32,52.9z"/>
		</g>
	</g>
</g>
<g>
	<g>
		<path fill="none" stroke="#EC412F" stroke-miterlimit="10" d="M51,55.9"/>
	</g>
</g>
<g>
	<g>
		<path fill="none" stroke="#EC412F" stroke-miterlimit="10" d="M45.5,55.9"/>
	</g>
</g>
<g>
	<g>
		<g>
			<path fill="#010101" d="M81.4,31.9h7.4l7.4,18.8c0.9,2.2,1.9,5.6,1.9,5.6h0.1c0,0,1-3.3,1.9-5.6l7.4-18.8h7.4l3,37.9h-6.8
				l-1.6-21.2c-0.2-2.5-0.1-5.9-0.1-5.9h-0.1c0,0-1.1,3.7-2,5.9l-6.1,14.7h-6L89,48.6c-0.9-2.2-2.1-5.9-2.1-5.9h-0.1
				c0,0,0.1,3.4-0.1,5.9l-1.6,21.2h-6.9L81.4,31.9z"/>
		</g>
	</g>
	<g>
		<g>
			<path fill="#010101" d="M134.9,41.9c8.3,0,15,5.9,15,14.3c0,8.4-6.7,14.3-15,14.3c-8.3,0-15-5.9-15-14.3
				C120,47.9,126.6,41.9,134.9,41.9z M135,64.7c4.4,0,8.1-3.4,8.1-8.5c0-5-3.7-8.5-8.1-8.5c-4.4,0-8.1,3.5-8.1,8.5
				C126.9,61.3,130.5,64.7,135,64.7z"/>
		</g>
	</g>
	<g>
		<g>
			<path fill="#010101" d="M165.6,41.9c6,0,7.9,3.5,7.9,3.5h0.1c0,0-0.1-0.7-0.1-1.6v-12h6.8v37.9h-6.4v-2.2c0-1,0.1-1.8,0.1-1.8
				h-0.1c0,0-2.3,4.6-8.5,4.6c-7.4,0-12.1-5.8-12.1-14.3C153.2,47.5,158.4,41.9,165.6,41.9z M166.9,64.7c3.5,0,6.8-2.6,6.8-8.6
				c0-4.2-2.2-8.4-6.8-8.4c-3.7,0-6.8,3-6.8,8.4C160.1,61.4,162.9,64.7,166.9,64.7z"/>
		</g>
	</g>
	<g>
		<g>
			<path fill="#010101" d="M184.9,42.6h6.8v16.1c0,3.3,0.9,5.6,4.2,5.6c4.9,0,7.6-4.3,7.6-9.2V42.6h6.8v27.3h-6.5v-3.1
				c0-1.1,0.1-1.9,0.1-1.9h-0.1c-1.3,2.8-4.8,5.7-9.5,5.7c-5.8,0-9.5-2.9-9.5-10.4V42.6z"/>
		</g>
	</g>
	<g>
		<g>
			<path fill="#010101" d="M217.3,61.7c0,0,3,3,7.4,3c1.9,0,3.6-0.9,3.6-2.5c0-4.1-13.2-3.5-13.2-12.3c0-5.1,4.5-8,10.4-8
				c6.1,0,9.1,3.1,9.1,3.1l-2.5,5c0,0-2.5-2.4-6.7-2.4c-1.8,0-3.5,0.7-3.5,2.5c0,3.8,13.3,3.4,13.3,12.1c0,4.5-4,8.2-10.4,8.2
				c-6.8,0-10.6-4-10.6-4L217.3,61.7z"/>
		</g>
	</g>
	<g>
		<g>
			<path fill="#010101" d="M268.8,31.2c9.2,0,14,5.2,14,5.2l-3.3,5.1c0,0-4.3-4-10.4-4c-8,0-12.7,6-12.7,13
				c0,7.2,4.9,13.6,12.8,13.6c6.6,0,11-4.8,11-4.8l3.6,5c0,0-5.2,6.1-14.9,6.1c-11.6,0-19.6-8.6-19.6-19.8
				C249.3,39.7,257.6,31.2,268.8,31.2z"/>
		</g>
	</g>
	<g>
		<g>
			<path fill="#010101" d="M287.5,42.6h6.5v4.7c0,1-0.1,1.9-0.1,1.9h0.1c1.2-3.9,4.5-7,8.7-7c0.6,0,1.2,0.1,1.2,0.1V49
				c0,0-0.7-0.1-1.6-0.1c-2.9,0-6.1,1.7-7.4,5.7c-0.4,1.3-0.6,2.8-0.6,4.4v10.8h-6.8V42.6z"/>
		</g>
	</g>
	<g>
		<g>
			<path fill="#010101" d="M319.6,41.9c7.8,0,12.1,5.7,12.1,12.9c0,0.8-0.2,2.6-0.2,2.6h-18.8c0.4,4.8,4.1,7.2,8.2,7.2
				c4.4,0,7.9-3,7.9-3l2.6,4.9c0,0-4.2,3.9-11,3.9c-9,0-14.6-6.5-14.6-14.3C305.7,47.8,311.4,41.9,319.6,41.9z M324.8,52.8
				c-0.1-3.7-2.4-5.7-5.4-5.7c-3.5,0-5.9,2.1-6.5,5.7H324.8z"/>
		</g>
	</g>
	<g>
		<g>
			<path fill="#010101" d="M351.1,52.7h0.9v-0.4c0-3.6-2.2-4.8-5.2-4.8c-3.9,0-7.5,2.6-7.5,2.6l-2.6-4.9c0,0,4.2-3.4,10.7-3.4
				c7.2,0,11.3,4,11.3,10.8v17h-6.3v-2.2c0-1.1,0.1-1.9,0.1-1.9h-0.1c0.1,0-2.1,4.8-8.3,4.8c-4.9,0-9.3-3.1-9.3-8.5
				C334.9,53.3,346.6,52.7,351.1,52.7z M345.9,65.2c3.6,0,6.1-3.8,6.1-7.2v-0.6h-1.2c-3.5,0-9.1,0.5-9.1,4.3
				C341.8,63.5,343.1,65.2,345.9,65.2z"/>
		</g>
	</g>
	<g>
		<g>
			<path fill="#010101" d="M365.1,48.4h-3.5V43h3.7v-7.9h6.6V43h6.2v5.4h-6.2V59c0,4.5,3.5,5.1,5.4,5.1c0.7,0,1.2-0.1,1.2-0.1v5.9
				c0,0-0.8,0.2-2.1,0.2c-3.8,0-11.3-1.1-11.3-10.3V48.4z"/>
		</g>
	</g>
	<g>
		<g>
			<path fill="#010101" d="M394.9,41.9c7.9,0,12.1,5.7,12.1,12.9c0,0.8-0.2,2.6-0.2,2.6H388c0.4,4.8,4.1,7.2,8.2,7.2
				c4.4,0,7.9-3,7.9-3l2.6,4.9c0,0-4.2,3.9-11,3.9c-9,0-14.6-6.5-14.6-14.3C381,47.8,386.7,41.9,394.9,41.9z M400.1,52.8
				c-0.1-3.7-2.4-5.7-5.4-5.7c-3.5,0-5.9,2.1-6.5,5.7H400.1z"/>
		</g>
	</g>
</g>
</svg>
