<?xml version="1.0" encoding="utf-8"?>
<!-- Generator: Adobe Illustrator 21.0.2, SVG Export Plug-In . SVG Version: 6.00 Build 0)  -->
<svg version="1.1" id="Layer_1" xmlns="http://www.w3.org/2000/svg" xmlns:xlink="http://www.w3.org/1999/xlink" x="0px" y="0px"
	 viewBox="0 0 150 30.1" enable-background="new 0 0 150 30.1" xml:space="preserve">
<g>
	<g>
		<path fill="#323D3F" d="M47.8,2h8.2c5.1,0,7.6,3,7.6,8.1c0,3.8-1.4,6.3-4,7.6l4.1,10.4h-4.2l-3.6-9.5c-0.2,0-0.4,0-0.6,0h-3.6v9.5
			h-3.9V2z M51.7,5.4v9.7h3.8c2.6,0,4.1-1.7,4.1-4.9c0-3.1-1.3-4.8-4.1-4.8H51.7z"/>
		<path fill="#323D3F" d="M67.4,15c0-9.4,3-13.5,9.3-13.5C83.2,1.5,86,5.6,86,15c0,9.4-3,13.6-9.3,13.6C70.2,28.6,67.4,24.4,67.4,15
			z M71.4,15.1c0,7.6,1.8,10.1,5.3,10.1c3.5,0,5.3-2.4,5.3-10.2c0-7.6-1.8-10-5.3-10C73.2,5,71.4,7.3,71.4,15.1z"/>
		<path fill="#323D3F" d="M90.1,15c0-9.6,3.1-13.5,9.3-13.5c3.9,0,6.8,1.6,8,6.7L104,9.4c-0.8-3.3-2.3-4.4-4.6-4.4
			C96,5,94.1,7.2,94.1,15c0,7.9,1.9,10.1,5.4,10.1c2.2,0,3.9-1.2,4.9-4.6l3.3,1.4c-1.3,4.6-4.3,6.6-8.3,6.6
			C93.1,28.6,90.1,24.6,90.1,15z"/>
		<path fill="#323D3F" d="M111.8,2h8.2c5.1,0,7.6,3,7.6,8.1c0,3.8-1.4,6.3-4,7.6l4.1,10.4h-4.2l-3.6-9.5c-0.2,0-0.4,0-0.6,0h-3.6
			v9.5h-3.9V2z M115.7,5.4v9.7h3.8c2.6,0,4.1-1.7,4.1-4.9c0-3.1-1.3-4.8-4.1-4.8H115.7z"/>
		<path fill="#323D3F" d="M131.4,15c0-9.4,3-13.5,9.3-13.5c6.5,0,9.3,4.1,9.3,13.5c0,9.4-3,13.6-9.3,13.6
			C134.2,28.6,131.4,24.4,131.4,15z M135.4,15.1c0,7.6,1.8,10.1,5.3,10.1c3.5,0,5.3-2.4,5.3-10.2c0-7.6-1.8-10-5.3-10
			C137.2,5,135.4,7.3,135.4,15.1z"/>
	</g>
	<g>
		<path opacity="0.4" fill="#323D3F" d="M9,30.1L9,30.1c-2.1,0-3.1-1.7-2.4-3.8l8.2-22.5C15.6,1.7,17.9,0,20,0h0
			c2.1,0,3.1,1.7,2.4,3.8l-8.2,22.5C13.4,28.4,11.1,30.1,9,30.1z"/>
		<path fill="#323D3F" d="M6.6,26.3l8.1-22.4l1-2.6C16,0.6,15.6,0,14.9,0h-2.5c-2.1,0-4.4,1.7-5.1,3.8L0.5,22.5
			c-1.5,4.1,0.6,7.5,4.8,7.5H9C6.9,30.1,5.9,28.4,6.6,26.3z"/>
		<path fill="#323D3F" d="M23.7,0H20c2.1,0,3.1,1.7,2.4,3.8l-2,5.5v0l-4.8,13.2c-1.5,4.1,0.6,7.5,4.8,7.5H24c-2.1,0-3.1-1.7-2.4-3.8
			L25.8,15l2.7-7.5C30,3.4,27.9,0,23.7,0z"/>
		<path opacity="0.4" fill="#323D3F" d="M24,30.1L24,30.1c-2.1,0-3.1-1.7-2.4-3.8L25.8,15h3.8c2.1,0,3.1,1.7,2.4,3.8l-2.7,7.5
			C28.4,28.4,26.1,30.1,24,30.1z"/>
	</g>
</g>
</svg>
