<?xml version="1.0" encoding="utf-8"?>
<!-- Generator: Adobe Illustrator 21.0.2, SVG Export Plug-In . SVG Version: 6.00 Build 0)  -->
<svg version="1.1" id="Layer_1" xmlns="http://www.w3.org/2000/svg" xmlns:xlink="http://www.w3.org/1999/xlink" x="0px" y="0px"
	 viewBox="0 0 68 97" enable-background="new 0 0 68 97" xml:space="preserve">
<g>
	<path fill="#8DCF3F" d="M36.3,0l1,0C57,0.3,68.3,16.8,68,40.4c-0.5,34.2-19.6,57-46.1,56.6L9,96.8C3.4,84.2-0.2,67.8,0,50
		C0.5,18.7,13.3-0.3,36.3,0z"/>
	<g>
		<path fill="#FFFFFF" d="M10.5,66.1c-0.3-0.2-0.6-0.6-0.6-1c0-0.7,0.5-1.2,1.2-1.2c0.2,0,0.4,0.1,0.6,0.2c1,0.6,2,1,2.9,1
			c0.9,0,1.3-0.3,1.3-0.8v0c0-0.7-1-0.9-2.2-1.2c-1.5-0.4-3.2-1.1-3.2-3.2v0c0-2.2,1.8-3.4,3.9-3.4c1.1,0,2.3,0.3,3.3,0.8
			c0.4,0.2,0.7,0.6,0.7,1.1c0,0.7-0.5,1.2-1.2,1.2c-0.2,0-0.4,0-0.6-0.1c-0.9-0.4-1.7-0.7-2.3-0.7c-0.7,0-1.1,0.3-1.1,0.7v0
			c0,0.6,1,0.9,2.2,1.3c1.5,0.5,3.2,1.2,3.2,3.2v0c0,2.4-1.8,3.5-4.1,3.5C13.2,67.4,11.8,67,10.5,66.1z"/>
		<path fill="#FFFFFF" d="M20.6,53.8c0-0.9,0.7-1.4,1.7-1.4c1,0,1.7,0.5,1.7,1.4v0c0,0.9-0.7,1.4-1.7,1.4
			C21.4,55.3,20.6,54.8,20.6,53.8L20.6,53.8z M20.8,57.8c0-0.8,0.7-1.5,1.5-1.5c0.8,0,1.5,0.7,1.5,1.5v7.9c0,0.8-0.7,1.5-1.5,1.5
			c-0.8,0-1.5-0.7-1.5-1.5V57.8z"/>
		<path fill="#FFFFFF" d="M27,64.1V59h-0.1c-0.7,0-1.3-0.6-1.3-1.3c0-0.7,0.6-1.3,1.3-1.3H27v-1.3c0-0.8,0.7-1.5,1.5-1.5
			c0.8,0,1.5,0.7,1.5,1.5v1.3h1.3c0.7,0,1.3,0.6,1.3,1.3c0,0.7-0.6,1.3-1.3,1.3H30v4.6c0,0.7,0.3,1,1,1c0.1,0,0.3,0,0.4,0
			c0.7,0,1.3,0.6,1.3,1.3c0,0.5-0.4,1-0.8,1.1c-0.6,0.2-1.1,0.3-1.7,0.3C28.2,67.3,27,66.6,27,64.1z"/>
		<path fill="#FFFFFF" d="M39.4,67.4c-3.2,0-5.6-2.3-5.6-5.6v0c0-3.1,2.2-5.6,5.3-5.6c3.6,0,5.2,2.9,5.2,5.2c0,0.9-0.6,1.5-1.4,1.5
			h-6c0.3,1.4,1.3,2.1,2.6,2.1c0.8,0,1.5-0.3,2.2-0.7c0.2-0.2,0.4-0.2,0.7-0.2c0.7,0,1.2,0.5,1.2,1.2c0,0.4-0.2,0.7-0.4,0.9
			C42.2,66.9,40.9,67.4,39.4,67.4z M41.3,60.9c-0.2-1.4-1-2.3-2.3-2.3c-1.3,0-2.1,0.9-2.3,2.3H41.3z"/>
		<path fill="#FFFFFF" d="M10.9,71.1c0-0.8,0.7-1.5,1.5-1.5c0.8,0,1.5,0.7,1.5,1.5v11.8c0,0.8-0.7,1.5-1.5,1.5
			c-0.8,0-1.5-0.7-1.5-1.5V71.1z"/>
		<path fill="#FFFFFF" d="M21.2,84.6c-3.2,0-5.6-2.3-5.6-5.6v0c0-3.1,2.2-5.6,5.3-5.6c3.6,0,5.2,2.9,5.2,5.2c0,0.9-0.6,1.5-1.4,1.5
			h-6c0.3,1.4,1.3,2.1,2.6,2.1c0.8,0,1.5-0.3,2.2-0.7c0.2-0.2,0.4-0.2,0.7-0.2c0.7,0,1.2,0.5,1.2,1.2c0,0.4-0.2,0.7-0.4,0.9
			C24,84.1,22.7,84.6,21.2,84.6z M23.1,78.1c-0.2-1.4-1-2.3-2.3-2.3c-1.3,0-2.1,0.9-2.3,2.3H23.1z"/>
		<path fill="#FFFFFF" d="M26.8,81.3L26.8,81.3c0-2.4,1.8-3.5,4.3-3.5c1.1,0,1.9,0.2,2.6,0.4V78c0-1.3-0.8-2-2.3-2
			c-0.8,0-1.5,0.1-2.1,0.3c-0.2,0.1-0.3,0.1-0.4,0.1c-0.7,0-1.3-0.5-1.3-1.2c0-0.5,0.3-1,0.8-1.2c1-0.4,2-0.6,3.4-0.6
			c1.7,0,2.9,0.4,3.6,1.2c0.8,0.8,1.2,2,1.2,3.4V83c0,0.8-0.7,1.5-1.5,1.5c-0.9,0-1.5-0.6-1.5-1.3v0C33,84,32,84.5,30.5,84.5
			C28.5,84.5,26.8,83.4,26.8,81.3z M33.8,80.6V80c-0.5-0.2-1.2-0.4-1.9-0.4c-1.3,0-2.1,0.5-2.1,1.5v0c0,0.8,0.7,1.3,1.7,1.3
			C32.8,82.4,33.8,81.7,33.8,80.6z"/>
		<path fill="#FFFFFF" d="M39,76.2h-0.1c-0.7,0-1.3-0.5-1.3-1.2s0.6-1.3,1.3-1.3H39V73c0-1.2,0.3-2,0.9-2.6c0.6-0.6,1.4-0.8,2.5-0.8
			c0.5,0,0.9,0,1.2,0.1c0.5,0.1,1,0.5,1,1.2c0,0.7-0.6,1.3-1.2,1.3h-0.3c-0.7,0-1.1,0.4-1.1,1.2v0.4h1.3c0.7,0,1.3,0.5,1.3,1.2
			s-0.6,1.2-1.3,1.2h-1.3v6.7c0,0.8-0.7,1.5-1.5,1.5c-0.8,0-1.5-0.7-1.5-1.5V76.2z"/>
	</g>
</g>
</svg>
