<?xml version="1.0" encoding="utf-8"?>
<!-- Generator: Adobe Illustrator 21.0.2, SVG Export Plug-In . SVG Version: 6.00 Build 0)  -->
<svg version="1.1" id="Layer_1" xmlns="http://www.w3.org/2000/svg" xmlns:xlink="http://www.w3.org/1999/xlink" x="0px" y="0px"
	 viewBox="0 0 80 100.7" enable-background="new 0 0 80 100.7" xml:space="preserve">
<g>
	<g>
		<g>
			<path fill="#D41F37" d="M79.6,39.6c0,21.9-17.7,39.6-39.6,39.6c-21.9,0-39.6-17.7-39.6-39.6C0.4,17.7,18.2,0,40,0
				C61.9,0,79.6,17.7,79.6,39.6z M40,13.2c-14.6,0-26.4,11.8-26.4,26.4C13.6,54.2,25.4,66,40,66c14.6,0,26.4-11.8,26.4-26.4
				C66.4,25,54.6,13.2,40,13.2z"/>
			<g>
				<circle fill="#D41F37" cx="40" cy="39.6" r="13.6"/>
			</g>
		</g>
	</g>
	<g>
		<g>
			<path fill="#D41F37" d="M4.3,88.5H0v-2.7h11.9v2.7H7.5v11.8H4.3V88.5z"/>
			<path fill="#D41F37" d="M17.6,89.4L17.6,89.4l1.9,5.3h-3.8L17.6,89.4z M10.5,100.3h3.2l1.1-3.2h5.4l1.1,3.2h3.3l-5.4-14.5H16
				L10.5,100.3z"/>
			<path fill="#D41F37" d="M29.2,88.3h3.5c1.4,0,2.2,0.6,2.2,2c0,1.5-0.8,2.1-2.2,2.1h-3.5V88.3z M26,100.3h3.2v-5.7h3.2
				c1.6,0,2.2,0.7,2.4,2.2c0.2,1.2,0.1,2.6,0.5,3.5h3.2c-0.6-0.8-0.5-2.5-0.6-3.4c-0.1-1.5-0.6-3-2.1-3.4v0c1.6-0.6,2.3-1.9,2.3-3.6
				c0-2.2-1.6-4-4.2-4H26V100.3z"/>
			<path fill="#D41F37" d="M50.7,98.7c-1.1,1.5-2.6,2-4,2c-4.5,0-7.1-3.4-7.1-7.6c0-4.3,2.6-7.7,7.1-7.7c3,0,5.8,1.8,6.1,5.1h-3.1
				c-0.4-1.6-1.6-2.4-3.1-2.4c-2.9,0-3.9,2.4-3.9,5c0,2.4,1.1,4.9,3.9,4.9c2.1,0,3.3-1.1,3.5-3.1H47v-2.4h6.1v7.9h-2L50.7,98.7z"/>
			<path fill="#D41F37" d="M55.3,85.8h10.9v2.7h-7.7v3.1h7v2.5h-7v3.6h7.8v2.7h-11V85.8z"/>
			<path fill="#D41F37" d="M72.1,88.5h-4.3v-2.7h11.9v2.7h-4.3v11.8h-3.2V88.5z"/>
		</g>
		<g>
			<path fill="#D41F37" d="M76.8,98.7c0-0.9,0.7-1.6,1.6-1.6c0.9,0,1.6,0.7,1.6,1.6c0,0.9-0.7,1.6-1.6,1.6
				C77.5,100.3,76.8,99.6,76.8,98.7z M78.4,100c0.7,0,1.3-0.6,1.3-1.3c0-0.7-0.6-1.3-1.3-1.3c-0.7,0-1.3,0.6-1.3,1.3
				C77.1,99.5,77.7,100,78.4,100z"/>
			<g>
				<path fill="#D41F37" d="M77.7,99.6h0.4V99h0.4c0.2,0,0.3,0.1,0.3,0.3c0,0.1,0,0.3,0.1,0.4h0.4c-0.1-0.1-0.1-0.3-0.1-0.4
					c0-0.2-0.1-0.3-0.2-0.4v0c0.2-0.1,0.3-0.2,0.3-0.4c0-0.3-0.2-0.5-0.5-0.5h-0.9V99.6z M78.1,98.2h0.4c0.2,0,0.3,0.1,0.3,0.2
					c0,0.2-0.1,0.2-0.3,0.2h-0.4V98.2z"/>
			</g>
		</g>
	</g>
</g>
</svg>
