<?xml version="1.0" encoding="utf-8"?>
<!-- Generator: Adobe Illustrator 21.0.2, SVG Export Plug-In . SVG Version: 6.00 Build 0)  -->
<svg version="1.1" id="Layer_1" xmlns="http://www.w3.org/2000/svg" xmlns:xlink="http://www.w3.org/1999/xlink" x="0px" y="0px"
	 viewBox="0 0 231.34 297.562" enable-background="new 0 0 231.34 297.562" xml:space="preserve">
<g>
	<g>
		<path fill="#C9354C" d="M56.288,99.558c0,0-35.785,25.188-37.185,34.784l2.685-0.552c0,0,42.853-28.404,76.823-31.868l0.77-4.311
			L56.288,99.558z"/>
		<path fill="#C9354C" d="M112.463,95.958l-28.188,19.993l1.524,1.223c1.149-0.927,50.07-15.868,50.07-15.868l10.314-6.467
			C139.263,95.701,112.463,95.958,112.463,95.958z"/>
		<path fill="#C9354C" d="M136.962,120.139c20.015,0,50.019-19.603,50.019-19.603l-9.699-1.846c-0.48,0.48-15.64-0.532-15.64-0.532
			l-7.196-1.999l-17.194,19.591l-1.399,3.399C137.088,118.649,136.962,120.139,136.962,120.139z"/>
	</g>
	<path fill="#C9354C" d="M202.277,182.657l-6.183,1.741l-28.57-0.617l-17.872-13.898l-21.601,5.404l-24.984-2.162l-13.99,15.288
		l-26.253,7.842l-13.108-4.064c-0.417-0.36-0.66-0.568-0.66-0.568l5.884,14.406c0,0,13.326,14.287,20.77,15.968
		c7.443,1.681,20.89-0.12,30.976-1.682c10.084-1.56,18.129-5.162,21.37-11.043c3.241-5.885,3.721-7.565,3.721-7.565
		s9.606,13.567,17.889,15.129c8.283,1.56,32.896-6.844,32.896-6.844s15.009-4.082,17.648-9.244c2.642-5.162,9.606-22.09,9.606-22.09
		L202.277,182.657z M52.464,194.393c-0.138-0.064-0.277-0.127-0.415-0.191c-0.984-0.85-1.79-1.544-2.315-1.997L52.464,194.393z"/>
	<g>
		<path fill="#F4EDB1" d="M226.547,80.598c-0.062-0.771-0.148-1.543-0.241-2.31c-0.067-0.544-0.153-1.112-0.247-1.638
			c-2.062-1.735-4.405-3.279-6.845-4.681c-2.643-1.545-5.41-2.927-8.233-4.212c-2.804-1.323-5.683-2.52-8.58-3.688
			c-1.446-0.587-2.903-1.155-4.368-1.699c-1.459-0.569-2.933-1.1-4.411-1.638c3.101,0.514,6.171,1.218,9.218,2.002
			c1.982,0.513,3.953,1.087,5.911,1.699c-13.929-36.403-47.23-60.11-83.59-60.11c-36.365,0-69.664,23.708-83.589,60.11
			c1.959-0.612,3.93-1.186,5.907-1.699c3.051-0.784,6.121-1.488,9.221-2.002c-1.482,0.538-2.952,1.069-4.416,1.638
			c-1.457,0.543-2.916,1.111-4.368,1.699c-2.896,1.168-5.769,2.365-8.579,3.688c-2.817,1.285-5.585,2.668-8.229,4.212
			c-2.44,1.402-4.78,2.946-6.85,4.681c-0.086,0.526-0.173,1.094-0.241,1.638c-0.093,0.767-0.179,1.538-0.241,2.31
			c-0.135,1.551-0.19,3.108-0.204,4.671c-0.031,3.12,0.179,6.239,0.575,9.327c0.426,3.095,0.994,6.171,1.834,9.143
			c0.414,1.489,0.884,2.958,1.426,4.379c0.273,0.71,0.569,1.409,0.878,2.089c0.154,0.338,0.315,0.672,0.475,0.993l0.198,0.378
			c0.229,0.116,0.469,0.234,0.698,0.345l1.384,0.661c0.772,0.351,1.84,0.858,2.724,1.254c0.05-0.043,0.099-0.087,0.142-0.131
			l-2.571-9.79c0.545-0.149,5.425-1.409,13.837-3.009c-0.679-0.129-1.364-0.278-2.038-0.438c-1.915-0.476-3.806-1.057-5.634-1.799
			c-0.908-0.383-1.803-0.802-2.655-1.283c-0.854-0.489-1.693-1.044-2.342-1.781c9.241,3.015,28.336,1.649,45.309-0.105
			c15.524-1.599,31.084-2.637,46.724-2.668c15.642,0.03,31.207,1.069,46.724,2.668c16.981,1.754,36.076,3.12,45.315,0.105
			c-0.648,0.736-1.487,1.291-2.341,1.781c-0.852,0.481-1.747,0.9-2.655,1.283c-1.831,0.742-3.72,1.323-5.634,1.799
			c-0.284,0.068-0.57,0.13-0.854,0.191c9.223,1.711,14.592,3.101,15.166,3.256l-2.458,9.327c0.495-0.223,0.994-0.439,1.483-0.661
			l1.382-0.661c0.23-0.111,0.463-0.229,0.698-0.345l0.191-0.378c0.168-0.321,0.329-0.655,0.482-0.993
			c0.31-0.68,0.607-1.379,0.878-2.089c0.544-1.421,1.014-2.89,1.427-4.379c0.84-2.973,1.409-6.048,1.834-9.143
			c0.396-3.088,0.605-6.207,0.576-9.327C226.74,83.706,226.684,82.149,226.547,80.598z"/>
		<path fill="#E5CCAF" d="M135.646,210.06c-1.224,0.184-2.447,0.339-3.663,0.432c-0.785,0.037-1.614,0.117-2.367,0.117l-0.278,0.006
			c0.945-2.112,1.663-3.749,2.206-4.99C132.649,206.866,134.058,208.404,135.646,210.06z"/>
		<path fill="#E5CCAF" d="M138.306,212.771c3.8,3.763,8.507,5.917,13.69,6.3c-8.704,3.535-16.907,4.9-23.227,5.325
			c-6.299,0.422-12.686-0.32-18.945-2.037c0.525-0.094,0.908-0.161,1.371-0.217c0.514-0.063,11.737-1.526,16.796-9.049l0.474,0.011
			l1.242-0.011c0.841,0,1.605-0.069,2.408-0.1c1.909-0.166,3.776-0.438,5.61-0.808C137.919,212.382,138.109,212.574,138.306,212.771
			z"/>
		<path fill="#656C67" d="M149.074,100.131c-0.364,0.475-0.772,0.999-1.205,1.544c-2.223,2.811-5.306,6.405-8.963,9.921
			c-4.25-0.131-8.618-0.204-13.115-0.204c-7.43,0-14.553,0.196-21.317,0.525c9.557-3.966,21.041-7.84,33.475-10.168
			C141.58,101.063,145.298,100.514,149.074,100.131z"/>
		<path fill="#656C67" d="M93.134,104.411c-3.411,2.397-7.265,5.455-11.001,9.167c-9.569,0.958-17.915,2.118-24.802,3.231
			C67.919,111.942,80.001,107.463,93.134,104.411z"/>
		<path fill="#656C67" d="M210.042,124.165l-3.891,27.231l-18.644,13.059l-48.626-5.528l-7.319-24.105
			c-0.174-0.586-0.669-1.018-1.274-1.116c-1.803-0.291-3.396-0.439-4.724-0.439c-1.334,0-2.922,0.148-4.732,0.439
			c-0.6,0.099-1.093,0.53-1.272,1.116l-7.14,23.518l-48.354,10.761l-19.162-13.423l-3.776-30.557
			c0.822-0.464,1.657-0.927,2.502-1.39c1.185-0.255,2.52-0.525,3.997-0.81l3.558,28.835c0.055,0.45,0.304,0.852,0.673,1.112
			l13.182,9.236c0.272,0.185,0.593,0.283,0.915,0.283c0.116,0,0.229-0.011,0.352-0.038l39.755-8.845
			c0.136-0.031,0.272-0.08,0.396-0.142c0.37-0.197,0.661-0.536,0.784-0.951l7.159-23.572c1.92-0.494,6.839-1.643,11.162-1.643
			c4.312,0,9.234,1.149,11.157,1.643l7.159,23.572c0.185,0.611,0.718,1.049,1.353,1.124l39.756,4.517
			c0.385,0.042,0.779-0.058,1.095-0.278l13.189-9.229c0.357-0.253,0.598-0.65,0.659-1.088l3.521-24.634
			C206.095,123.327,208.307,123.789,210.042,124.165z"/>
		<path fill="#656C67" d="M214.953,107.087l-3.422,12.983c-6.998-1.543-22.375-4.571-43.302-6.609
			c6.837-2.916,13.8-6.572,20.161-11.144C200.843,104.077,209.986,105.962,214.953,107.087z"/>
		<g>
			<path fill="#E4C9A5" d="M74.757,147.707c2.711-1.465,5.775-1.248,10.568-1.241c0.514,0.012,1.044,0.006,1.599-0.006
				c0.471-0.006,0.945-0.013,1.446-0.025c4.941-0.048,9.049,0.421,8.976-7.338c-0.075-7.757-3.521-14.028-8.457-13.978
				c-4.941,0.042-9.722,6.399-9.427,14.151c0.08,2.02,0.377,3.477,0.854,4.528C76.011,144.877,74.824,147.54,74.757,147.707z
				 M134.162,115.796c-1.915,1.551-3.935,3.002-6.036,4.268l-7.011,4.232c-4.397,0.536-8.214,1.624-8.431,1.687
				c-0.129,0.036-0.252,0.091-0.364,0.161c-0.34,0.197-0.6,0.524-0.723,0.913l-7.14,23.529l-38.163,8.487l-12.02-8.419l-3.497-28.33
				c6.826-1.254,15.956-2.705,26.921-3.933c-1.175,1.409-2.317,2.884-3.398,4.434l-6.529,9.371l9.506-6.338
				c0.142-0.099,6.195-4.082,16.098-8.925c9.869-0.741,20.761-1.218,32.416-1.218C128.632,115.715,131.42,115.747,134.162,115.796z"
				/>
			<path fill="#E4C9A5" d="M175.95,144.526c-0.048-0.184-1.087-3.303-5.683-2.756c0.53-1.154,0.766-2.709,0.6-4.842
				c-0.607-7.74-5.109-13.892-10.045-13.72c-4.936,0.175-8.098,6.591-7.825,14.35c0.271,7.753,4.416,7.698,9.352,7.524
				C168.982,144.959,172.627,142.92,175.95,144.526z M200.307,122.234l-3.441,24.085l-12.12,8.486l-38.112-4.33l-7.11-23.418
				c-0.161-0.519-0.568-0.919-1.087-1.074c-0.235-0.069-4.954-1.415-9.957-1.848l0.914-0.061c0.79-0.056,13.936-1.668,29.632-7.08
				C176.408,118.328,190.602,120.466,200.307,122.234z"/>
		</g>
		<g>
			<path fill="#C6B29B" d="M74.757,147.707c2.711-1.465,5.775-1.248,10.568-1.241c0.514,0.012,1.044,0.006,1.599-0.006
				c0.471-0.006,0.945-0.013,1.446-0.025c4.941-0.048,9.049,0.421,8.976-7.338c-0.075-7.757-3.521-14.028-8.457-13.978
				c-4.941,0.042-9.722,6.399-9.427,14.151c0.08,2.02,0.377,3.477,0.854,4.528C76.011,144.877,74.824,147.54,74.757,147.707z
				 M134.162,115.796c-1.915,1.551-3.935,3.002-6.036,4.268l-7.011,4.232c-4.397,0.536-8.214,1.624-8.431,1.687
				c-0.129,0.036-0.252,0.091-0.364,0.161c-0.34,0.197-0.6,0.524-0.723,0.913l-7.14,23.529l-38.163,8.487l-12.02-8.419l-3.497-28.33
				c6.826-1.254,15.956-2.705,26.921-3.933c-1.175,1.409-2.317,2.884-3.398,4.434l-6.529,9.371l9.506-6.338
				c0.142-0.099,6.195-4.082,16.098-8.925c9.869-0.741,20.761-1.218,32.416-1.218C128.632,115.715,131.42,115.747,134.162,115.796z"
				/>
			<path fill="#C6B29B" d="M175.95,144.526c-0.048-0.184-1.087-3.303-5.683-2.756c0.53-1.154,0.766-2.709,0.6-4.842
				c-0.607-7.74-5.109-13.892-10.045-13.72c-4.936,0.175-8.098,6.591-7.825,14.35c0.271,7.753,4.416,7.698,9.352,7.524
				C168.982,144.959,172.627,142.92,175.95,144.526z M200.307,122.234l-3.441,24.085l-12.12,8.486l-38.112-4.33l-7.11-23.418
				c-0.161-0.519-0.568-0.919-1.087-1.074c-0.235-0.069-4.954-1.415-9.957-1.848l0.914-0.061c0.79-0.056,13.936-1.668,29.632-7.08
				C176.408,118.328,190.602,120.466,200.307,122.234z"/>
		</g>
		<path fill="#E5CCAF" d="M216.943,132.827c0.585,0.482,1.048,1.729,0.525,7.542c-0.643,7.116-3.634,19.606-5.487,21.62
			c-2.044,0.395-6.331-0.073-8.945-0.685c0.452-1.793,0.581-2.651,0.945-4.485l4.572-3.199c0.364-0.253,0.605-0.65,0.667-1.082
			l3.194-22.386C214.354,131.203,216.349,132.338,216.943,132.827z"/>
		<path fill="#E5CCAF" d="M48.417,162.045c0.229,0.81,0.469,1.618,0.718,2.415c-2.46,0.722-7.469,1.415-9.735,1.019
			c-1.878-1.892-5.381-14.911-6.147-21.824c-0.624-5.602-0.186-6.813,0.383-7.284c0.661-0.555,3.137-1.964,5.282-3.113l2.897,23.516
			c0.055,0.452,0.296,0.852,0.673,1.112L48.417,162.045z"/>
		<path fill="#E5CCAF" d="M140.889,162.373l-0.174,1.501c0,0-5.268,4.885-13.749,5.978c-8.482,1.093-15.147-4.119-15.147-4.119
			c0.278,0.907,0.674,2.952,2.595,4.699c-2.26-0.27-4.7-0.452-7.259-0.452c-0.925,0-1.859,0.027-2.761,0.07
			c-5.22,0.272-12.563,8.165-17.727,16.117c-2.533,0.802-10.453,3.316-19.619,6.022c-8.556-11.855-12.763-23.968-13.189-25.222
			l0.006-0.006c-0.173-0.481-0.346-0.965-0.507-1.459l2.2,1.538v0.006l5.435,3.805l1.817,1.266c0.271,0.192,0.592,0.291,0.913,0.291
			c0.118,0,0.235-0.012,0.351-0.036l49.95-11.12c0.56-0.124,1.013-0.544,1.179-1.093l7.123-23.449
			c1.23-0.167,2.309-0.253,3.236-0.253c0.921,0,2.008,0.086,3.237,0.253l7.331,24.146c0.187,0.611,0.718,1.057,1.347,1.124
			L140.889,162.373z"/>
		<path fill="#E5CCAF" d="M197.905,161.075l1.612-1.132c-0.267,1.119-0.557,2.231-0.859,3.33c-2.242,7.185-4.887,13.54-7.826,19.154
			c-0.65,0.045-1.336,0.07-2.07,0.07c-2.268,0-4.584-0.192-7.147-0.427c-4.448-0.408-11.508-1.216-13.738-1.476
			c-1.921-1.532-8.493-6.754-13.961-11.058c-0.215-0.174-0.4-0.335-0.581-0.483c-0.962-0.815-2.057-1.74-4.274-1.74
			c-2.014,0-4.955,0.733-12.063,2.884c3.693-2.761,3.718-6.325,3.718-6.325l0.174-1.501l46.86,5.323
			c0.381,0.044,0.777-0.055,1.099-0.277l4.708-3.299L197.905,161.075z"/>
		<path fill="#EBD49C" d="M163.417,62.487c0.142,4.169,0.038,11.724-1.903,18.796c-0.079,0.273-0.067,0.55,0,0.81
			c-2.47-0.259-4.941-0.482-7.413-0.68c2.774-5.813,3.379-12.002,3.51-14.182C159.741,65.718,161.861,63.902,163.417,62.487z"/>
		<path fill="#EBD49C" d="M92.714,67.231c0.129,2.18,0.734,8.357,3.503,14.165c-2.472,0.197-4.941,0.425-7.407,0.685
			c0.067-0.254,0.075-0.525,0-0.798c-1.939-7.059-2.038-14.621-1.902-18.796C88.464,63.902,90.577,65.718,92.714,67.231z"/>
		<path fill="#2D3135" d="M175.95,144.526c-3.323-1.606-6.968,0.433-13.602,0.557c-4.936,0.174-9.081,0.228-9.352-7.524
			c-0.273-7.759,2.89-14.175,7.825-14.35c4.936-0.172,9.438,5.98,10.045,13.72c0.167,2.132-0.069,3.688-0.6,4.842
			C174.863,141.222,175.902,144.341,175.95,144.526z M160.439,133.166c1.39-0.031,2.502-1.18,2.477-2.57
			c-0.024-1.396-1.173-2.508-2.571-2.476c-1.395,0.023-2.501,1.172-2.475,2.569C157.895,132.078,159.044,133.191,160.439,133.166z"
			/>
		<path fill="#EDF6FA" d="M162.916,130.596c0.025,1.39-1.087,2.539-2.477,2.57c-1.395,0.025-2.544-1.088-2.569-2.478
			c-0.026-1.396,1.08-2.545,2.475-2.569C161.743,128.089,162.892,129.2,162.916,130.596z"/>
		<path fill="#2D3135" d="M97.347,139.096c0.073,7.759-4.035,7.29-8.976,7.338c-0.501,0.012-0.975,0.019-1.446,0.025
			c-0.555,0.012-1.085,0.019-1.599,0.006c-4.794-0.006-7.857-0.224-10.568,1.241c0.067-0.167,1.254-2.83,5.56-3.91
			c-0.476-1.051-0.773-2.508-0.854-4.528c-0.295-7.753,4.485-14.109,9.427-14.151C93.825,125.068,97.272,131.339,97.347,139.096z
			 M89.717,135.038c1.39-0.036,2.49-1.199,2.453-2.589c-0.037-1.396-1.198-2.495-2.587-2.458c-1.397,0.036-2.498,1.198-2.46,2.587
			C87.16,133.976,88.322,135.075,89.717,135.038z"/>
		
			<ellipse transform="matrix(0.9997 -0.0257 0.0257 0.9997 -3.3756 2.3474)" fill="#EDF6FA" cx="89.648" cy="132.514" rx="2.525" ry="2.524"/>
		<g opacity="0.8">
			<path fill="#EBD49C" d="M59.635,86.429c0,0,0.767-9.995,2.334-13.826c0.808-1.975,5.746-3.231,9.517-4.13
				c3.769-0.897,9.785-2.693,10.952,2.604c1.167,5.297,3.05,9.157,4.308,10.863l-1.614-21.816l-25.946,6.284L57.48,85.711
				l0.808,1.527L59.635,86.429"/>
			<path fill="#EBD49C" d="M190.923,86.429c0,0-0.766-9.995-2.333-13.826c-0.809-1.975-5.746-3.231-9.516-4.13
				c-3.772-0.897-9.787-2.693-10.955,2.604c-1.165,5.297-3.052,9.157-4.31,10.863l1.618-21.816l25.947,6.284l1.706,19.304
				l-0.809,1.527L190.923,86.429"/>
		</g>
		<path opacity="0.75" fill="#EBD49C" d="M154.25,21.135c0,0-0.687,52.313-12.907,52.313c-12.22,0-14.663,0-14.663,0h-2.444
			c0,0-2.445,0-14.665,0s-13.208-52.29-13.208-52.29l-6.002,17.753l0.097,24.36l4.263,3.389l1.937,10.46l2.711,6.103l52.304,0.097
			l2.421-4.359l2.034-7.36l0.292-4.649l5.776-16.492L154.25,21.135z"/>
		<path opacity="0.75" fill="#EBD49C" d="M192.734,69.913c0,0,2.515,18.046,9.171,21.3c6.656,3.253,0,0,0,0l-9.318-2.81
			L192.734,69.913z"/>
		<path opacity="0.75" fill="#EBD49C" d="M57.584,69.913c0,0-2.515,18.046-9.171,21.3c-6.656,3.253,0,0,0,0l9.32-2.81L57.584,69.913
			z"/>
		<path fill="#2D3135" d="M194.525,88.32c3.168,1.037,6.355,2.137,9.242,3.823c-1.545-0.611-3.138-1.05-4.745-1.445
			c-1.599-0.408-3.212-0.754-4.831-1.062c-3.243-0.611-6.497-1.129-9.772-1.526c-3.267-0.426-6.54-0.785-9.828-1.063
			c-3.286-0.278-6.565-0.555-9.859-0.747c-13.163-0.809-26.363-1.012-39.571-1.026c-13.206,0.007-26.406,0.254-39.571,1.032
			c-3.292,0.191-6.572,0.47-9.858,0.748c-3.285,0.277-6.566,0.63-9.828,1.061c-3.274,0.396-6.529,0.915-9.772,1.526
			c-1.618,0.303-3.231,0.656-4.837,1.057c-1.599,0.396-3.2,0.834-4.744,1.445c2.886-1.686,6.073-2.791,9.247-3.83
			c0.267-0.086,0.537-0.16,0.809-0.246c-0.018-0.068-0.036-0.13-0.05-0.204c-0.055-0.364-1.229-9.038,0.816-21.441
			c0.099-0.593,0.525-1.075,1.106-1.236l3.354-0.956c0.729-26.019,11.445-38.256,11.78-38.633
			c-9.575,15.406-9.488,33.679-9.322,37.934l20.848-5.924c0.019-0.005,0.03-0.005,0.049-0.012c0.088-0.019,0.174-0.031,0.26-0.037
			c0.024,0,0.056-0.007,0.086-0.007c0.106-0.006,0.224,0.007,0.342,0.031c0.017,0,0.036,0.012,0.061,0.019
			c0.086,0.018,0.166,0.048,0.258,0.086c0.037,0.019,0.062,0.038,0.099,0.056c0.067,0.038,0.136,0.081,0.204,0.129
			c0.019,0.013,0.039,0.019,0.056,0.038c0.013,0.012,0.024,0.025,0.037,0.037c0.019,0.019,0.043,0.031,0.062,0.05
			c0.013,0.019,0.568,0.568,1.452,1.39c-0.209-6.869,0.118-26.575,9.501-42.906c-0.198,0.573-7.642,22.343-5.077,46.742
			c0.833,0.668,1.709,1.322,2.563,1.896c0.413,0.284,0.667,0.753,0.672,1.254c0.007,0.081,0.185,7.857,3.621,14.474
			c0.048,0.098,0.086,0.203,0.118,0.309c8.543-0.581,17.11-0.815,25.659-0.821c8.551,0.006,17.112,0.253,25.654,0.84
			c0.032-0.112,0.069-0.222,0.125-0.328c3.434-6.616,3.613-14.393,3.613-14.474c0.011-0.501,0.265-0.969,0.68-1.254
			c0.852-0.575,1.717-1.229,2.558-1.896c2.569-24.399-4.876-46.169-5.072-46.742c9.376,16.332,9.711,36.037,9.502,42.906
			c0.876-0.822,1.433-1.371,1.45-1.39c0.018-0.019,0.045-0.031,0.061-0.05c0.013-0.012,0.021-0.024,0.038-0.037
			c0.019-0.019,0.037-0.025,0.056-0.038c0.069-0.048,0.136-0.091,0.204-0.136c0.032-0.012,0.062-0.03,0.093-0.049
			c0.093-0.038,0.178-0.068,0.271-0.092c0.019,0,0.037-0.012,0.056-0.012c0.11-0.024,0.23-0.037,0.34-0.031
			c0.032,0,0.056,0.007,0.08,0.007c0.086,0.006,0.179,0.018,0.265,0.037c0.013,0.006,0.032,0.006,0.049,0.012l20.848,5.924
			c0.168-4.255,0.254-22.528-9.32-37.934c0.332,0.377,11.05,12.614,11.773,38.633l3.361,0.956c0.573,0.161,1.007,0.643,1.106,1.236
			c2.044,12.404,0.865,21.077,0.814,21.441c-0.011,0.074-0.03,0.142-0.049,0.209C193.987,88.153,194.253,88.233,194.525,88.32z
			 M190.733,87.207c0.161-1.388,0.908-8.981-0.68-19.322l-23.599-6.708c0.211,3.997,0.305,12.664-1.963,20.929
			c-0.03,0.099-0.067,0.198-0.116,0.297c0.233,0.024,0.469,0.043,0.697,0.073c6.634,0.76,13.238,1.822,19.767,3.255
			C186.81,86.189,188.781,86.677,190.733,87.207z M161.514,81.284c1.941-7.073,2.046-14.628,1.903-18.796
			c-1.556,1.415-3.676,3.231-5.806,4.744c-0.131,2.18-0.736,8.369-3.51,14.182c2.471,0.199,4.943,0.421,7.413,0.68
			C161.446,81.834,161.435,81.556,161.514,81.284z M96.216,81.396c-2.769-5.808-3.374-11.985-3.503-14.165
			c-2.137-1.513-4.25-3.329-5.806-4.744c-0.136,4.176-0.037,11.737,1.902,18.796c0.075,0.273,0.067,0.544,0,0.798
			C91.275,81.821,93.745,81.593,96.216,81.396z M85.944,82.39c-0.045-0.086-0.081-0.185-0.112-0.284
			c-2.272-8.265-2.173-16.932-1.969-20.929l-23.591,6.708c-1.587,10.329-0.846,17.921-0.686,19.316
			c1.958-0.531,3.923-1.02,5.9-1.477c3.261-0.722,6.547-1.327,9.84-1.884c3.299-0.549,6.609-0.969,9.92-1.371
			C85.48,82.439,85.708,82.422,85.944,82.39z"/>
		<g id="XMLID_1_">
			<g>
				<path fill="#2D3135" d="M150.035,21.806v19.579h-13.879v-5.72h-3.128v26.428h4.725v14.778h-24.276V62.093h4.706V35.665h-3.118
					v5.72h-13.869V21.806H150.035z M145.865,37.225V25.967h-6.045h-10.952h-23.51v11.258h5.538v-5.72h11.459v34.759h-4.715v6.447
					h15.945v-6.447h-4.715V31.505h11.459v5.72H145.865z"/>
				<polygon fill="#C9354C" points="145.865,25.967 145.865,37.225 140.327,37.225 140.327,31.505 128.868,31.505 128.868,66.263 
					133.584,66.263 133.584,72.71 117.639,72.71 117.639,66.263 122.355,66.263 122.355,31.505 110.896,31.505 110.896,37.225 
					105.358,37.225 105.358,25.967 128.868,25.967 139.82,25.967 				"/>
			</g>
			<g>
			</g>
		</g>
		<path fill="#656C67" d="M36.638,107.087c2.023-0.459,4.757-1.043,8.109-1.691c-2.06,1.405-4.496,3.167-7.156,5.286L36.638,107.087
			z"/>
		<path fill="#C6B29B" d="M110.717,160.747c0,0,0.566,3.64-4.528,5.197c-5.093,1.559-37.355,11.173-41.034,10.653
			c-3.679-0.519-13.017-6.755-13.017-6.755l-2.264-8.054l13.819,8.616L110.717,160.747z"/>
		<path fill="#C6B29B" d="M139.619,160.042c0,0-0.407,3.66,4.751,4.996c5.156,1.335,37.806,9.54,41.458,8.86
			c3.652-0.68,12.711-7.315,12.711-7.315l1.913-8.147l-12.702,7.576L139.619,160.042z"/>
		<path fill="#C6B29B" d="M34.014,154.05c0,0,4.47,8.941,11.691,5.845l5.158,1.892l-0.516,3.783l-10.832,1.374l-2.923-1.718
			L34.014,154.05z"/>
		<path fill="#C6B29B" d="M217.023,151.595c0,0-7.306,9.332-14.527,6.238l-2.322,1.498l0.515,3.782l10.832,1.376l2.922-1.72
			L217.023,151.595z"/>
		<path fill="#C6B29B" d="M104.01,221.84c0,0,26.485,13.353,56.472-4.817l-9.63-0.657c0,0-21.013,8.317-37.648,3.721L104.01,221.84z
			"/>
		<path fill="#2D3135" d="M130.859,197.236l1.833,2.184c0.041,0.053,4.114,4.9,9.092,9.835c3.31,3.281,7.31,4.942,11.894,4.942
			c1.566,0,3.21-0.202,4.87-0.602c1.541-0.375,3.215-0.774,4.93-1.185c6.191-1.48,13.204-3.161,16.604-4.113
			c0.673-0.191,1.423-0.363,2.214-0.543c4.525-1.046,10.729-2.487,14.015-9.072c2.472-4.942,5.804-11.355,8.276-16.056
			c-2.143,0.988-4.388,2.059-5.984,2.898c-2.458,1.291-5.679,1.917-9.841,1.917c-2.475,0-4.906-0.208-7.596-0.447
			c-5.376-0.494-14.474-1.565-14.567-1.577l-0.697-0.077l-0.549-0.441c-0.082-0.059-8.053-6.411-14.497-11.478
			c-0.261-0.214-0.499-0.411-0.714-0.589c-0.678-0.578-0.678-0.578-1.083-0.578c-2.066,0-8.072,1.863-21.232,5.942l-0.809,0.256
			l-0.792-0.299c-0.09-0.03-8.722-3.231-19.068-3.231c-0.846,0-1.69,0.022-2.513,0.064c-1.036,0.053-6.852,2.816-14.289,14.581
			l-0.482,0.755l-0.852,0.274c-0.124,0.042-12.924,4.174-26.498,8.056l-0.881,0.25l-0.834-0.388c-0.089-0.036-5.4-2.5-10.454-4.823
			c2.757,4.073,6.282,9.152,9.383,13.135c5.417,6.977,12.247,13.425,25.339,13.425c1.642,0,3.387-0.102,5.179-0.305
			c13.318-1.506,16.748-2.112,18.593-2.434c0.624-0.106,1.119-0.197,1.751-0.274c0.101-0.012,11.007-1.423,14.067-8.287
			c3.155-7.054,3.792-8.734,3.816-8.799l1.114-2.97c0,0,0.138-0.769,0.364-1.008c0,0.006,0,0.006,0.006,0.006l0.022,0.019
			C130.34,196.449,130.859,197.236,130.859,197.236z M47.914,64.066c-2.894,1.166-5.769,2.369-8.579,3.69
			c-2.816,1.287-5.585,2.668-8.228,4.209c-2.44,1.405-4.78,2.947-6.847,4.687c-0.089,0.523-0.172,1.094-0.243,1.636
			c-0.09,0.768-0.179,1.536-0.239,2.31c-0.136,1.548-0.19,3.108-0.207,4.667c-0.03,3.12,0.184,6.24,0.577,9.329
			c0.428,3.096,0.994,6.174,1.833,9.145c0.418,1.489,0.882,2.959,1.429,4.375c0.268,0.716,0.566,1.412,0.876,2.091
			c0.154,0.338,0.315,0.672,0.475,0.993l0.197,0.375c0.231,0.12,0.47,0.238,0.696,0.346l1.387,0.661
			c0.774,0.358,1.84,0.864,2.721,1.257c0.053-0.042,0.102-0.09,0.143-0.131l-2.566-9.788c0.542-0.149,5.424-1.411,13.836-3.012
			c-0.679-0.125-1.369-0.274-2.042-0.435c-1.911-0.475-3.806-1.059-5.632-1.797c-0.905-0.387-1.805-0.804-2.655-1.287
			c-0.852-0.489-1.692-1.041-2.341-1.779c9.24,3.018,28.333,1.649,45.308-0.102c15.526-1.602,31.082-2.637,46.722-2.673
			c15.64,0.036,31.209,1.071,46.724,2.673c16.985,1.75,36.08,3.12,45.317,0.102c-0.648,0.738-1.487,1.291-2.339,1.779
			c-0.85,0.483-1.751,0.9-2.655,1.287c-1.834,0.738-3.721,1.322-5.638,1.797c-0.28,0.065-0.566,0.131-0.852,0.191
			c9.223,1.709,14.592,3.102,15.164,3.257l-2.458,9.323c0.495-0.22,0.994-0.433,1.481-0.661l1.388-0.661
			c0.226-0.108,0.465-0.226,0.696-0.346l0.191-0.375c0.166-0.321,0.327-0.655,0.482-0.993c0.31-0.679,0.607-1.375,0.882-2.091
			c0.542-1.416,1.011-2.886,1.422-4.375c0.841-2.97,1.412-6.049,1.834-9.145c0.398-3.089,0.607-6.21,0.578-9.329
			c-0.011-1.559-0.071-3.12-0.202-4.667c-0.065-0.774-0.149-1.542-0.245-2.31c-0.065-0.542-0.155-1.113-0.245-1.636
			c-2.066-1.74-4.405-3.281-6.847-4.687c-2.643-1.541-5.41-2.923-8.233-4.209c-2.804-1.321-5.685-2.524-8.579-3.69
			c-1.448-0.584-2.907-1.156-4.371-1.698c-1.457-0.565-2.935-1.1-4.411-1.636c3.101,0.512,6.174,1.219,9.215,1.999
			c1.982,0.513,3.961,1.09,5.913,1.703c-13.927-36.407-47.23-60.113-83.588-60.113c-36.365,0-69.662,23.707-83.587,60.113
			c1.958-0.613,3.929-1.19,5.905-1.703c3.049-0.78,6.12-1.488,9.223-1.999c-1.484,0.536-2.954,1.071-4.418,1.636
			C50.825,62.91,49.367,63.482,47.914,64.066z M231.258,85.13c0.168,3.351,0.079,6.708-0.297,10.043
			c-0.351,3.328-0.983,6.626-1.862,9.895c-0.46,1.626-0.988,3.232-1.614,4.828c-0.316,0.797-0.654,1.59-1.024,2.382
			c-0.185,0.392-0.381,0.78-0.602,1.179l-0.327,0.589c-0.12,0.214-0.215,0.374-0.4,0.661l-0.338,0.525l-0.53,0.272
			c-0.566,0.292-1.03,0.512-1.543,0.751l-1.493,0.673c-1.001,0.428-2.007,0.833-3.013,1.225c-0.703,0.275-1.323,0.525-1.911,0.775
			l-1.661,6.31c-0.041-0.011-0.542-0.138-1.476-0.363l-0.09,0.66c1.833,0.958,5.435,2.9,6.662,3.913
			c2.47,2.042,2.644,5.275,2.096,11.317c-0.28,3.102-1.31,9.138-2.739,14.681c-2.466,9.543-3.776,10.664-5.466,11.097
			c-0.858,0.22-2.178,0.441-3.46,0.441c-2.606,0-6.156,0.072-8.543-0.505c-0.613,2.172-2.363,7.834-5.829,14.907
			c0.174-0.084,0.346-0.155,0.501-0.238c4.274-2.245,12.49-5.824,12.836-5.978l6.49-2.82l-3.323,6.25
			c-0.077,0.136-7.204,13.539-11.568,22.29c-4.334,8.669-12.46,10.556-17.325,11.674c-0.732,0.174-1.427,0.335-1.993,0.489
			c-3.49,0.982-10.557,2.667-16.789,4.166c-0.073,0.019-0.15,0.038-0.226,0.049c-3.835,2.37-8.02,4.484-12.599,6.222
			c-16.753,6.346-34.411,5.989-50.421,0.106c-2.6,0.335-6.019,0.744-10.572,1.262c-1.978,0.22-3.901,0.335-5.733,0.335
			c-15.254,0-23.338-7.746-29.239-15.33c-6.317-8.122-14.044-20.178-14.372-20.683l-4.477-6.99l7.573,3.405
			c3.625,1.632,14.402,6.621,17.486,8.05c0.249-0.07,0.494-0.142,0.738-0.214c-5.125-7.31-9.329-15.646-12.3-24.879
			c-2.525,0.761-6.413,1.351-9.437,1.351c-1.106,0-2.095-0.083-2.856-0.263c-1.692-0.386-3.62-2.017-6.246-11.264
			c-1.523-5.369-2.661-11.228-2.994-14.245c-0.656-5.889-0.536-9.044,1.911-11.081c1.476-1.232,6.452-3.846,7.483-4.381l-0.22-1.817
			c-15.813,9.293-25.29,17.503-25.48,17.671L1.34,154.447l8.055-12.704c6.376-10.068,13.74-18.207,20.516-24.476
			c-0.28-0.113-0.542-0.226-0.816-0.339l-1.494-0.673c-0.512-0.239-0.976-0.459-1.541-0.751l-0.53-0.272l-0.339-0.525
			c-0.19-0.286-0.274-0.446-0.399-0.661l-0.333-0.589c-0.208-0.399-0.411-0.786-0.595-1.179c-0.376-0.792-0.714-1.584-1.024-2.382
			c-0.626-1.595-1.155-3.202-1.614-4.828c-0.887-3.269-1.512-6.567-1.864-9.895c-0.369-3.335-0.464-6.692-0.298-10.043
			c0.09-1.674,0.25-3.346,0.482-5.007c0.12-0.833,0.245-1.667,0.411-2.495c0.173-0.844,0.34-1.631,0.596-2.554l0.179-0.648
			l0.464-0.364c2.638-2.072,5.483-3.637,8.377-5.024c2.382-1.119,4.81-2.108,7.258-3.008c6.835-18.967,18.586-35.786,34.03-47.508
			C86.827,6.406,105.604,0,125.161,0c19.558,0,38.334,6.406,54.301,18.522c15.444,11.722,27.197,28.541,34.026,47.503
			c2.453,0.905,4.876,1.887,7.263,3.013c2.892,1.387,5.739,2.952,8.375,5.024l0.465,0.364l0.179,0.648
			c0.262,0.923,0.428,1.709,0.594,2.554c0.168,0.828,0.299,1.662,0.411,2.495C231.01,81.785,231.176,83.457,231.258,85.13z
			 M217.464,140.366c0.525-5.809,0.067-7.06-0.523-7.537c-0.59-0.494-2.584-1.624-4.525-2.678l-3.196,22.384
			c-0.06,0.435-0.304,0.829-0.667,1.083l-4.573,3.199c-0.363,1.832-0.493,2.697-0.94,4.488c2.614,0.607,6.899,1.079,8.941,0.685
			C213.834,159.978,216.827,147.487,217.464,140.366z M211.529,120.07l3.424-12.983c-4.966-1.125-14.11-3.007-26.565-4.77
			c-6.359,4.573-13.32,8.228-20.159,11.145C189.156,115.498,204.533,118.529,211.529,120.07z M206.147,151.393l3.893-27.227
			c-1.732-0.375-3.946-0.838-6.591-1.344l-3.518,24.635c-0.066,0.435-0.304,0.833-0.661,1.085l-13.193,9.227
			c-0.31,0.22-0.708,0.322-1.089,0.28l-39.758-4.518c-0.637-0.072-1.167-0.513-1.353-1.119l-7.161-23.575
			c-1.919-0.496-6.841-1.645-11.151-1.645c-4.329,0-9.247,1.149-11.164,1.645l-7.162,23.575c-0.126,0.41-0.411,0.75-0.785,0.946
			c-0.12,0.066-0.256,0.113-0.394,0.144l-39.757,8.845c-0.125,0.025-0.232,0.038-0.351,0.038c-0.321,0-0.643-0.095-0.911-0.288
			l-13.187-9.233c-0.369-0.256-0.614-0.661-0.672-1.113l-3.554-28.833c-1.477,0.286-2.81,0.56-4.001,0.808
			c-0.845,0.466-1.679,0.93-2.5,1.395l3.774,30.553l19.166,13.426l48.354-10.757l7.138-23.516c0.179-0.591,0.672-1.026,1.274-1.121
			c1.81-0.291,3.393-0.439,4.734-0.439c1.326,0,2.916,0.148,4.72,0.439c0.607,0.095,1.101,0.53,1.274,1.121l7.321,24.099
			l48.624,5.53L206.147,151.393z M196.866,146.32l3.441-24.09c-9.705-1.767-23.897-3.904-41.282-5.238
			c-15.694,5.413-28.838,7.025-29.631,7.078l-0.917,0.066c5.006,0.43,9.722,1.776,9.959,1.846c0.519,0.155,0.925,0.553,1.085,1.073
			l7.114,23.421l38.108,4.329L196.866,146.32z M199.515,159.942l-1.614,1.13l-4.345,3.049l-4.71,3.299
			c-0.321,0.22-0.714,0.322-1.097,0.28l-46.858-5.328l-3.411-0.388c-0.631-0.072-1.162-0.513-1.347-1.124l-7.334-24.148
			c-1.226-0.167-2.317-0.252-3.232-0.252c-0.931,0-2.014,0.084-3.24,0.252l-7.121,23.45c-0.166,0.547-0.618,0.965-1.179,1.088
			l-49.95,11.123c-0.118,0.023-0.237,0.034-0.351,0.034c-0.321,0-0.643-0.095-0.917-0.291l-1.815-1.263l-5.435-3.804v-0.012
			l-2.197-1.535c0.155,0.494,0.333,0.977,0.507,1.459l-0.007,0.006c0.423,1.255,4.632,13.365,13.187,25.218
			c9.162-2.703,17.086-5.215,19.616-6.019c5.161-7.954,12.509-15.843,17.73-16.117c0.898-0.042,1.835-0.07,2.763-0.07
			c2.554,0,4.996,0.185,7.256,0.452c-1.922-1.745-2.315-3.793-2.595-4.698c0,0,6.662,5.209,15.145,4.121
			c8.485-1.096,13.753-5.985,13.753-5.985s-0.024,3.568-3.721,6.329c7.11-2.15,10.05-2.888,12.062-2.888
			c2.221,0,3.316,0.929,4.274,1.746c0.185,0.148,0.37,0.308,0.583,0.482c5.466,4.304,12.038,9.525,13.963,11.056
			c2.227,0.261,9.286,1.065,13.734,1.476c2.565,0.231,4.881,0.428,7.149,0.428c0.732,0,1.418-0.03,2.066-0.072
			c2.942-5.612,5.585-11.972,7.829-19.151C198.96,162.174,199.254,161.061,199.515,159.942z M182.226,100.61
			c-0.011-0.007-0.023-0.013-0.036-0.013c-3.763-0.279-7.525-0.535-11.3-0.749c-5.238-0.299-10.478-0.549-15.717-0.768
			c-0.304,0.453-0.923,1.345-1.81,2.559c-2.851,3.858-8.507,10.936-15.759,16.939c10.265-1.84,28.07-6.395,43.473-17.14
			C181.463,101.162,181.845,100.876,182.226,100.61z M147.869,101.674c0.433-0.542,0.839-1.065,1.201-1.541
			c-3.774,0.381-7.489,0.929-11.121,1.619c-12.436,2.328-23.921,6.198-33.477,10.163c6.77-0.328,13.89-0.524,21.321-0.524
			c4.495,0,8.864,0.077,13.114,0.202C142.563,108.08,145.647,104.485,147.869,101.674z M151.994,219.073
			c-5.179-0.381-9.888-2.536-13.688-6.299c-0.196-0.202-0.387-0.394-0.577-0.589c-1.838,0.369-3.702,0.643-5.614,0.81
			c-0.803,0.03-1.566,0.1-2.404,0.1l-1.246,0.012l-0.475-0.012c-5.055,7.52-16.283,8.985-16.796,9.05
			c-0.464,0.053-0.845,0.119-1.369,0.214c6.259,1.715,12.646,2.459,18.945,2.036C135.085,223.972,143.29,222.603,151.994,219.073z
			 M131.984,210.493c1.214-0.095,2.434-0.25,3.662-0.435c-1.59-1.654-2.995-3.191-4.103-4.435c-0.542,1.244-1.261,2.881-2.208,4.99
			h0.28C130.37,210.613,131.197,210.531,131.984,210.493z M128.126,120.065c2.102-1.268,4.119-2.721,6.036-4.269
			c-2.745-0.047-5.53-0.083-8.369-0.083c-11.657,0-22.547,0.477-32.418,1.22c-9.901,4.84-15.956,8.822-16.098,8.924l-9.508,6.341
			l6.531-9.371c1.078-1.555,2.221-3.031,3.4-4.435c-10.966,1.226-20.099,2.678-26.921,3.935l3.494,28.326l12.021,8.419l38.162-8.484
			l7.144-23.533c0.12-0.388,0.381-0.714,0.721-0.911c0.112-0.072,0.232-0.125,0.362-0.161c0.22-0.059,4.037-1.149,8.437-1.685
			L128.126,120.065z M132.515,98.459c-2.657-0.041-5.317-0.066-7.973-0.071h-0.006c-3.899,0.005-7.805,0.048-11.717,0.125
			l-7.209,3.417c-0.006,0.006-0.047,0.024-0.101,0.055c-1.084,0.529-10.55,5.304-19.457,13.824
			c7.984-4.198,19.718-9.68,33.526-13.932C123.714,100.61,128.048,99.442,132.515,98.459z M82.129,113.575
			c3.738-3.709,7.596-6.769,11.002-9.162c-13.128,3.049-25.212,7.524-35.798,12.394C64.221,115.695,72.562,114.535,82.129,113.575z
			 M84.612,102.133c4.399-1.233,8.937-2.31,13.585-3.215c-6.668,0.244-13.34,0.553-20.002,0.929
			c-3.871,0.213-7.722,0.476-11.574,0.768c-1.929,0.149-3.847,0.303-5.758,0.512c-0.547,0.053-1.083,0.113-1.631,0.185
			c-5.024,3.006-24.296,15.104-37.525,30.923C34.561,123.298,56.958,109.873,84.612,102.133z M49.134,164.46
			c-0.251-0.797-0.488-1.607-0.714-2.417l-5.936-4.154c-0.376-0.263-0.614-0.661-0.673-1.115l-2.893-23.516
			c-2.144,1.149-4.62,2.559-5.281,3.113c-0.571,0.471-1.006,1.679-0.387,7.282c0.768,6.912,4.269,19.933,6.15,21.826
			C41.663,165.878,46.676,165.182,49.134,164.46z M44.747,105.396c-3.352,0.648-6.085,1.232-8.109,1.691l0.953,3.596
			C40.251,108.563,42.687,106.801,44.747,105.396z"/>
	</g>
</g>
<g>
	<path fill="#2D3135" d="M52.256,269.458h-9.351v-4.846h24.394v4.846h-9.307v27.51h-5.736V269.458z"/>
	<path fill="#2D3135" d="M66.779,272.679h4.706l0.392,4.303h0.205c1.725-3.166,4.3-4.895,6.873-4.895
		c1.239,0,2.028,0.145,2.769,0.488l-0.989,4.953c-0.841-0.252-1.486-0.398-2.518-0.398c-1.93,0-4.255,1.338-5.742,4.996v14.842
		h-5.691v-24.289H66.779z"/>
	<path fill="#2D3135" d="M97.254,281.433c-0.045-2.57-1.133-4.746-4.396-4.746c-2.425,0-4.704,1.088-6.833,2.369l-2.071-3.807
		c2.675-1.672,6.088-3.162,9.943-3.162c6.08,0,9.052,3.709,9.052,10.484v14.4h-4.65l-0.447-2.678h-0.137
		c-2.189,1.836-4.657,3.268-7.527,3.268c-4.25,0-7.226-2.873-7.226-7.123C82.958,285.24,87.314,282.521,97.254,281.433z
		 M91.963,293.107c1.981,0,3.512-0.988,5.291-2.674v-5.44c-6.569,0.838-8.746,2.57-8.746,4.992
		C88.502,292.167,89.931,293.107,91.963,293.107z"/>
	<path fill="#2D3135" d="M104.574,272.679h5.793l3.856,12.613c0.639,2.375,1.385,4.846,2.028,7.322h0.195
		c0.694-2.48,1.393-4.947,2.076-7.322l3.859-12.613h5.49l-8.258,24.293h-6.582L104.574,272.679z"/>
	<path fill="#2D3135" d="M130.009,265.207c0-1.932,1.49-3.266,3.517-3.266c2.028,0,3.512,1.334,3.512,3.266
		c0,1.879-1.483,3.215-3.512,3.215C131.499,268.421,130.009,267.082,130.009,265.207z M130.653,272.679h5.686v24.293h-5.686V272.679
		z"/>
	<path fill="#2D3135" d="M142.274,290.537c2.176,1.676,4.254,2.719,6.73,2.719c2.625,0,3.86-1.236,3.86-2.92
		c0-2.027-2.628-2.914-5.194-3.908c-3.22-1.184-6.829-3.019-6.829-7.072c0-4.25,3.412-7.271,8.857-7.271
		c3.361,0,6.083,1.375,8.06,2.916l-2.62,3.461c-1.684-1.24-3.416-2.074-5.347-2.074c-2.42,0-3.561,1.137-3.561,2.67
		c0,1.881,2.425,2.672,5.036,3.613c3.317,1.232,6.973,2.816,6.973,7.367c0,4.152-3.306,7.523-9.44,7.523
		c-3.305,0-6.828-1.443-9.202-3.371L142.274,290.537z"/>
	<path fill="#2D3135" d="M186.149,264.019c3.955,0,7.174,1.93,9.198,4.111l-3.166,3.559c-1.684-1.631-3.51-2.672-5.982-2.672
		c-5.299,0-9.108,4.449-9.108,11.727c0,7.367,3.512,11.822,8.906,11.822c2.864,0,4.994-1.188,6.83-3.215l3.161,3.514
		c-2.619,3.016-5.98,4.697-10.087,4.697c-8.214,0-14.694-5.938-14.694-16.67C171.207,270.302,177.835,264.019,186.149,264.019z"/>
	<path fill="#2D3135" d="M199.499,264.613h5.743v32.359h-5.743V264.613z"/>
</g>
</svg>
