<?xml version="1.0" encoding="UTF-8"?>
<svg width="308px" height="84px" viewBox="0 0 308 84" version="1.1" xmlns="http://www.w3.org/2000/svg" xmlns:xlink="http://www.w3.org/1999/xlink">
    <!-- Generator: Sketch 46.2 (44496) - http://www.bohemiancoding.com/sketch -->
    <title>Andromeda Pattern</title>
    <desc>Created with Sketch.</desc>
    <defs></defs>
    <g id="Design" stroke="none" stroke-width="1" fill="none" fill-rule="evenodd" opacity="0.2">
        <g id="3" transform="translate(-892.000000, -436.000000)">
            <g id="Andromeda-Pattern" transform="translate(894.000000, 430.000000)">
                <g id="Group" opacity="0.25">
                    <path d="M244.886438,50.9034937 C246.853615,52.0120506 247.53942,52.0120506 249.506596,50.9034937 C248.396675,52.8682532 248.396675,53.5532152 249.506596,55.5179747 C247.53942,54.4094177 246.853615,54.4094177 244.886438,55.5179747 C246.005383,53.5532152 246.005383,52.8592405 244.886438,50.9034937 Z" id="Shape" fill="#FFFFFF" fill-rule="nonzero"></path>
                    <path d="M244.886438,50.9034937 C246.853615,52.0120506 247.53942,52.0120506 249.506596,50.9034937 C248.396675,52.8682532 248.396675,53.5532152 249.506596,55.5179747 C247.53942,54.4094177 246.853615,54.4094177 244.886438,55.5179747 C246.005383,53.5532152 246.005383,52.8592405 244.886438,50.9034937 Z" id="Shape" stroke="#FFFFFF" stroke-width="4.51187335" stroke-linecap="round" stroke-linejoin="round"></path>
                    <path d="M65.5214248,45.0632911 C65.0792612,43.3148354 64.6912401,42.9182785 62.9586807,42.3594937 C64.7092876,41.9178734 65.1063325,41.5303291 65.6658047,39.7998987 C66.1079683,41.5483544 66.4959894,41.9449114 68.2285488,42.5036962 C66.441847,42.9363038 66.0448021,43.3238481 65.5214248,45.0632911 Z" id="Shape" fill="#FFFFFF" fill-rule="nonzero"></path>
                    <path d="M65.5214248,45.0632911 C65.0792612,43.3148354 64.6912401,42.9182785 62.9586807,42.3594937 C64.7092876,41.9178734 65.1063325,41.5303291 65.6658047,39.7998987 C66.1079683,41.5483544 66.4959894,41.9449114 68.2285488,42.5036962 C66.441847,42.9363038 66.0448021,43.3238481 65.5214248,45.0632911 Z" id="Shape" stroke="#FFFFFF" stroke-width="4.51187335" stroke-linecap="round" stroke-linejoin="round"></path>
                    <path d="M30.6807388,87.7562532 C29.1106069,86.8549873 28.5511346,86.8549873 26.9900264,87.7562532 C27.8924011,86.1880506 27.8924011,85.6292658 26.9900264,84.0700759 C28.5601583,84.9713418 29.1196306,84.9713418 30.6807388,84.0700759 C29.7783641,85.6202532 29.7783641,86.1880506 30.6807388,87.7562532 Z" id="Shape" fill="#FFFFFF" fill-rule="nonzero"></path>
                    <path d="M30.6807388,87.7562532 C29.1106069,86.8549873 28.5511346,86.8549873 26.9900264,87.7562532 C27.8924011,86.1880506 27.8924011,85.6292658 26.9900264,84.0700759 C28.5601583,84.9713418 29.1196306,84.9713418 30.6807388,84.0700759 C29.7783641,85.6202532 29.7783641,86.1880506 30.6807388,87.7562532 Z" id="Shape" stroke="#FFFFFF" stroke-width="4.51187335" stroke-linecap="round" stroke-linejoin="round"></path>
                    <path d="M124.266016,18.6652152 C124.996939,21.2698734 125.583483,21.8556962 128.200369,22.5676962 C125.592507,23.2977215 125.005963,23.8835443 124.293087,26.4972152 C123.562164,23.892557 122.97562,23.3067342 120.358734,22.5947342 C122.966596,21.8647089 123.55314,21.2788861 124.266016,18.6652152 Z" id="Shape" fill="#FFFFFF" fill-rule="nonzero"></path>
                    <path d="M124.266016,18.6652152 C124.996939,21.2698734 125.583483,21.8556962 128.200369,22.5676962 C125.592507,23.2977215 125.005963,23.8835443 124.293087,26.4972152 C123.562164,23.892557 122.97562,23.3067342 120.358734,22.5947342 C122.966596,21.8647089 123.55314,21.2788861 124.266016,18.6652152 Z" id="Shape" stroke="#FFFFFF" stroke-width="4.51187335" stroke-linecap="round" stroke-linejoin="round"></path>
                    <path d="M219.755303,80.4920506 C221.930026,79.8882025 222.417309,79.3925063 223.012876,77.2204557 C223.617467,79.3925063 224.113773,79.8791899 226.288496,80.4740253 C224.113773,81.0778734 223.626491,81.5735696 223.030923,83.7456203 C222.426332,81.5735696 221.93905,81.1139241 219.755303,80.4920506 Z" id="Shape" fill="#FFFFFF" fill-rule="nonzero"></path>
                    <path d="M219.755303,80.4920506 C221.930026,79.8882025 222.417309,79.3925063 223.012876,77.2204557 C223.617467,79.3925063 224.113773,79.8791899 226.288496,80.4740253 C224.113773,81.0778734 223.626491,81.5735696 223.030923,83.7456203 C222.426332,81.5735696 221.93905,81.1139241 219.755303,80.4920506 Z" id="Shape" stroke="#FFFFFF" stroke-width="4.51187335" stroke-linecap="round" stroke-linejoin="round"></path>
                    <path d="M87.3227968,16.5832911 C89.4975198,15.979443 89.9848021,15.4837468 90.5803694,13.3116962 C91.1849604,15.4837468 91.6812665,15.9704304 93.8559894,16.5652658 C91.6812665,17.1691139 91.1939842,17.6648101 90.5984169,19.8368608 C89.9938259,17.6648101 89.5065435,17.1781266 87.3227968,16.5832911 Z" id="Shape" fill="#FFFFFF" fill-rule="nonzero"></path>
                    <path d="M87.3227968,16.5832911 C89.4975198,15.979443 89.9848021,15.4837468 90.5803694,13.3116962 C91.1849604,15.4837468 91.6812665,15.9704304 93.8559894,16.5652658 C91.6812665,17.1691139 91.1939842,17.6648101 90.5984169,19.8368608 C89.9938259,17.6648101 89.5065435,17.1781266 87.3227968,16.5832911 Z" id="Shape" stroke="#FFFFFF" stroke-width="4.51187335" stroke-linecap="round" stroke-linejoin="round"></path>
                    <ellipse id="Oval" stroke="#FFFFFF" stroke-width="4.51187335" stroke-linecap="round" stroke-linejoin="round" transform="translate(90.602711, 63.219794) rotate(-78.640000) translate(-90.602711, -63.219794) " cx="90.602711" cy="63.2197936" rx="11.2255409" ry="11.2117468"></ellipse>
                    <path d="M207.473984,18.3948354 C209.991609,17.6918481 210.551082,17.1240506 211.236887,14.609519 C211.940739,17.1240506 212.509235,17.6828354 215.02686,18.3677975 C212.509235,19.0707848 211.949763,19.6385823 211.263958,22.1531139 C210.560106,19.6385823 210.000633,19.0797975 207.473984,18.3948354 Z" id="Shape" fill="#FFFFFF" fill-rule="nonzero"></path>
                    <path d="M207.473984,18.3948354 C209.991609,17.6918481 210.551082,17.1240506 211.236887,14.609519 C211.940739,17.1240506 212.509235,17.6828354 215.02686,18.3677975 C212.509235,19.0707848 211.949763,19.6385823 211.263958,22.1531139 C210.560106,19.6385823 210.000633,19.0797975 207.473984,18.3948354 Z" id="Shape" stroke="#FFFFFF" stroke-width="4.51187335" stroke-linejoin="round"></path>
                    <path d="M5.81129288,84.0971139 C3.53730871,82.8173165 2.73419525,82.8173165 0.469234828,84.0971139 C1.75060686,81.8259241 1.75060686,81.0237975 0.469234828,78.7616203 C2.743219,80.0414177 3.54633245,80.0414177 5.81129288,78.7616203 C4.51187335,81.0418228 4.51187335,81.8349367 5.81129288,84.0971139 Z" id="Shape" fill="#FFFFFF" fill-rule="nonzero"></path>
                    <path d="M5.81129288,84.0971139 C3.53730871,82.8173165 2.73419525,82.8173165 0.469234828,84.0971139 C1.75060686,81.8259241 1.75060686,81.0237975 0.469234828,78.7616203 C2.743219,80.0414177 3.54633245,80.0414177 5.81129288,78.7616203 C4.51187335,81.0418228 4.51187335,81.8349367 5.81129288,84.0971139 Z" id="Shape" stroke="#FFFFFF" stroke-width="4.51187335" stroke-linejoin="round"></path>
                    <path d="M124.690132,79.5276962 C122.659789,80.0414177 122.199578,80.483038 121.604011,82.4838481 C121.089657,80.456 120.647493,79.9963544 118.644222,79.401519 C120.674565,78.8877975 121.134776,78.4461772 121.730343,76.4453671 C122.244697,78.4642025 122.722955,78.9238481 124.690132,79.5276962 Z" id="Shape" fill="#FFFFFF" fill-rule="nonzero"></path>
                    <path d="M124.690132,79.5276962 C122.659789,80.0414177 122.199578,80.483038 121.604011,82.4838481 C121.089657,80.456 120.647493,79.9963544 118.644222,79.401519 C120.674565,78.8877975 121.134776,78.4461772 121.730343,76.4453671 C122.244697,78.4642025 122.722955,78.9238481 124.690132,79.5276962 Z" id="Shape" stroke="#FFFFFF" stroke-width="4.51187335" stroke-linecap="round" stroke-linejoin="round"></path>
                    <path d="M283.435884,8.35473418 C285.240633,9.38217722 285.899367,9.37316456 287.71314,8.35473418 C286.684433,10.1572658 286.693456,10.8151899 287.71314,12.6267342 C285.908391,11.5992911 285.249657,11.6083038 283.435884,12.6267342 C284.482639,10.8151899 284.473615,10.1752911 283.435884,8.35473418 Z" id="Shape" fill="#FFFFFF" fill-rule="nonzero"></path>
                    <path d="M283.435884,8.35473418 C285.240633,9.38217722 285.899367,9.37316456 287.71314,8.35473418 C286.684433,10.1572658 286.693456,10.8151899 287.71314,12.6267342 C285.908391,11.5992911 285.249657,11.6083038 283.435884,12.6267342 C284.482639,10.8151899 284.473615,10.1752911 283.435884,8.35473418 Z" id="Shape" stroke="#FFFFFF" stroke-width="4.51187335" stroke-linejoin="round"></path>
                    <ellipse id="Oval" stroke="#FFFFFF" stroke-width="4.51187335" stroke-linecap="round" stroke-linejoin="round" transform="translate(253.508853, 25.558641) rotate(-23.340000) translate(-253.508853, -25.558641) " cx="253.508853" cy="25.5586408" rx="10.1336675" ry="10.1212152"></ellipse>
                    <ellipse id="Oval" stroke="#FFFFFF" stroke-width="4.51187335" stroke-linecap="round" stroke-linejoin="round" transform="translate(48.190077, 66.212891) rotate(-20.670000) translate(-48.190077, -66.212891) " cx="48.190077" cy="66.2128909" rx="4.06970976" ry="4.06470886"></ellipse>
                    <ellipse id="Oval" stroke="#FFFFFF" stroke-width="4.51187335" stroke-linecap="round" stroke-linejoin="round" cx="288.444063" cy="41.8728101" rx="4.88184697" ry="4.8758481"></ellipse>
                </g>
                <path d="M127.424327,49.3983797 L135.888602,49.3983797 C138.541583,60.7483207 143.910712,68.4931983 151.995989,72.6330127 C158.447968,75.9406582 166.018892,77.4277468 173.102533,75.4179241 C184.436359,72.2004051 191.980211,60.4478987 189.796464,48.812557 C188.799291,43.2989634 185.267334,38.5732245 180.258364,36.0506329 C174.600475,33.4009114 168.347018,33.9416709 163.862216,37.4926582 C159.377414,41.0436456 158.664538,47.4065823 161.813826,51.1197975 C162.676206,52.2448388 163.940184,52.993899 165.342111,53.2107342 C166.390606,53.3357691 167.437792,52.9674354 168.176461,52.2137887 C168.915131,51.460142 169.26153,50.4066352 169.114037,49.3623291 C168.970048,48.36597 169.2664,47.3562675 169.92619,46.5952419 C170.58598,45.8342162 171.544162,45.3968933 172.552084,45.3967595 C173.630156,45.3944005 174.674705,45.7708696 175.50285,46.4602532 C178.209974,48.6683544 179.058206,51.5704304 178.020475,56.1128101 C177.461003,58.5822785 173.364222,65.9816709 162.977889,64.2242025 C153.773668,62.656 150.534142,55.2115443 149.32496,51.9129114 C148.35942,49.2722025 145.643272,36.2398987 158.222375,27.2362532 C169.953245,18.854481 183.164011,24.4152911 187.702955,27.1461266 C192.642576,30.0839832 196.645031,34.3628173 199.244327,39.4844557 C202.231187,45.0182278 202.592137,47.8031392 203.314037,49.3983797 C203.84343,49.4584641 206.303905,49.4584641 210.695462,49.3983797" id="Shape" stroke="#FFFFFF" stroke-width="3.60949868" opacity="0.25" stroke-linecap="round" stroke-linejoin="round"></path>
                <ellipse id="Oval" stroke="#525556" stroke-width="3.60949868" cx="122.154459" cy="49.4073924" rx="4.97208443" ry="4.96597468"></ellipse>
                <ellipse id="Oval" stroke="#525556" stroke-width="3.60949868" cx="216.055567" cy="49.4073924" rx="4.97208443" ry="4.96597468"></ellipse>
            </g>
        </g>
    </g>
</svg>