<?xml version="1.0" encoding="UTF-8"?>
<svg width="299px" height="93px" viewBox="0 0 299 93" version="1.1" xmlns="http://www.w3.org/2000/svg" xmlns:xlink="http://www.w3.org/1999/xlink">
    <!-- Generator: Sketch 46.2 (44496) - http://www.bohemiancoding.com/sketch -->
    <title>Centaurus Pattern</title>
    <desc>Created with Sketch.</desc>
    <defs></defs>
    <g id="Design" stroke="none" stroke-width="1" fill="none" fill-rule="evenodd" opacity="0.2">
        <g id="4" transform="translate(-892.000000, -426.000000)">
            <g id="Centaurus-Pattern" transform="translate(894.000000, 420.000000)">
                <g id="Group" opacity="0.25">
                    <path d="M246.622969,50.1257541 C248.564531,51.2173737 249.241406,51.2173737 251.182969,50.1257541 C250.0875,52.0604946 250.0875,52.7349913 251.182969,54.6697318 C249.241406,53.5781122 248.564531,53.5781122 246.622969,54.6697318 C247.727344,52.7349913 247.727344,52.0516196 246.622969,50.1257541 Z" id="Shape" fill="#FFFFFF" fill-rule="nonzero"></path>
                    <path d="M246.622969,50.1257541 C248.564531,51.2173737 249.241406,51.2173737 251.182969,50.1257541 C250.0875,52.0604946 250.0875,52.7349913 251.182969,54.6697318 C249.241406,53.5781122 248.564531,53.5781122 246.622969,54.6697318 C247.727344,52.7349913 247.727344,52.0516196 246.622969,50.1257541 Z" id="Shape" stroke="#FFFFFF" stroke-width="4.453125" stroke-linecap="round" stroke-linejoin="round"></path>
                    <path d="M64.6682813,54.6076071 C64.231875,52.8858656 63.8489062,52.4953675 62.1389062,51.9451202 C63.8667187,51.5102473 64.2585937,51.1286242 64.8107812,49.4246325 C65.2471875,51.1463741 65.6301562,51.5368722 67.3401563,52.0871195 C65.5767187,52.5308673 65.1848437,52.9124904 64.6682813,54.6076071 Z" id="Shape" fill="#FFFFFF" fill-rule="nonzero"></path>
                    <path d="M64.6682813,54.6076071 C64.231875,52.8858656 63.8489062,52.4953675 62.1389062,51.9451202 C63.8667187,51.5102473 64.2585937,51.1286242 64.8107812,49.4246325 C65.2471875,51.1463741 65.6301562,51.5368722 67.3401563,52.0871195 C65.5767187,52.5308673 65.1848437,52.9124904 64.6682813,54.6076071 Z" id="Shape" stroke="#FFFFFF" stroke-width="4.453125" stroke-linecap="round" stroke-linejoin="round"></path>
                    <path d="M30.28125,96.6660258 C28.7315625,95.7785301 28.179375,95.7785301 26.6385937,96.6660258 C27.5292187,95.1217834 27.5292187,94.5715361 26.6385937,93.0361686 C28.1882812,93.9236642 28.7404687,93.9236642 30.28125,93.0361686 C29.390625,94.580411 29.390625,95.1217834 30.28125,96.6660258 Z" id="Shape" fill="#FFFFFF" fill-rule="nonzero"></path>
                    <path d="M30.28125,96.6660258 C28.7315625,95.7785301 28.179375,95.7785301 26.6385937,96.6660258 C27.5292187,95.1217834 27.5292187,94.5715361 26.6385937,93.0361686 C28.1882812,93.9236642 28.7404687,93.9236642 30.28125,93.0361686 C29.390625,94.580411 29.390625,95.1217834 30.28125,96.6660258 Z" id="Shape" stroke="#FFFFFF" stroke-width="4.453125" stroke-linecap="round" stroke-linejoin="round"></path>
                    <path d="M122.647969,28.6306095 C123.369375,31.195472 123.948281,31.7723441 126.531094,32.4734657 C123.957188,33.1923372 123.378281,33.7692093 122.674688,36.3429467 C121.953281,33.7780843 121.374375,33.2012121 118.791562,32.5000906 C121.365469,31.7812191 121.944375,31.2043469 122.647969,28.6306095 Z" id="Shape" fill="#FFFFFF" fill-rule="nonzero"></path>
                    <path d="M122.647969,28.6306095 C123.369375,31.195472 123.948281,31.7723441 126.531094,32.4734657 C123.957188,33.1923372 123.378281,33.7692093 122.674688,36.3429467 C121.953281,33.7780843 121.374375,33.2012121 118.791562,32.5000906 C121.365469,31.7812191 121.944375,31.2043469 122.647969,28.6306095 Z" id="Shape" stroke="#FFFFFF" stroke-width="4.453125" stroke-linecap="round" stroke-linejoin="round"></path>
                    <path d="M221.827969,79.2622362 C223.974375,78.6676141 224.455312,78.1794915 225.043125,76.040627 C225.639844,78.1794915 226.129688,78.6587391 228.276094,79.2444862 C226.129688,79.8391083 225.64875,80.3272309 225.060937,82.4660954 C224.4375,80.3272309 223.974375,79.8746082 221.827969,79.2622362 Z" id="Shape" fill="#FFFFFF" fill-rule="nonzero"></path>
                    <path d="M221.827969,79.2622362 C223.974375,78.6676141 224.455312,78.1794915 225.043125,76.040627 C225.639844,78.1794915 226.129688,78.6587391 228.276094,79.2444862 C226.129688,79.8391083 225.64875,80.3272309 225.060937,82.4660954 C224.4375,80.3272309 223.974375,79.8746082 221.827969,79.2622362 Z" id="Shape" stroke="#FFFFFF" stroke-width="4.453125" stroke-linecap="round" stroke-linejoin="round"></path>
                    <path d="M86.1857812,26.6248694 C88.3321875,26.0302473 88.813125,25.5421247 89.4009375,23.4032602 C89.9976562,25.5421247 90.4875,26.0213723 92.6339062,26.6071195 C90.4875,27.2017416 90.0065625,27.6898642 89.41875,29.8287287 C88.8220312,27.6454894 88.3410937,27.1662417 86.1857812,26.6248694 Z" id="Shape" fill="#FFFFFF" fill-rule="nonzero"></path>
                    <path d="M86.1857812,26.6248694 C88.3321875,26.0302473 88.813125,25.5421247 89.4009375,23.4032602 C89.9976562,25.5421247 90.4875,26.0213723 92.6339062,26.6071195 C90.4875,27.2017416 90.0065625,27.6898642 89.41875,29.8287287 C88.8220312,27.6454894 88.3410937,27.1662417 86.1857812,26.6248694 Z" id="Shape" stroke="#FFFFFF" stroke-width="4.453125" stroke-linecap="round" stroke-linejoin="round"></path>
                    <ellipse id="Oval" stroke="#FFFFFF" stroke-width="4.45401554" stroke-linecap="round" stroke-linejoin="round" transform="translate(89.662959, 72.770915) rotate(-78.465379) translate(-89.662959, -72.770915) " cx="89.6629594" cy="72.7709155" rx="11.0815907" ry="11.0426537"></ellipse>
                    <path d="M209.697656,18.1137861 C212.1825,17.4215395 212.734687,16.8624173 213.411562,14.3863044 C214.10625,16.8624173 214.667344,17.4126646 217.152187,18.0871613 C214.667344,18.7794079 214.115156,19.3385301 213.438281,21.814643 C212.7525,19.3385301 212.191406,18.7882828 209.697656,18.1137861 Z" id="Shape" fill="#FFFFFF" fill-rule="nonzero"></path>
                    <path d="M209.697656,18.1137861 C212.1825,17.4215395 212.734687,16.8624173 213.411562,14.3863044 C214.10625,16.8624173 214.667344,17.4126646 217.152187,18.0871613 C214.667344,18.7794079 214.115156,19.3385301 213.438281,21.814643 C212.7525,19.3385301 212.191406,18.7882828 209.697656,18.1137861 Z" id="Shape" stroke="#FFFFFF" stroke-width="4.453125" stroke-linejoin="round"></path>
                    <path d="M5.735625,93.0627935 C3.49125,91.8025496 2.69859375,91.8025496 0.463125,93.0627935 C1.7278125,90.8263044 1.7278125,90.0364333 0.463125,87.8088192 C2.7075,89.069063 3.50015625,89.069063 5.735625,87.8088192 C4.453125,90.0541832 4.453125,90.8351794 5.735625,93.0627935 Z" id="Shape" fill="#FFFFFF" fill-rule="nonzero"></path>
                    <path d="M5.735625,93.0627935 C3.49125,91.8025496 2.69859375,91.8025496 0.463125,93.0627935 C1.7278125,90.8263044 1.7278125,90.0364333 0.463125,87.8088192 C2.7075,89.069063 3.50015625,89.069063 5.735625,87.8088192 C4.453125,90.0541832 4.453125,90.8351794 5.735625,93.0627935 Z" id="Shape" stroke="#FFFFFF" stroke-width="4.453125" stroke-linejoin="round"></path>
                    <path d="M123.066562,88.5631905 C121.062656,89.069063 120.608437,89.5039359 120.020625,91.4741762 C119.512969,89.477311 119.076562,89.0246883 117.099375,88.4389411 C119.103281,87.9330686 119.5575,87.4981958 120.145312,85.5279554 C120.652969,87.5159457 121.125,87.9685684 123.066562,88.5631905 Z" id="Shape" fill="#FFFFFF" fill-rule="nonzero"></path>
                    <path d="M123.066562,88.5631905 C121.062656,89.069063 120.608437,89.5039359 120.020625,91.4741762 C119.512969,89.477311 119.076562,89.0246883 117.099375,88.4389411 C119.103281,87.9330686 119.5575,87.4981958 120.145312,85.5279554 C120.652969,87.5159457 121.125,87.9685684 123.066562,88.5631905 Z" id="Shape" stroke="#FFFFFF" stroke-width="4.453125" stroke-linecap="round" stroke-linejoin="round"></path>
                    <path d="M284.670469,8.22708464 C286.451719,9.23882968 287.101875,9.22995472 288.892031,8.22708464 C287.876719,10.0020759 287.885625,10.6499478 288.892031,12.433814 C287.110781,11.422069 286.460625,11.4309439 284.670469,12.433814 C285.703594,10.6499478 285.694687,10.0198258 284.670469,8.22708464 Z" id="Shape" fill="#FFFFFF" fill-rule="nonzero"></path>
                    <path d="M284.670469,8.22708464 C286.451719,9.23882968 287.101875,9.22995472 288.892031,8.22708464 C287.876719,10.0020759 287.885625,10.6499478 288.892031,12.433814 C287.110781,11.422069 286.460625,11.4309439 284.670469,12.433814 C285.703594,10.6499478 285.694687,10.0198258 284.670469,8.22708464 Z" id="Shape" stroke="#FFFFFF" stroke-width="4.453125" stroke-linejoin="round"></path>
                    <ellipse id="Oval" stroke="#FFFFFF" stroke-width="4.453125" stroke-linecap="round" stroke-linejoin="round" transform="translate(255.147952, 25.163812) rotate(-23.340000) translate(-255.147952, -25.163812) " cx="255.147952" cy="25.1638124" rx="10.0017188" ry="9.96657611"></ellipse>
                    <ellipse id="Oval" stroke="#FFFFFF" stroke-width="4.453125" stroke-linecap="round" stroke-linejoin="round" transform="translate(47.559909, 75.448725) rotate(-20.670000) translate(-47.559909, -75.448725) " cx="47.5599095" cy="75.4487251" rx="4.01671875" ry="4.00260536"></ellipse>
                    <ellipse id="Oval" stroke="#FFFFFF" stroke-width="4.453125" stroke-linecap="round" stroke-linejoin="round" cx="289.622344" cy="41.2330477" rx="4.81828125" ry="4.80135145"></ellipse>
                </g>
                <path d="M195.29625,40.0970533 C195.046875,46.4515221 194.022656,52.3267433 189.81,58.2019645 C193.149844,63.7488123 200.942813,64.8581818 206.509219,65.9675514 C199.829531,71.5143992 190.923281,72.6237687 182.017031,73.7331383 C181.461699,75.1324364 181.10498,76.6020932 180.957188,78.0996169" id="Shape" stroke="#FFFFFF" stroke-width="3.5625" opacity="0.25" stroke-linecap="round" stroke-linejoin="round"></path>
                <path d="M144.735469,49.9038802 C150.604688,46.9041449 156.384844,44.8806548 164.204531,44.8806548 C163.09125,39.333807 166.431094,32.6775897 161.977969,27.1307419 C169.950924,30.4533306 176.602652,36.3018803 180.90375,43.7712853 L180.90375,43.7712853 C182.438043,43.7827933 183.956836,43.4649675 185.356875,42.8394148" id="Shape" stroke="#FFFFFF" stroke-width="3.5625" opacity="0.25" stroke-linecap="round" stroke-linejoin="round"></path>
                <path d="M178.721719,88.1460676 C173.306719,84.596085 168.675469,80.4248555 165.362344,73.7331383 C159.795938,75.9518774 154.229531,79.2799861 150.889688,84.8268339 C150.889688,75.9518774 150.889688,67.0769209 156.456094,59.311334 C154.70484,58.54536 153.046556,57.5836597 151.513125,56.4447231" id="Shape" stroke="#FFFFFF" stroke-width="3.5625" opacity="0.25" stroke-linecap="round" stroke-linejoin="round"></path>
                <ellipse id="Oval" stroke="#525556" stroke-width="3.5625" stroke-linecap="round" stroke-linejoin="round" transform="translate(140.644601, 52.377703) rotate(-89.200000) translate(-140.644601, -52.377703) " cx="140.644601" cy="52.3777033" rx="4.77375" ry="4.75697666"></ellipse>
                <ellipse id="Oval" stroke="#525556" stroke-width="3.5625" stroke-linecap="round" stroke-linejoin="round" transform="translate(182.771461, 90.648442) rotate(-28.360000) translate(-182.771461, -90.648442) " cx="182.771461" cy="90.6484423" rx="4.77375" ry="4.75697666"></ellipse>
                <ellipse id="Oval" stroke="#525556" stroke-width="3.5625" stroke-linecap="round" stroke-linejoin="round" transform="translate(195.802130, 35.339707) rotate(-57.510000) translate(-195.802130, -35.339707) " cx="195.80213" cy="35.3397065" rx="4.77375" ry="4.75697666"></ellipse>
            </g>
        </g>
    </g>
</svg>