<?xml version="1.0" encoding="UTF-8"?>
<svg width="297px" height="155px" viewBox="0 0 297 155" version="1.1" xmlns="http://www.w3.org/2000/svg" xmlns:xlink="http://www.w3.org/1999/xlink">
    <!-- Generator: Sketch 46.2 (44496) - http://www.bohemiancoding.com/sketch -->
    <title>universe pattern</title>
    <desc>Created with Sketch.</desc>
    <defs></defs>
    <g id="Design" stroke="none" stroke-width="1" fill="none" fill-rule="evenodd" opacity="0.2">
        <g id="1" transform="translate(-887.000000, -450.000000)">
            <g id="universe-pattern" transform="translate(889.000000, 437.000000)">
                <g id="planet-1" opacity="0.25" transform="translate(130.000000, 43.000000) rotate(-15.000000) translate(-130.000000, -43.000000) translate(77.000000, 13.000000)" stroke="#FFFFFF" stroke-linejoin="round" stroke-width="5.18518519" stroke-linecap="round">
                    <ellipse id="Oval" transform="translate(52.904962, 30.243079) rotate(-6.410000) translate(-52.904962, -30.243079) " cx="52.9049617" cy="30.2430794" rx="26.9299301" ry="26.9111111"></ellipse>
                    <path d="M78.3213986,21.3925926 C94.251049,20.7925926 105.14014,21.8148148 105.421818,24.3555556 C105.844336,28.1481481 82.6725874,33.8074074 53.6671329,37.037037 C24.6616783,40.2666667 0.800559441,39.9037037 0.378041958,36.1407407 C0.0963636364,33.637037 10.1923077,30.2962963 25.4844755,27.4074074" id="Shape"></path>
                </g>
                <circle id="planet" stroke="#FFFFFF" stroke-width="4" opacity="0.25" cx="210" cy="74" r="12"></circle>
                <circle id="planet" stroke="#FFFFFF" stroke-width="4" opacity="0.25" cx="233" cy="23" r="8"></circle>
                <circle id="planet" stroke="#FFFFFF" stroke-width="4" opacity="0.25" cx="263" cy="138" r="28"></circle>
                <g id="star-horizontal" opacity="0.25" transform="translate(169.000000, 137.000000)">
                    <path d="M0.333333333,0.373333333 C5.16666667,3.09333333 6.85333333,3.08666667 11.6666667,0.333333333 C8.94666667,5.16666667 8.95333333,6.85333333 11.7066667,11.6666667 C6.87333333,8.94666667 5.18666667,8.95333333 0.373333333,11.7066667 C3.08666667,6.87333333 3.08666667,5.18 0.333333333,0.373333333 Z" id="Shape" fill="#FFFFFF" fill-rule="nonzero"></path>
                    <path d="M0.333333333,0.373333333 C5.16666667,3.09333333 6.85333333,3.08666667 11.6666667,0.333333333 C8.94666667,5.16666667 8.95333333,6.85333333 11.7066667,11.6666667 C6.87333333,8.94666667 5.18666667,8.95333333 0.373333333,11.7066667 C3.08666667,6.87333333 3.08666667,5.18 0.333333333,0.373333333 Z" id="Shape" stroke="#FFFFFF" stroke-width="4.66666667" stroke-linejoin="round"></path>
                </g>
                <g id="star-vertical" opacity="0.25" transform="translate(276.000000, 57.000000)">
                    <path d="M9.01924619,16 C7.5308741,10.6752205 6.33761026,9.4819567 1,8.02566159 C6.32477947,6.53728949 7.5180433,5.33761026 8.97433841,0 C10.4627105,5.32477947 11.6623897,6.5180433 17,7.97433841 C11.6688051,9.4691259 10.4755413,10.6623897 9.01924619,16 Z" id="Shape" fill="#FFFFFF" fill-rule="nonzero"></path>
                    <path d="M8.01924619,16 C6.5308741,10.6752205 5.33761026,9.4819567 0,8.02566159 C5.32477947,6.53728949 6.5180433,5.33761026 7.97433841,0 C9.46271051,5.32477947 10.6623897,6.5180433 16,7.97433841 C10.6688051,9.4691259 9.4755413,10.6623897 8.01924619,16 Z" id="Shape" stroke="#FFFFFF" stroke-width="4.48" stroke-linecap="round" stroke-linejoin="round"></path>
                </g>
                <g id="star-vertical" opacity="0.25" transform="translate(0.000000, 77.000000)">
                    <path d="M7.27936521,13 C6.02599924,8.67361668 5.02114549,7.70408982 0.526315789,6.52085004 C5.01034061,5.31154771 6.01519436,4.33680834 7.24154814,0 C8.49491411,4.32638332 9.5051703,5.29591018 14,6.47914996 C9.51057274,7.6936648 8.50571899,8.66319166 7.27936521,13 Z" id="Shape" fill="#FFFFFF" fill-rule="nonzero"></path>
                    <path d="M6.75304942,13 C5.49968345,8.67361668 4.4948297,7.70408982 0,6.52085004 C4.48402482,5.31154771 5.48887857,4.33680834 6.71523235,0 C7.96859832,4.32638332 8.97885451,5.29591018 13.4736842,6.47914996 C8.98425695,7.6936648 7.9794032,8.66319166 6.75304942,13 Z" id="Shape" stroke="#FFFFFF" stroke-width="3.77263158" stroke-linecap="round" stroke-linejoin="round"></path>
                </g>
            </g>
        </g>
    </g>
</svg>