<?xml version="1.0" encoding="UTF-8"?>
<svg width="301px" height="90px" viewBox="0 0 301 90" version="1.1" xmlns="http://www.w3.org/2000/svg" xmlns:xlink="http://www.w3.org/1999/xlink">
    <!-- Generator: Sketch 46.2 (44496) - http://www.bohemiancoding.com/sketch -->
    <title>Milky Way Pattern</title>
    <desc>Created with Sketch.</desc>
    <defs></defs>
    <g id="Design" stroke="none" stroke-width="1" fill="none" fill-rule="evenodd" opacity="0.200000018">
        <g id="2" transform="translate(-892.000000, -435.000000)">
            <g id="Milky-Way-Pattern" transform="translate(894.000000, 430.000000)">
                <g id="stars-planets" opacity="0.25">
                    <path d="M251.361535,48.1371973 C253.20698,49.1855109 253.850347,49.1855109 255.695792,48.1371973 C254.654554,49.995184 254.654554,50.6429225 255.695792,52.5009092 C253.850347,51.4525956 253.20698,51.4525956 251.361535,52.5009092 C252.411238,50.6429225 252.411238,49.9866611 251.361535,48.1371973 Z" id="Shape" fill="#FFFFFF" fill-rule="nonzero"></path>
                    <path d="M251.361535,48.1371973 C253.20698,49.1855109 253.850347,49.1855109 255.695792,48.1371973 C254.654554,49.995184 254.654554,50.6429225 255.695792,52.5009092 C253.850347,51.4525956 253.20698,51.4525956 251.361535,52.5009092 C252.411238,50.6429225 252.411238,49.9866611 251.361535,48.1371973 Z" id="Shape" stroke="#FFFFFF" stroke-width="4.23267327" stroke-linecap="round" stroke-linejoin="round"></path>
                    <path d="M61.4668812,52.4412491 C61.0520792,50.7878114 60.6880693,50.4128049 59.0627228,49.8843866 C60.705,49.4667658 61.0774752,49.1002821 61.6023267,47.4638902 C62.0171287,49.1173279 62.3811386,49.4923344 64.0064851,50.0207526 C62.3303465,50.4468964 61.9578713,50.81338 61.4668812,52.4412491 Z" id="Shape" fill="#FFFFFF" fill-rule="nonzero"></path>
                    <path d="M61.4668812,52.4412491 C61.0520792,50.7878114 60.6880693,50.4128049 59.0627228,49.8843866 C60.705,49.4667658 61.0774752,49.1002821 61.6023267,47.4638902 C62.0171287,49.1173279 62.3811386,49.4923344 64.0064851,50.0207526 C62.3303465,50.4468964 61.9578713,50.81338 61.4668812,52.4412491 Z" id="Shape" stroke="#FFFFFF" stroke-width="4.23267327" stroke-linecap="round" stroke-linejoin="round"></path>
                    <path d="M28.7821782,92.8311531 C27.3092079,91.9788656 26.7843564,91.9788656 25.3198515,92.8311531 C26.1663861,91.3481729 26.1663861,90.8197547 25.3198515,89.3452973 C26.7928218,90.1975848 27.3176733,90.1975848 28.7821782,89.3452973 C27.9356436,90.8282775 27.9356436,91.3481729 28.7821782,92.8311531 Z" id="Shape" fill="#FFFFFF" fill-rule="nonzero"></path>
                    <path d="M28.7821782,92.8311531 C27.3092079,91.9788656 26.7843564,91.9788656 25.3198515,92.8311531 C26.1663861,91.3481729 26.1663861,90.8197547 25.3198515,89.3452973 C26.7928218,90.1975848 27.3176733,90.1975848 28.7821782,89.3452973 C27.9356436,90.8282775 27.9356436,91.3481729 28.7821782,92.8311531 Z" id="Shape" stroke="#FFFFFF" stroke-width="4.23267327" stroke-linecap="round" stroke-linejoin="round"></path>
                    <path d="M116.576287,27.4947943 C117.26198,29.9579052 117.812228,30.511892 120.267178,31.1851992 C117.820693,31.875552 117.270446,32.4295389 116.601683,34.9011726 C115.91599,32.4380618 115.365743,31.8840749 112.910792,31.2107678 C115.357277,30.5204149 115.907525,29.9664281 116.576287,27.4947943 Z" id="Shape" fill="#FFFFFF" fill-rule="nonzero"></path>
                    <path d="M116.576287,27.4947943 C117.26198,29.9579052 117.812228,30.511892 120.267178,31.1851992 C117.820693,31.875552 117.270446,32.4295389 116.601683,34.9011726 C115.91599,32.4380618 115.365743,31.8840749 112.910792,31.2107678 C115.357277,30.5204149 115.907525,29.9664281 116.576287,27.4947943 Z" id="Shape" stroke="#FFFFFF" stroke-width="4.23267327" stroke-linecap="round" stroke-linejoin="round"></path>
                    <path d="M227.785545,76.1177955 C229.825693,75.5467629 230.282822,75.0780048 230.841535,73.0239919 C231.408713,75.0780048 231.874307,75.53824 233.914455,76.1007497 C231.874307,76.6717824 231.417178,77.1405405 230.858465,79.1945533 C230.257426,77.1405405 229.834158,76.7058739 227.785545,76.1177955 Z" id="Shape" fill="#FFFFFF" fill-rule="nonzero"></path>
                    <path d="M227.785545,76.1177955 C229.825693,75.5467629 230.282822,75.0780048 230.841535,73.0239919 C231.408713,75.0780048 231.874307,75.53824 233.914455,76.1007497 C231.874307,76.6717824 231.417178,77.1405405 230.858465,79.1945533 C230.257426,77.1405405 229.834158,76.7058739 227.785545,76.1177955 Z" id="Shape" stroke="#FFFFFF" stroke-width="4.23267327" stroke-linecap="round" stroke-linejoin="round"></path>
                    <path d="M81.9191584,25.5686246 C83.9593069,24.997592 84.4164356,24.5288339 84.9751485,22.474821 C85.5423267,24.5288339 86.0079208,24.9890691 88.0480693,25.5515789 C86.0079208,26.1226115 85.5507921,26.5913696 84.9920792,28.6453825 C84.424901,26.5487552 83.9677723,26.08852 81.9191584,25.5686246 Z" id="Shape" fill="#FFFFFF" fill-rule="nonzero"></path>
                    <path d="M81.9191584,25.5686246 C83.9593069,24.997592 84.4164356,24.5288339 84.9751485,22.474821 C85.5423267,24.5288339 86.0079208,24.9890691 88.0480693,25.5515789 C86.0079208,26.1226115 85.5507921,26.5913696 84.9920792,28.6453825 C84.424901,26.5487552 83.9677723,26.08852 81.9191584,25.5686246 Z" id="Shape" stroke="#FFFFFF" stroke-width="4.23267327" stroke-linecap="round" stroke-linejoin="round"></path>
                    <ellipse id="Oval" stroke="#FFFFFF" stroke-width="4.23267327" stroke-linecap="round" stroke-linejoin="round" transform="translate(84.990794, 69.632395) rotate(-78.640000) translate(-84.990794, -69.632395) " cx="84.990794" cy="69.6323947" rx="10.5308911" ry="10.6024563"></ellipse>
                    <path d="M216.264208,17.3951876 C218.62604,16.7304034 219.150891,16.1934623 219.794257,13.8155802 C220.454554,16.1934623 220.987871,16.7218805 223.349703,17.369619 C220.987871,18.0344032 220.46302,18.5713443 219.819653,20.9492264 C219.159356,18.5713443 218.62604,18.0429261 216.264208,17.3951876 Z" id="Shape" fill="#FFFFFF" fill-rule="nonzero"></path>
                    <path d="M216.264208,17.3951876 C218.62604,16.7304034 219.150891,16.1934623 219.794257,13.8155802 C220.454554,16.1934623 220.987871,16.7218805 223.349703,17.369619 C220.987871,18.0344032 220.46302,18.5713443 219.819653,20.9492264 C219.159356,18.5713443 218.62604,18.0429261 216.264208,17.3951876 Z" id="Shape" stroke="#FFFFFF" stroke-width="4.23267327" stroke-linejoin="round"></path>
                    <path d="M5.45168317,89.3708659 C3.31841584,88.1606177 2.565,88.1606177 0.44019802,89.3708659 C1.64227723,87.2231015 1.64227723,86.4645656 0.44019802,84.325324 C2.57346535,85.5355722 3.32688119,85.5355722 5.45168317,84.325324 C4.23267327,86.4816113 4.23267327,87.2316243 5.45168317,89.3708659 Z" id="Shape" fill="#FFFFFF" fill-rule="nonzero"></path>
                    <path d="M5.45168317,89.3708659 C3.31841584,88.1606177 2.565,88.1606177 0.44019802,89.3708659 C1.64227723,87.2231015 1.64227723,86.4645656 0.44019802,84.325324 C2.57346535,85.5355722 3.32688119,85.5355722 5.45168317,84.325324 C4.23267327,86.4816113 4.23267327,87.2316243 5.45168317,89.3708659 Z" id="Shape" stroke="#FFFFFF" stroke-width="4.23267327" stroke-linejoin="round"></path>
                    <path d="M116.974158,85.0497684 C115.069455,85.5355722 114.637723,85.9531931 114.07901,87.8452713 C113.596485,85.9276245 113.181683,85.4929579 111.302376,84.9304481 C113.207079,84.4446442 113.638812,84.0270234 114.197525,82.1349452 C114.68005,84.0440691 115.128713,84.4787357 116.974158,85.0497684 Z" id="Shape" fill="#FFFFFF" fill-rule="nonzero"></path>
                    <path d="M116.974158,85.0497684 C115.069455,85.5355722 114.637723,85.9531931 114.07901,87.8452713 C113.596485,85.9276245 113.181683,85.4929579 111.302376,84.9304481 C113.207079,84.4446442 113.638812,84.0270234 114.197525,82.1349452 C114.68005,84.0440691 115.128713,84.4787357 116.974158,85.0497684 Z" id="Shape" stroke="#FFFFFF" stroke-width="4.23267327" stroke-linecap="round" stroke-linejoin="round"></path>
                    <path d="M287.525495,7.90070501 C289.218564,8.87231274 289.836535,8.86378987 291.538069,7.90070501 C290.57302,9.60527998 290.581485,10.2274498 291.538069,11.9405477 C289.845,10.96894 289.22703,10.9774628 287.525495,11.9405477 C288.49901,10.2274498 288.49901,9.62232573 287.525495,7.90070501 Z" id="Shape" fill="#FFFFFF" fill-rule="nonzero"></path>
                    <path d="M287.525495,7.90070501 C289.218564,8.87231274 289.836535,8.86378987 291.538069,7.90070501 C290.57302,9.60527998 290.581485,10.2274498 291.538069,11.9405477 C289.845,10.96894 289.22703,10.9774628 287.525495,11.9405477 C288.49901,10.2274498 288.49901,9.62232573 287.525495,7.90070501 Z" id="Shape" stroke="#FFFFFF" stroke-width="4.23267327" stroke-linejoin="round"></path>
                    <ellipse id="Oval" stroke="#FFFFFF" stroke-width="4.23267327" stroke-linecap="round" stroke-linejoin="round" transform="translate(259.449744, 24.167495) rotate(-23.340000) translate(-259.449744, -24.167495) " cx="259.449744" cy="24.1674952" rx="9.50658416" ry="9.57118848"></ellipse>
                    <ellipse id="Oval" stroke="#FFFFFF" stroke-width="4.23267327" stroke-linecap="round" stroke-linejoin="round" transform="translate(45.205459, 72.455572) rotate(-20.670000) translate(-45.205459, -72.455572) " cx="45.2054585" cy="72.4555716" rx="3.81787129" ry="3.84381657"></ellipse>
                    <ellipse id="Oval" stroke="#FFFFFF" stroke-width="4.23267327" stroke-linecap="round" stroke-linejoin="round" cx="292.223762" cy="39.5972767" rx="4.57975248" ry="4.61087531"></ellipse>
                </g>
                <g id="icon" opacity="0.25" transform="translate(125.287129, 33.239212)" stroke="#FFFFFF" stroke-width="3.38613861" stroke-linecap="round" stroke-linejoin="round">
                    <path d="M83.4175248,22.1083374 C81.1797569,36.4233323 68.927152,46.9695616 54.5337624,46.9695634 C41.6192648,46.9648576 31.1524744,36.4231222 31.1524752,23.4208602" id="Shape"></path>
                    <path d="M5.18925743,25.3470299 C7.42702529,11.032035 19.6796302,0.485805712 34.0730198,0.485803868 C40.2763679,0.485803868 46.2256429,2.96682084 50.6120724,7.38305937 C54.9985019,11.7992979 57.4627723,17.7890027 57.4627723,24.0345071" id="Shape"></path>
                    <ellipse id="Oval" cx="44.3076238" cy="22.8753962" rx="13.1551485" ry="13.2445476"></ellipse>
                    <ellipse id="Oval" cx="4.84217822" cy="29.9238137" rx="4.53742574" ry="4.56826093"></ellipse>
                    <ellipse id="Oval" cx="83.764604" cy="17.5400765" rx="4.53742574" ry="4.56826093"></ellipse>
                </g>
            </g>
        </g>
    </g>
</svg>