<?xml version="1.0" encoding="utf-8"?>
<!-- Generator: Adobe Illustrator 21.0.2, SVG Export Plug-In . SVG Version: 6.00 Build 0)  -->
<svg version="1.1" id="Layer_1" xmlns="http://www.w3.org/2000/svg" xmlns:xlink="http://www.w3.org/1999/xlink" x="0px" y="0px"
	 viewBox="0 0 308 105" style="enable-background:new 0 0 308 105;" xml:space="preserve">
<style type="text/css">
	.st0{opacity:0.2;}
	.st1{opacity:0.25;}
	.st2{fill:#FFFFFF;}
	.st3{opacity:0.6;fill:#565656;}
</style>
<title>Pegasus Pattern</title>
<desc>Created with Sketch.</desc>
<g class="st0">
	<g id="stars-planets" class="st1">
		<g id="Shape">
			<path class="st2" d="M263.2,50.5c2.2,1.2,2.9,1.2,5.1,0c-1.2,2.2-1.2,2.9,0,5.1c-2.2-1.2-2.9-1.2-5.1,0
				C264.5,53.4,264.5,52.7,263.2,50.5z"/>
		</g>
		<g id="Shape_1_">
			<path class="st2" d="M268.3,58.1c-0.4,0-0.8-0.1-1.2-0.3c-1.3-0.8-1.3-0.8-2.7,0c-1,0.6-2.2,0.4-3-0.4c-0.8-0.8-1-2-0.4-3
				c0.8-1.3,0.8-1.3,0-2.6c-0.6-1-0.4-2.2,0.4-3c0.8-0.8,2-1,3-0.4c1.3,0.8,1.3,0.8,2.7,0c1-0.6,2.2-0.4,3,0.4c0.8,0.8,1,2,0.4,3
				c-0.8,1.3-0.8,1.3,0,2.7c0.6,1,0.4,2.2-0.4,3C269.6,57.8,269,58.1,268.3,58.1z"/>
		</g>
		<g id="Shape_2_">
			<path class="st2" d="M74.6,54.2c-0.5-1.9-0.9-2.4-2.8-3c1.9-0.5,2.4-0.9,3-2.8c0.5,1.9,0.9,2.4,2.8,3
				C75.6,51.8,75.2,52.3,74.6,54.2z"/>
		</g>
		<g id="Shape_3_">
			<path class="st2" d="M74.6,56.7C74.6,56.7,74.6,56.7,74.6,56.7c-1.2,0-2.1-0.8-2.4-1.9c-0.2-0.7-0.3-0.9-0.3-0.9
				c0,0-0.2-0.1-0.9-0.3c-1.1-0.3-1.8-1.3-1.7-2.5c0-1.1,0.8-2.1,1.9-2.3c0.7-0.2,0.9-0.3,0.9-0.3c0,0,0.1-0.2,0.3-0.9
				c0.3-1.1,1.3-1.8,2.5-1.7c1.1,0,2.1,0.8,2.3,1.9c0.2,0.7,0.3,0.9,0.3,0.9c0,0,0.2,0.1,0.9,0.3c1.1,0.3,1.8,1.3,1.7,2.5
				c0,1.1-0.8,2.1-1.9,2.3c-0.6,0.1-0.8,0.2-0.9,0.3c0,0.1-0.1,0.3-0.3,0.9C76.7,56,75.7,56.7,74.6,56.7z"/>
		</g>
		<g id="Shape_4_">
			<path class="st2" d="M36,101.6c-1.7-1-2.4-1-4.1,0c1-1.7,1-2.4,0-4.1c1.7,1,2.4,1,4.1,0C35,99.2,35,99.8,36,101.6z"/>
		</g>
		<g id="Shape_5_">
			<path class="st2" d="M31.9,104.1c-0.6,0-1.3-0.2-1.8-0.7c-0.8-0.8-1-2-0.4-3c0.3-0.5,0.4-0.7,0.4-0.8c0-0.1-0.1-0.3-0.4-0.8
				c-0.6-1-0.4-2.2,0.4-3c0.8-0.8,2-1,3-0.4c0.5,0.3,0.7,0.4,0.8,0.4c0.1,0,0.3-0.1,0.8-0.4c1-0.6,2.2-0.4,3,0.4c0.8,0.8,1,2,0.4,3
				c-0.3,0.5-0.4,0.7-0.4,0.8c0,0.1,0.1,0.3,0.4,0.8c0.6,1,0.4,2.2-0.4,3c-0.8,0.8-2,1-3,0.4c-0.5-0.3-0.7-0.4-0.8-0.4
				c-0.1,0-0.3,0.1-0.8,0.4C32.8,104,32.3,104.1,31.9,104.1z"/>
		</g>
		<g id="Shape_6_">
			<path class="st2" d="M139.7,24.9c0.8,2.9,1.5,3.5,4.4,4.3c-2.9,0.8-3.5,1.5-4.3,4.4c-0.8-2.9-1.5-3.5-4.4-4.3
				C138.3,28.5,138.9,27.8,139.7,24.9z"/>
		</g>
		<g id="Shape_7_">
			<path class="st2" d="M139.7,36.1c-1.1,0-2.1-0.7-2.4-1.8c-0.6-2-0.6-2-2.6-2.6c-1.1-0.3-1.8-1.3-1.8-2.4c0-1.1,0.7-2.1,1.8-2.4
				c2-0.6,2-0.6,2.6-2.6c0.3-1.1,1.3-1.8,2.4-1.8c0,0,0,0,0,0c1.1,0,2.1,0.7,2.4,1.8c0.6,2,0.6,2,2.6,2.6c1.1,0.3,1.8,1.3,1.8,2.4
				c0,1.1-0.7,2.1-1.8,2.4c-2,0.6-2,0.6-2.6,2.6C141.9,35.3,140.9,36.1,139.7,36.1C139.7,36.1,139.7,36.1,139.7,36.1z"/>
		</g>
		<g id="Shape_8_">
			<path class="st2" d="M235.4,83.3c2.4-0.7,2.9-1.2,3.6-3.6c0.7,2.4,1.2,2.9,3.6,3.6c-2.4,0.7-3,1.2-3.6,3.6
				C238.3,84.5,237.8,84,235.4,83.3z"/>
		</g>
		<g id="Shape_9_">
			<path class="st2" d="M239,89.4c-1.1,0-2.1-0.7-2.4-1.8c-0.4-1.4-0.4-1.4-1.9-1.9c-1.1-0.3-1.8-1.3-1.8-2.4c0-1.1,0.8-2.1,1.8-2.4
				c1.5-0.4,1.5-0.4,1.9-1.9c0.3-1.1,1.3-1.8,2.4-1.8c0,0,0,0,0,0c1.1,0,2.1,0.7,2.4,1.8c0.4,1.5,0.4,1.5,1.9,1.9
				c1.1,0.3,1.8,1.3,1.8,2.4c0,1.1-0.7,2.1-1.8,2.4c-1.5,0.4-1.5,0.4-1.9,1.9C241.1,88.7,240.1,89.4,239,89.4
				C239,89.4,239,89.4,239,89.4z"/>
		</g>
		<g id="Shape_10_">
			<path class="st2" d="M98.8,22.6c2.4-0.7,3-1.2,3.6-3.6c0.7,2.4,1.2,3,3.6,3.6c-2.4,0.7-3,1.2-3.6,3.6
				C101.7,23.8,101.2,23.3,98.8,22.6z"/>
		</g>
		<g id="Shape_11_">
			<path class="st2" d="M102.4,28.7c-1.1,0-2.1-0.8-2.4-1.8c-0.4-1.5-0.4-1.5-1.9-1.9c-1.1-0.3-1.8-1.3-1.8-2.4s0.7-2.1,1.8-2.4
				c1.5-0.4,1.5-0.4,1.9-1.9c0.3-1.1,1.3-1.8,2.4-1.8c0,0,0,0,0,0c1.1,0,2.1,0.7,2.4,1.8c0.4,1.5,0.4,1.5,1.9,1.9
				c1.1,0.3,1.8,1.3,1.8,2.4s-0.7,2.1-1.8,2.4c-1.5,0.4-1.5,0.4-1.9,1.9C104.5,28,103.5,28.7,102.4,28.7
				C102.4,28.7,102.4,28.7,102.4,28.7z"/>
		</g>
		<g id="Oval">
			<path class="st2" d="M102.7,89.6c-1,0-2-0.1-3-0.3c-8.1-1.6-13.3-9.6-11.7-17.6l0,0c1.6-8.1,9.6-13.3,17.6-11.7
				c8.1,1.6,13.3,9.6,11.7,17.6C115.9,84.7,109.6,89.6,102.7,89.6z M92.9,72.6c-1.1,5.4,2.4,10.6,7.8,11.7
				c5.4,1.1,10.6-2.4,11.7-7.8c1.1-5.4-2.4-10.6-7.8-11.7C99.3,63.8,94,67.3,92.9,72.6L92.9,72.6z"/>
		</g>
		<g id="Shape_12_">
			<path class="st2" d="M221.8,14.4c2.8-0.8,3.4-1.4,4.2-4.2c0.8,2.8,1.4,3.4,4.2,4.2c-2.8,0.8-3.4,1.4-4.2,4.2
				C225.2,15.8,224.5,15.2,221.8,14.4z"/>
		</g>
		<g id="Shape_13_">
			<path class="st2" d="M226,21.1c-1.1,0-2.1-0.7-2.4-1.8c-0.5-1.9-0.5-1.9-2.5-2.4c-1.1-0.3-1.8-1.3-1.8-2.4c0-1.1,0.7-2.1,1.8-2.4
				c1.9-0.5,1.9-0.5,2.4-2.4c0.3-1.1,1.3-1.8,2.4-1.8c0,0,0,0,0,0c1.1,0,2.1,0.7,2.4,1.8c0.5,1.9,0.5,1.9,2.5,2.4
				c1.1,0.3,1.8,1.3,1.8,2.4c0,1.1-0.7,2.1-1.8,2.4c-1.9,0.5-1.9,0.5-2.4,2.4C228.1,20.3,227.1,21.1,226,21.1
				C226,21.1,226,21.1,226,21.1z"/>
		</g>
		<g id="Shape_14_">
			<path class="st2" d="M8.4,97.5c-2.5-1.4-3.4-1.4-5.9,0c1.4-2.5,1.4-3.4,0-5.9C5,93,5.9,93,8.4,91.6C7,94.1,7,95,8.4,97.5z"/>
		</g>
		<g id="Shape_15_">
			<path class="st2" d="M8.4,100c-0.4,0-0.8-0.1-1.2-0.3c-1.7-1-1.7-1-3.5,0c-1,0.6-2.2,0.4-3-0.4c-0.8-0.8-1-2-0.4-3
				c1-1.7,1-1.7,0-3.5c-0.6-1-0.4-2.2,0.4-3c0.8-0.8,2-1,3-0.4c1.7,1,1.7,1,3.5,0c1-0.5,2.2-0.4,3,0.4c0.8,0.8,1,2,0.4,3
				c-1,1.7-1,1.7,0,3.5c0.6,1,0.4,2.2-0.4,3C9.7,99.8,9.1,100,8.4,100z"/>
		</g>
		<g id="Shape_16_">
			<path class="st2" d="M140.2,92.4c-2.2,0.6-2.8,1.1-3.4,3.3c-0.6-2.2-1.1-2.8-3.3-3.4c2.2-0.6,2.8-1.1,3.4-3.3
				C137.5,91.3,138,91.8,140.2,92.4z"/>
		</g>
		<g id="Shape_17_">
			<path class="st2" d="M136.8,98.2C136.7,98.2,136.7,98.2,136.8,98.2c-1.2,0-2.1-0.8-2.4-1.9c-0.2-0.9-0.4-1.1-0.4-1.2
				c0,0-0.2-0.2-1.2-0.4c-1.1-0.3-1.8-1.3-1.8-2.4c0-1.1,0.8-2.1,1.9-2.4c0.9-0.2,1.1-0.4,1.2-0.4c0,0,0.2-0.2,0.4-1.2
				c0.3-1.1,1.3-1.8,2.4-1.8c0,0,0,0,0.1,0c1.1,0,2.1,0.8,2.4,1.9c0.2,1,0.4,1.2,0.4,1.2c0,0,0.2,0.2,1.2,0.5
				c1.1,0.3,1.8,1.3,1.8,2.5s-0.8,2.1-1.9,2.4c-0.9,0.2-1.1,0.4-1.2,0.4c0,0-0.2,0.2-0.4,1.2C138.8,97.5,137.9,98.2,136.8,98.2z"/>
		</g>
		<g id="Shape_18_">
			<path class="st2" d="M305.9,3.3c2,1.1,2.7,1.1,4.7,0c-1.1,2-1.1,2.7,0,4.7c-2-1.1-2.7-1.1-4.7,0C307.1,6,307.1,5.3,305.9,3.3z"/>
		</g>
		<g id="Shape_19_">
			<path class="st2" d="M305.9,10.5c-0.7,0-1.3-0.3-1.8-0.7c-0.8-0.8-1-2-0.4-3c0.5-0.8,0.5-1.1,0.5-1.1c0,0-0.1-0.3-0.5-1.1
				c-0.6-1-0.4-2.2,0.4-3c0.8-0.8,2-1,3-0.4c0.9,0.5,1.1,0.5,1.1,0.5c0,0,0.3,0,1.2-0.5c1-0.5,2.2-0.4,3,0.4c0.8,0.8,1,2,0.4,3
				c-0.5,0.9-0.5,1.1-0.5,1.1c0,0,0,0.3,0.5,1.2c0.5,1,0.4,2.2-0.4,3c-0.8,0.8-2,1-3,0.4c-0.9-0.5-1.1-0.5-1.1-0.5
				c0,0-0.3,0-1.2,0.5C306.8,10.4,306.3,10.5,305.9,10.5z"/>
		</g>
		<g id="Oval_1_">
			<path class="st2" d="M272.8,36.1c-5.3,0-10.4-3.1-12.6-8.3c-3-7,0.2-15,7.2-18c3.4-1.5,7.1-1.5,10.5-0.2c3.4,1.4,6.1,4,7.5,7.3
				c1.5,3.4,1.5,7.1,0.2,10.5c-1.4,3.4-4,6.1-7.3,7.5C276.4,35.7,274.6,36.1,272.8,36.1z M272.8,13.6c-1.2,0-2.3,0.2-3.5,0.7l0,0
				c-4.4,1.9-6.5,7.1-4.6,11.5c1.9,4.4,7.1,6.5,11.5,4.6c2.1-0.9,3.8-2.6,4.7-4.8c0.9-2.2,0.8-4.5-0.1-6.7c-0.9-2.1-2.6-3.8-4.8-4.7
				C274.9,13.8,273.9,13.6,272.8,13.6z M268.3,12L268.3,12L268.3,12z"/>
		</g>
		<g id="Oval_2_">
			<path class="st2" d="M55.4,84.7c-2.8,0-5.5-1.7-6.6-4.5c-0.7-1.8-0.6-3.7,0.2-5.4s2.2-3,3.9-3.7l0,0c1.8-0.7,3.7-0.6,5.4,0.2
				c1.7,0.8,3,2.2,3.7,3.9c1.4,3.6-0.5,7.7-4.1,9C57.1,84.5,56.2,84.7,55.4,84.7z M55.4,75.7c-0.2,0-0.5,0-0.7,0.1h0
				c-0.5,0.2-0.9,0.6-1.1,1.1s-0.2,1,0,1.5c0.4,1,1.6,1.6,2.6,1.2c1-0.4,1.6-1.6,1.2-2.6c-0.2-0.5-0.6-0.9-1.1-1.1
				C56,75.7,55.7,75.7,55.4,75.7z M53.8,73.5L53.8,73.5L53.8,73.5z"/>
		</g>
		<g id="Oval_3_">
			<path class="st2" d="M311.5,48.4c-4.4,0-7.9-3.5-7.9-7.9s3.5-7.9,7.9-7.9s7.9,3.5,7.9,7.9S315.8,48.4,311.5,48.4z M311.5,37.5
				c-1.6,0-2.9,1.3-2.9,2.9s1.3,2.9,2.9,2.9s2.9-1.3,2.9-2.9S313.1,37.5,311.5,37.5z"/>
		</g>
	</g>
	<path class="st3" d="M215.7,75c-0.1-1.8-1-3.5-2.4-4.7c-2.9-2.4-7.2-2.1-9.6,0.8c-1.1,1.3-1.6,2.8-1.6,4.5c-3.4,0.8-6.8,1-10.3,0.6
		c-4-0.5-7.8-2.4-10.7-5.3c-0.9-0.9-1.7-1.9-2.4-3c-2-3.5-2.2-8.9,1-11.4c0.7-0.5,1.5-0.8,2.3-0.9c0.2,0,0.3,0,0.5,0
		c0.2,0.3,0.3,0.6,0.5,0.9c0.9,1.3,2.2,2.4,3.7,3c1.3,0.5,2.6,0.8,3.8,0.8c4.7,0,9.2-3.2,11.6-7.3c0.8-1.4,1.4-3,1.9-4.5
		c1.3-4.8,1-9.9-0.9-14.5c-1.6-3.8-3.8-7.1-6.6-10.1c0.2-0.5,0.4-1.1,0.5-1.7c0.3-1.8-0.1-3.6-1.1-5.1c-1-1.5-2.6-2.5-4.4-2.8
		c-3.7-0.7-7.3,1.8-8,5.5c0,0,0,0,0,0c-0.7,3.7,1.8,7.3,5.5,8c0.4,0.1,0.8,0.1,1.3,0.1c1.2,0,2.4-0.3,3.5-1c2.4,2.5,4.3,5.4,5.7,8.6
		c1.6,3.8,1.8,8,0.7,11.9c-0.3,1.2-0.8,2.5-1.5,3.6c-2.1,3.5-6.6,6.4-10.4,4.8c-0.8-0.3-1.5-0.9-2-1.5c-0.1-0.1-0.2-0.3-0.2-0.4
		c0.2-0.3,0.3-0.6,0.5-0.9c0.7-1.5,0.9-3.1,0.7-4.7c-0.8-6.3-7.4-10.1-13.3-10.1c-1.6,0-3.3,0.2-4.8,0.7c-4.8,1.3-9.1,4.1-12.1,8
		c-2.4,3.3-4.3,6.9-5.4,10.8c-0.6,0-1.2,0.2-1.7,0.4c-1.7,0.6-3.1,1.9-3.9,3.5c-0.8,1.6-0.9,3.5-0.3,5.2c0.6,1.7,1.9,3.1,3.5,3.9
		c0.9,0.4,1.9,0.7,2.9,0.7c0.8,0,1.5-0.1,2.3-0.4c1.7-0.6,3.1-1.9,3.9-3.5c0.8-1.6,0.9-3.5,0.3-5.2c-0.6-1.6-1.7-2.9-3.1-3.6
		c1-3.3,2.5-6.4,4.6-9.2c2.5-3.2,6-5.6,9.9-6.6c1.2-0.3,2.5-0.5,3.8-0.5c4.1,0,8.8,2.5,9.3,6.6c0.1,0.9,0,1.7-0.4,2.5
		c-0.1,0.1-0.1,0.2-0.2,0.3c-0.3,0-0.7,0-1.1,0c-1.6,0.1-3.2,0.7-4.5,1.7c-5.1,3.9-5,11.5-2.1,16.6c0.8,1.4,1.9,2.7,3,3.8
		c3.5,3.5,8.1,5.8,13,6.5c1.4,0.2,2.7,0.3,4.1,0.3c2.7,0,5.3-0.3,7.9-1c0.3,0.5,0.7,0.9,1.2,1.3c1.2,1.1,2.8,1.6,4.4,1.6
		c0.2,0,0.4,0,0.6,0c1.8-0.1,3.5-1,4.7-2.4C215.3,78.6,215.9,76.8,215.7,75z M189.8,23.7c-1.5-0.3-2.6-1.8-2.3-3.3
		c0.3-1.5,1.8-2.6,3.3-2.3c0.7,0.1,1.4,0.6,1.8,1.2s0.6,1.4,0.5,2.1c-0.1,0.7-0.6,1.4-1.2,1.8C191.3,23.7,190.6,23.9,189.8,23.7z
		 M154.9,65.6c-0.3,0.7-0.9,1.2-1.6,1.5c-0.7,0.3-1.5,0.2-2.2-0.1c-0.7-0.3-1.2-0.9-1.5-1.6c-0.3-0.7-0.2-1.5,0.1-2.2
		c0.3-0.7,0.9-1.2,1.6-1.5c0.3-0.1,0.6-0.2,0.9-0.2c1.2,0,2.3,0.7,2.7,1.9C155.3,64.1,155.2,64.9,154.9,65.6z M211.1,77.4
		c-1,1.2-2.8,1.3-4,0.3c-1.2-1-1.3-2.8-0.3-4c1-1.2,2.8-1.3,4-0.3c0.6,0.5,0.9,1.2,1,1.9C211.8,76.1,211.6,76.8,211.1,77.4z"/>
</g>
</svg>
