<?xml version="1.0" encoding="utf-8"?>
<!-- Generator: Adobe Illustrator 21.0.2, SVG Export Plug-In . SVG Version: 6.00 Build 0)  -->
<svg version="1.1" id="Layer_1" xmlns="http://www.w3.org/2000/svg" xmlns:xlink="http://www.w3.org/1999/xlink" x="0px" y="0px"
	 viewBox="0 0 1086 1160" style="enable-background:new 0 0 1086 1160;" xml:space="preserve">
<style type="text/css">
	.st0{fill:#FFFFFF;}
</style>
<circle class="st0" cx="51.5" cy="328.5" r="1.5"/>
<circle class="st0" cx="15" cy="308" r="1"/>
<circle class="st0" cx="65" cy="262" r="1"/>
<circle class="st0" cx="157" cy="293" r="1"/>
<circle class="st0" cx="208" cy="240" r="1"/>
<circle class="st0" cx="177" cy="162" r="1"/>
<circle class="st0" cx="230" cy="114" r="1"/>
<circle class="st0" cx="194" cy="70" r="1"/>
<circle class="st0" cx="284" cy="94" r="1"/>
<circle class="st0" cx="325" cy="114" r="1"/>
<circle class="st0" cx="357" cy="125" r="1"/>
<circle class="st0" cx="354" cy="69" r="1"/>
<circle class="st0" cx="401" cy="68" r="1"/>
<circle class="st0" cx="378" cy="27" r="1"/>
<circle class="st0" cx="447" cy="63" r="1"/>
<circle class="st0" cx="504" cy="77" r="1"/>
<circle class="st0" cx="553" cy="51" r="1"/>
<circle class="st0" cx="525" cy="1" r="1"/>
<circle class="st0" cx="624" cy="67" r="1"/>
<circle class="st0" cx="653" cy="34" r="1"/>
<circle class="st0" cx="694" cy="76" r="1"/>
<circle class="st0" cx="754" cy="68" r="1"/>
<circle class="st0" cx="726" cy="38" r="1"/>
<circle class="st0" cx="948" cy="63" r="1"/>
<circle class="st0" cx="1071" cy="61" r="1"/>
<circle class="st0" cx="1085" cy="34" r="1"/>
<circle class="st0" cx="906" cy="126" r="1"/>
<circle class="st0" cx="797" cy="135" r="1"/>
<circle class="st0" cx="857" cy="197" r="1"/>
<circle class="st0" cx="831" cy="268" r="1"/>
<circle class="st0" cx="750" cy="237" r="1"/>
<circle class="st0" cx="647" cy="281" r="1"/>
<circle class="st0" cx="583" cy="273" r="1"/>
<circle class="st0" cx="535" cy="238" r="1"/>
<circle class="st0" cx="488" cy="273" r="1"/>
<circle class="st0" cx="389" cy="248" r="1"/>
<circle class="st0" cx="373" cy="303" r="1"/>
<circle class="st0" cx="296" cy="238" r="1"/>
<circle class="st0" cx="81.5" cy="234.5" r="1.5"/>
<circle class="st0" cx="183.5" cy="116.5" r="1.5"/>
<circle class="st0" cx="317.5" cy="54.5" r="1.5"/>
<circle class="st0" cx="475.5" cy="38.5" r="1.5"/>
<circle class="st0" cx="585.5" cy="26.5" r="1.5"/>
<circle class="st0" cx="694.5" cy="124.5" r="1.5"/>
<circle class="st0" cx="787.5" cy="55.5" r="1.5"/>
<circle class="st0" cx="821.5" cy="236.5" r="1.5"/>
<circle class="st0" cx="712.5" cy="236.5" r="1.5"/>
<circle class="st0" cx="602.5" cy="260.5" r="1.5"/>
<circle class="st0" cx="442.5" cy="291.5" r="1.5"/>
<circle class="st0" cx="356.5" cy="255.5" r="1.5"/>
<circle class="st0" cx="1012.5" cy="57.5" r="1.5"/>
<circle class="st0" cx="1034.5" cy="818.5" r="1.5"/>
<circle class="st0" cx="1071" cy="798" r="1"/>
<circle class="st0" cx="1021" cy="752" r="1"/>
<circle class="st0" cx="929" cy="783" r="1"/>
<circle class="st0" cx="878" cy="730" r="1"/>
<circle class="st0" cx="909" cy="652" r="1"/>
<circle class="st0" cx="856" cy="604" r="1"/>
<circle class="st0" cx="892" cy="560" r="1"/>
<circle class="st0" cx="802" cy="584" r="1"/>
<circle class="st0" cx="761" cy="604" r="1"/>
<circle class="st0" cx="729" cy="615" r="1"/>
<circle class="st0" cx="732" cy="559" r="1"/>
<circle class="st0" cx="685" cy="558" r="1"/>
<circle class="st0" cx="708" cy="517" r="1"/>
<circle class="st0" cx="639" cy="553" r="1"/>
<circle class="st0" cx="582" cy="567" r="1"/>
<circle class="st0" cx="533" cy="541" r="1"/>
<circle class="st0" cx="561" cy="491" r="1"/>
<circle class="st0" cx="462" cy="557" r="1"/>
<circle class="st0" cx="433" cy="524" r="1"/>
<circle class="st0" cx="392" cy="566" r="1"/>
<circle class="st0" cx="332" cy="558" r="1"/>
<circle class="st0" cx="360" cy="528" r="1"/>
<circle class="st0" cx="138" cy="553" r="1"/>
<circle class="st0" cx="15" cy="551" r="1"/>
<circle class="st0" cx="1" cy="524" r="1"/>
<circle class="st0" cx="180" cy="616" r="1"/>
<circle class="st0" cx="289" cy="625" r="1"/>
<circle class="st0" cx="229" cy="687" r="1"/>
<circle class="st0" cx="255" cy="758" r="1"/>
<circle class="st0" cx="336" cy="727" r="1"/>
<circle class="st0" cx="439" cy="771" r="1"/>
<circle class="st0" cx="503" cy="763" r="1"/>
<circle class="st0" cx="551" cy="728" r="1"/>
<circle class="st0" cx="598" cy="763" r="1"/>
<circle class="st0" cx="697" cy="738" r="1"/>
<circle class="st0" cx="713" cy="793" r="1"/>
<circle class="st0" cx="790" cy="728" r="1"/>
<circle class="st0" cx="1004.5" cy="724.5" r="1.5"/>
<circle class="st0" cx="902.5" cy="606.5" r="1.5"/>
<circle class="st0" cx="768.5" cy="544.5" r="1.5"/>
<circle class="st0" cx="610.5" cy="528.5" r="1.5"/>
<circle class="st0" cx="500.5" cy="516.5" r="1.5"/>
<circle class="st0" cx="391.5" cy="614.5" r="1.5"/>
<circle class="st0" cx="298.5" cy="545.5" r="1.5"/>
<circle class="st0" cx="264.5" cy="726.5" r="1.5"/>
<circle class="st0" cx="373.5" cy="726.5" r="1.5"/>
<circle class="st0" cx="483.5" cy="750.5" r="1.5"/>
<circle class="st0" cx="643.5" cy="781.5" r="1.5"/>
<circle class="st0" cx="729.5" cy="745.5" r="1.5"/>
<circle class="st0" cx="73.5" cy="547.5" r="1.5"/>
<circle class="st0" cx="37.5" cy="831.5" r="1.5"/>
<circle class="st0" cx="1" cy="852" r="1"/>
<circle class="st0" cx="51" cy="898" r="1"/>
<circle class="st0" cx="143" cy="867" r="1"/>
<circle class="st0" cx="194" cy="920" r="1"/>
<circle class="st0" cx="163" cy="998" r="1"/>
<circle class="st0" cx="216" cy="1046" r="1"/>
<circle class="st0" cx="180" cy="1090" r="1"/>
<circle class="st0" cx="270" cy="1066" r="1"/>
<circle class="st0" cx="311" cy="1046" r="1"/>
<circle class="st0" cx="343" cy="1035" r="1"/>
<circle class="st0" cx="340" cy="1091" r="1"/>
<circle class="st0" cx="387" cy="1092" r="1"/>
<circle class="st0" cx="364" cy="1133" r="1"/>
<circle class="st0" cx="433" cy="1097" r="1"/>
<circle class="st0" cx="490" cy="1083" r="1"/>
<circle class="st0" cx="539" cy="1109" r="1"/>
<circle class="st0" cx="511" cy="1159" r="1"/>
<circle class="st0" cx="610" cy="1093" r="1"/>
<circle class="st0" cx="639" cy="1126" r="1"/>
<circle class="st0" cx="680" cy="1084" r="1"/>
<circle class="st0" cx="740" cy="1092" r="1"/>
<circle class="st0" cx="712" cy="1122" r="1"/>
<circle class="st0" cx="934" cy="1097" r="1"/>
<circle class="st0" cx="1057" cy="1099" r="1"/>
<circle class="st0" cx="1071" cy="1126" r="1"/>
<circle class="st0" cx="892" cy="1034" r="1"/>
<circle class="st0" cx="783" cy="1025" r="1"/>
<circle class="st0" cx="843" cy="963" r="1"/>
<circle class="st0" cx="817" cy="892" r="1"/>
<circle class="st0" cx="736" cy="923" r="1"/>
<circle class="st0" cx="633" cy="879" r="1"/>
<circle class="st0" cx="569" cy="887" r="1"/>
<circle class="st0" cx="521" cy="922" r="1"/>
<circle class="st0" cx="474" cy="887" r="1"/>
<circle class="st0" cx="375" cy="912" r="1"/>
<circle class="st0" cx="359" cy="857" r="1"/>
<circle class="st0" cx="282" cy="922" r="1"/>
<circle class="st0" cx="67.5" cy="925.5" r="1.5"/>
<circle class="st0" cx="169.5" cy="1043.5" r="1.5"/>
<circle class="st0" cx="303.5" cy="1105.5" r="1.5"/>
<circle class="st0" cx="461.5" cy="1121.5" r="1.5"/>
<circle class="st0" cx="571.5" cy="1133.5" r="1.5"/>
<circle class="st0" cx="680.5" cy="1035.5" r="1.5"/>
<circle class="st0" cx="773.5" cy="1104.5" r="1.5"/>
<circle class="st0" cx="807.5" cy="923.5" r="1.5"/>
<circle class="st0" cx="698.5" cy="923.5" r="1.5"/>
<circle class="st0" cx="588.5" cy="899.5" r="1.5"/>
<circle class="st0" cx="428.5" cy="868.5" r="1.5"/>
<circle class="st0" cx="342.5" cy="904.5" r="1.5"/>
<circle class="st0" cx="998.5" cy="1102.5" r="1.5"/>
</svg>
