<?xml version="1.0" encoding="utf-8"?>
<!-- Generator: Adobe Illustrator 21.0.2, SVG Export Plug-In . SVG Version: 6.00 Build 0)  -->
<svg version="1.1" id="Layer_1" xmlns="http://www.w3.org/2000/svg" xmlns:xlink="http://www.w3.org/1999/xlink" x="0px" y="0px"
	 viewBox="0 0 22 22" style="enable-background:new 0 0 22 22;" xml:space="preserve">
<style type="text/css">
	.st0{fill:#A166AB;}
</style>
<title>star vertical</title>
<desc>Created with Sketch.</desc>
<path class="st0" d="M19.6,8.8C15,7.6,14.4,7,13.1,2.4c-0.3-1-1.2-1.6-2.2-1.6c0,0,0,0,0,0c-1,0-1.9,0.7-2.2,1.7
	C7.6,7,7,7.6,2.4,8.9C1.4,9.1,0.8,10,0.8,11c0,1,0.7,1.9,1.6,2.2C7,14.4,7.6,15,8.9,19.6c0.3,1,1.2,1.6,2.2,1.6c0,0,0,0,0,0
	c1,0,1.9-0.7,2.2-1.7c1.2-4.6,1.8-5.2,6.4-6.5c1-0.3,1.6-1.2,1.6-2.2C21.2,10,20.6,9.1,19.6,8.8z"/>
</svg>
