<?xml version="1.0" encoding="utf-8"?>
<!-- Generator: Adobe Illustrator 21.0.2, SVG Export Plug-In . SVG Version: 6.00 Build 0)  -->
<svg version="1.1" id="Layer_1" xmlns="http://www.w3.org/2000/svg" xmlns:xlink="http://www.w3.org/1999/xlink" x="0px" y="0px"
	 viewBox="0 0 16 16" style="enable-background:new 0 0 16 16;" xml:space="preserve">
<style type="text/css">
	.st0{fill:#F37055;}
</style>
<title>star horizontal</title>
<desc>Created with Sketch.</desc>
<path class="st0" d="M15.7,12.5c-2.3-4.1-2.3-4.9,0-9c0.5-0.9,0.4-2.1-0.4-2.8c-0.7-0.7-1.9-0.9-2.8-0.4c-4.1,2.3-4.9,2.3-9,0
	C2.6-0.2,1.4,0,0.7,0.7s-0.9,1.9-0.4,2.8c2.3,4.1,2.3,4.9,0,9c-0.5,0.9-0.4,2.1,0.4,2.8c0.4,0.4,1,0.7,1.6,0.7
	c0.4,0,0.8-0.1,1.2-0.3c4.1-2.3,4.9-2.3,9,0c0.9,0.5,2.1,0.4,2.8-0.4C16.1,14.6,16.3,13.4,15.7,12.5z"/>
</svg>
