<?xml version="1.0" encoding="utf-8"?>
<!-- Generator: Adobe Illustrator 21.0.2, SVG Export Plug-In . SVG Version: 6.00 Build 0)  -->
<svg version="1.1" id="Layer_1" xmlns="http://www.w3.org/2000/svg" xmlns:xlink="http://www.w3.org/1999/xlink" x="0px" y="0px"
	 viewBox="0 0 22 23" enable-background="new 0 0 22 23" xml:space="preserve">
<title>icon/arrow</title>
<desc>Created with Sketch.</desc>
<g id="Design">
	<g id="_x31_00_x5F_Home" transform="translate(-270.000000, -1236.000000)">
		<g id="_x32_-About" transform="translate(0.000000, 749.000000)">
			<g id="_x33_-up-CTA-blocks" transform="translate(30.000000, 275.000000)">
				<g id="_x31_-program" transform="translate(30.000000, 62.000000)">
					<g id="secondary-button" transform="translate(0.000000, 151.000000)">
						<g id="icon_x2F_arrow" transform="translate(211.000000, 0.000000)">
							<path id="arrow" fill="#FFFFFF" stroke="#FFFFFF" d="M5.4,8.7c0-0.1,0.1-0.2,0.2-0.3c0.2-0.2,0.5-0.2,0.7,0L10,12l3.8-3.6
								c0.2-0.2,0.5-0.2,0.7,0c0.2,0.2,0.2,0.5,0,0.7l-4.1,4c-0.2,0.2-0.5,0.2-0.7,0l-4.1-4C5.4,9,5.4,8.8,5.4,8.7z M-0.3,10.3
								c0-5.5,4.6-10,10.3-10s10.3,4.5,10.3,10c0,2.2-0.8,4.4-2.2,6.1c-0.2,0.2-0.5,0.2-0.7,0.1c-0.2-0.1-0.3-0.5-0.1-0.7
								c1.3-1.6,2-3.6,2-5.6c0-4.9-4.2-9-9.3-9s-9.3,4.1-9.3,9s4.2,9,9.3,9c1.6,0,3.3-0.5,4.7-1.2c0.3-0.1,0.6,0,0.7,0.1
								c0.2,0.2,0.1,0.6-0.2,0.7c-1.7,0.9-3.5,1.4-5.3,1.4C4.3,20.3-0.3,15.8-0.3,10.3z"/>
						</g>
					</g>
				</g>
			</g>
		</g>
	</g>
</g>
</svg>
