<?xml version="1.0" encoding="UTF-8"?>
<svg width="74px" height="20px" viewBox="0 0 74 20" version="1.1" xmlns="http://www.w3.org/2000/svg" xmlns:xlink="http://www.w3.org/1999/xlink">
    <!-- Generator: Sketch 45.2 (43514) - http://www.bohemiancoding.com/sketch -->
    <title>gh-logo-white</title>
    <desc>Created with Sketch.</desc>
    <defs></defs>
    <g id="Design" stroke="none" stroke-width="1" fill="none" fill-rule="evenodd">
        <g id="100_Brand_Landing" transform="translate(-564.000000, -30.000000)" fill-rule="nonzero" fill="#535656">
            <g id="gh-logo-white" transform="translate(564.000000, 30.000000)">
                <path d="M14.2198892,8.50816327 L8.01700831,8.50816327 C7.85784615,8.50927531 7.72909481,8.63745852 7.72797784,8.79591837 L7.72797784,11.8163265 C7.72797387,11.9755828 7.85705018,12.1050009 8.01700831,12.1061224 L10.4358449,12.1061224 L10.4358449,15.8591837 C10.4358449,15.8591837 9.89263158,16.0428571 8.38598338,16.0428571 C6.61285319,16.0428571 4.1366205,15.3979592 4.1366205,9.97755102 C4.1366205,4.55714286 6.71944598,3.84081633 9.14033241,3.84081633 C11.2352909,3.84081633 12.1392798,4.20816327 12.713241,4.38571429 C12.7984071,4.40213634 12.8864921,4.37988422 12.9534904,4.32502227 C13.0204887,4.27016033 13.0594175,4.1884064 13.0596676,4.10204082 L13.7525208,1.18367347 C13.7548599,1.0952932 13.7134914,1.01139583 13.6418283,0.959183673 C13.408144,0.791836735 11.9855402,0 8.3900831,0 C4.24936288,0 0,1.75510204 0,10.1877551 C0,18.6204082 4.86432133,19.8795918 8.96404432,19.8795918 C12.358615,19.8795918 14.4166759,18.4346939 14.4166759,18.4346939 C14.4832295,18.3825046 14.5187186,18.300318 14.5109695,18.2163265 L14.5109695,8.79795918 C14.5115202,8.72093377 14.4810298,8.64690407 14.4263218,8.59243749 C14.3716138,8.53797092 14.297256,8.50761502 14.2198892,8.50816327 Z" id="Shape"></path>
                <path d="M46.1956787,1.02040816 C46.199005,0.943732068 46.1714275,0.868910094 46.1190765,0.812574517 C46.0667255,0.756238941 45.9939393,0.723058228 45.9168975,0.720408163 L42.432133,0.720408163 C42.3503203,0.715756486 42.2703279,0.745653456 42.2118011,0.802756682 C42.1532742,0.859859907 42.121635,0.938879178 42.1246537,1.02040816 L42.1246537,7.73265306 L36.6802216,7.73265306 L36.6802216,1.02040816 C36.6807678,0.94373778 36.6505577,0.870020763 36.5962947,0.815614017 C36.5420317,0.76120727 36.4682033,0.730610317 36.3911911,0.730612245 L32.9064266,0.730612245 C32.8281674,0.728965807 32.7525402,0.758769397 32.6966147,0.813296148 C32.6406892,0.8678229 32.6091792,0.942476868 32.6091967,1.02040816 L32.6091967,19.2102041 C32.6086511,19.2870633 32.6387964,19.3609902 32.6930005,19.4157206 C32.7472047,19.470451 32.8210272,19.5015015 32.8982271,19.5020408 L36.3829917,19.5020408 C36.4601916,19.5015015 36.5340142,19.470451 36.5882183,19.4157206 C36.6424224,19.3609902 36.6725677,19.2870633 36.6720222,19.2102041 L36.6720222,11.4285714 L42.1246537,11.4285714 L42.1246537,19.2122449 C42.1241082,19.2891041 42.1542535,19.363031 42.2084576,19.4177614 C42.2626617,19.4724918 42.3364843,19.5035423 42.4136842,19.5040816 L45.9148476,19.5040816 C45.9920475,19.5035423 46.0658701,19.4724918 46.1200743,19.4177614 C46.1742784,19.363031 46.2044237,19.2891041 46.2038781,19.2122449 L46.1956787,1.02040816 Z" id="Shape"></path>
                <ellipse id="Oval" cx="18.559446" cy="3.4" rx="2.25279778" ry="2.26530612"></ellipse>
                <path d="M20.5621607,15.3714286 L20.5621607,6.96938776 C20.5621646,6.8101315 20.4330883,6.68071336 20.2731302,6.67959184 L16.7883657,6.67959184 C16.6190348,6.69513655 16.4884408,6.83481771 16.4849861,7.00408163 L16.4849861,19.044898 C16.4849861,19.3979592 16.7063712,19.5040816 16.9933518,19.5040816 L20.1337396,19.5040816 C20.4781163,19.5040816 20.5621607,19.3367347 20.5621607,19.0387755 L20.5621607,15.3714286 Z" id="Shape"></path>
                <path d="M59.4705817,6.70816327 L56.0042659,6.70816327 C55.927066,6.70870262 55.8532435,6.73975309 55.7990393,6.79448351 C55.7448352,6.84921393 55.7146899,6.92314077 55.7152355,7 L55.7152355,15.9183673 C55.0824338,16.3324272 54.342654,16.5550122 53.5854294,16.5591837 C52.3350139,16.5591837 52.0029363,15.9938776 52.0029363,14.7755102 L52.0029363,6.99795918 C52.0034819,6.92109996 51.9733366,6.84717311 51.9191324,6.79244269 C51.8649283,6.73771227 51.7911057,6.70666181 51.7139058,6.70612245 L48.1963435,6.70612245 C48.1191436,6.70666181 48.045321,6.73771227 47.9911169,6.79244269 C47.9369127,6.84717311 47.9067674,6.92109996 47.907313,6.99795918 L47.907313,15.3653061 C47.907313,18.9836735 49.9325762,19.8693878 52.7203878,19.8693878 C55.0059834,19.8693878 56.8508587,18.6122449 56.8508587,18.6122449 C56.8804326,18.8611903 56.9228525,19.108456 56.9779501,19.3530612 C57.0293415,19.4460016 57.1256721,19.5055559 57.232133,19.5102041 L59.4705817,19.5102041 C59.6305398,19.5090826 59.7596162,19.3796644 59.7596122,19.2204082 L59.7596122,6.99795918 C59.7596162,6.83870293 59.6305398,6.70928479 59.4705817,6.70816327 Z" id="Shape"></path>
                <path d="M68.9470914,6.29795918 C67.785615,6.29112748 66.6433989,6.59338799 65.638615,7.17346939 L65.638615,1.02040816 C65.6391611,0.94373778 65.6089511,0.870020763 65.5546881,0.815614017 C65.500425,0.76120727 65.4265966,0.730610317 65.3495845,0.730612245 L61.8463712,0.730612245 C61.7693591,0.730610317 61.6955307,0.76120727 61.6412676,0.815614017 C61.5870046,0.870020763 61.5567945,0.94373778 61.5573407,1.02040816 L61.5573407,19.2102041 C61.5567951,19.2870633 61.5869404,19.3609902 61.6411446,19.4157206 C61.6953487,19.470451 61.7691713,19.5015015 61.8463712,19.5020408 L64.2775069,19.5020408 C64.3845459,19.5011896 64.4823474,19.4415113 64.5316898,19.3469388 C64.6019297,19.0714243 64.6512654,18.7910423 64.6792798,18.5081633 C64.6792798,18.5081633 66.1141828,19.8591837 68.8240997,19.8591837 C72.0075346,19.8591837 73.8339612,18.2510204 73.8339612,12.6408163 C73.8339612,7.03061224 70.9252078,6.29795918 68.9470914,6.29795918 Z M67.5798338,16.5510204 C66.8687457,16.532813 66.1742449,16.3332521 65.5627701,15.9714286 L65.5627701,10.2040816 C66.1136474,9.89044391 66.7235141,9.6931466 67.354349,9.6244898 C68.6027147,9.5122449 69.8141828,9.8877551 69.8141828,12.8530612 C69.8039335,15.9857143 69.2607202,16.6040816 67.5798338,16.5530612 L67.5798338,16.5510204 Z" id="Shape"></path>
                <path d="M30.6023823,6.67755102 L27.9826593,6.67755102 L27.9826593,3.23061224 C27.9826593,3.1 27.9150139,3.02653061 27.7633241,3.02653061 L24.1883657,3.02653061 C24.0489751,3.02653061 23.9833795,3.0877551 23.9833795,3.22040816 L23.9833795,6.79183673 C23.9833795,6.79183673 22.1938504,7.22244898 22.0729086,7.25714286 C21.9507659,7.29479437 21.8676043,7.40739498 21.8679224,7.53469388 L21.8679224,9.77959184 C21.8707346,9.92963762 21.9881395,10.052723 22.1385042,10.0632653 L23.9833795,10.0632653 L23.9833795,15.4469388 C23.9833795,19.4469388 26.8019391,19.8387755 28.6980609,19.8387755 C29.4036956,19.81739 30.1033508,19.7027823 30.7786704,19.4979592 C30.8828802,19.4536593 30.9483277,19.3494054 30.9426593,19.2367347 L30.9426593,16.7755102 C30.9404842,16.6171567 30.8126648,16.4889988 30.6536288,16.4857143 C30.5019391,16.4857143 30.1104155,16.5469388 29.7086427,16.5469388 C28.4213296,16.5469388 27.9847091,15.9510204 27.9847091,15.1795918 C27.9847091,14.4081633 27.9847091,10.0632653 27.9847091,10.0632653 L30.6044321,10.0632653 C30.7643903,10.0621438 30.8934666,9.93272564 30.8934626,9.77346939 L30.8934626,6.96938776 C30.8945671,6.89201047 30.8643214,6.81745147 30.8095526,6.76254028 C30.7547837,6.70762909 30.6801083,6.67699438 30.6023823,6.67755102 Z" id="Shape"></path>
            </g>
        </g>
    </g>
</svg>