<?xml version="1.0" encoding="utf-8"?>
<!-- Generator: Adobe Illustrator 19.2.0, SVG Export Plug-In . SVG Version: 6.00 Build 0)  -->
<svg version="1.1" id="short_line" xmlns="http://www.w3.org/2000/svg" xmlns:xlink="http://www.w3.org/1999/xlink" x="0px" y="0px"
	 viewBox="0 0 767 297" style="enable-background:new 0 0 767 297;" xml:space="preserve">
<style type="text/css">
	.st0{fill:#BEB9E3;}
	.st1{fill:#130D1B;}
</style>
<path id="_.................................................." class="st0" d="M110.4,273.8c-0.2-0.5-0.8-0.8-1.4-0.6l-2.1,0.8
	c-0.3,0.1-0.5,0.3-0.6,0.6c-0.1,0.2-0.1,0.5,0,0.8l0.9,2.3c0.1,0.3,0.3,0.5,0.5,0.6c0.3,0.1,0.6,0.1,0.8,0l2.1-0.8
	c0.5-0.2,0.8-0.8,0.6-1.4L110.4,273.8z M123.8,268.7c-0.2-0.5-0.8-0.8-1.4-0.6l-2.1,0.8c-0.3,0.1-0.5,0.3-0.6,0.6
	c-0.1,0.2-0.1,0.5,0,0.8l0.9,2.3c0.1,0.3,0.3,0.5,0.5,0.6c0.3,0.1,0.6,0.1,0.8,0l2.1-0.8c0.5-0.2,0.8-0.8,0.6-1.4L123.8,268.7z
	 M137.2,263.5c-0.2-0.5-0.8-0.8-1.4-0.6l-2.1,0.8c-0.3,0.1-0.5,0.3-0.6,0.6c-0.1,0.2-0.1,0.5,0,0.8l0.9,2.3c0.1,0.3,0.3,0.5,0.5,0.6
	c0.3,0.1,0.6,0.1,0.8,0l2.1-0.8c0.5-0.2,0.8-0.8,0.6-1.4L137.2,263.5z M150.6,258.4c-0.2-0.5-0.8-0.8-1.4-0.6l-2.1,0.8
	c-0.3,0.1-0.5,0.3-0.6,0.6c-0.1,0.2-0.1,0.5,0,0.8l0.9,2.3c0.1,0.3,0.3,0.5,0.5,0.6c0.3,0.1,0.6,0.1,0.8,0l2.1-0.8
	c0.5-0.2,0.8-0.8,0.6-1.4L150.6,258.4z M164,253.3c-0.2-0.5-0.8-0.8-1.4-0.6l-2.1,0.8c-0.3,0.1-0.5,0.3-0.6,0.6
	c-0.1,0.2-0.1,0.5,0,0.8l0.9,2.3c0.1,0.3,0.3,0.5,0.5,0.6c0.3,0.1,0.6,0.1,0.8,0l2.1-0.8c0.3-0.1,0.5-0.3,0.6-0.6
	c0.1-0.2,0.1-0.5,0-0.8L164,253.3z M177.4,248.1c-0.2-0.5-0.8-0.8-1.4-0.6l-2.1,0.8c-0.3,0.1-0.5,0.3-0.6,0.6
	c-0.1,0.2-0.1,0.5,0,0.8l0.9,2.3c0.1,0.3,0.3,0.5,0.5,0.6c0.3,0.1,0.6,0.1,0.8,0l2.1-0.8c0.5-0.2,0.8-0.8,0.6-1.4L177.4,248.1z
	 M190.8,243c-0.2-0.5-0.8-0.8-1.4-0.6l-2.1,0.8c-0.3,0.1-0.5,0.3-0.6,0.6c-0.1,0.2-0.1,0.5,0,0.8l0.9,2.3c0.1,0.3,0.3,0.5,0.5,0.6
	c0.3,0.1,0.6,0.1,0.8,0l2.1-0.8c0.5-0.2,0.8-0.8,0.6-1.4L190.8,243z M204.2,237.8c-0.2-0.5-0.8-0.8-1.4-0.6l-2.1,0.8
	c-0.3,0.1-0.5,0.3-0.6,0.6c-0.1,0.2-0.1,0.5,0,0.8l0.9,2.3c0.1,0.3,0.3,0.5,0.5,0.6c0.3,0.1,0.6,0.1,0.8,0l2.1-0.8
	c0.5-0.2,0.8-0.8,0.6-1.4L204.2,237.8z M217.6,232.7c-0.2-0.5-0.8-0.8-1.4-0.6l-2.1,0.8c-0.3,0.1-0.5,0.3-0.6,0.6
	c-0.1,0.2-0.1,0.5,0,0.8l0.9,2.3c0.1,0.3,0.3,0.5,0.5,0.6c0.3,0.1,0.6,0.1,0.8,0l2.1-0.8c0.5-0.2,0.8-0.8,0.6-1.4L217.6,232.7z
	 M231,227.5c-0.2-0.5-0.8-0.8-1.4-0.6l-2.1,0.8c-0.3,0.1-0.5,0.3-0.6,0.6c-0.1,0.2-0.1,0.5,0,0.8l0.9,2.3c0.1,0.3,0.3,0.5,0.5,0.6
	c0.3,0.1,0.6,0.1,0.8,0l2.1-0.8c0.5-0.2,0.8-0.8,0.6-1.4L231,227.5z M244.4,222.4c-0.2-0.5-0.8-0.8-1.4-0.6l-2.1,0.8
	c-0.3,0.1-0.5,0.3-0.6,0.6c-0.1,0.2-0.1,0.5,0,0.8l0.9,2.3c0.1,0.3,0.3,0.5,0.5,0.6c0.3,0.1,0.6,0.1,0.8,0l2.1-0.8
	c0.5-0.2,0.8-0.8,0.6-1.4L244.4,222.4z M257.8,217.2c-0.2-0.5-0.8-0.8-1.4-0.6l-2.1,0.8c-0.3,0.1-0.5,0.3-0.6,0.6
	c-0.1,0.2-0.1,0.5,0,0.8l0.9,2.3c0.1,0.3,0.3,0.5,0.5,0.6c0.3,0.1,0.6,0.1,0.8,0l2.1-0.8c0.5-0.2,0.8-0.8,0.6-1.4L257.8,217.2z
	 M271.2,212.1c-0.2-0.5-0.8-0.8-1.4-0.6l-2.1,0.8c-0.3,0.1-0.5,0.3-0.6,0.6c-0.1,0.2-0.1,0.5,0,0.8l0.9,2.3c0.1,0.3,0.3,0.5,0.5,0.6
	c0.3,0.1,0.6,0.1,0.8,0l2.1-0.8c0.5-0.2,0.8-0.8,0.6-1.4L271.2,212.1z M284.6,206.9c-0.2-0.5-0.8-0.8-1.4-0.6l-2.1,0.8
	c-0.3,0.1-0.5,0.3-0.6,0.6c-0.1,0.2-0.1,0.5,0,0.8l0.9,2.3c0.1,0.3,0.3,0.5,0.5,0.6c0.3,0.1,0.6,0.1,0.8,0l2.1-0.8
	c0.5-0.2,0.8-0.8,0.6-1.4L284.6,206.9z M298,201.8c-0.2-0.5-0.8-0.8-1.4-0.6l-2.1,0.8c-0.3,0.1-0.5,0.3-0.6,0.6
	c-0.1,0.2-0.1,0.5,0,0.8l0.9,2.3c0.1,0.3,0.3,0.5,0.5,0.6c0.3,0.1,0.6,0.1,0.8,0l2.1-0.8c0.5-0.2,0.8-0.8,0.6-1.4L298,201.8z
	 M311.4,196.6c-0.2-0.5-0.8-0.8-1.4-0.6l-2.1,0.8c-0.3,0.1-0.5,0.3-0.6,0.6c-0.1,0.2-0.1,0.5,0,0.8l0.9,2.3c0.1,0.3,0.3,0.5,0.5,0.6
	c0.3,0.1,0.6,0.1,0.8,0l2.1-0.8c0.5-0.2,0.8-0.8,0.6-1.4L311.4,196.6z M324.8,191.5c-0.2-0.5-0.8-0.8-1.4-0.6l-2.1,0.8
	c-0.3,0.1-0.5,0.3-0.6,0.6c-0.1,0.2-0.1,0.5,0,0.8l0.9,2.3c0.1,0.3,0.3,0.5,0.5,0.6c0.3,0.1,0.6,0.1,0.8,0l2.1-0.8
	c0.5-0.2,0.8-0.8,0.6-1.4L324.8,191.5z M338.2,186.3c-0.2-0.5-0.8-0.8-1.4-0.6l-2.1,0.8c-0.3,0.1-0.5,0.3-0.6,0.6
	c-0.1,0.2-0.1,0.5,0,0.8l0.9,2.3c0.1,0.3,0.3,0.5,0.5,0.6c0.3,0.1,0.6,0.1,0.8,0l2.1-0.8c0.5-0.2,0.8-0.8,0.6-1.4L338.2,186.3z
	 M351.6,181.2c-0.2-0.5-0.8-0.8-1.4-0.6l-2.1,0.8c-0.3,0.1-0.5,0.3-0.6,0.6c-0.1,0.2-0.1,0.5,0,0.8l0.9,2.3c0.1,0.3,0.3,0.5,0.5,0.6
	c0.3,0.1,0.6,0.1,0.8,0l2.1-0.8c0.5-0.2,0.8-0.8,0.6-1.4L351.6,181.2z M365,176.1c-0.2-0.5-0.8-0.8-1.4-0.6l-2.1,0.8
	c-0.3,0.1-0.5,0.3-0.6,0.6c-0.1,0.2-0.1,0.5,0,0.8l0.9,2.3c0.1,0.3,0.3,0.5,0.5,0.6c0.3,0.1,0.6,0.1,0.8,0l2.1-0.8
	c0.5-0.2,0.8-0.8,0.6-1.4L365,176.1z M378.4,170.9c-0.2-0.5-0.8-0.8-1.4-0.6l-2.1,0.8c-0.3,0.1-0.5,0.3-0.6,0.6
	c-0.1,0.2-0.1,0.5,0,0.8l0.9,2.3c0.1,0.3,0.3,0.5,0.5,0.6c0.3,0.1,0.6,0.1,0.8,0l2.1-0.8c0.5-0.2,0.8-0.8,0.6-1.4L378.4,170.9z
	 M391.8,165.8c-0.2-0.5-0.8-0.8-1.4-0.6l-2.1,0.8c-0.3,0.1-0.5,0.3-0.6,0.6c-0.1,0.2-0.1,0.5,0,0.8l0.9,2.3c0.1,0.3,0.3,0.5,0.5,0.6
	c0.3,0.1,0.6,0.1,0.8,0l2.1-0.8c0.3-0.1,0.5-0.3,0.6-0.6c0.1-0.2,0.1-0.5,0-0.8L391.8,165.8z M405.2,160.6c-0.2-0.5-0.8-0.8-1.4-0.6
	l-2.1,0.8c-0.3,0.1-0.5,0.3-0.6,0.6c-0.1,0.2-0.1,0.5,0,0.8l0.9,2.3c0.1,0.3,0.3,0.5,0.5,0.6c0.3,0.1,0.6,0.1,0.8,0l2.1-0.8
	c0.5-0.2,0.8-0.8,0.6-1.4L405.2,160.6z M418.6,155.5c-0.2-0.5-0.8-0.8-1.4-0.6l-2.1,0.8c-0.3,0.1-0.5,0.3-0.6,0.6
	c-0.1,0.2-0.1,0.5,0,0.8l0.9,2.3c0.1,0.3,0.3,0.5,0.5,0.6c0.3,0.1,0.6,0.1,0.8,0l2.1-0.8c0.5-0.2,0.8-0.8,0.6-1.4L418.6,155.5z
	 M432,150.3c-0.2-0.5-0.8-0.8-1.4-0.6l-2.1,0.8c-0.3,0.1-0.5,0.3-0.6,0.6c-0.1,0.2-0.1,0.5,0,0.8l0.9,2.3c0.1,0.3,0.3,0.5,0.5,0.6
	c0.3,0.1,0.6,0.1,0.8,0l2.1-0.8c0.5-0.2,0.8-0.8,0.6-1.4L432,150.3z M445.4,145.2c-0.2-0.5-0.8-0.8-1.4-0.6l-2.1,0.8
	c-0.3,0.1-0.5,0.3-0.6,0.6c-0.1,0.2-0.1,0.5,0,0.8l0.9,2.3c0.1,0.3,0.3,0.5,0.5,0.6c0.3,0.1,0.6,0.1,0.8,0l2.1-0.8
	c0.3-0.1,0.5-0.3,0.6-0.6c0.1-0.2,0.1-0.5,0-0.8L445.4,145.2z M458.8,140c-0.2-0.5-0.8-0.8-1.4-0.6l-2.1,0.8
	c-0.3,0.1-0.5,0.3-0.6,0.6c-0.1,0.2-0.1,0.5,0,0.8l0.9,2.3c0.1,0.3,0.3,0.5,0.5,0.6c0.3,0.1,0.6,0.1,0.8,0l2.1-0.8
	c0.3-0.1,0.5-0.3,0.6-0.6c0.1-0.2,0.1-0.5,0-0.8L458.8,140z M472.2,134.9c-0.2-0.5-0.8-0.8-1.4-0.6l-2.1,0.8
	c-0.3,0.1-0.5,0.3-0.6,0.6c-0.1,0.2-0.1,0.5,0,0.8l0.9,2.3c0.1,0.3,0.3,0.5,0.5,0.6c0.3,0.1,0.6,0.1,0.8,0l2.1-0.8
	c0.5-0.2,0.8-0.8,0.6-1.4L472.2,134.9z M485.6,129.7c-0.2-0.5-0.8-0.8-1.4-0.6l-2.1,0.8c-0.3,0.1-0.5,0.3-0.6,0.6
	c-0.1,0.2-0.1,0.5,0,0.8l0.9,2.3c0.1,0.3,0.3,0.5,0.5,0.6c0.3,0.1,0.6,0.1,0.8,0l2.1-0.8c0.5-0.2,0.8-0.8,0.6-1.4L485.6,129.7z
	 M499,124.6c-0.2-0.5-0.8-0.8-1.4-0.6l-2.1,0.8c-0.3,0.1-0.5,0.3-0.6,0.6c-0.1,0.2-0.1,0.5,0,0.8l0.9,2.3c0.1,0.3,0.3,0.5,0.5,0.6
	c0.3,0.1,0.6,0.1,0.8,0l2.1-0.8c0.5-0.2,0.8-0.8,0.6-1.4L499,124.6z M512.4,119.4c-0.2-0.5-0.8-0.8-1.4-0.6l-2.1,0.8
	c-0.3,0.1-0.5,0.3-0.6,0.6c-0.1,0.2-0.1,0.5,0,0.8l0.9,2.3c0.1,0.3,0.3,0.5,0.5,0.6c0.3,0.1,0.6,0.1,0.8,0l2.1-0.8
	c0.3-0.1,0.5-0.3,0.6-0.6c0.1-0.2,0.1-0.5,0-0.8L512.4,119.4z M552.6,104c-0.2-0.5-0.8-0.8-1.4-0.6l-2.1,0.8
	c-0.3,0.1-0.5,0.3-0.6,0.6c-0.1,0.2-0.1,0.5,0,0.8l0.9,2.3c0.1,0.3,0.3,0.5,0.5,0.6c0.3,0.1,0.6,0.1,0.8,0l2.1-0.8
	c0.5-0.2,0.8-0.8,0.6-1.4L552.6,104z M566,98.8c-0.2-0.5-0.8-0.8-1.4-0.6l-2.1,0.8c-0.3,0.1-0.5,0.3-0.6,0.6c-0.1,0.2-0.1,0.5,0,0.8
	l0.9,2.3c0.1,0.3,0.3,0.5,0.5,0.6c0.3,0.1,0.6,0.1,0.8,0l2.1-0.8c0.5-0.2,0.8-0.8,0.6-1.4L566,98.8z M579.4,93.7
	c-0.2-0.5-0.8-0.8-1.4-0.6l-2.1,0.8c-0.3,0.1-0.5,0.3-0.6,0.6c-0.1,0.2-0.1,0.5,0,0.8l0.9,2.3c0.1,0.3,0.3,0.5,0.5,0.6
	c0.3,0.1,0.6,0.1,0.8,0l2.1-0.8c0.5-0.2,0.8-0.8,0.6-1.4L579.4,93.7z M592.8,88.6c-0.2-0.5-0.8-0.8-1.4-0.6l-2.1,0.8
	c-0.3,0.1-0.5,0.3-0.6,0.6c-0.1,0.2-0.1,0.5,0,0.8l0.9,2.3c0.1,0.3,0.3,0.5,0.5,0.6c0.3,0.1,0.6,0.1,0.8,0l2.1-0.8
	c0.3-0.1,0.5-0.3,0.6-0.6c0.1-0.2,0.1-0.5,0-0.8L592.8,88.6z M606.2,83.4c-0.2-0.5-0.8-0.8-1.4-0.6l-2.1,0.8
	c-0.3,0.1-0.5,0.3-0.6,0.6c-0.1,0.2-0.1,0.5,0,0.8l0.9,2.3c0.1,0.3,0.3,0.5,0.5,0.6c0.3,0.1,0.6,0.1,0.8,0l2.1-0.8
	c0.5-0.2,0.8-0.8,0.6-1.4L606.2,83.4z M619.6,78.3c-0.2-0.5-0.8-0.8-1.4-0.6l-2.1,0.8c-0.3,0.1-0.5,0.3-0.6,0.6
	c-0.1,0.2-0.1,0.5,0,0.8l0.9,2.3c0.1,0.3,0.3,0.5,0.5,0.6c0.3,0.1,0.6,0.1,0.8,0l2.1-0.8c0.5-0.2,0.8-0.8,0.6-1.4L619.6,78.3z
	 M633,73.1c-0.2-0.5-0.8-0.8-1.4-0.6l-2.1,0.8c-0.3,0.1-0.5,0.3-0.6,0.6c-0.1,0.2-0.1,0.5,0,0.8l0.9,2.3c0.1,0.3,0.3,0.5,0.5,0.6
	c0.3,0.1,0.6,0.1,0.8,0l2.1-0.8c0.5-0.2,0.8-0.8,0.6-1.4L633,73.1z M646.4,68c-0.2-0.5-0.8-0.8-1.4-0.6l-2.1,0.8
	c-0.3,0.1-0.5,0.3-0.6,0.6c-0.1,0.2-0.1,0.5,0,0.8l0.9,2.3c0.1,0.3,0.3,0.5,0.5,0.6c0.3,0.1,0.6,0.1,0.8,0l2.1-0.8
	c0.5-0.2,0.8-0.8,0.6-1.4L646.4,68z M659.8,62.8c-0.2-0.5-0.8-0.8-1.4-0.6l-2.1,0.8c-0.3,0.1-0.5,0.3-0.6,0.6
	c-0.1,0.2-0.1,0.5,0,0.8l0.9,2.3c0.1,0.3,0.3,0.5,0.5,0.6c0.3,0.1,0.6,0.1,0.8,0l2.1-0.8c0.3-0.1,0.5-0.3,0.6-0.6
	c0.1-0.2,0.1-0.5,0-0.8L659.8,62.8z M673.2,57.7c-0.2-0.5-0.8-0.8-1.4-0.6l-2.1,0.8c-0.3,0.1-0.5,0.3-0.6,0.6
	c-0.1,0.2-0.1,0.5,0,0.8l0.9,2.3c0.1,0.3,0.3,0.5,0.5,0.6c0.3,0.1,0.6,0.1,0.8,0l2.1-0.8c0.5-0.2,0.8-0.8,0.6-1.4L673.2,57.7z
	 M686.6,52.5c-0.2-0.5-0.8-0.8-1.4-0.6l-2.1,0.8c-0.3,0.1-0.5,0.3-0.6,0.6c-0.1,0.2-0.1,0.5,0,0.8l0.9,2.3c0.1,0.3,0.3,0.5,0.5,0.6
	c0.3,0.1,0.6,0.1,0.8,0l2.1-0.8c0.5-0.2,0.8-0.8,0.6-1.4L686.6,52.5z M700,47.4c-0.2-0.5-0.8-0.8-1.4-0.6l-2.1,0.8
	c-0.3,0.1-0.5,0.3-0.6,0.6c-0.1,0.2-0.1,0.5,0,0.8l0.9,2.3c0.1,0.3,0.3,0.5,0.5,0.6c0.3,0.1,0.6,0.1,0.8,0l2.1-0.8
	c0.5-0.2,0.8-0.8,0.6-1.4L700,47.4z M713.4,42.2c-0.2-0.5-0.8-0.8-1.4-0.6l-2.1,0.8c-0.3,0.1-0.5,0.3-0.6,0.6
	c-0.1,0.2-0.1,0.5,0,0.8l0.9,2.3c0.1,0.3,0.3,0.5,0.5,0.6c0.3,0.1,0.6,0.1,0.8,0l2.1-0.8c0.5-0.2,0.8-0.8,0.6-1.4L713.4,42.2z
	 M726.8,37.1c-0.2-0.5-0.8-0.8-1.4-0.6l-2.1,0.8c-0.3,0.1-0.5,0.3-0.6,0.6c-0.1,0.2-0.1,0.5,0,0.8l0.9,2.3c0.1,0.3,0.3,0.5,0.5,0.6
	c0.3,0.1,0.6,0.1,0.8,0l2.1-0.8c0.3-0.1,0.5-0.3,0.6-0.6c0.1-0.2,0.1-0.5,0-0.8L726.8,37.1z M740.2,31.9c-0.2-0.5-0.8-0.8-1.4-0.6
	l-2.1,0.8c-0.3,0.1-0.5,0.3-0.6,0.6c-0.1,0.2-0.1,0.5,0,0.8l0.9,2.3c0.1,0.3,0.3,0.5,0.5,0.6c0.3,0.1,0.6,0.1,0.8,0l2.1-0.8
	c0.5-0.2,0.8-0.8,0.6-1.4L740.2,31.9z M753.6,26.8c-0.2-0.5-0.8-0.8-1.4-0.6l-2.1,0.8c-0.3,0.1-0.5,0.3-0.6,0.6
	c-0.1,0.2-0.1,0.5,0,0.8l0.9,2.3c0.1,0.3,0.3,0.5,0.5,0.6c0.3,0.1,0.6,0.1,0.8,0l2.1-0.8c0.5-0.2,0.8-0.8,0.6-1.4L753.6,26.8z
	 M767,21.6c-0.2-0.5-0.8-0.8-1.4-0.6l-2.1,0.8c-0.3,0.1-0.5,0.3-0.6,0.6c-0.1,0.2-0.1,0.5,0,0.8l0.9,2.3c0.1,0.3,0.3,0.5,0.5,0.6
	c0.3,0.1,0.6,0.1,0.8,0l2.1-0.8c0.5-0.2,0.8-0.8,0.6-1.4L767,21.6z"/>
<ellipse id="Ellipse_4_copy_5" class="st1" cx="529.5" cy="115" rx="7.5" ry="7"/>
<path id="_................." class="st0" d="M546.9,119.7c0.2-0.6-0.1-1.2-0.7-1.3l-2.1-0.7c-0.3-0.1-0.6-0.1-0.8,0.1
	c-0.2,0.1-0.4,0.3-0.5,0.6l-0.8,2.3c-0.1,0.3-0.1,0.5,0,0.8s0.3,0.5,0.6,0.6l2.1,0.7c0.3,0.1,0.6,0.1,0.8-0.1
	c0.2-0.1,0.4-0.3,0.5-0.6L546.9,119.7z M560.5,124.3c0.1-0.3,0.1-0.5-0.1-0.8c-0.1-0.3-0.3-0.5-0.6-0.6l-2.1-0.7
	c-0.3-0.1-0.6-0.1-0.8,0.1c-0.2,0.1-0.4,0.3-0.5,0.6l-0.8,2.3c-0.1,0.3-0.1,0.5,0,0.8s0.3,0.5,0.6,0.6l2.1,0.7
	c0.6,0.2,1.2-0.1,1.4-0.7L560.5,124.3z M574.1,128.9c0.2-0.6-0.1-1.2-0.7-1.3l-2.1-0.7c-0.3-0.1-0.6-0.1-0.8,0.1
	c-0.2,0.1-0.4,0.3-0.5,0.6l-0.8,2.3c-0.1,0.3-0.1,0.5,0,0.8s0.3,0.5,0.6,0.6l2.1,0.7c0.6,0.2,1.2-0.1,1.4-0.7L574.1,128.9z
	 M587.7,133.5c0.2-0.6-0.1-1.2-0.7-1.3l-2.1-0.7c-0.3-0.1-0.6-0.1-0.8,0.1c-0.2,0.1-0.4,0.3-0.5,0.6l-0.8,2.3
	c-0.1,0.3-0.1,0.5,0,0.8s0.3,0.5,0.6,0.6l2.1,0.7c0.6,0.2,1.2-0.1,1.4-0.7L587.7,133.5z M601.3,138c0.2-0.6-0.1-1.2-0.7-1.3
	l-2.1-0.7c-0.3-0.1-0.6-0.1-0.8,0.1c-0.2,0.1-0.4,0.3-0.5,0.6l-0.8,2.3c-0.1,0.3-0.1,0.5,0,0.8s0.3,0.5,0.6,0.6l2.1,0.7
	c0.6,0.2,1.2-0.1,1.4-0.7L601.3,138z M614.9,142.6c0.2-0.6-0.1-1.2-0.7-1.3l-2.1-0.7c-0.3-0.1-0.6-0.1-0.8,0.1
	c-0.2,0.1-0.4,0.3-0.5,0.6l-0.8,2.3c-0.1,0.3-0.1,0.5,0,0.8s0.3,0.5,0.6,0.6l2.1,0.7c0.6,0.2,1.2-0.1,1.4-0.7L614.9,142.6z
	 M628.5,147.2c0.2-0.6-0.1-1.2-0.7-1.3l-2.1-0.7c-0.3-0.1-0.6-0.1-0.8,0.1c-0.2,0.1-0.4,0.3-0.5,0.6l-0.8,2.3
	c-0.1,0.3-0.1,0.5,0,0.8s0.3,0.5,0.6,0.6l2.1,0.7c0.6,0.2,1.2-0.1,1.4-0.7L628.5,147.2z M642.1,151.8c0.2-0.6-0.1-1.2-0.7-1.3
	l-2.1-0.7c-0.3-0.1-0.6-0.1-0.8,0.1c-0.2,0.1-0.4,0.3-0.5,0.6l-0.8,2.3c-0.1,0.3-0.1,0.5,0,0.8s0.3,0.5,0.6,0.6l2.1,0.7
	c0.3,0.1,0.6,0.1,0.8-0.1c0.2-0.1,0.4-0.3,0.5-0.6L642.1,151.8z M655.7,156.4c0.2-0.6-0.1-1.2-0.7-1.3l-2.1-0.7
	c-0.3-0.1-0.6-0.1-0.8,0.1c-0.2,0.1-0.4,0.3-0.5,0.6l-0.8,2.3c-0.1,0.3-0.1,0.5,0,0.8s0.3,0.5,0.6,0.6l2.1,0.7
	c0.6,0.2,1.2-0.1,1.4-0.7L655.7,156.4z M669.3,161c0.2-0.6-0.1-1.2-0.7-1.3l-2.1-0.7c-0.3-0.1-0.6-0.1-0.8,0.1
	c-0.2,0.1-0.4,0.3-0.5,0.6l-0.8,2.3c-0.1,0.3-0.1,0.5,0,0.8s0.3,0.5,0.6,0.6l2.1,0.7c0.3,0.1,0.6,0.1,0.8-0.1
	c0.2-0.1,0.4-0.3,0.5-0.6L669.3,161z M682.9,165.5c0.2-0.6-0.1-1.2-0.7-1.3l-2.1-0.7c-0.3-0.1-0.6-0.1-0.8,0.1
	c-0.2,0.1-0.4,0.3-0.5,0.6l-0.8,2.3c-0.1,0.3-0.1,0.5,0,0.8s0.3,0.5,0.6,0.6l2.1,0.7c0.6,0.2,1.2-0.1,1.4-0.7L682.9,165.5z
	 M696.5,170.1c0.2-0.6-0.1-1.2-0.7-1.3l-2.1-0.7c-0.3-0.1-0.6-0.1-0.8,0.1c-0.2,0.1-0.4,0.3-0.5,0.6l-0.8,2.3
	c-0.1,0.3-0.1,0.5,0,0.8s0.3,0.5,0.6,0.6l2.1,0.7c0.6,0.2,1.2-0.1,1.4-0.7L696.5,170.1z M710.1,174.7c0.2-0.6-0.1-1.2-0.7-1.3
	l-2.1-0.7c-0.3-0.1-0.6-0.1-0.8,0.1c-0.2,0.1-0.4,0.3-0.5,0.6l-0.8,2.3c-0.1,0.3-0.1,0.5,0,0.8s0.3,0.5,0.6,0.6l2.1,0.7
	c0.6,0.2,1.2-0.1,1.4-0.7L710.1,174.7z M723.7,179.3c0.2-0.6-0.1-1.2-0.7-1.3l-2.1-0.7c-0.3-0.1-0.6-0.1-0.8,0.1
	c-0.2,0.1-0.4,0.3-0.5,0.6l-0.8,2.3c-0.1,0.3-0.1,0.5,0,0.8s0.3,0.5,0.6,0.6l2.1,0.7c0.6,0.2,1.2-0.1,1.4-0.7L723.7,179.3z
	 M737.3,183.9c0.2-0.6-0.1-1.2-0.7-1.3l-2.1-0.7c-0.3-0.1-0.6-0.1-0.8,0.1c-0.2,0.1-0.4,0.3-0.5,0.6l-0.8,2.3
	c-0.1,0.3-0.1,0.5,0,0.8s0.3,0.5,0.6,0.6l2.1,0.7c0.6,0.2,1.2-0.1,1.4-0.7L737.3,183.9z M750.9,188.4c0.1-0.3,0.1-0.5-0.1-0.8
	c-0.1-0.3-0.3-0.5-0.6-0.6l-2.1-0.7c-0.3-0.1-0.6-0.1-0.8,0.1c-0.2,0.1-0.4,0.3-0.5,0.6l-0.8,2.3c-0.1,0.3-0.1,0.5,0,0.8
	s0.3,0.5,0.6,0.6l2.1,0.7c0.6,0.2,1.2-0.1,1.4-0.7L750.9,188.4z M764.5,193c0.2-0.6-0.1-1.2-0.7-1.3l-2.1-0.7
	c-0.3-0.1-0.6-0.1-0.8,0.1c-0.2,0.1-0.4,0.3-0.5,0.6l-0.8,2.3c-0.1,0.3-0.1,0.5,0,0.8s0.3,0.5,0.6,0.6l2.1,0.7
	c0.6,0.2,1.2-0.1,1.4-0.7L764.5,193z"/>
<path id="_..........." class="st0" d="M12.5,161.7c0.5-0.3,0.6-1,0.3-1.5l-1.2-1.9c-0.2-0.2-0.4-0.4-0.7-0.4s-0.5,0-0.8,0.2l-2,1.3
	c-0.2,0.2-0.4,0.4-0.4,0.6c-0.1,0.3,0,0.6,0.1,0.8l1.2,1.9c0.3,0.5,1,0.6,1.5,0.3L12.5,161.7z M20.4,173.7c0.5-0.3,0.6-1,0.3-1.5
	l-1.2-1.9c-0.2-0.2-0.4-0.4-0.7-0.5c-0.3,0-0.5,0-0.8,0.2l-2,1.4c-0.2,0.2-0.4,0.4-0.4,0.6c-0.1,0.3,0,0.6,0.1,0.8l1.2,1.9
	c0.3,0.5,1,0.6,1.5,0.3L20.4,173.7z M28.4,185.7c0.5-0.3,0.6-1,0.3-1.5l-1.2-1.9c-0.2-0.2-0.4-0.4-0.7-0.5c-0.3,0-0.5,0-0.8,0.2
	l-2,1.3c-0.2,0.2-0.4,0.4-0.4,0.6c-0.1,0.3,0,0.6,0.1,0.8l1.2,1.9c0.3,0.5,1,0.6,1.5,0.3L28.4,185.7z M36.3,197.6
	c0.5-0.3,0.6-1,0.3-1.5l-1.2-1.9c-0.2-0.2-0.4-0.4-0.7-0.4s-0.5,0-0.8,0.2l-2,1.3c-0.2,0.2-0.4,0.4-0.4,0.6c-0.1,0.3,0,0.6,0.1,0.8
	l1.2,1.9c0.3,0.5,1,0.6,1.5,0.3L36.3,197.6z M44.2,209.6c0.5-0.3,0.6-1,0.3-1.5l-1.2-1.9c-0.2-0.2-0.4-0.4-0.7-0.4s-0.5,0-0.8,0.2
	l-2,1.3c-0.2,0.2-0.4,0.4-0.4,0.6c-0.1,0.3,0,0.6,0.1,0.8l1.2,1.9c0.3,0.5,1,0.6,1.5,0.3L44.2,209.6z M52.2,221.6
	c0.5-0.3,0.6-1,0.3-1.5l-1.2-1.9c-0.2-0.2-0.4-0.4-0.7-0.4s-0.5,0-0.8,0.2l-2,1.3c-0.2,0.2-0.4,0.4-0.4,0.6c-0.1,0.3,0,0.6,0.1,0.8
	l1.2,1.9c0.3,0.5,1,0.6,1.5,0.3L52.2,221.6z M60.1,233.5c0.5-0.3,0.6-1,0.3-1.5l-1.2-1.9c-0.2-0.2-0.4-0.4-0.7-0.5
	c-0.3,0-0.5,0-0.8,0.2l-2,1.3c-0.2,0.2-0.4,0.4-0.4,0.6c-0.1,0.3,0,0.6,0.1,0.8l1.2,1.9c0.3,0.5,1,0.6,1.5,0.3L60.1,233.5z
	 M68,245.5c0.5-0.3,0.6-1,0.3-1.5l-1.2-1.9c-0.2-0.2-0.4-0.4-0.7-0.4c-0.3,0-0.5,0-0.8,0.2l-2,1.3c-0.2,0.2-0.4,0.4-0.4,0.6
	c-0.1,0.3,0,0.6,0.1,0.8l1.2,1.9c0.3,0.5,1,0.6,1.5,0.3L68,245.5z M75.9,257.5c0.5-0.3,0.6-1,0.3-1.5l-1.2-1.9
	c-0.2-0.2-0.4-0.4-0.7-0.4c-0.3,0-0.5,0-0.8,0.2l-2,1.3c-0.2,0.2-0.4,0.4-0.4,0.6c-0.1,0.3,0,0.6,0.1,0.8l1.2,1.9
	c0.3,0.5,1,0.6,1.5,0.3L75.9,257.5z M83.9,269.4c0.5-0.3,0.6-1,0.3-1.5L83,266c-0.2-0.2-0.4-0.4-0.7-0.5c-0.3,0-0.5,0-0.8,0.2
	l-2,1.3c-0.2,0.2-0.4,0.4-0.4,0.6c-0.1,0.3,0,0.6,0.1,0.8l1.2,1.9c0.3,0.5,1,0.6,1.5,0.3L83.9,269.4z M91.8,281.4
	c0.5-0.3,0.6-1,0.3-1.5l-1.2-1.9c-0.2-0.2-0.4-0.4-0.7-0.5c-0.3,0-0.5,0-0.8,0.2l-2,1.3c-0.2,0.2-0.4,0.4-0.4,0.6
	c-0.1,0.3,0,0.6,0.1,0.8l1.2,1.9c0.3,0.5,1,0.6,1.5,0.3L91.8,281.4z"/>
<path id="Ellipse_4_copy" class="st1" d="M2.9,141c4,0.9,6.4,4.8,5.6,8.8c-1.1,3.9-5.1,6.2-9,5.2c-4-0.9-6.4-4.8-5.6-8.8
	C-5,142.3-1,140,2.9,141z"/>
<circle class="st1" cx="92.2" cy="280" r="7.5"/>
</svg>
