<svg id="short_line" data-name="short line" xmlns="http://www.w3.org/2000/svg" viewBox="0 0 774.12 266.56"><defs><style>.cls-1{fill:#beb9e3;}.cls-2{fill:#130d1b;}</style></defs><title>lines-bg-opposite</title><path id="_.................................................." data-name=" .................................................." class="cls-1" d="M658.46,34.64a1.11,1.11,0,0,0,1.4.6l2.1-.8a0.9,0.9,0,0,0,.6-0.6,1.1,1.1,0,0,0,0-.8l-0.9-2.3a1,1,0,0,0-.5-0.6,1.1,1.1,0,0,0-.8,0l-2.1.8a1.11,1.11,0,0,0-.6,1.4Zm-13.4,5.1a1.11,1.11,0,0,0,1.4.6l2.1-.8a0.9,0.9,0,0,0,.6-0.6,1.1,1.1,0,0,0,0-.8l-0.9-2.3a1,1,0,0,0-.5-0.6,1.1,1.1,0,0,0-.8,0l-2.1.8a1.11,1.11,0,0,0-.6,1.4Zm-13.4,5.2a1.11,1.11,0,0,0,1.4.6l2.1-.8a0.9,0.9,0,0,0,.6-0.6,1.1,1.1,0,0,0,0-.8l-0.9-2.3a1,1,0,0,0-.5-0.6,1.1,1.1,0,0,0-.8,0l-2.1.8a1.11,1.11,0,0,0-.6,1.4ZM618.26,50a1.11,1.11,0,0,0,1.4.6l2.1-.8a0.9,0.9,0,0,0,.6-0.6,1.1,1.1,0,0,0,0-.8l-0.9-2.3a1,1,0,0,0-.5-0.6,1.1,1.1,0,0,0-.8,0l-2.1.8a1.11,1.11,0,0,0-.6,1.4Zm-13.4,5.1a1.11,1.11,0,0,0,1.4.6l2.1-.8a0.9,0.9,0,0,0,.6-0.6,1.1,1.1,0,0,0,0-.8l-0.9-2.3a1,1,0,0,0-.5-0.6,1.1,1.1,0,0,0-.8,0l-2.1.8a0.9,0.9,0,0,0-.6.6,1.1,1.1,0,0,0,0,.8Zm-13.4,5.2a1.11,1.11,0,0,0,1.4.6l2.1-.8a0.9,0.9,0,0,0,.6-0.6,1.1,1.1,0,0,0,0-.8l-0.9-2.3a1,1,0,0,0-.5-0.6,1.1,1.1,0,0,0-.8,0l-2.1.8a1.11,1.11,0,0,0-.6,1.4Zm-13.4,5.1a1.11,1.11,0,0,0,1.4.6l2.1-.8a0.9,0.9,0,0,0,.6-0.6,1.1,1.1,0,0,0,0-.8l-0.9-2.3a1,1,0,0,0-.5-0.6,1.1,1.1,0,0,0-.8,0l-2.1.8a1.11,1.11,0,0,0-.6,1.4Zm-13.4,5.2a1.11,1.11,0,0,0,1.4.6l2.1-.8a0.9,0.9,0,0,0,.6-0.6,1.1,1.1,0,0,0,0-.8l-0.9-2.3a1,1,0,0,0-.5-0.6,1.1,1.1,0,0,0-.8,0l-2.1.8a1.11,1.11,0,0,0-.6,1.4Zm-13.4,5.1a1.11,1.11,0,0,0,1.4.6l2.1-.8a0.9,0.9,0,0,0,.6-0.6,1.1,1.1,0,0,0,0-.8l-0.9-2.3a1,1,0,0,0-.5-0.6,1.1,1.1,0,0,0-.8,0l-2.1.8a1.11,1.11,0,0,0-.6,1.4Zm-13.4,5.2a1.11,1.11,0,0,0,1.4.6l2.1-.8a0.9,0.9,0,0,0,.6-0.6,1.1,1.1,0,0,0,0-.8l-0.9-2.3a1,1,0,0,0-.5-0.6,1.1,1.1,0,0,0-.8,0l-2.1.8a1.11,1.11,0,0,0-.6,1.4ZM524.46,86a1.11,1.11,0,0,0,1.4.6l2.1-.8a0.9,0.9,0,0,0,.6-0.6,1.1,1.1,0,0,0,0-.8l-0.9-2.3a1,1,0,0,0-.5-0.6,1.1,1.1,0,0,0-.8,0l-2.1.8a1.11,1.11,0,0,0-.6,1.4Zm-13.4,5.2a1.11,1.11,0,0,0,1.4.6l2.1-.8a0.9,0.9,0,0,0,.6-0.6,1.1,1.1,0,0,0,0-.8l-0.9-2.3a1,1,0,0,0-.5-0.6,1.1,1.1,0,0,0-.8,0l-2.1.8a1.11,1.11,0,0,0-.6,1.4Zm-13.4,5.1a1.11,1.11,0,0,0,1.4.6l2.1-.8a0.9,0.9,0,0,0,.6-0.6,1.1,1.1,0,0,0,0-.8l-0.9-2.3a1,1,0,0,0-.5-0.6,1.1,1.1,0,0,0-.8,0l-2.1.8a1.11,1.11,0,0,0-.6,1.4Zm-13.4,5.2a1.11,1.11,0,0,0,1.4.6l2.1-.8a0.9,0.9,0,0,0,.6-0.6,1.1,1.1,0,0,0,0-.8l-0.9-2.3A1,1,0,0,0,487,97a1.1,1.1,0,0,0-.8,0l-2.1.8a1.11,1.11,0,0,0-.6,1.4Zm-13.4,5.1a1.11,1.11,0,0,0,1.4.6l2.1-.8a0.9,0.9,0,0,0,.6-0.6,1.1,1.1,0,0,0,0-.8l-0.9-2.3a1,1,0,0,0-.5-0.6,1.1,1.1,0,0,0-.8,0l-2.1.8a1.11,1.11,0,0,0-.6,1.4Zm-13.4,5.2a1.11,1.11,0,0,0,1.4.6l2.1-.8a0.9,0.9,0,0,0,.6-0.6,1.1,1.1,0,0,0,0-.8l-0.9-2.3a1,1,0,0,0-.5-0.6,1.1,1.1,0,0,0-.8,0l-2.1.8a1.11,1.11,0,0,0-.6,1.4Zm-13.4,5.1a1.11,1.11,0,0,0,1.4.6l2.1-.8a0.9,0.9,0,0,0,.6-0.6,1.1,1.1,0,0,0,0-.8l-0.9-2.3a1,1,0,0,0-.5-0.6,1.1,1.1,0,0,0-.8,0l-2.1.8a1.11,1.11,0,0,0-.6,1.4Zm-13.4,5.2a1.11,1.11,0,0,0,1.4.6l2.1-.8a0.9,0.9,0,0,0,.6-0.6,1.1,1.1,0,0,0,0-.8l-0.9-2.3a1,1,0,0,0-.5-0.6,1.1,1.1,0,0,0-.8,0l-2.1.8a1.11,1.11,0,0,0-.6,1.4Zm-13.4,5.1a1.11,1.11,0,0,0,1.4.6l2.1-.8a0.9,0.9,0,0,0,.6-0.6,1.1,1.1,0,0,0,0-.8l-0.9-2.3a1,1,0,0,0-.5-0.6,1.1,1.1,0,0,0-.8,0l-2.1.8a1.11,1.11,0,0,0-.6,1.4Zm-13.4,5.1a1.11,1.11,0,0,0,1.4.6l2.1-.8a0.9,0.9,0,0,0,.6-0.6,1.1,1.1,0,0,0,0-.8l-0.9-2.3a1,1,0,0,0-.5-0.6,1.1,1.1,0,0,0-.8,0l-2.1.8a1.11,1.11,0,0,0-.6,1.4Zm-13.4,5.2a1.11,1.11,0,0,0,1.4.6l2.1-.8a0.9,0.9,0,0,0,.6-0.6,1.1,1.1,0,0,0,0-.8l-0.9-2.3a1,1,0,0,0-.5-0.6,1.1,1.1,0,0,0-.8,0l-2.1.8a1.11,1.11,0,0,0-.6,1.4Zm-13.4,5.1a1.11,1.11,0,0,0,1.4.6l2.1-.8a0.9,0.9,0,0,0,.6-0.6,1.1,1.1,0,0,0,0-.8l-0.9-2.3a1,1,0,0,0-.5-0.6,1.1,1.1,0,0,0-.8,0l-2.1.8a0.9,0.9,0,0,0-.6.6,1.1,1.1,0,0,0,0,.8Zm-13.4,5.2a1.11,1.11,0,0,0,1.4.6l2.1-.8a0.9,0.9,0,0,0,.6-0.6,1.1,1.1,0,0,0,0-.8l-0.9-2.3a1,1,0,0,0-.5-0.6,1.1,1.1,0,0,0-.8,0l-2.1.8a1.11,1.11,0,0,0-.6,1.4Zm-13.4,5.1a1.11,1.11,0,0,0,1.4.6l2.1-.8a0.9,0.9,0,0,0,.6-0.6,1.1,1.1,0,0,0,0-.8l-0.9-2.3a1,1,0,0,0-.5-0.6,1.1,1.1,0,0,0-.8,0l-2.1.8a1.11,1.11,0,0,0-.6,1.4Zm-13.4,5.2a1.11,1.11,0,0,0,1.4.6l2.1-.8a0.9,0.9,0,0,0,.6-0.6,1.1,1.1,0,0,0,0-.8l-0.9-2.3a1,1,0,0,0-.5-0.6,1.1,1.1,0,0,0-.8,0l-2.1.8a1.11,1.11,0,0,0-.6,1.4Zm-13.4,5.1a1.11,1.11,0,0,0,1.4.6l2.1-.8a0.9,0.9,0,0,0,.6-0.6,1.1,1.1,0,0,0,0-.8l-0.9-2.3a1,1,0,0,0-.5-0.6,1.1,1.1,0,0,0-.8,0l-2.1.8a0.9,0.9,0,0,0-.6.6,1.1,1.1,0,0,0,0,.8Zm-13.4,5.2a1.11,1.11,0,0,0,1.4.6l2.1-.8a0.9,0.9,0,0,0,.6-0.6,1.1,1.1,0,0,0,0-.8l-0.9-2.3a1,1,0,0,0-.5-0.6,1.1,1.1,0,0,0-.8,0l-2.1.8a0.9,0.9,0,0,0-.6.6,1.1,1.1,0,0,0,0,.8Zm-13.4,5.1a1.11,1.11,0,0,0,1.4.6l2.1-.8a0.9,0.9,0,0,0,.6-0.6,1.1,1.1,0,0,0,0-.8l-0.9-2.3a1,1,0,0,0-.5-0.6,1.1,1.1,0,0,0-.8,0l-2.1.8a1.11,1.11,0,0,0-.6,1.4Zm-13.4,5.2a1.11,1.11,0,0,0,1.4.6l2.1-.8a0.9,0.9,0,0,0,.6-0.6,1.1,1.1,0,0,0,0-.8l-0.9-2.3a1,1,0,0,0-.5-0.6,1.1,1.1,0,0,0-.8,0l-2.1.8a1.11,1.11,0,0,0-.6,1.4Zm-13.4,5.1a1.11,1.11,0,0,0,1.4.6l2.1-.8a0.9,0.9,0,0,0,.6-0.6,1.1,1.1,0,0,0,0-.8l-0.9-2.3a1,1,0,0,0-.5-0.6,1.1,1.1,0,0,0-.8,0l-2.1.8a1.11,1.11,0,0,0-.6,1.4Zm-13.4,5.2a1.11,1.11,0,0,0,1.4.6l2.1-.8a0.9,0.9,0,0,0,.6-0.6,1.1,1.1,0,0,0,0-.8l-0.9-2.3a1,1,0,0,0-.5-0.6,1.1,1.1,0,0,0-.8,0l-2.1.8a0.9,0.9,0,0,0-.6.6,1.1,1.1,0,0,0,0,.8Zm-40.2,15.4a1.11,1.11,0,0,0,1.4.6l2.1-.8a0.9,0.9,0,0,0,.6-0.6,1.1,1.1,0,0,0,0-.8l-0.9-2.3a1,1,0,0,0-.5-0.6,1.1,1.1,0,0,0-.8,0l-2.1.8a1.11,1.11,0,0,0-.6,1.4Zm-13.4,5.2a1.11,1.11,0,0,0,1.4.6l2.1-.8a0.9,0.9,0,0,0,.6-0.6,1.1,1.1,0,0,0,0-.8l-0.9-2.3a1,1,0,0,0-.5-0.6,1.1,1.1,0,0,0-.8,0l-2.1.8a1.11,1.11,0,0,0-.6,1.4Zm-13.4,5.1a1.11,1.11,0,0,0,1.4.6l2.1-.8a0.9,0.9,0,0,0,.6-0.6,1.1,1.1,0,0,0,0-.8l-0.9-2.3a1,1,0,0,0-.5-0.6,1.1,1.1,0,0,0-.8,0l-2.1.8a1.11,1.11,0,0,0-.6,1.4Zm-13.4,5.1a1.11,1.11,0,0,0,1.4.6l2.1-.8a0.9,0.9,0,0,0,.6-0.6,1.1,1.1,0,0,0,0-.8l-0.9-2.3a1,1,0,0,0-.5-0.6,1.1,1.1,0,0,0-.8,0l-2.1.8a0.9,0.9,0,0,0-.6.6,1.1,1.1,0,0,0,0,.8Zm-13.4,5.2a1.11,1.11,0,0,0,1.4.6l2.1-.8a0.9,0.9,0,0,0,.6-0.6,1.1,1.1,0,0,0,0-.8l-0.9-2.3a1,1,0,0,0-.5-0.6,1.1,1.1,0,0,0-.8,0l-2.1.8a1.11,1.11,0,0,0-.6,1.4Zm-13.4,5.1a1.11,1.11,0,0,0,1.4.6l2.1-.8a0.9,0.9,0,0,0,.6-0.6,1.1,1.1,0,0,0,0-.8l-0.9-2.3a1,1,0,0,0-.5-0.6,1.1,1.1,0,0,0-.8,0l-2.1.8a1.11,1.11,0,0,0-.6,1.4Zm-13.4,5.2a1.11,1.11,0,0,0,1.4.6l2.1-.8a0.9,0.9,0,0,0,.6-0.6,1.1,1.1,0,0,0,0-.8l-0.9-2.3a1,1,0,0,0-.5-0.6,1.1,1.1,0,0,0-.8,0l-2.1.8a1.11,1.11,0,0,0-.6,1.4Zm-13.4,5.1a1.11,1.11,0,0,0,1.4.6l2.1-.8a0.9,0.9,0,0,0,.6-0.6,1.1,1.1,0,0,0,0-.8l-0.9-2.3a1,1,0,0,0-.5-0.6,1.1,1.1,0,0,0-.8,0l-2.1.8a1.11,1.11,0,0,0-.6,1.4Zm-13.4,5.2a1.11,1.11,0,0,0,1.4.6l2.1-.8a0.9,0.9,0,0,0,.6-0.6,1.1,1.1,0,0,0,0-.8l-0.9-2.3a1,1,0,0,0-.5-0.6,1.1,1.1,0,0,0-.8,0l-2.1.8a0.9,0.9,0,0,0-.6.6,1.1,1.1,0,0,0,0,.8Zm-13.4,5.1a1.11,1.11,0,0,0,1.4.6l2.1-.8a0.9,0.9,0,0,0,.6-0.6,1.1,1.1,0,0,0,0-.8l-0.9-2.3a1,1,0,0,0-.5-0.6,1.1,1.1,0,0,0-.8,0l-2.1.8a1.11,1.11,0,0,0-.6,1.4Zm-13.4,5.2a1.11,1.11,0,0,0,1.4.6l2.1-.8a0.9,0.9,0,0,0,.6-0.6,1.1,1.1,0,0,0,0-.8l-0.9-2.3a1,1,0,0,0-.5-0.6,1.1,1.1,0,0,0-.8,0l-2.1.8a1.11,1.11,0,0,0-.6,1.4ZM68.86,261a1.11,1.11,0,0,0,1.4.6l2.1-.8a0.9,0.9,0,0,0,.6-0.6,1.1,1.1,0,0,0,0-.8l-0.9-2.3a1,1,0,0,0-.5-0.6,1.1,1.1,0,0,0-.8,0l-2.1.8a1.11,1.11,0,0,0-.6,1.4Zm-13.4,5.2a1.11,1.11,0,0,0,1.4.6L59,266a0.9,0.9,0,0,0,.6-0.6,1.1,1.1,0,0,0,0-.8l-0.9-2.3a1,1,0,0,0-.5-0.6,1.1,1.1,0,0,0-.8,0l-2.1.8a1.11,1.11,0,0,0-.6,1.4Zm-13.4,5.1a1.11,1.11,0,0,0,1.4.6l2.1-.8a0.9,0.9,0,0,0,.6-0.6,1.1,1.1,0,0,0,0-.8l-0.9-2.3a1,1,0,0,0-.5-0.6,1.1,1.1,0,0,0-.8,0l-2.1.8a0.9,0.9,0,0,0-.6.6,1.1,1.1,0,0,0,0,.8Zm-13.4,5.2a1.11,1.11,0,0,0,1.4.6l2.1-.8a0.9,0.9,0,0,0,.6-0.6,1.1,1.1,0,0,0,0-.8l-0.9-2.3a1,1,0,0,0-.5-0.6,1.1,1.1,0,0,0-.8,0l-2.1.8a1.11,1.11,0,0,0-.6,1.4Zm-13.4,5.1a1.11,1.11,0,0,0,1.4.6l2.1-.8a0.9,0.9,0,0,0,.6-0.6,1.1,1.1,0,0,0,0-.8l-0.9-2.3a1,1,0,0,0-.5-0.6,1.1,1.1,0,0,0-.8,0l-2.1.8a1.11,1.11,0,0,0-.6,1.4Zm-13.4,5.2a1.11,1.11,0,0,0,1.4.6l2.1-.8A0.9,0.9,0,0,0,6,286a1.1,1.1,0,0,0,0-.8l-0.9-2.3a1,1,0,0,0-.5-0.6,1.1,1.1,0,0,0-.8,0l-2.1.8a1.11,1.11,0,0,0-.6,1.4Z" transform="translate(-1 -20.94)"/><ellipse id="Ellipse_4_copy_5" data-name="Ellipse 4 copy 5" class="cls-2" cx="238.36" cy="172.5" rx="7.5" ry="7"/><path id="_................." data-name=" ................." class="cls-1" d="M222,188.74a1,1,0,0,0,.7,1.3l2.1,0.7a0.75,0.75,0,0,0,.8-0.1,1,1,0,0,0,.5-0.6l0.8-2.3a1.1,1.1,0,0,0,0-.8,0.9,0.9,0,0,0-.6-0.6l-2.1-.7a0.75,0.75,0,0,0-.8.1,1,1,0,0,0-.5.6Zm-13.6-4.6a0.78,0.78,0,0,0,.1.8,0.9,0.9,0,0,0,.6.6l2.1,0.7a0.75,0.75,0,0,0,.8-0.1,1,1,0,0,0,.5-0.6l0.8-2.3a1.1,1.1,0,0,0,0-.8,0.9,0.9,0,0,0-.6-0.6l-2.1-.7a1.08,1.08,0,0,0-1.4.7Zm-13.6-4.6a1,1,0,0,0,.7,1.3l2.1,0.7a0.75,0.75,0,0,0,.8-0.1,1,1,0,0,0,.5-0.6l0.8-2.3a1.1,1.1,0,0,0,0-.8,0.9,0.9,0,0,0-.6-0.6l-2.1-.7a1.08,1.08,0,0,0-1.4.7Zm-13.6-4.6a1,1,0,0,0,.7,1.3l2.1,0.7a0.75,0.75,0,0,0,.8-0.1,1,1,0,0,0,.5-0.6l0.8-2.3a1.1,1.1,0,0,0,0-.8,0.9,0.9,0,0,0-.6-0.6l-2.1-.7a1.08,1.08,0,0,0-1.4.7Zm-13.6-4.5a1,1,0,0,0,.7,1.3l2.1,0.7a0.75,0.75,0,0,0,.8-0.1,1,1,0,0,0,.5-0.6l0.8-2.3a1.1,1.1,0,0,0,0-.8,0.9,0.9,0,0,0-.6-0.6l-2.1-.7a1.08,1.08,0,0,0-1.4.7Zm-13.6-4.6a1,1,0,0,0,.7,1.3l2.1,0.7a0.75,0.75,0,0,0,.8-0.1,1,1,0,0,0,.5-0.6l0.8-2.3a1.1,1.1,0,0,0,0-.8,0.9,0.9,0,0,0-.6-0.6l-2.1-.7a1.08,1.08,0,0,0-1.4.7Zm-13.6-4.6a1,1,0,0,0,.7,1.3l2.1,0.7a0.75,0.75,0,0,0,.8-0.1,1,1,0,0,0,.5-0.6l0.8-2.3a1.1,1.1,0,0,0,0-.8,0.9,0.9,0,0,0-.6-0.6l-2.1-.7a1.08,1.08,0,0,0-1.4.7Zm-13.6-4.6a1,1,0,0,0,.7,1.3l2.1,0.7a0.75,0.75,0,0,0,.8-0.1,1,1,0,0,0,.5-0.6l0.8-2.3a1.1,1.1,0,0,0,0-.8,0.9,0.9,0,0,0-.6-0.6l-2.1-.7a0.75,0.75,0,0,0-.8.1,1,1,0,0,0-.5.6Zm-13.6-4.6a1,1,0,0,0,.7,1.3L116,154a0.75,0.75,0,0,0,.8-0.1,1,1,0,0,0,.5-0.6l0.8-2.3a1.1,1.1,0,0,0,0-.8,0.9,0.9,0,0,0-.6-0.6l-2.1-.7a1.08,1.08,0,0,0-1.4.7Zm-13.6-4.6a1,1,0,0,0,.7,1.3l2.1,0.7a0.75,0.75,0,0,0,.8-0.1,1,1,0,0,0,.5-0.6l0.8-2.3a1.1,1.1,0,0,0,0-.8,0.9,0.9,0,0,0-.6-0.6l-2.1-.7a0.75,0.75,0,0,0-.8.1,1,1,0,0,0-.5.6ZM86,142.94a1,1,0,0,0,.7,1.3l2.1,0.7a0.75,0.75,0,0,0,.8-0.1,1,1,0,0,0,.5-0.6l0.8-2.3a1.1,1.1,0,0,0,0-.8,0.9,0.9,0,0,0-.6-0.6l-2.1-.7a1.08,1.08,0,0,0-1.4.7Zm-13.6-4.6a1,1,0,0,0,.7,1.3l2.1,0.7a0.75,0.75,0,0,0,.8-0.1,1,1,0,0,0,.5-0.6l0.8-2.3a1.1,1.1,0,0,0,0-.8,0.9,0.9,0,0,0-.6-0.6l-2.1-.7a1.08,1.08,0,0,0-1.4.7Zm-13.6-4.6a1,1,0,0,0,.7,1.3l2.1,0.7a0.75,0.75,0,0,0,.8-0.1,1,1,0,0,0,.5-0.6l0.8-2.3a1.1,1.1,0,0,0,0-.8,0.9,0.9,0,0,0-.6-0.6l-2.1-.7a1.08,1.08,0,0,0-1.4.7Zm-13.6-4.6a1,1,0,0,0,.7,1.3l2.1,0.7a0.75,0.75,0,0,0,.8-0.1,1,1,0,0,0,.5-0.6l0.8-2.3a1.1,1.1,0,0,0,0-.8,0.9,0.9,0,0,0-.6-0.6l-2.1-.7a1.08,1.08,0,0,0-1.4.7Zm-13.6-4.6a1,1,0,0,0,.7,1.3l2.1,0.7a0.75,0.75,0,0,0,.8-0.1,1,1,0,0,0,.5-0.6l0.8-2.3a1.1,1.1,0,0,0,0-.8,0.9,0.9,0,0,0-.6-0.6l-2.1-.7a1.08,1.08,0,0,0-1.4.7ZM18,120a0.78,0.78,0,0,0,.1.8,0.9,0.9,0,0,0,.6.6l2.1,0.7a0.75,0.75,0,0,0,.8-0.1,1,1,0,0,0,.5-0.6l0.8-2.3a1.1,1.1,0,0,0,0-.8,0.9,0.9,0,0,0-.6-0.6l-2.1-.7a1.08,1.08,0,0,0-1.4.7Zm-13.6-4.6a1,1,0,0,0,.7,1.3l2.1,0.7a0.75,0.75,0,0,0,.8-0.1,1,1,0,0,0,.5-0.6l0.8-2.3a1.1,1.1,0,0,0,0-.8,0.9,0.9,0,0,0-.6-0.6l-2.1-.7a1.08,1.08,0,0,0-1.4.7Z" transform="translate(-1 -20.94)"/><path id="_..........." data-name=" ..........." class="cls-1" d="M756.36,146.74a1.1,1.1,0,0,0-.3,1.5l1.2,1.9a1,1,0,0,0,.7.4,1.2,1.2,0,0,0,.8-0.2l2-1.3a1.1,1.1,0,0,0,.3-1.4l-1.2-1.9a1.1,1.1,0,0,0-1.5-.3Zm-7.9-12a1.1,1.1,0,0,0-.3,1.5l1.2,1.9a1.79,1.79,0,0,0,.7.5,1.2,1.2,0,0,0,.8-0.2l2-1.4a1.1,1.1,0,0,0,.3-1.4l-1.2-1.9a1.1,1.1,0,0,0-1.5-.3Zm-8-12a1.1,1.1,0,0,0-.3,1.5l1.2,1.9a1.79,1.79,0,0,0,.7.5,1.2,1.2,0,0,0,.8-0.2l2-1.3a1.1,1.1,0,0,0,.3-1.4l-1.2-1.9a1.1,1.1,0,0,0-1.5-.3Zm-7.9-11.9a1.1,1.1,0,0,0-.3,1.5l1.2,1.9a1,1,0,0,0,.7.4,1.2,1.2,0,0,0,.8-0.2l2-1.3a1.1,1.1,0,0,0,.3-1.4l-1.2-1.9a1.1,1.1,0,0,0-1.5-.3Zm-7.9-12a1.1,1.1,0,0,0-.3,1.5l1.2,1.9a1,1,0,0,0,.7.4,1.2,1.2,0,0,0,.8-0.2l2-1.3a1.1,1.1,0,0,0,.3-1.4l-1.2-1.9a1.1,1.1,0,0,0-1.5-.3Zm-8-12a1.1,1.1,0,0,0-.3,1.5l1.2,1.9a1,1,0,0,0,.7.4,1.2,1.2,0,0,0,.8-0.2l2-1.3a1.1,1.1,0,0,0,.3-1.4l-1.2-1.9a1.1,1.1,0,0,0-1.5-.3Zm-7.9-11.9a1.1,1.1,0,0,0-.3,1.5l1.2,1.9a1.79,1.79,0,0,0,.7.5,1.2,1.2,0,0,0,.8-0.2l2-1.3a1.1,1.1,0,0,0,.3-1.4l-1.2-1.9a1.1,1.1,0,0,0-1.5-.3Zm-7.9-12a1.1,1.1,0,0,0-.3,1.5l1.2,1.9a1,1,0,0,0,.7.4,1.2,1.2,0,0,0,.8-0.2l2-1.3a1.1,1.1,0,0,0,.3-1.4l-1.2-1.9a1.1,1.1,0,0,0-1.5-.3Zm-7.9-12a1.1,1.1,0,0,0-.3,1.5l1.2,1.9a1,1,0,0,0,.7.4,1.2,1.2,0,0,0,.8-0.2l2-1.3a1.1,1.1,0,0,0,.3-1.4l-1.2-1.9a1.1,1.1,0,0,0-1.5-.3ZM685,39a1.1,1.1,0,0,0-.3,1.5l1.2,1.9a1.79,1.79,0,0,0,.7.5,1.2,1.2,0,0,0,.8-0.2l2-1.3a1.1,1.1,0,0,0,.3-1.4l-1.2-1.9a1.1,1.1,0,0,0-1.5-.3Zm-7.9-12a1.1,1.1,0,0,0-.3,1.5l1.2,1.9a1.79,1.79,0,0,0,.7.5,1.2,1.2,0,0,0,.8-0.2l2-1.3a1.1,1.1,0,0,0,.3-1.4l-1.2-1.9a1.1,1.1,0,0,0-1.5-.3Z" transform="translate(-1 -20.94)"/><path id="Ellipse_4_copy" data-name="Ellipse 4 copy" class="cls-2" d="M766,167.44a7.21,7.21,0,1,1,9-5.2A7.42,7.42,0,0,1,766,167.44Z" transform="translate(-1 -20.94)"/><circle class="cls-2" cx="675.66" cy="7.5" r="7.5"/></svg>