<svg id="Layer_1" data-name="Layer 1" xmlns="http://www.w3.org/2000/svg" viewBox="0 0 311.43 28.53"><defs><style>.cls-1{fill:none;isolation:isolate;}</style></defs><title>logo-universe</title><path class="cls-1" transform="translate(-1.78 -0.72)"/><path d="M21.91,20.09a8.37,8.37,0,0,1-.71,3.45,9,9,0,0,1-1.95,2.8,9.32,9.32,0,0,1-2.87,1.9,8.72,8.72,0,0,1-3.45.7H10.24A8.35,8.35,0,0,1,7,28.29a8.44,8.44,0,0,1-2.68-1.78,8.54,8.54,0,0,1-1.83-2.67,8.07,8.07,0,0,1-.68-3.31V2.18A1,1,0,0,1,2.89,1.07H5.23a0.91,0.91,0,0,1,1,.42,2.66,2.66,0,0,1,.16.94V20.54A3.62,3.62,0,0,0,6.65,22a3.91,3.91,0,0,0,.85,1.22,4,4,0,0,0,1.24.82,3.79,3.79,0,0,0,1.5.3h2.68A4.42,4.42,0,0,0,14.63,24,4.25,4.25,0,0,0,16,23.12,4.6,4.6,0,0,0,17,21.76a4,4,0,0,0,.35-1.67V2.43a2.41,2.41,0,0,1,.17-0.94,0.94,0.94,0,0,1,1-.42h2.3a1,1,0,0,1,1.15,1.11V20.09Z" transform="translate(-1.78 -0.72)"/><path d="M67.06,27.82a1.16,1.16,0,0,1-1.15,1.11H63.54a1.06,1.06,0,0,1-1-.52l-3-4.55q-1.48-2.21-3-4.39t-3-4.41l-3.1-4.6V27.82a1.16,1.16,0,0,1-1.15,1.11h-2.4a0.93,0.93,0,0,1-.77-0.35,1.2,1.2,0,0,1-.28-0.77L45.81,2.18a1.12,1.12,0,0,1,.31-0.77,1,1,0,0,1,.8-0.35H49.5a1,1,0,0,1,.94.56v0l11.95,18V2.18a1.09,1.09,0,0,1,.33-0.77,1.09,1.09,0,0,1,.82-0.35h2.37a1.08,1.08,0,0,1,.82.35,1.09,1.09,0,0,1,.33.77V27.82Z" transform="translate(-1.78 -0.72)"/><path d="M95.59,27.82a1.16,1.16,0,0,1-1.15,1.11H92.07a0.93,0.93,0,0,1-.77-0.35A1.2,1.2,0,0,1,91,27.82L91,2.18a1.12,1.12,0,0,1,.31-0.77,1,1,0,0,1,.8-0.35h2.37a1.09,1.09,0,0,1,.82.35,1.09,1.09,0,0,1,.33.77V27.82Z" transform="translate(-1.78 -0.72)"/><path d="M141.57,2.18s-0.11.43-.33,1.15-0.53,1.65-.92,2.79l-3.73,10.35L133,26.4,132.41,28a2.5,2.5,0,0,1-.38.66,0.92,0.92,0,0,1-.73.24h-3.07a1,1,0,0,1-.8-0.26,1.79,1.79,0,0,1-.31-0.61l-2.4-6.93L121.52,12Q120,7.48,118.06,2.78a0.85,0.85,0,0,1-.12-0.35c0-.12,0-0.2,0-0.24a1,1,0,0,1,1.15-1.11h2.72a0.86,0.86,0,0,1,.73.28,4.1,4.1,0,0,1,.38.63l6.86,20.31L136.56,2l0,0.21a0.09,0.09,0,0,1,0-.09,0.06,0.06,0,0,0,0-.05,1.16,1.16,0,0,1,1.11-1h2.75a1.07,1.07,0,0,1,.77.35A1.07,1.07,0,0,1,141.57,2.18Z" transform="translate(-1.78 -0.72)"/><path d="M165.08,28.94A1.07,1.07,0,0,1,164,27.82L163.9,2.18a1,1,0,0,1,.35-0.8,1.2,1.2,0,0,1,.84-0.31h16.83a0.94,0.94,0,0,1,1,.42,3,3,0,0,1,.14.94V4.34a1.69,1.69,0,0,1-.24,1.15,2,2,0,0,1-1.15.21H168.6v6.17h11.6a1.05,1.05,0,0,1,.8.33,1.14,1.14,0,0,1,.31.82v2.37a1.14,1.14,0,0,1-.31.82,1.05,1.05,0,0,1-.8.33H168.6v7.77h13.52a2,2,0,0,1,1.15.21,1.68,1.68,0,0,1,.24,1.15v1.88a3.14,3.14,0,0,1-.14,1,0.93,0.93,0,0,1-1,.44H165.08Z" transform="translate(-1.78 -0.72)"/><path d="M220.23,1.07a5.32,5.32,0,0,1,2.25.49,6.26,6.26,0,0,1,3.15,3.17A5.44,5.44,0,0,1,226.12,7a5.27,5.27,0,0,1-1,3.26,10.14,10.14,0,0,1-2.46,2.28l1.08,2.86q0.52,1.39,1,2.86,0.84,2.3,1.71,4.62t1.78,4.65a1,1,0,0,1-.05,1.06,1.32,1.32,0,0,1-1,.37h-2.65a0.94,0.94,0,0,1-.77-0.26,2.39,2.39,0,0,1-.35-0.61l-5-13.27q-1.81.94-3.48,1.85t-3.55,1.88v9.06a2.66,2.66,0,0,1-.16.94,0.9,0.9,0,0,1-1,.42h-2.47a1,1,0,0,1-.78-0.35,1.15,1.15,0,0,1-.3-0.77L206.68,2.18A1.09,1.09,0,0,1,207,1.42a1.08,1.08,0,0,1,.82-0.35h12.4ZM211.41,5.7V13.3l1.62-.8Q214,12,215,11.5l2-1.08q1-.54,1.85-1t1.45-.94a3,3,0,0,0,.78-0.71v0a1.36,1.36,0,0,0-.17-1.67,1.32,1.32,0,0,0-1-.38h-8.53Z" transform="translate(-1.78 -0.72)"/><path d="M270.36,20.3a10.8,10.8,0,0,1-.19,2,11.54,11.54,0,0,1-.54,1.93,9.74,9.74,0,0,1-.84,1.71,5.85,5.85,0,0,1-1.08,1.31,7.21,7.21,0,0,1-2.8,1.52,12.52,12.52,0,0,1-3.5.47h-2.65a8.54,8.54,0,0,1-4.22-1.06,8.11,8.11,0,0,1-3-2.87,5.86,5.86,0,0,1-1-2.26,11.17,11.17,0,0,1-.23-1.65q0-.57,0-1.17V20.3a2.69,2.69,0,0,1,.16-0.94,0.9,0.9,0,0,1,1-.42h2.37a1,1,0,0,1,1,.84,2,2,0,0,1,.1.52v0.59c0,0.09,0,.21,0,0.37s0,0.34.05,0.57A3.6,3.6,0,0,0,256.34,24a3.8,3.8,0,0,0,2.42.84h2.65a4.88,4.88,0,0,0,2.77-.8,3.2,3.2,0,0,0,1.45-2.19c0-.12,0-0.23.05-0.35s0-.23,0-0.35,0-.26,0-0.44a2.16,2.16,0,0,0,0-.54,2.68,2.68,0,0,0-.17-0.56,1.57,1.57,0,0,0-.33-0.49,5.25,5.25,0,0,0-2.23-1l-3.38-.8q-1.67-.38-3.33-0.87a13.06,13.06,0,0,1-3-1.27,6.72,6.72,0,0,1-2.14-2,5,5,0,0,1-.82-2.93V9.78q0-.56,0-1.13a5.94,5.94,0,0,1,.19-1.27l0,0a7.73,7.73,0,0,1,1-2.68,8.35,8.35,0,0,1,1.88-2.11,8.89,8.89,0,0,1,2.49-1.39,8.29,8.29,0,0,1,2.87-.5h2.65a8.54,8.54,0,0,1,3,.54A9.62,9.62,0,0,1,267,2.74a6.12,6.12,0,0,1,1.85,2.63,9.21,9.21,0,0,1,.59,3.71,3.77,3.77,0,0,1-.17.94,0.87,0.87,0,0,1-.94.42h-2.3a1,1,0,0,1-.78-0.35A1.33,1.33,0,0,1,265,9.33a4.65,4.65,0,0,0-1-3.15,3.45,3.45,0,0,0-2.58-.92h-2.65a3.82,3.82,0,0,0-2.42.87,4.35,4.35,0,0,0-.87,1,3.53,3.53,0,0,0-.5,1.22v0a9,9,0,0,0-.09,1.15,1.86,1.86,0,0,0,.64,1.36,3.3,3.3,0,0,0,1.5.91l4,1.11q1.57,0.45,2.68.75t1.78,0.54a12.51,12.51,0,0,1,1.31.54,9.79,9.79,0,0,1,1.13.64,5.52,5.52,0,0,1,1.76,2A6.3,6.3,0,0,1,270.36,20.3Z" transform="translate(-1.78 -0.72)"/><path d="M294.78,28.94a1.07,1.07,0,0,1-1.11-1.11L293.59,2.18a1,1,0,0,1,.35-0.8,1.2,1.2,0,0,1,.84-0.31H311.6a0.94,0.94,0,0,1,1,.42,3,3,0,0,1,.14.94V4.34a1.69,1.69,0,0,1-.24,1.15,2,2,0,0,1-1.15.21H298.29v6.17h11.6a1.05,1.05,0,0,1,.8.33A1.14,1.14,0,0,1,311,13v2.37a1.14,1.14,0,0,1-.31.82,1.05,1.05,0,0,1-.8.33h-11.6v7.77h13.52a2,2,0,0,1,1.15.21,1.68,1.68,0,0,1,.24,1.15v1.88a3.14,3.14,0,0,1-.14,1,0.93,0.93,0,0,1-1,.44H294.78Z" transform="translate(-1.78 -0.72)"/></svg>