<svg width="690" height="786" viewBox="0 0 690 786" xmlns="http://www.w3.org/2000/svg"><title>cube</title><g stroke="#1C2329" stroke-width="16" fill="none" fill-rule="evenodd" opacity=".6" stroke-linecap="round" stroke-linejoin="round"><path d="M345.5 8.108L458 72.181 121.625 264.806l-112.5-64.073L345.5 8.108zM9.125 456.823L233 585.375V456.823L120.5 392.75V264.502L8 200.43l1.125 256.394z"/><path d="M458 72.181l223.875 127.944-112.5 64.073L458 200.125l-112.5 64.073L233 200.125 458 72.18zm223.875 513.194v-385.25l-112.5 64.073v385.047l112.5-63.87z"/><path d="M569.784 264.502V392.75l-112.5 64.073v128.552l-112.5 64.174v-256.8l225-128.247zm0 0L458 200.125l-112.5 64.073L233 200.125l-112.5 64.073 225 128.552 224.284-128.248zM345.5 392.75L121.216 264.502V392.75l112.5 64.073v128.552l112.5 64.174-.716-256.8z"/><path d="M345.5 649.245v128.147L9.125 584.767V456.823L345.5 649.245zM569.784 392.75l-112.5 64.073v128.552l-112.5 64.174v128.147l224.284-128.147.716-256.8z"/></g></svg>