<svg width="688" height="64" viewBox="0 0 688 64" xmlns="http://www.w3.org/2000/svg"><title>Group 3</title><defs><linearGradient x1="0%" y1="50%" x2="142.728%" y2="50%" id="a"><stop stop-color="#A065AA" offset="0%"/><stop stop-color="#4F72B8" offset="100%"/></linearGradient><linearGradient x1="-240.527%" y1="50%" y2="50%" id="b"><stop stop-color="#A065AA" offset="0%"/><stop stop-color="#4F72B8" offset="100%"/></linearGradient><linearGradient x1="-7554.942%" y1="683.43%" y2="50%" id="c"><stop stop-color="#A065AA" offset="0%"/><stop stop-color="#4F72B8" offset="100%"/></linearGradient><linearGradient x1="-5523.859%" y1="724.861%" x2="2319.718%" y2="0%" id="d"><stop stop-color="#A065AA" offset="0%"/><stop stop-color="#4F72B8" offset="100%"/></linearGradient><linearGradient x1="0%" y1="50%" y2="50%" id="e"><stop stop-color="#A065AA" offset="0%"/><stop stop-color="#4F72B8" offset="100%"/></linearGradient></defs><g stroke-width="2" fill="none" fill-rule="evenodd"><path d="M481 9H2a1 1 0 0 0-1 1v52a1 1 0 0 0 1 1h478a1 1 0 0 0 1-1V9z" stroke="url(#a)"/><path d="M481 9v54h198V9H481z" stroke="url(#b)"/><path d="M686.517 1.483L679 9" stroke="url(#c)" stroke-linecap="round" stroke-linejoin="round"/><path d="M488.517 1.483L481 9" stroke="url(#d)" stroke-linecap="round" stroke-linejoin="round"/><path d="M8.898 1a1 1 0 0 0-.747.336l-6.898 7.76A1 1 0 0 0 1 9.76V62a1 1 0 0 0 1 1h677.172a1 1 0 0 0 .707-.293l6.828-6.828a1 1 0 0 0 .293-.707V2a1 1 0 0 0-1-1H8.898z" stroke="url(#e)"/></g></svg>