<?xml version="1.0" encoding="UTF-8"?>
<svg width="131px" height="80px" viewBox="0 0 131 80" version="1.1" xmlns="http://www.w3.org/2000/svg" xmlns:xlink="http://www.w3.org/1999/xlink">
    <!-- Generator: Sketch 46.2 (44496) - http://www.bohemiancoding.com/sketch -->
    <title>universe icon</title>
    <desc>Created with Sketch.</desc>
    <defs></defs>
    <g id="Design" stroke="none" stroke-width="1" fill="none" fill-rule="evenodd">
        <g id="1" transform="translate(-535.000000, -130.000000)" fill-rule="nonzero" fill="#FFFFFF">
            <g id="Intro" transform="translate(478.000000, 130.000000)">
                <g id="universe-icon" transform="translate(57.000000, 0.000000)">
                    <path d="M127.850653,40.6666667 C124.610408,38.048 119.295551,36.896 114.943143,37.5466667 C114.849815,37.345327 114.738883,37.1525816 114.611633,36.9706667 C113.581663,35.5160063 111.66502,34.9894976 110.033624,35.7130714 C108.402229,36.4366452 107.510333,38.2088264 107.903282,39.9460251 C108.296231,41.6832238 109.86461,42.9017268 111.649443,42.8564876 C113.434276,42.8112484 114.938586,41.5148635 115.242571,39.76 L115.242571,39.76 C115.242571,39.6586667 115.269306,39.5573333 115.28,39.456 C119.103061,38.896 123.835102,39.9146667 126.626204,42.176 C128.069878,43.344 129.625837,45.376 128.813102,48.3253333 C128.353265,50.0106667 126.872163,51.6 124.535551,52.9493333 L124.054327,53.216 C123.706776,53.4026667 123.348531,53.5786667 122.984939,53.7493333 L122.637388,53.904 C122.373605,54.0213333 122.106259,54.1351111 121.835347,54.2453333 L121.44502,54.4 C121.149156,54.5137778 120.849728,54.624 120.546735,54.7306667 L120.252653,54.8373333 C119.853415,54.9724444 119.447048,55.1004444 119.033551,55.2213333 L118.707388,55.312 L117.76098,55.568 L117.311837,55.68 L116.402857,55.888 L115.975102,55.9786667 C115.547347,56.064 115.108898,56.1493333 114.670449,56.224 L114.558163,56.224 C114.133973,56.2951111 113.706218,56.3608889 113.274898,56.4213333 L112.815061,56.48 L111.852612,56.5973333 L111.360694,56.6506667 L110.291306,56.7466667 L109.933061,56.7786667 C109.466095,56.8142222 108.995565,56.8426667 108.521469,56.864 L108.141837,56.864 L107.072449,56.9013333 L106.575184,56.9013333 L105.104776,56.9013333 C104.623551,56.9013333 104.142327,56.9013333 103.666449,56.8746667 L103.591592,56.8746667 L102.217429,56.816 L101.762939,56.7893333 L100.74702,56.72 L100.479673,56.72 L100.479673,56.72 L100.479673,56.72 C100.682857,56.2986667 100.875347,55.8773333 101.06249,55.4506667 L101.206857,55.1093333 C101.374395,54.7217778 101.534803,54.3306667 101.688082,53.936 L101.746898,53.7866667 C101.918,53.3493333 102.078408,52.9013333 102.233469,52.4586667 L102.345755,52.128 C102.474082,51.7475556 102.597061,51.3653333 102.714694,50.9813333 L102.789551,50.7306667 C102.925007,50.2791111 103.051551,49.824 103.169184,49.3653333 L103.244041,49.0506667 C103.340286,48.6666667 103.429401,48.2826667 103.511388,47.8986667 L103.580898,47.584 C103.677143,47.1182222 103.766259,46.6506667 103.848245,46.1813333 C103.848245,46.0906667 103.87498,46 103.89102,45.9093333 C103.955184,45.5111111 104.014,45.1128889 104.067469,44.7146667 C104.067469,44.592 104.099551,44.4746667 104.115592,44.352 C104.174408,43.8773333 104.227878,43.3973333 104.265306,42.9173333 C104.265306,42.8533333 104.265306,42.7946667 104.265306,42.7306667 C104.300952,42.304 104.327687,41.8755556 104.34551,41.4453333 C104.34551,41.3173333 104.34551,41.1893333 104.34551,41.0613333 C104.34551,40.576 104.377592,40.0853333 104.377592,39.5946667 C104.389746,37.2280038 104.191129,34.8649411 103.784082,32.5333333 C103.73608,32.179998 103.497727,31.8813575 103.163265,31.7554925 C102.828803,31.6296275 102.452082,31.6968029 102.182056,31.9304578 C101.91203,32.1641128 101.792174,32.5266279 101.869878,32.8746667 C102.265137,35.0821694 102.463748,37.320234 102.463388,39.5626667 C102.463388,40.032 102.463388,40.496 102.431306,40.9653333 C102.431306,41.0986667 102.431306,41.2266667 102.431306,41.36 C102.431306,41.7155556 102.408136,42.0835556 102.361796,42.464 C102.361796,42.5706667 102.361796,42.6773333 102.361796,42.784 C102.322585,43.2426667 102.274463,43.6977778 102.217429,44.1493333 C102.217429,44.2506667 102.190694,44.3466667 102.174653,44.448 C102.124748,44.8035556 102.071279,45.168 102.014245,45.5413333 C102.014245,45.6693333 101.971469,45.7973333 101.950082,45.9253333 C101.875224,46.352 101.800367,46.7733333 101.709469,47.1893333 L101.709469,47.2746667 C101.613224,47.7173333 101.511633,48.16 101.399347,48.6026667 L101.303102,48.9706667 C101.213986,49.3262222 101.119524,49.6693333 101.019714,50 L100.923469,50.3253333 C100.795143,50.7555556 100.657905,51.1822222 100.511755,51.6053333 L100.420857,51.8666667 C100.29966,52.2222222 100.173116,52.5653333 100.041224,52.896 L99.8968571,53.264 C99.7507075,53.6195556 99.5974286,53.9893333 99.4370204,54.3733333 L99.3782041,54.5173333 C99.2017551,54.928 99.0146122,55.328 98.8435102,55.7333333 L98.6777551,56.0746667 L98.3836735,56.5333333 L98.078898,56.496 L97.1699184,56.384 L96.6886939,56.32 L95.7850612,56.1866667 L95.3519592,56.1173333 L94.2825714,55.9253333 L94.0686939,55.888 L92.7854286,55.632 L92.4806531,55.5626667 L92.309551,55.5253333 C92.5140562,55.1393355 92.6926792,54.740238 92.8442449,54.3306667 C92.8646,54.2718164 92.8789315,54.2110624 92.8870204,54.1493333 C93.2002997,53.0820881 93.2894917,51.9618555 93.1490204,50.8586667 C93.225191,50.8039434 93.2983705,50.7451927 93.3682449,50.6826667 C93.6355252,50.4386122 93.7447225,50.066642 93.6516327,49.7173333 C93.4028636,48.6754985 92.9140535,47.705844 92.224,46.8853333 C92.3953141,45.9482634 92.002414,44.9976966 91.2187755,44.4533333 C90.5892534,44.032958 89.8021865,43.9210864 89.08,44.1493333 C89.0158367,44.0586667 88.9570204,43.968 88.8982041,43.8666667 C88.2584216,42.5154618 87.7792885,41.0942496 87.4705714,39.632 C88.262677,39.4238029 89.0412284,39.1673209 89.8018367,38.864 C94.3146531,37.056 97.4319184,33.776 98.8167755,29.376 C100.324612,24.576 99.1001633,19.1466667 95.3626531,14.0693333 C90.3097959,7.264 79.6693878,0 64.6979592,0 C50.0966308,0.0189865772 36.6828204,8.02672319 29.7664082,20.8533333 C21.5588571,18.88 14.1159184,18.5706667 8.58718367,20.1866667 C5.24,21.1626667 2.83922449,22.8533333 1.63616327,25.04 C0.00905619261,27.7704855 0.190525732,31.2096334 2.096,33.7546667 C4.63579592,37.296 9.73677551,39.5093333 15.0623265,39.6213333 C15.1191216,39.7839927 15.187008,39.9425853 15.2655102,40.096 C16.0911445,41.6750614 17.9200105,42.4525841 19.6338143,41.9531375 C21.347618,41.4536909 22.4691355,39.8163503 22.312594,38.0422981 C22.1560525,36.2682458 20.7650424,34.8514826 18.9901227,34.6583146 C17.2152029,34.4651467 15.5506159,35.5493632 15.0142041,37.248 C14.9723045,37.3863949 14.9383851,37.5270697 14.9126122,37.6693333 C10.2821633,37.52 5.82281633,35.6053333 3.68404082,32.6346667 C2.21442875,30.6946626 2.08090894,28.056429 3.34718367,25.9786667 C4.29893878,24.24 6.29869388,22.8853333 9.13791837,22.0586667 C13.4047755,20.8 20.2488571,20.6293333 28.8734694,22.6133333 C24.6572519,31.54159 23.8955936,41.7085467 26.7346939,51.1626667 C21.7192653,53.0453333 18.0512653,55.7066667 16.2974694,59.0986667 C13.7630204,64.016 15.5275102,66.8693333 16.8321633,68.1333333 C20.3825306,71.6426667 28.1837143,71.4026667 36.9740816,67.728 C41.7168163,72.3626667 46.7482857,75.1253333 49.7211837,76.2026667 C50.0478411,76.3217552 50.41338,76.2579713 50.6801055,76.0353418 C50.946831,75.8127123 51.0742211,75.4650598 51.0142892,75.1233418 C50.9543573,74.7816238 50.7162084,74.4977552 50.389551,74.3786667 C47.7160816,73.3973333 43.2032653,70.9546667 38.8775918,66.88 C39.590517,66.5493333 40.3034422,66.1937778 41.0163673,65.8133333 C42.9412653,64.8053333 44.8233878,63.9306667 46.6627347,63.1466667 C50.6660398,66.2055115 55.3977311,68.1738708 60.3936735,68.8586667 C57.6112757,71.3243063 55.2697653,74.2441975 53.4693878,77.4933333 C53.2081452,77.9379683 53.2081452,78.4886983 53.4693878,78.9333333 C53.7303829,79.3755065 54.2061457,79.6472586 54.7205714,79.648 L69.4032653,79.648 C70.1587641,79.6479284 70.7884016,79.0708774 70.8522857,78.32 C71.0064826,75.0955335 70.2486831,71.892783 68.6653878,69.0773333 C71.8693278,68.7613889 75.006439,67.9611232 77.9690612,66.704 C79.9294936,65.8664393 81.8271781,64.8897114 83.6475102,63.7813333 C84.0859371,64.3535771 84.292121,65.069576 84.2249796,65.7866667 C83.9041633,69.5733333 77.2739592,74.3946667 74.7234694,75.92 L74.67,75.9573333 L74.6004898,76.0053333 L74.5256327,76.0746667 L74.4721633,76.1333333 L74.408,76.224 L74.3705714,76.2826667 C74.3522075,76.3189638 74.3361354,76.35637 74.322449,76.3946667 L74.322449,76.448 C74.3048831,76.5036585 74.2923568,76.5607762 74.2850204,76.6186667 C74.2850204,76.6186667 74.2850204,76.6506667 74.2850204,76.6666667 C74.2819224,76.7110574 74.2819224,76.7556093 74.2850204,76.8 C74.2850204,76.8 74.2850204,76.8426667 74.2850204,76.864 C74.2823542,76.9048456 74.2823542,76.945821 74.2850204,76.9866667 L74.2850204,76.9866667 C74.2850204,76.9866667 74.2850204,77.0346667 74.3117551,77.0613333 L74.3117551,77.1093333 L74.3117551,77.1093333 L74.3438367,77.168 L74.3866122,77.2426667 L74.4293878,77.296 L74.4828571,77.36 L74.5309796,77.408 L74.5897959,77.4613333 L74.6432653,77.504 L74.7127755,77.5466667 L74.7715918,77.5786667 L74.846449,77.6106667 L74.9052653,77.6106667 L74.9908163,77.6106667 L75.0496327,77.6106667 L75.1726122,77.6106667 L75.1726122,77.6106667 C75.2612425,77.6101811 75.3493909,77.5976205 75.4346122,77.5733333 C75.9104898,77.44 76.3810204,77.296 76.851551,77.1413333 L77.1349388,77.0506667 C77.5876463,76.9013333 78.0367891,76.7448889 78.4823673,76.5813333 L78.7176327,76.4906667 C79.1418231,76.3306667 79.562449,76.1635556 79.9795102,75.9893333 L80.1185306,75.9306667 C80.5623265,75.744 80.9954286,75.5466667 81.4285306,75.344 L81.6958776,75.2213333 C82.1236327,75.0186667 82.5496054,74.8071111 82.9737959,74.5866667 L83.1235102,74.5066667 C83.5191837,74.2968889 83.9112925,74.0817778 84.2998367,73.8613333 L84.4869796,73.7546667 C84.8969116,73.52 85.2997143,73.2764444 85.6953878,73.024 L85.9253061,72.88 C86.3316735,72.6186667 86.7326939,72.3466667 87.1283673,72.0853333 L87.1283673,72.0853333 C87.5240408,71.8133333 87.9090204,71.552 88.2886531,71.248 L88.4864898,71.0986667 C88.8607755,70.8142222 89.2297143,70.5244444 89.5933061,70.2293333 L89.7697551,70.08 C90.1262177,69.7848889 90.4826803,69.4844444 90.8391429,69.1786667 L90.8872653,69.136 C91.2437279,68.8195556 91.6001905,68.496 91.9566531,68.1653333 L92.1437959,67.984 C92.5002585,67.6568889 92.833551,67.3244444 93.1436735,66.9866667 L93.2613061,66.864 C93.5714286,66.5404444 93.8762041,66.2115556 94.1756327,65.8773333 L94.2932653,65.7493333 C94.6033878,65.3937778 94.9081633,65.0382222 95.2075918,64.6826667 L95.3733469,64.48 C95.6727755,64.112 95.9668571,63.744 96.2555918,63.3653333 L96.2983673,63.3066667 C96.5764082,62.9511111 96.8455374,62.5795556 97.1057551,62.192 L97.2447755,61.9946667 C97.5085578,61.6142222 97.7669932,61.2284444 98.0200816,60.8373333 L98.159102,60.624 C98.4104082,60.2293333 98.6510204,59.8346667 98.8862857,59.4346667 L98.8862857,59.3973333 C99.0538231,59.1093333 99.2195782,58.8195556 99.383551,58.528 L99.4263265,58.528 L100.570571,58.624 L100.848612,58.624 L101.944735,58.6933333 L102.126531,58.6933333 L103.292163,58.7413333 L103.55951,58.7413333 L104.570082,58.7413333 L106.136735,58.7413333 L107.109878,58.7413333 L107.329102,58.7413333 L108.468,58.6933333 L108.655143,58.6933333 L109.628286,58.6346667 L109.874245,58.6346667 L110.997102,58.5386667 L111.104041,58.5386667 L112.109265,58.432 L112.360571,58.4 C113.073497,58.3111111 113.786422,58.208 114.499347,58.0906667 L114.745306,58.048 L115.718449,57.872 L115.798653,57.872 L116.825265,57.6586667 L117.055184,57.6053333 L117.916041,57.4026667 L118.076449,57.3653333 L119.044245,57.1093333 L119.247429,57.0506667 L120.038776,56.816 L120.236612,56.7573333 L121.145592,56.4533333 L121.306,56.3946667 L122.054571,56.1173333 L122.268449,56.0373333 C122.557184,55.9253333 122.840571,55.808 123.113265,55.6906667 L123.214857,55.648 L123.942041,55.3173333 L124.150571,55.216 C124.417918,55.088 124.685265,54.9546667 124.931224,54.8213333 C128.04849,53.1626667 130.037551,51.056 130.66849,48.7306667 C131.534694,45.7333333 130.534816,42.832 127.850653,40.6666667 Z M113.32302,39.4293333 L113.32302,39.4293333 C113.161406,40.365808 112.29504,41.0136276 111.348527,40.9057475 C110.402014,40.7978673 109.704495,39.9718014 109.758844,39.0231011 C109.813193,38.0744008 110.600512,37.332966 111.553184,37.3333333 C111.656371,37.3245742 111.760118,37.3245742 111.863306,37.3333333 C112.840542,37.5015727 113.496291,38.4277899 113.328367,39.4026667 L113.32302,39.4293333 Z M16.8642449,37.8293333 C17.1199158,37.0132631 17.91796,36.4910155 18.7702607,36.5820188 C19.6225613,36.673022 20.2916991,37.351926 20.3684015,38.2034849 C20.4451039,39.0550438 19.9080046,39.8420449 19.0856157,40.0831257 C18.2632268,40.3242065 17.3846355,39.9522108 16.9872245,39.1946667 C16.7641111,38.7704372 16.7217099,38.2744509 16.8695918,37.8186667 L16.8642449,37.8293333 Z M88.2244898,46.1013333 C88.422909,46.287741 88.6915969,46.3809211 88.9631557,46.3575002 C89.2347145,46.3340793 89.4833795,46.1962795 89.6467755,45.9786667 C89.8106355,45.921646 89.9920478,45.9474961 90.1333469,46.048 C90.2810627,46.1828008 90.3409024,46.3886194 90.2884082,46.5813333 C90.0233315,46.9801287 90.0891481,47.5121131 90.4434694,47.8346667 C90.9466924,48.2995193 91.3253418,48.882549 91.5449388,49.5306667 C91.1803263,49.7664994 91.0166649,50.2148789 91.1439184,50.6293333 L91.1439184,50.6613333 C91.3306602,51.6687639 91.2701196,52.7063134 90.9674694,53.6853333 C90.9507002,53.7357602 90.9381806,53.7874954 90.9300408,53.84 C90.7704593,54.2600834 90.5773501,54.6667209 90.3525714,55.056 L90.3097959,55.056 L89.8873878,54.944 L89.0746531,54.7146667 L88.7164082,54.608 C88.3367755,54.4906667 87.9624898,54.3733333 87.593551,54.2506667 C70.8576327,48.6506667 53.1539184,46.784 39.4336735,48.336 C37.1970506,39.099078 40.2070464,29.3819037 47.2776327,23.0133333 C47.452501,22.8534278 47.5627865,22.6353148 47.5877551,22.4 C47.9085714,19.3546667 50.3467755,16.272 53.6511837,14.7306667 C53.743129,14.6876644 53.8522424,14.7068707 53.9238776,14.7786667 C54.5867736,15.495089 55.166156,16.2841214 55.6509388,17.1306667 C55.8758663,17.5338244 56.3542268,17.7233439 56.7951837,17.584 C63.4334718,15.5070582 70.6283761,16.1598252 76.7820408,19.3973333 C81.0595918,21.6426667 83.492449,24.304 84.0913061,27.3173333 C83.9469388,35.6693333 86.0857143,42.9546667 87.155102,44.8373333 C87.4439947,45.3112153 87.8047339,45.7376035 88.2244898,46.1013333 Z M64.6979592,1.94133333 C78.8940816,1.94133333 88.9997959,8.79466667 93.7211429,15.2106667 C97.0790204,19.776 98.2072245,24.5973333 96.8865306,28.784 C95.6834694,32.608 92.9565306,35.4666667 89.0051429,37.0506667 C88.3433682,37.3139089 87.6667146,37.5382925 86.9786531,37.7226667 C86.2871961,34.2749788 85.9663477,30.7635657 86.021551,27.248 C86.0282717,27.182393 86.0282717,27.1162737 86.021551,27.0506667 C85.3424898,23.392 82.5353469,20.2346667 77.6910204,17.6746667 C71.3095209,14.3208737 63.878758,13.5455031 56.939551,15.5093333 C56.4742596,14.7620926 55.9370234,14.0618902 55.3354694,13.4186667 C54.6866929,12.7609938 53.6932451,12.5816031 52.8544898,12.9706667 C49.1116327,14.7253333 46.2670612,18.2453333 45.7270204,21.8186667 C44.6269484,22.8316615 43.61125,23.9321743 42.6899592,25.1093333 C39.1211819,23.6292889 35.4597202,22.382215 31.7287347,21.376 C38.3671706,9.40891203 50.9862566,1.97022541 64.6979592,1.94133333 Z M26.9806531,39.584 C26.9737023,33.8643815 28.2815622,28.2193158 30.8037143,23.0826667 C34.4464191,24.0447363 38.0192927,25.2528585 41.4975918,26.6986667 C37.1808945,33.1182141 35.7214586,41.0339456 37.466,48.5653333 C34.4394907,48.9678723 31.4524316,49.6244236 28.5366122,50.528 C27.4827948,46.9758297 26.9585307,43.2883642 26.9806531,39.584 L26.9806531,39.584 Z M18.1795918,66.7573333 C16.6236327,65.216 16.5755102,62.8106667 18.0298776,59.984 C19.564449,57.008 22.8421224,54.6506667 27.338898,52.9653333 C29.1362506,57.8908294 31.9114289,62.4039845 35.4983265,66.2346667 C26.7988571,69.728 20.5589796,69.1306667 18.1795918,66.7573333 Z M40.1020408,64.0906667 C39.1770204,64.576 38.2787347,65.008 37.3964898,65.408 C33.7621865,61.6745344 30.9549869,57.2209726 29.1568571,52.336 C32.0447547,51.4524747 35.003663,50.8190166 38.0006939,50.4426667 C38.6511288,52.5358978 39.5485742,54.544641 40.6741633,56.4266667 C41.8550643,58.4016389 43.3135557,60.1976639 45.0051837,61.76 C43.3422857,62.4853333 41.7061224,63.2586667 40.0699592,64.112 L40.1020408,64.0906667 Z M77.2525714,64.896 C74.2327372,66.1744575 71.0227971,66.9492251 67.7510612,67.1893333 C67.2345269,67.2319711 66.7801584,67.5465497 66.5594677,68.014324 C66.3387771,68.4820984 66.3853755,69.0318262 66.6816735,69.456 C68.2263011,71.9267973 69.0228151,74.7899143 68.9755102,77.7013333 L55.6081633,77.7013333 C57.5865306,74.384 60.1049388,71.4346667 62.446898,69.7013333 C62.9231234,69.3477544 63.1337915,68.7394275 62.9778857,68.1680494 C62.8219799,67.5966713 62.3312889,67.1787441 61.741102,67.1146667 C53.2341224,66.16 46.1601224,61.904 42.3210204,55.4453333 C41.3428711,53.7977338 40.5519833,52.0464662 39.9630204,50.224 C53.3784898,48.816 70.8041633,50.672 86.9733061,56.0906667 C87.3725442,56.2257778 87.7771293,56.3555556 88.1870612,56.48 L88.6522449,56.6186667 L89.1869388,56.768 C87.0374694,59.36 83.2037143,62.3626667 77.2204898,64.9173333 L77.2525714,64.896 Z M86.2140408,65.9253333 C86.3159837,64.7866913 86.0006391,63.6497917 85.326449,62.7253333 C87.587535,61.2508466 89.5862004,59.4104805 91.2401633,57.28 L91.2936327,57.28 L91.9673469,57.44 L92.5875918,57.5733333 L93.2506122,57.712 L93.881551,57.8346667 L94.5499184,57.9573333 L95.1862041,58.064 L95.8652653,58.176 L96.4962041,58.2666667 L97.1859592,58.3626667 L97.4105306,58.3946667 L97.373102,58.4586667 C97.2822041,58.6186667 97.1806122,58.7733333 97.0897143,58.928 C96.9346531,59.184 96.7795918,59.4613333 96.6191837,59.6906667 L96.2876735,60.224 C96.1326122,60.4586667 95.977551,60.6933333 95.8224898,60.9226667 L95.458898,61.456 C95.2984898,61.6746667 95.1434286,61.8986667 94.9776735,62.1173333 L94.5873469,62.6506667 L94.0847347,63.2853333 L93.6730204,63.7866667 L93.1383265,64.4 L92.7105714,64.88 L92.1758776,65.4773333 L91.7374286,65.936 C91.5449388,66.1333333 91.347102,66.3306667 91.1492653,66.5226667 L90.7054694,66.9546667 C90.4969388,67.152 90.2830612,67.3493333 90.0691837,67.5413333 L89.6360816,67.9306667 C89.3954694,68.1386667 89.1548571,68.3413333 88.908898,68.544 L88.5239184,68.8693333 C88.1674558,69.1466667 87.8216871,69.4168889 87.4866122,69.68 L87.3796735,69.7653333 C86.9911293,70.0568889 86.5972381,70.3413333 86.198,70.6186667 L85.8183673,70.8693333 C85.5403265,71.056 85.2836735,71.2426667 84.978898,71.4026667 L84.4976735,71.7013333 C84.2410204,71.856 83.9629796,72.016 83.7277143,72.1653333 L83.1930204,72.464 L82.439102,72.88 L81.8723265,73.1733333 L81.4285306,73.392 C83.7223673,71.2373333 85.9627347,68.5546667 86.1819592,65.9466667 L86.2140408,65.9253333 Z" id="Shape"></path>
                </g>
            </g>
        </g>
    </g>
</svg>