<?xml version="1.0" encoding="utf-8"?>
<!-- Generator: Adobe Illustrator 21.0.2, SVG Export Plug-In . SVG Version: 6.00 Build 0)  -->
<svg version="1.1" id="Layer_1" xmlns="http://www.w3.org/2000/svg" xmlns:xlink="http://www.w3.org/1999/xlink" x="0px" y="0px"
	 viewBox="0 0 570.9 347" style="enable-background:new 0 0 570.9 347;" xml:space="preserve">
<style type="text/css">
	.st0{fill:#FFFFFF;}
</style>
<g>
	<path class="st0" d="M424.1,205.9c-4.4-1.2-4.8-1.6-6-6c-0.3-1.2-1.5-2.1-2.7-2.1c-1.3,0-2.4,0.9-2.7,2.1c-1.2,4.4-1.6,4.8-6,6
		c-1.2,0.3-2.1,1.5-2.1,2.7c0,1.3,0.9,2.4,2.1,2.7c4.4,1.2,4.8,1.6,6,6c0.3,1.2,1.5,2.1,2.7,2.1c1.3,0,2.4-0.9,2.7-2.1
		c1.2-4.4,1.6-4.8,6-6c1.2-0.3,2.1-1.5,2.1-2.7S425.4,206.2,424.1,205.9z"/>
	<path class="st0" d="M410,325.2c-1.4-3.8-2.7-7.4-4.2-11.2c3.9-2.7,6.7-5.7,6.7-10.8c0-6.2-5.4-11.6-11.5-11.6h-24.3
		c-1.3,0-2.3,1.1-2.3,2.2l0.1,50.2c0,1.1,0.8,2.2,2.1,2.2h4.8c2.1,0,2.2-1.3,2.2-2.7v-17.7c4.9-2.5,9.1-4.8,13.8-7.3l9.8,26
		c0.3,0.9,0.7,1.7,2.2,1.7h5.2c1.8,0,2.9-1,2.1-2.8C414.4,337.2,412.2,331.2,410,325.2z M402.7,304.7c-1.4,2.2-13.6,8.2-19,10.8
		v-14.9h16.7c1.6,0,2.7,1.2,2.7,2.6C403.1,303.8,403,304.2,402.7,304.7z"/>
	<path class="st0" d="M255.8,291.6h-5.4c-1,0-1.8,0.6-2.2,1.9c0,0.1,0,0.1-0.1,0.1l-13.2,39.5l-13.4-39.7c-0.5-0.9-0.8-1.8-2.2-1.8
		H214c-1.5,0-2.2,0.8-2.2,2.2c0,0.2,0,0.7,0.3,1.2c5,12.3,8.7,23.7,13,35.9l4.7,13.6c0.3,0.9,0.6,1.7,2.2,1.7h6
		c1.4,0,1.7-0.7,2.2-1.8l1.2-3.2l7-19.4l7.3-20.2c1.6-4.4,2.5-7.5,2.5-7.7C257.9,292.7,256.9,291.6,255.8,291.6z"/>
	<path class="st0" d="M332.3,337h-26.5v-15.2h22.7c1.3,0,2.2-1,2.2-2.3v-4.6c0-1.3-0.9-2.2-2.2-2.2h-22.7v-12.1h25.6
		c2.4,0,2.7-0.2,2.7-2.7v-3.7c0-1.4,0-2.7-2.3-2.7H299c-1.3,0-2.3,0.9-2.3,2.2l0.1,50.2c0,1.3,0.9,2.2,2.2,2.2h33.8
		c2.2,0,2.2-1.4,2.2-2.7v-3.7C335.1,337.2,334.7,337,332.3,337z"/>
	<path class="st0" d="M158.4,19.8c4.4,1.2,4.8,1.6,6,6c0.3,1.2,1.5,2.1,2.7,2.1c1.3,0,2.4-0.9,2.7-2.1c1.2-4.4,1.6-4.8,6-6
		c1.2-0.3,2.1-1.5,2.1-2.7c0-1.3-0.9-2.4-2.1-2.7c-4.4-1.2-4.8-1.6-6-6c-0.3-1.2-1.5-2.1-2.7-2.1c-1.3,0-2.4,0.9-2.7,2.1
		c-1.2,4.4-1.6,4.8-6,6c-1.2,0.3-2.1,1.5-2.1,2.7S157.2,19.4,158.4,19.8z"/>
	<path class="st0" d="M428.8,68.6c3.3,1,3.5,1.2,4.3,4.5c0.3,1.2,1.4,2.1,2.7,2.1c0,0,0,0,0.1,0c1.3,0,2.4-0.8,2.7-2
		c1-3.3,1.2-3.5,4.5-4.3c1.2-0.3,2.1-1.4,2.1-2.7c0-1.3-0.8-2.4-2-2.8c-3.3-1-3.5-1.2-4.3-4.5c-0.3-1.2-1.4-2.1-2.7-2.1
		s-2.4,0.8-2.8,2c-1,3.3-1.2,3.5-4.5,4.3c-1.2,0.3-2.1,1.4-2.1,2.7C426.7,67.1,427.5,68.3,428.8,68.6z"/>
	<path class="st0" d="M568.3,337h-26.5v-15.2h22.7c1.3,0,2.2-1,2.2-2.3v-4.6c0-1.3-0.9-2.2-2.2-2.2h-22.7v-12.1h25.6
		c2.4,0,2.7-0.2,2.7-2.7v-3.7c0-1.4,0-2.7-2.3-2.7h-32.9c-1.3,0-2.3,0.9-2.3,2.2l0.1,50.2c0,1.3,0.9,2.2,2.2,2.2h33.8
		c2.2,0,2.2-1.4,2.2-2.7v-3.7C571,337.2,570.7,337,568.3,337z"/>
	<path class="st0" d="M472.3,93.4c0.5,0.5,1.3,0.8,2,0.8c0.5,0,1-0.1,1.4-0.4c3.9-2.2,4.6-2.2,8.5,0c1.1,0.6,2.5,0.4,3.4-0.5
		c0.9-0.9,1.1-2.3,0.5-3.4c-2.2-3.9-2.2-4.6,0-8.5c0.6-1.1,0.4-2.5-0.5-3.4c-0.9-0.9-2.3-1.1-3.4-0.5c-3.9,2.2-4.6,2.2-8.5,0
		c-1.1-0.6-2.5-0.4-3.4,0.5s-1.1,2.3-0.5,3.4c2.2,4,2.2,4.7,0,8.6C471.2,91.1,471.4,92.5,472.3,93.4z"/>
	<path class="st0" d="M37.2,291.6h-4.5c-2.1,0-2.2,1.3-2.2,2.7v34.6c0,4.6-3.9,8.4-8.6,8.4h-5.2c-4.1,0-7.6-3.3-7.6-7.5v-35.5
		c0-1.4-0.1-2.7-2.2-2.7H2.2c-1.4,0-2.2,0.8-2.2,2.2v35.9c0,9.3,7.6,16.4,16.6,16.4h5.2c9.5,0,17.6-7.8,17.6-17.3v-35
		C39.4,292.3,38.7,291.6,37.2,291.6z"/>
	<path class="st0" d="M248.1,293.6C248.1,293.6,248.1,293.6,248.1,293.6l0.1-0.2L248.1,293.6z"/>
	<path class="st0" d="M488,319.4c-1.4-0.9-2.9-1.7-4.8-2.3c-1.7-0.6-4.6-1.4-8.7-2.5l-7.8-2.2c-1-0.3-2-0.9-2.9-1.8
		c-1.7-1.7-1.3-3.7-1.1-4.9v0.1c0.8-3.5,4-6,7.4-6h5.2c4.4,0,6.8,2.2,7,8c0.1,1.1,0.9,2.2,2.2,2.2h4.5c2.1,0,2.1-1.3,2.2-2.7
		c0.2-5.2-1.7-10-4.8-12.4c-3.1-2.5-7-4-11-4h-5.2c-7.8,0-14.8,5.5-16.2,13.1l0.1-0.1c-0.5,1.8-0.4,3.3-0.4,4.7v1
		c0,9.1,9.4,11.8,18.1,13.8c4.9,1.2,9.1,1.8,11,3.5c1.2,1,1.1,3.1,1,4c0,0.5-0.1,0.9-0.1,1.4c-0.6,3.6-4.2,5.9-8.2,5.9h-5.2
		c-3.5,0-6.6-2.5-7.4-5.8c-0.1-0.9-0.1-1.5-0.1-1.8c0-1.1,0.1-1.3-0.2-2.2c-0.3-1.1-1-1.6-2-1.6H456c-2.1,0-2.2,1.3-2.2,2.7v-0.1
		c0,1.6-0.1,2.7,0.5,5.5c0.3,1.4,0.9,2.9,1.9,4.4c2.9,4.7,8.2,7.7,14.2,7.7h5.2c4.9,0,9.3-1.2,12.3-3.9c3.1-2.7,5.2-8.5,5.2-13.6
		C492.8,324.6,490.8,321.3,488,319.4z"/>
	<path class="st0" d="M170.8,291.6h-4.6c-1.3,0-2.2,1.1-2.2,2.2l0.1,50.2c0,1.1,0.8,2.2,2,2.2h4.6c1.3,0,2.2-1.1,2.2-2.2v-50.2
		C173,292.7,172.1,291.6,170.8,291.6z"/>
	<path class="st0" d="M81.9,182.1c0-1.3-0.9-2.4-2.1-2.7c-5.4-1.5-6.1-2.2-7.6-7.6c-0.3-1.2-1.5-2.1-2.7-2.1c-1.3,0-2.4,0.9-2.7,2.1
		c-1.5,5.4-2.2,6.1-7.6,7.6c-1.2,0.3-2.1,1.5-2.1,2.7c0,1.3,0.9,2.4,2.1,2.7c5.4,1.5,6.1,2.2,7.6,7.6c0.3,1.2,1.5,2.1,2.7,2.1
		c1.3,0,2.4-0.9,2.7-2.1c1.5-5.4,2.2-6.1,7.6-7.6C81.1,184.5,81.9,183.4,81.9,182.1z"/>
	<path class="st0" d="M100.4,158.2c0.5,0.5,1.3,0.8,2,0.8c0.5,0,1-0.1,1.4-0.4c3-1.7,3.3-1.7,6.2,0c1.1,0.6,2.5,0.4,3.4-0.5
		c0.9-0.9,1.1-2.3,0.5-3.4c-1.7-3-1.7-3.3,0-6.2c0.6-1,0.4-2.4-0.5-3.3c-0.9-0.9-2.3-1.1-3.4-0.5c-3,1.7-3.3,1.7-6.2,0
		c-1.1-0.6-2.5-0.4-3.4,0.5c-0.9,0.9-1.1,2.3-0.5,3.4c1.7,3,1.7,3.3,0,6.2C99.3,155.9,99.5,157.3,100.4,158.2z"/>
	<path class="st0" d="M120.1,291.6h-4.6c-1.3,0-2.2,1.1-2.2,2.2v34l-23.4-35.2v0.1c-0.4-0.8-1-1.1-1.8-1.1h-5
		c-1.3,0-2.2,1.1-2.2,2.2L81,344c0,1.1,0.8,2.2,2,2.2h4.7c1.3,0,2.2-1.1,2.2-2.2v-34c8.4,12.4,15.5,22.9,23.7,35.1
		c0.4,0.7,1,1,1.9,1h4.6c1.3,0,2.2-1.1,2.2-2.2v-50.2C122.4,292.7,121.4,291.6,120.1,291.6z"/>
	<path class="st0" d="M454.7,159.3c0.6-0.4,1.3-0.8,1.9-1.2c0.3-0.2,0.7-0.5,1-0.7c0.2-0.1,0.4-0.3,0.6-0.4c1.6-1.2,3.2-2.5,4.6-3.9
		c2.6-2.7,4.9-6.1,6-10c0.5-2.1,0.9-4.3,0.9-6.6c-0.1-4.7-1.9-9.3-4.8-12.9c-2.9-3.6-6.5-6.2-10.4-8.2c-3.9-2-8-3.4-12.2-4.4
		c-4.2-0.9-8.5-1.4-12.8-1.3c-2.2,0-4.5,0.2-6.7,0.6c-1.4-3.1-4.3-5.5-8-6.2c-2.8-0.5-5.7,0.2-8,1.8c-2.3,1.7-3.9,4.1-4.4,6.9
		c-0.5,2.8,0.2,5.7,1.8,8c1.7,2.3,4.1,3.9,6.9,4.4c0.6,0.1,1.2,0.2,1.8,0.2c2.2,0,4.3-0.7,6.2-2c2.3-1.7,3.9-4.1,4.4-6.9
		c0.1-0.4,0.1-0.7,0.1-1.1c1.9-0.3,3.9-0.5,5.9-0.5c7.7-0.1,15.6,1.6,22.4,5.1c3.4,1.8,6.4,4.1,8.7,6.9c2.3,2.8,3.6,6.2,3.7,9.7
		c0,1.7-0.2,3.4-0.7,5.1c-0.2,0.5-0.3,0.7-0.3,0.7c-0.9,2.8-2.7,5.3-4.9,7.5c-0.5,0.5-1.1,1-1.7,1.5c-0.1,0.1-0.2,0.2-0.3,0.2
		c-0.4,0.4-0.9,0.7-1.3,1c-1.2,0.9-2.4,1.6-3.7,2.4c-0.2,0.1-0.5,0.3-0.7,0.4c-0.7,0.4-1.4,0.8-2.1,1.2c0,0,0,0-0.1,0
		c-0.8,0.4-1.6,0.8-2.3,1.1c-0.3,0.2-0.7,0.3-1,0.5c-0.2,0.1-0.4,0.2-0.7,0.3c-0.2,0.1-0.4,0.2-0.6,0.3c-0.6,0.3-1.3,0.5-1.9,0.7
		c-0.6,0.2-1.2,0.5-1.8,0.7c-0.2,0.1-0.4,0.2-0.7,0.2c-0.2,0.1-0.3,0.1-0.5,0.2c-0.5,0.2-1,0.3-1.5,0.5c-1.1,0.4-2.3,0.7-3.4,1
		c-0.6,0.2-1.2,0.3-1.8,0.5c-0.5,0.1-0.9,0.2-1.4,0.3c-1.2,0.3-2.3,0.6-3.5,0.8c-0.7,0.2-1.4,0.3-2.2,0.4c-0.9,0.2-1.8,0.4-2.8,0.5
		c-1,0.2-1.9,0.3-2.9,0.5c-0.7,0.1-1.4,0.2-2.1,0.3c-1.2,0.2-2.4,0.3-3.6,0.4c-0.5,0.1-1,0.1-1.5,0.2c-1.4,0.2-2.8,0.3-4.2,0.4
		c-0.3,0-0.6,0.1-0.8,0.1c-1.6,0.1-3.2,0.2-4.8,0.3c-0.1,0-0.2,0-0.3,0c-1.7,0.1-3.4,0.1-5.1,0.2c-1.6,0-3.3,0-4.9,0
		c-0.1,0-0.1,0-0.2,0c-0.6,0-1.2,0-1.7,0s-0.9,0-1.4,0c-0.6,0-1.2-0.1-1.8-0.1c-0.4,0-0.9,0-1.3-0.1c-0.6,0-1.3-0.1-1.9-0.1
		c-0.4,0-0.8,0-1.2-0.1c-0.7,0-1.4-0.1-2-0.2c-0.2,0-0.3,0-0.5,0c0.1-0.3,0.3-0.6,0.4-0.9c0.2-0.4,0.3-0.7,0.5-1.1
		c0.5-1,1-2.1,1.4-3.1c0.2-0.4,0.3-0.8,0.5-1.1c0.4-1.1,0.9-2.1,1.3-3.2c0.1-0.4,0.3-0.8,0.4-1.2c0.4-1,0.8-2,1.1-3.1
		c0-0.1,0-0.1,0.1-0.2c0,0,0,0,0-0.1c0.1-0.4,0.2-0.7,0.3-1.1c0.4-1.1,0.7-2.2,1-3.3c0.1-0.4,0.2-0.8,0.3-1.1
		c0.3-1.1,0.6-2.2,0.9-3.4c0.1-0.4,0.2-0.7,0.2-1.1c0.3-1.2,0.5-2.3,0.8-3.5c0.1-0.3,0.1-0.7,0.2-1c0.2-1.2,0.5-2.4,0.7-3.6
		c0-0.3,0.1-0.6,0.1-0.9c0.2-1.2,0.4-2.5,0.5-3.7c0-0.3,0-0.5,0.1-0.8c0.1-1.3,0.3-2.6,0.4-3.9c0-0.2,0-0.4,0-0.6
		c0.1-1.4,0.2-2.7,0.2-4.1c0.1-1.6,0.1-3.1,0.1-4.7c0-0.8,0-1.6,0-2.3c0-0.2,0-0.3,0-0.5c0-1.4-0.1-2.8-0.2-4.2c-0.1-2-0.3-4-0.5-6
		c-0.2-2.2-0.6-4.4-0.9-6.7c0-0.1,0-0.3-0.1-0.4c0-0.1,0-0.1,0-0.2c0,0,0-0.1,0-0.2c-0.4-1.3-1.6-2.1-3-1.9
		c-1.3,0.2-2.3,1.5-2.2,2.8c0,0.1,0,0.2,0,0.2c0,0.2,0.1,0.4,0.1,0.6c1.1,6.2,1.6,12.5,1.6,18.8c0,1.2,0,2.3-0.1,3.5
		c-0.1,1.6-0.1,3.3-0.3,4.9c0,0.2,0,0.3,0,0.5c-0.1,1.3-0.2,2.6-0.4,3.9c0,0.2,0,0.4-0.1,0.6c-0.1,1.2-0.3,2.5-0.5,3.7
		c0,0.2-0.1,0.5-0.1,0.7c-0.2,1.2-0.4,2.3-0.6,3.5c-0.1,0.3-0.1,0.6-0.2,0.9c-0.2,1.1-0.5,2.2-0.8,3.4c-0.1,0.3-0.1,0.7-0.2,1
		c-0.3,1.1-0.6,2.2-0.9,3.3c-0.1,0.3-0.2,0.7-0.3,1c-0.3,1.1-0.7,2.2-1,3.2c-0.1,0.3-0.2,0.7-0.3,1c-0.4,1.1-0.7,2.1-1.1,3.1
		c-0.1,0.4-0.2,0.7-0.4,1.1c-0.4,1-0.8,2.1-1.2,3.1c-0.1,0.3-0.3,0.7-0.4,1c-0.4,1-0.9,2-1.4,3.1c-0.2,0.3-0.3,0.7-0.5,1
		c-0.4,0.9-0.9,1.7-1.3,2.6c-0.2,0-0.4,0-0.6-0.1c-0.2,0-0.5,0-0.7-0.1c-0.9-0.1-1.8-0.2-2.7-0.3c-0.1,0-0.3,0-0.4-0.1
		c-0.3,0-0.7-0.1-1-0.1c-0.7-0.1-1.4-0.2-2.1-0.3c-1-0.2-2.1-0.3-3.1-0.5c-0.3-0.1-0.6-0.1-1-0.2c-1.7-0.3-3.5-0.7-5.2-1
		c-0.5-0.1-1.1-0.2-1.6-0.4c0.6-1.2,1.2-2.5,1.7-3.8c0.1-0.2,0.1-0.4,0.2-0.7c0.8-2.6,1-5.3,0.9-7.8c0-0.6-0.1-1.2-0.1-1.7
		c0.2-0.2,0.5-0.3,0.7-0.6l0.8-2.6c-0.5-1.7-1.1-3.4-1.9-5.1c-0.4-0.8-1-1.6-1.5-2.4c-0.2-0.2-0.3-0.4-0.5-0.6
		c-0.1-0.1-0.2-0.2-0.2-0.3v-0.1c0-0.1,0-0.3,0.1-0.4c0-0.3,0-0.6,0-0.9c0-1.1-0.3-2.1-0.7-3c-0.5-1-1.2-1.9-2.2-2.5
		c-1-0.7-2.2-1.1-3.4-1.2c-0.9-0.1-1.9,0-2.7,0.3h-0.1c-0.1-0.1-0.1-0.2-0.2-0.3c-0.1-0.2-0.3-0.4-0.4-0.7c-0.8-1.5-1.6-3.5-2.2-5.4
		c-0.7-1.9-1.2-4-1.7-6c-0.1-0.4-0.2-0.9-0.3-1.3c1.1-0.3,2.3-0.6,3.4-1c6-1.9,11.7-4.9,16.6-9c3.1-2.6,5.9-5.7,8.1-9.1
		c2.2-3.4,4-7.1,5.2-11c1.1-3.6,1.7-7.3,1.8-11c0.1-6-1-11.9-3-17.4s-4.8-10.7-8.2-15.4c-6.7-9.4-15.5-17.2-25.1-23.5
		c-9.6-6.3-20.2-10.9-31.2-14c-5.7-1-11.3-2.1-16.9-2.9c-5.7-0.8-11.4-1.1-17.1-1.2c-15.2,0-30.4,3-44.4,8.8
		c-14,5.8-26.9,14.4-37.6,25.2c-8,8-14.9,17.3-20.2,27.3c-12.6-3-25.5-5-38.6-5c-7.9,0.1-15.8,0.7-23.6,3c-3.9,1.1-7.7,2.7-11.2,4.9
		c-3.5,2.2-6.7,5.3-8.9,9.1c-1,1.9-1.9,3.9-2.4,6.1c-0.5,2.2-0.8,4.4-0.7,6.6c0.1,2.6,0.7,5.1,1.7,7.4c1,2.3,2.3,4.5,3.8,6.4
		c3.1,3.9,7,6.8,11.1,9.1c8,4.4,16.9,6.6,25.9,6.7c0.1,0.2,0.2,0.5,0.3,0.7c0.1,0.3,0.2,0.5,0.4,0.8c1.3,2.5,3.6,4.4,6.3,5.3
		c1.1,0.3,2.1,0.5,3.2,0.5c4.6,0,8.8-2.9,10.2-7.5c0.9-2.7,0.6-5.6-0.7-8.2c-1.3-2.5-3.6-4.4-6.3-5.3c-2.7-0.9-5.6-0.6-8.2,0.7
		c-2.5,1.3-4.4,3.6-5.3,6.3c-0.1,0.3-0.1,0.5-0.2,0.8c0,0.2-0.1,0.4-0.1,0.6c-8-0.2-16-2.2-22.9-6c-3.7-2.1-7-4.6-9.5-7.8
		s-4.2-6.9-4.3-10.8c-0.1-1.7,0.2-3.4,0.6-5.1s1.2-3.3,2-4.9c1.6-2.9,4.1-5.3,7.1-7.2c3-1.9,6.4-3.3,9.9-4.3
		c7.1-2.1,14.6-2.8,22.1-2.8c12.1,0,24.2,1.8,36.1,4.6c0,0.1-0.1,0.1-0.1,0.2c-0.8,1.8-1.6,3.6-2.4,5.4c-0.5,1.2-1,2.5-1.5,3.8
		c-4.9,13-7.3,26.8-7.3,40.6c0,1.4,0.1,2.8,0.1,4.2c0,0.7,0,1.4,0.1,2.1c0.1,0.7,0.1,1.4,0.2,2.1c0.1,1.4,0.2,2.8,0.3,4.2
		c0.2,1.4,0.4,2.8,0.5,4.2c0.1,1.4,0.4,2.8,0.7,4.2c0.3,1.4,0.5,2.8,0.8,4.2c0.3,1.4,0.6,2.8,1,4.1c0.4,1.4,0.8,2.7,1.2,4.1
		c0,0.2,0.1,0.3,0.2,0.5c-0.3,0.1-0.5,0.2-0.8,0.3c-0.6,0.2-1.2,0.5-1.8,0.7c-0.4,0.1-0.7,0.3-1.1,0.5c-0.6,0.3-1.3,0.5-1.9,0.8
		c-0.3,0.2-0.7,0.3-1,0.5c-0.6,0.3-1.3,0.6-1.9,0.9c-0.3,0.2-0.7,0.3-1,0.5c-0.5,0.3-1,0.5-1.5,0.8c-0.1,0.1-0.2,0.1-0.3,0.2
		c-0.1,0.1-0.2,0.1-0.3,0.1c-0.7,0.4-1.3,0.8-2,1.2c-0.1,0.1-0.2,0.1-0.4,0.2c-0.8,0.5-1.6,1-2.4,1.5c-0.1,0.1-0.3,0.2-0.4,0.3
		c-0.8,0.5-1.5,1.1-2.3,1.6c-0.1,0.1-0.2,0.2-0.4,0.3c-0.8,0.6-1.5,1.2-2.3,1.8l-0.1,0.1c-0.1,0.1-0.2,0.2-0.3,0.3
		c-0.1,0.1-0.2,0.2-0.3,0.2s-0.1,0.1-0.2,0.1c-0.3,0.3-0.6,0.5-0.9,0.8c-0.2,0.1-0.3,0.3-0.4,0.4c-0.2,0.2-0.4,0.4-0.6,0.6
		c-0.3,0.3-0.5,0.5-0.8,0.8c-0.1,0.1-0.2,0.2-0.3,0.3c-0.3,0.3-0.5,0.6-0.8,0.9c-0.1,0.1-0.1,0.1-0.2,0.2c-0.1,0.1-0.2,0.2-0.3,0.4
		s-0.3,0.3-0.4,0.5c-0.3,0.4-0.6,0.7-0.8,1.1l-0.1,0.1c-0.3,0.4-0.5,0.8-0.8,1.1c-0.1,0.1-0.2,0.3-0.3,0.4c-0.2,0.3-0.3,0.5-0.5,0.8
		c-0.2,0.4-0.4,0.7-0.6,1.1c0,0-0.1,0.3-0.4,0.8c-2,4-3.6,8.4-3.7,13.3c-0.1,3.2,0.7,6.6,2.5,9.5c1.7,2.9,4.3,5.2,7.1,6.7
		c2.8,1.6,5.8,2.6,8.7,3.2c3,0.6,6,0.8,9,0.9c4.3,0,8.6-0.5,12.8-1.2c4.2-0.8,8.3-1.8,12.4-3.1c1.4-0.4,2.7-0.9,4.1-1.4
		c2.5-0.9,5-1.9,7.5-2.9h0.1c2.4,2.4,4.9,4.7,7.5,6.8c4.4,3.6,8.9,6.9,13.7,10c4.8,3,9.8,5.7,15.2,7.8c0,0,0.3,0.1,0.9,0.3
		c1.4,0.5,2.9-0.2,3.4-1.5c0.5-1.4-0.1-2.9-1.5-3.4H234c-0.5-0.2-0.8-0.3-0.8-0.3c-4.9-1.9-9.7-4.5-14.3-7.4
		c-4.6-2.9-9-6.1-13.2-9.5c-2-1.6-3.9-3.3-5.7-5.1c2.2-1,4.4-2.1,6.5-3.2c3.2-1.7,6.5-3.3,9.8-4.8c2.2-1,4.5-2,6.8-3
		c0,0,0.1,0,0.1-0.1c2.8,2.2,5.8,4.2,8.8,6c5.3,3.1,11,5.6,16.8,7.4c1.5,0.4,2.9,0.9,4.4,1.3s3,0.7,4.5,1.1c1.5,0.3,3,0.6,4.5,0.8
		c0.5,0.1,1.1,0.2,1.6,0.2c-0.1,0.1-0.2,0.2-0.4,0.3c-0.3,0.2-0.6,0.5-0.9,0.7c-1.1,1-2.2,2-3.3,3.1c-2.1,2.1-4.1,4.4-6,6.7
		c-3.7,4.6-7.1,9.5-10,14.7c-0.3,0.6-0.5,1.3-0.5,2.1c0,1.1,0.5,2,1.2,2.7c0.7,0.7,1.8,1.1,2.8,1.2c0,0,0.1,0,0,0
		c14.3,0,28.7,0,43,0c0,0,0.1,0,0.4,0c0.2,0,0.6-0.1,1.1-0.3c0.5-0.2,1-0.5,1.5-1c0.4-0.4,0.7-1,0.9-1.7c0,0,0,0,0-0.1
		c0,0,0-0.1,0-0.2c0-0.2,0-0.3,0.1-0.4c0,0,0,0,0-0.1c0-0.1,0-0.2,0-0.2c0-0.4,0-0.9,0.1-1.3c0-0.3,0-0.5,0-0.8c0-0.5,0-1.1,0-1.6
		c-0.2-4.5-0.9-8.8-2.2-13c-0.6-2.1-1.4-4.2-2.3-6.2c-0.2-0.5-0.5-1-0.7-1.5c-0.3-0.5-0.5-1-0.8-1.5c-0.2-0.4-0.4-0.8-0.7-1.2
		c0.6-0.1,1.2-0.1,1.8-0.2c1.3-0.2,2.5-0.3,3.8-0.5c2.5-0.4,5-0.9,7.5-1.5c4.9-1.2,9.8-2.8,14.5-4.8c5.7-2.5,11.3-5.3,16.6-8.6
		c0.1,0.1,0.1,0.2,0.1,0.2c0.5,0.7,0.9,1.4,1.3,2.2c0.4,0.9,0.6,1.7,0.6,2.7v0.1c0,0.2,0,0.4,0,0.7l-0.2,1.6
		c-0.5,2.2-1.5,4.5-2.9,6.6c-1.9,3-4.4,5.7-7.1,8.3c-2.7,2.6-5.5,5-8.5,7.3c-3,2.3-6.1,4.5-9.2,6.4c0,0,0,0-0.1,0
		c-1,0.6-1.5,1.8-1.1,3c0.4,1.4,1.9,2.2,3.3,1.7c0.6-0.2,0.9-0.3,0.9-0.3c1.5-0.4,2.9-0.9,4.4-1.4c0.1,0,0.2-0.1,0.3-0.1
		c1.4-0.5,2.8-1,4.1-1.5c0.1,0,0.2-0.1,0.3-0.1c1.3-0.5,2.7-1.1,4-1.6c0.1,0,0.2-0.1,0.3-0.1c1.3-0.6,2.6-1.2,4-1.8
		c0.1,0,0.2-0.1,0.2-0.1c1.3-0.6,2.6-1.3,3.9-2c0.1,0,0.1-0.1,0.2-0.1c1.3-0.7,2.6-1.4,3.9-2.2c0,0,0.1,0,0.1-0.1
		c1.3-0.8,2.6-1.5,3.9-2.3c0.1,0,0.1-0.1,0.2-0.1c1.1-0.7,2.1-1.4,3.2-2.1c0.2-0.1,0.3-0.2,0.5-0.4c0.1,0,0.1-0.1,0.2-0.2
		c1.2-0.8,2.4-1.7,3.5-2.6c0.1-0.1,0.2-0.2,0.3-0.2c1.1-0.9,2.2-1.7,3.3-2.6c0.1-0.1,0.2-0.2,0.4-0.3c1.1-0.9,2.1-1.8,3.2-2.7
		c0.1-0.1,0.3-0.3,0.4-0.4c1-0.9,2-1.8,3-2.8c0.2-0.2,0.3-0.3,0.5-0.5c1-0.9,1.9-1.9,2.8-2.8c0.2-0.2,0.3-0.4,0.5-0.5
		c0.9-1,1.8-1.9,2.7-2.9c0.2-0.2,0.3-0.4,0.5-0.6c0.8-1,1.7-1.9,2.5-2.9c0.2-0.2,0.4-0.5,0.6-0.7c0.7-0.9,1.4-1.8,2.1-2.7
		c0.1-0.1,0.1-0.2,0.2-0.3c0,0,0,0,0.1-0.1c0.2-0.2,0.3-0.5,0.5-0.7c0.7-1,1.5-2,2.2-3c0,0,0,0-0.1,0c2.2-3.4,4.9-7.8,6.3-10.2
		c0.5,0,1,0.1,1.5,0.1c0.2,0,0.4,0,0.6,0c0.9,0.1,1.7,0.1,2.6,0.2c0.3,0,0.6,0,0.9,0.1c0.8,0,1.6,0.1,2.3,0.1c0.4,0,0.7,0,1.1,0
		c0.7,0,1.4,0.1,2.1,0.1c0.4,0,0.9,0,1.3,0c0.6,0,1.3,0,1.9,0h0.1c7,0.1,14-0.2,21-1c0.1,0,0.2,0,0.3,0c0.8-0.1,1.5-0.2,2.3-0.3
		c0.2,0,0.4-0.1,0.6-0.1c0.7-0.1,1.3-0.2,2-0.3c0.3,0,0.6-0.1,0.9-0.1c0.6-0.1,1.1-0.2,1.7-0.3c0.4-0.1,0.8-0.1,1.3-0.2
		c0.4-0.1,0.9-0.1,1.3-0.2c0.5-0.1,1.1-0.2,1.6-0.3c0.3-0.1,0.6-0.1,0.9-0.2c0.7-0.1,1.3-0.3,2-0.4c0.2,0,0.4-0.1,0.6-0.1
		c0.8-0.2,1.5-0.3,2.3-0.5c0.1,0,0.2,0,0.2-0.1c1-0.2,2-0.5,3-0.7c0.5-0.1,1-0.3,1.5-0.4c0.4-0.1,0.7-0.2,1.1-0.3
		c0.7-0.2,1.4-0.4,2.1-0.6c0.1-0.1,0.3-0.1,0.4-0.1c0.4-0.1,0.8-0.3,1.2-0.4c0.3-0.1,0.6-0.2,0.9-0.3c0.2-0.1,0.5-0.2,0.7-0.2
		c0.6-0.2,1.2-0.4,1.7-0.6c0.1,0,0.2-0.1,0.2-0.1c0.1,0,0.2-0.1,0.3-0.1c0.6-0.2,1.2-0.4,1.7-0.7c0.2-0.1,0.4-0.2,0.6-0.3
		c0.3-0.2,0.7-0.3,1-0.5c0.3-0.1,0.5-0.2,0.8-0.4c0.2-0.1,0.5-0.2,0.7-0.3c0.6-0.3,1.2-0.6,1.8-0.9h0.1c0.8-0.4,1.6-0.8,2.3-1.3
		c0.2-0.1,0.4-0.2,0.6-0.3C454.2,159.6,454.5,159.5,454.7,159.3z M418.4,115.6c-0.2,1.4-1,2.7-2.2,3.5c-1.2,0.8-2.6,1.2-4.1,0.9
		c-1.4-0.2-2.7-1-3.5-2.2c-0.8-1.2-1.2-2.7-0.9-4.1c0.2-1.4,1-2.7,2.2-3.5c0.9-0.7,2-1,3.2-1c0.3,0,0.6,0,0.9,0.1
		C416.9,109.7,418.9,112.6,418.4,115.6z M135.6,110.7c0.7-2.3,2.9-3.8,5.2-3.8c0.5,0,1.1,0.1,1.6,0.3c1.4,0.4,2.5,1.4,3.2,2.7
		c0.7,1.3,0.8,2.8,0.4,4.2c-0.9,2.9-4,4.5-6.9,3.6c-1.4-0.4-2.5-1.4-3.2-2.7c-0.3-0.5-0.4-1-0.5-1.6v-0.1c0-0.2,0-0.5-0.1-0.7
		C135.3,111.9,135.4,111.3,135.6,110.7z M344.8,134.9c1.3-0.1,2.6-0.2,3.9-0.4c-0.1,0,0.3-0.2,0.7-0.1c0.3,0,0.7,0.1,0.9,0.3
		c0.1,0.1,0.3,0.3,0.4,0.5c0.1,0.2,0.2,0.5,0.2,0.8c0,0.1,0,0.3,0,0.4v0.1c0.1,1.1,0.3,2.3,0.4,3.4c1,0.9,1.8,1.9,2.4,3.1
		c0.4,0.7,0.7,1.5,1,2.3l-1.3,2.9v0.1c0,0.2,0.1,0.3,0.1,0.5s0.1,0.4,0.1,0.7c0,0.4,0.1,0.9,0.1,1.3c0.1,2.3-0.1,4.5-0.8,6.5
		c0,0,0,0,0,0.1c0,0.1,0,0.2-0.1,0.3c-0.5,1.3-1.1,2.6-1.8,3.9c-2.8-0.7-5.5-1.5-8.2-2.4c-2-0.7-4.1-1.3-6.1-2
		c-0.3-0.1-0.5-0.2-0.8-0.3c-1.3-0.4-2.7-0.8-4-1.2c-1-0.3-2-0.6-3-0.9c-0.8-0.2-1.7-0.5-2.6-0.7c-1.5-0.4-3-0.9-4.5-1.3
		c-1.3-0.4-2.6-0.7-3.9-1c-1.1-0.3-2.1-0.6-3.2-0.8c-1.8-0.5-3.7-0.9-5.5-1.3c-0.5-0.1-1-0.3-1.6-0.4c-1.2-0.3-2.4-0.5-3.6-0.8
		c-1.2-0.3-2.4-0.5-3.6-0.8c-0.5-0.1-1.1-0.2-1.6-0.3c-1.9-0.4-3.7-0.7-5.6-1.1c-0.7-0.1-1.3-0.2-2-0.3c-1.7-0.3-3.5-0.6-5.2-0.9
		c-2.4-0.4-4.8-0.8-7.2-1.1c-0.3,0-0.6-0.1-0.9-0.1c-2.1-0.3-4.2-0.6-6.3-0.9c-0.9-0.1-1.8-0.2-2.7-0.3c-1.5-0.2-3.1-0.4-4.6-0.5
		c-1.8-0.2-3.7-0.4-5.5-0.5c-0.6-0.1-1.2-0.1-1.7-0.2c-0.9-0.1-1.9-0.1-2.8-0.2c-3.9-0.3-7.9-0.5-11.8-0.7c-0.1,0-0.3,0-0.4,0
		c-4.7-0.2-9.5-0.3-14.3-0.2c-1.1,0-2.1,0-3.2,0c-1,0-2.1,0-3.1,0.1c-0.2,0-0.4,0-0.5,0c-0.9,0-1.7,0.1-2.6,0.1
		c-0.4,0-0.8,0-1.2,0.1c-0.6,0-1.3,0.1-1.9,0.1c-0.6,0-1.2,0.1-1.8,0.1c-0.4,0-0.9,0.1-1.3,0.1c-0.7,0-1.5,0.1-2.2,0.2
		c-0.3,0-0.6,0-0.9,0.1c-0.8,0.1-1.7,0.1-2.5,0.2c-0.2,0-0.4,0-0.6,0.1c-0.9,0.1-1.8,0.2-2.7,0.3c-0.1,0-0.3,0-0.4,0
		c-0.3,0-0.7,0.1-1,0.1c-1.4-5.6-2.1-11.3-2.2-17.1c0-5.4,0.5-10.8,1.5-16.1c1.1-5.3,2.7-10.5,4.9-15.4c2.2-4.9,4.9-9.7,8-14
		c3.2-4.4,6.8-8.4,10.8-12l0.9-1.7c0.5-4.8,2.8-9.5,6-13.4c3.2-3.9,7.3-7.1,11.9-9.3c0.1-0.1,0.3-0.1,0.4-0.1c0.2,0,0.5,0.1,0.6,0.3
		c1.9,2,3.7,4.5,5.1,6.9l3.1,1.2c1.5-0.4,3-0.9,4.6-1.3c5.9-1.4,11.9-2.2,17.9-2.3c6.3,0,12.5,0.7,18.6,2.2s12,3.8,17.5,6.7
		c5,2.7,9.8,5.9,13.7,9.8c2,2,3.7,4.1,5,6.4c0.7,1.2,1.2,2.4,1.7,3.6c0.3,0.6,0.4,1.3,0.6,1.9c0.1,0.3,0.2,0.6,0.2,1
		c0.1,0.3,0.1,0.5,0.2,0.8c0,1,0,2,0,3c0,1.1,0,2.2,0.1,3.3c0,2.2,0.2,4.4,0.3,6.5c0.3,4.3,0.8,8.7,1.5,13s1.5,8.6,2.6,12.8
		c0.6,2.1,1.1,4.2,1.8,6.3c0.3,1.1,0.7,2.1,1.1,3.2c0.2,0.5,0.5,1.1,0.7,1.6c0.2,0.5,0.6,1.1,0.9,1.7
		C342.6,132.6,343.6,133.9,344.8,134.9z M197.6,37.7c10.3-10.3,22.5-18.5,35.9-24c13.4-5.6,27.9-8.4,42.4-8.4
		c5.5,0.1,10.9,0.4,16.4,1.1c5.4,0.8,10.8,1.9,16,3.3c10.5,3,20.6,7.4,29.7,13.4c9.1,5.9,17.4,13.3,23.6,22.1
		c3.1,4.4,5.7,9.1,7.5,14.1s2.8,10.2,2.7,15.5c-0.1,3.2-0.6,6.5-1.6,9.6c-2.1,6.9-6.1,13-11.6,17.6c-4.1,3.5-9,6-14.2,7.8
		c-1.2,0.4-2.4,0.8-3.6,1.1c-0.4-2-0.7-3.9-1-5.9c-0.6-4.2-1.1-8.3-1.4-12.5c-0.3-4.2-0.4-8.4-0.3-12.6c0,0,0,0,0-0.1
		c0-0.2,0-0.3,0-0.5c-0.6-3.2-1.8-6.3-3.4-9.1c-1.6-2.8-3.6-5.3-5.8-7.5c-4.5-4.5-9.6-7.9-15-10.7c-5.9-3.1-12.2-5.5-18.7-7.1
		c-6.5-1.6-13.2-2.4-19.9-2.4c-6.5,0.1-12.9,0.9-19.2,2.4c-0.8,0.2-1.7,0.4-2.5,0.7c-0.2,0-0.3,0.1-0.5,0.1
		c-0.1-0.1-0.1-0.2-0.2-0.3c-0.4-0.7-0.9-1.4-1.4-2c-1-1.3-2-2.6-3.2-3.9c-1.1-1.1-2.7-1.8-4.2-1.8c-0.9,0-1.9,0.2-2.8,0.6
		c-5.3,2.5-10,6.2-13.8,10.7c-1.9,2.3-3.5,4.8-4.7,7.5c-0.6,1.4-1.1,2.8-1.6,4.2c-0.2,0.7-0.4,1.5-0.5,2.2c-0.1,0.4-0.1,0.8-0.2,1.1
		v0.1l-0.1,0.1c-0.3,0.2-0.5,0.5-0.8,0.7c-0.5,0.5-1.1,1-1.6,1.5c-1,1-2,2.1-3,3.1c-1.3,1.4-2.5,2.8-3.6,4.3c0,0-0.1,0-0.1-0.1
		c-3.4-1.4-6.9-2.8-10.4-4.1c-7.2-2.7-14.6-5-22-7C183.9,53.5,190.2,45.1,197.6,37.7z M165.2,120.1c0-1.4-0.1-2.7-0.1-4.1
		c0.1-13.6,2.6-27.1,7.4-39.7c0.3-0.9,0.7-1.8,1.1-2.7c0.9-2.1,1.8-4.1,2.7-6.1c0-0.1,0.1-0.1,0.1-0.1c7.3,1.9,14.6,4.2,21.7,6.8
		c3.4,1.2,6.7,2.5,10,3.9c0,0,0.1,0,0.1,0.1c-2.8,4.1-5.2,8.5-7.2,13c-2.3,5.3-4,10.8-5.2,16.5c-1.1,5.7-1.7,11.4-1.6,17.2
		c0.1,6,0.8,11.9,2.2,17.7c-0.9,0.1-1.9,0.3-2.8,0.4c-0.1,0-0.2,0-0.3,0c-0.9,0.1-1.8,0.3-2.7,0.4c-0.1,0-0.3,0-0.4,0.1
		c-0.9,0.2-1.7,0.3-2.6,0.5c-0.2,0-0.3,0.1-0.5,0.1c-0.8,0.2-1.6,0.3-2.5,0.5c-0.2,0-0.4,0.1-0.7,0.1c-0.8,0.2-1.5,0.3-2.3,0.5
		c-0.3,0.1-0.6,0.1-0.8,0.2c-0.7,0.2-1.4,0.3-2.1,0.5c-0.3,0.1-0.6,0.1-0.9,0.2h-0.1c-0.1,0-0.2,0-0.3,0.1c-0.6,0.2-1.3,0.3-1.9,0.5
		c-0.3,0.1-0.6,0.1-0.9,0.2c-0.7,0.2-1.3,0.4-2,0.6c-0.4,0.1-0.8,0.2-1.1,0.3c-0.6,0.2-1.1,0.4-1.7,0.5c0-0.1-0.1-0.2-0.1-0.3
		c-0.4-1.3-0.7-2.6-1.1-3.9c-0.3-1.3-0.6-2.6-0.9-4c-0.3-1.3-0.5-2.7-0.8-4c-0.2-1.3-0.5-2.7-0.6-4c-0.2-1.3-0.3-2.7-0.5-4
		c-0.1-1.3-0.2-2.7-0.3-4c-0.1-0.7-0.1-1.4-0.2-2C165.3,121.4,165.3,120.7,165.2,120.1z M183.2,197c-0.6,0.2-1.2,0.4-1.8,0.6
		c-3.8,1.2-7.8,2.2-11.7,2.9c-3.9,0.7-7.9,1.1-11.9,1.1c-2.7-0.1-5.4-0.3-8-0.8s-5-1.4-7.2-2.6c-2.2-1.2-4-2.9-5.2-4.9
		c-1.2-2-1.8-4.3-1.7-6.8c0.1-3.7,1.3-7.4,3.1-10.9l0.1-0.2c0.2-0.3,0.3-0.5,0.3-0.5c0.2-0.3,0.4-0.6,0.6-1c0.1-0.2,0.3-0.4,0.4-0.7
		c0.1-0.1,0.1-0.2,0.2-0.3c0.2-0.3,0.5-0.7,0.7-1c0.2-0.3,0.5-0.7,0.8-1c0.1-0.1,0.2-0.3,0.3-0.4c0.1-0.2,0.3-0.3,0.4-0.5
		c0.2-0.3,0.5-0.5,0.7-0.8c0.1-0.1,0.1-0.2,0.2-0.2c0.2-0.2,0.4-0.5,0.7-0.7c0.2-0.2,0.3-0.4,0.5-0.5c0.1-0.1,0.2-0.2,0.4-0.4
		c0.3-0.3,0.5-0.5,0.8-0.7c0.1-0.1,0.1-0.1,0.2-0.2c0.4-0.4,0.9-0.7,1.3-1.1c0.4-0.3,0.8-0.6,1.2-0.9s0.9-0.6,1.3-0.9
		c0.4-0.3,0.7-0.5,1.1-0.8c0.4-0.3,0.9-0.6,1.4-0.9c0.4-0.2,0.8-0.5,1.2-0.7c0.4-0.3,0.9-0.5,1.3-0.8c0.4-0.2,0.8-0.5,1.3-0.7
		c0.6-0.3,1.1-0.6,1.7-0.9c0.3-0.2,0.6-0.3,0.9-0.5c0.6-0.3,1.2-0.6,1.8-0.9c0.3-0.1,0.6-0.3,0.9-0.4c0.6-0.3,1.2-0.5,1.8-0.8
		c0.3-0.1,0.7-0.3,1-0.4c0.6-0.2,1.1-0.4,1.7-0.7c0.2-0.1,0.3-0.1,0.5-0.2c0,0.1,0,0.1,0.1,0.2c1.1,3.1,2.3,6.1,3.7,9
		c0.2,0.4,0.4,0.8,0.5,1.2c2.5,5.1,5.3,10,8.5,14.7c3.4,5.1,7.2,9.9,11.3,14.3C188.2,195.3,185.7,196.2,183.2,197z M211.5,184.3
		c-2.6,1.2-5.2,2.5-7.7,3.8c-2.6,1.4-5.3,2.7-8.1,3.9c-4.4-4.6-8.5-9.6-12.1-14.9c-3-4.5-5.8-9.2-8.1-14c-0.1-0.3-0.3-0.6-0.4-0.9
		c-1.3-2.9-2.5-5.8-3.6-8.8c0-0.1,0-0.1-0.1-0.2c0.5-0.2,1-0.3,1.5-0.5c0.4-0.1,0.7-0.2,1.1-0.3c0.6-0.2,1.3-0.4,1.9-0.6
		c0.3-0.1,0.6-0.1,0.8-0.2c0.7-0.2,1.4-0.4,2.1-0.6c0.3-0.1,0.6-0.1,0.9-0.2c0.7-0.2,1.4-0.3,2.1-0.5c0.3-0.1,0.5-0.1,0.8-0.2
		c0.7-0.2,1.5-0.3,2.2-0.5c0.2,0,0.4-0.1,0.6-0.1c0.8-0.2,1.6-0.3,2.4-0.5c0.2,0,0.3-0.1,0.5-0.1c0.9-0.2,1.7-0.3,2.6-0.5
		c0.1,0,0.2,0,0.4-0.1c0.9-0.2,1.8-0.3,2.7-0.4c0.1,0,0.2,0,0.3,0c0.9-0.1,1.8-0.3,2.7-0.4c0.1,0,0.2,0,0.3,0s0.3,0,0.4-0.1
		c0,0.1,0,0.2,0.1,0.3c0.7,2.2,1.5,4.5,2.4,6.6c1.5,3.7,3.3,7.4,5.4,10.8c3.5,6.1,7.8,11.4,12.8,16.1
		C216.1,182.2,213.8,183.2,211.5,184.3z M312.6,190.5c-8.8,3.8-18.3,6-27.9,6.7c-1,0.1-2,0.6-2.7,1.4c-0.7,0.8-1.1,1.8-1,2.9
		c0,0.7,0.3,1.5,0.7,2c2.1,3.1,3.7,6.8,4.8,10.6c1.2,3.8,1.8,7.7,2,11.6c0,0.5,0,0.9,0,1.4c0,0.2,0,0.5,0,0.7c0,0.1,0,0.1,0,0.2
		c-13.2,0-26.5,0-39.7,0c0.4-0.6,0.7-1.2,1.1-1.8c0.7-1.2,1.5-2.4,2.3-3.6c1.6-2.3,3.3-4.6,5-6.8c3.5-4.4,7.5-8.5,11.8-11.7
		c0.5-0.3,0.9-0.8,1.2-1.4c0.3-0.6,0.4-1.2,0.4-1.8c0-1-0.3-1.9-1-2.7c-0.6-0.8-1.6-1.2-2.5-1.3c-11.5-1.3-22.8-4.8-32.7-10.6
		c-10-5.8-18.5-13.9-24.3-23.8c-1.8-3-3.3-6-4.6-9.2c-0.9-2-1.6-4.1-2.3-6.2c0-0.1-0.1-0.2-0.1-0.3h0.1c0.1,0,0.3,0,0.4,0
		c0.9-0.1,1.8-0.2,2.7-0.3c0.2,0,0.4,0,0.6,0c0.8-0.1,1.7-0.1,2.5-0.2c0.3,0,0.6,0,0.9-0.1c0.7-0.1,1.5-0.1,2.2-0.2
		c0.4,0,0.8,0,1.2-0.1c0.6,0,1.2-0.1,1.9-0.1c0.6,0,1.1-0.1,1.7-0.1c0.5,0,0.9,0,1.4-0.1c0.7,0,1.5-0.1,2.2-0.1c0.3,0,0.6,0,0.9,0
		c0.9,0,1.8-0.1,2.7-0.1c0.1,0,0.2,0,0.4,0c1,0,2.1,0,3.1,0c1.6,0,3.2,0,4.8,0c0.8,0,1.6,0,2.4,0c2.1,0,4.2,0.1,6.3,0.2
		c0.3,0,0.6,0,0.9,0c1.6,0.1,3.3,0.2,4.9,0.2c0.8,0,1.5,0.1,2.3,0.1c1,0.1,2,0.1,2.9,0.2c1.4,0.1,2.8,0.2,4.3,0.3
		c0.5,0,1,0.1,1.6,0.1c1.9,0.2,3.7,0.3,5.6,0.5c1.2,0.1,2.5,0.3,3.7,0.4c1.2,0.1,2.3,0.3,3.5,0.4c1,0.1,1.9,0.3,2.9,0.4
		c1.4,0.2,2.9,0.4,4.3,0.6h0.1c2.3,0.3,4.7,0.7,7,1.1c4.2,0.7,8.5,1.5,12.7,2.3c0.5,0.1,1,0.2,1.5,0.3c1.7,0.4,3.5,0.7,5.2,1.1
		c0.6,0.1,1.2,0.3,1.9,0.4c1.9,0.4,3.7,0.9,5.6,1.3c0.5,0.1,1,0.2,1.4,0.3c1.2,0.3,2.4,0.6,3.6,0.9c1.1,0.3,2.2,0.6,3.3,0.9
		c0.6,0.2,1.3,0.4,1.9,0.5c1.7,0.5,3.3,0.9,5,1.4c0.4,0.1,0.9,0.3,1.3,0.4c4.2,1.2,8.3,2.5,12.4,3.9c2.1,0.7,4.1,1.3,6.2,1.9
		c0.1,0,0.1,0,0.2,0.1c0.1,0,0.2,0.1,0.3,0.1c0,0.1-0.1,0.1-0.1,0.2c-0.5,0.6-1,1.3-1.6,1.9c-1,1.2-2.2,2.3-3.3,3.3
		c-2.1,2-4.3,3.8-6.7,5.6C328.9,182.5,320.9,186.9,312.6,190.5z M365.9,180.4c-0.4,0.5-0.7,0.9-1,1.4c-0.2,0.2-0.3,0.5-0.5,0.7
		c-0.7,1-1.5,1.9-2.2,2.9c-0.2,0.2-0.3,0.4-0.5,0.6c-0.8,1-1.6,1.9-2.4,2.8c-0.2,0.2-0.3,0.4-0.5,0.5c-0.8,1-1.7,1.9-2.6,2.8
		c-0.1,0.2-0.3,0.3-0.4,0.5c-0.9,0.9-1.8,1.9-2.8,2.8c-0.1,0.1-0.3,0.3-0.4,0.4c-1,0.9-1.9,1.8-2.9,2.7c-0.1,0.1-0.2,0.2-0.3,0.3
		c-1,0.9-2,1.8-3.1,2.6c-0.1,0.1-0.2,0.2-0.3,0.2c-1.1,0.9-2.2,1.7-3.3,2.6c-0.1,0.1-0.2,0.1-0.2,0.2c-1.1,0.9-2.3,1.7-3.4,2.5
		c-0.1,0-0.1,0.1-0.2,0.1c-1.2,0.8-2.4,1.6-3.6,2.4c0,0-0.1,0-0.1,0.1c-1.2,0.8-2.5,1.6-3.8,2.3c-1.3,0.7-2.5,1.4-3.8,2.1
		c0,0,0,0-0.1,0c-1.3,0.7-2.6,1.3-3.9,1.9c0,0-0.1,0-0.1,0.1c-0.1,0-0.1,0-0.2,0.1c1.2-1,2.3-2.1,3.5-3.2c2.8-2.8,5.5-5.8,7.8-9.2
		c1.1-1.8,2.2-3.6,2.9-5.7c0.3-0.8,0.5-1.7,0.7-2.6c0.1-0.3,0.1-0.8,0.1-0.8c0.1-0.4,0.1-1,0.2-1.3c0-0.1,0-0.2,0-0.4v-0.1
		c0.1-0.9,0.1-2.2,0-3.3c0-0.1,0-0.1,0-0.2c-0.4-1.9-1.2-3.7-2.3-5.4c0,0,0-0.1-0.1-0.1c0,0,0,0-0.1-0.1c1.1-0.8,2.2-1.6,3.3-2.4
		c3.4-2.5,6.6-5.3,9.5-8.4c0.4-0.4,0.8-0.8,1.2-1.2c1.1-1.3,2.2-2.6,3.2-4l0.1-0.1c0.1,0,0.2,0,0.2,0.1c0.7,0.2,1.5,0.3,2.3,0.5
		c0.3,0.1,0.6,0.1,0.9,0.2c0.8,0.2,1.7,0.4,2.5,0.5c0.2,0,0.4,0.1,0.6,0.1c2.1,0.4,4.2,0.8,6.4,1.2c0.9,0.1,1.8,0.3,2.8,0.4
		c0.1,0,0.3,0,0.4,0.1c0.4,0.1,0.9,0.1,1.3,0.2c0.4,0,0.8,0.1,1.1,0.1C371.4,171.9,368,177.4,365.9,180.4z"/>
</g>
</svg>
