<?xml version="1.0" encoding="utf-8"?>
<!-- Generator: Adobe Illustrator 21.0.2, SVG Export Plug-In . SVG Version: 6.00 Build 0)  -->
<svg version="1.1" id="Layer_1" xmlns="http://www.w3.org/2000/svg" xmlns:xlink="http://www.w3.org/1999/xlink" x="0px" y="0px"
	 viewBox="0 0 1104.4 260.6" enable-background="new 0 0 1104.4 260.6" xml:space="preserve">
<path fill="#FFFFFF" d="M509.9,141.5c0,10.7-9,19.4-19.7,19.4h-5.9c-10.1,0-18.5-8-18.5-18.4v-40.2c0-1.6,0.8-2.4,2.4-2.4h5.1
	c2.4,0,2.4,1.4,2.4,3v39.6c0,4.7,4,8.4,8.5,8.4h5.9c5.3,0,9.6-4.2,9.6-9.4v-38.7c0-1.5,0.2-3,2.5-3h5c1.7,0,2.5,0.8,2.5,2.4V141.5z"
	/>
<path fill="#FFFFFF" d="M602.7,158.4c0,1.2-1.1,2.4-2.5,2.4H595c-1,0-1.7-0.4-2.1-1.1c-9.1-13.6-17.1-25.4-26.5-39.3v38
	c0,1.2-1.1,2.4-2.5,2.4h-5.3c-1.4,0-2.3-1.2-2.3-2.4l-0.2-56.1c0-1.2,1-2.4,2.4-2.4h5.6c0.9,0,1.6,0.4,2.1,1.2V101l26.2,39.3v-38
	c0-1.2,1.1-2.4,2.5-2.4h5.2c1.4,0,2.5,1.2,2.5,2.4V158.4z"/>
<path fill="#FFFFFF" d="M659.3,158.4c0,1.2-1.1,2.4-2.5,2.4h-5.2c-1.4,0-2.3-1.2-2.3-2.4l-0.2-56.1c0-1.2,1-2.4,2.4-2.4h5.2
	c1.4,0,2.5,1.2,2.5,2.4V158.4z"/>
<path fill="#FFFFFF" d="M751.5,110.9l-8.2,22.6l-7.9,21.7l-1.3,3.6c-0.5,1.2-0.9,2-2.4,2h-6.7c-1.8,0-2.1-0.9-2.4-1.9l-5.3-15.2
	c-4.8-13.7-9-26.5-14.6-40.2c-0.3-0.5-0.3-1.1-0.3-1.3c0-1.6,0.8-2.4,2.5-2.4h5.9c1.5,0,1.9,1,2.4,2l15,44.4l14.9-44.4l-0.1,0.5
	c0-0.2,0.2-0.2,0.2-0.3c0.5-1.4,1.3-2.1,2.4-2.1h6c1.2,0,2.4,1.2,2.4,2.4C754.3,102.5,753.3,105.9,751.5,110.9z"/>
<path fill="#FFFFFF" d="M800.2,160.8c-1.4,0-2.4-1-2.4-2.4l-0.2-56.1c0-1.4,1.1-2.4,2.6-2.4H837c2.5,0,2.5,1.4,2.5,3v4.2
	c0,2.7-0.4,3-3.1,3h-28.6v13.5h25.4c1.4,0,2.4,1.1,2.4,2.5v5.2c0,1.4-1,2.5-2.4,2.5h-25.4v17h29.6c2.7,0,3,0.2,3,3v4.1
	c0,1.5,0,3-2.5,3H800.2z"/>
<path fill="#FFFFFF" d="M914.2,99.8c6.9,0,12.9,6,12.9,13c0,5.8-3.1,9.1-7.5,12.1c1.6,4.3,3.1,8.2,4.7,12.5c2.4,6.7,5,13.5,7.6,20.3
	c0.8,2.1-0.3,3.1-2.4,3.1h-5.8c-1.6,0-2.1-0.9-2.4-1.9l-11-29c-5.3,2.7-9.9,5.3-15.4,8.2v19.8c0,1.5-0.1,3-2.4,3h-5.4
	c-1.4,0-2.4-1.2-2.4-2.4l-0.2-56.1c0-1.2,1.1-2.4,2.5-2.4H914.2z M895,110v16.6c6-3,19.6-9.7,21.2-12.2v0.1c0.3-0.5,0.5-1,0.5-1.6
	c0-1.6-1.2-2.9-3-2.9H895z"/>
<path fill="#FFFFFF" d="M1011.1,157.2c-3.4,3-8.3,4.3-13.8,4.3h-5.8c-6.6,0-12.6-3.4-15.9-8.6c-1.1-1.7-1.8-3.4-2.1-5
	c-0.6-3.1-0.5-4.4-0.5-6.2v0.2c0-1.5,0.1-3,2.4-3h5.2c1.2,0,2,0.6,2.3,1.8c0.3,1,0.2,1.2,0.2,2.4c0,0.4,0.1,1.1,0.2,2.1
	c0.8,3.7,4.3,6.5,8.2,6.5h5.8c4.6,0,8.5-2.5,9.2-6.6c0.1-0.5,0.2-1,0.2-1.5c0.1-1,0.2-3.3-1.1-4.4c-2.1-1.8-6.8-2.6-12.3-3.9
	c-9.8-2.2-20.3-5.2-20.3-15.4v-1.1c0-1.6-0.1-3.2,0.5-5.3l-0.1,0.1c1.6-8.5,9.5-14.6,18.1-14.6h5.8c4.6,0,8.9,1.7,12.4,4.4
	c3.4,2.7,5.6,8,5.3,13.9c-0.1,1.5-0.1,3-2.4,3h-5c-1.4,0-2.4-1.2-2.4-2.4c-0.2-6.5-2.9-8.9-7.8-8.9h-5.8c-3.9,0-7.5,2.8-8.3,6.7
	v-0.1c-0.2,1.3-0.7,3.6,1.2,5.5c1,1,2.1,1.7,3.3,2l8.8,2.4c4.6,1.3,7.9,2.1,9.8,2.8c2.1,0.7,3.8,1.6,5.3,2.6c3.1,2.1,5.3,5.8,5.3,11
	C1016.9,147.7,1014.5,154.1,1011.1,157.2z"/>
<path fill="#FFFFFF" d="M1064,160.8c-1.4,0-2.4-1-2.4-2.4l-0.2-56.1c0-1.4,1.1-2.4,2.6-2.4h36.8c2.5,0,2.5,1.4,2.5,3v4.2
	c0,2.7-0.4,3-3.1,3h-28.6v13.5h25.4c1.4,0,2.4,1.1,2.4,2.5v5.2c0,1.4-1,2.5-2.4,2.5h-25.4v17h29.6c2.7,0,3,0.2,3,3v4.1
	c0,1.5,0,3-2.5,3H1064z"/>
<path fill="#FFFFFF" d="M6.2,111.3c3.4,4.3,7.8,7.6,12.4,10.3c8.9,4.9,18.9,7.3,28.9,7.6c0.2,0.5,0.4,1.1,0.7,1.6
	c1.5,2.9,4.1,5,7.2,6c1.2,0.4,2.4,0.6,3.7,0.6c1.9,0,3.9-0.5,5.6-1.4c2.9-1.5,5-4.1,6-7.2c1-3.1,0.7-6.4-0.8-9.3
	c-1.5-2.9-4.1-5-7.2-6c-3.1-1-6.4-0.7-9.3,0.8c-2.9,1.5-5,4.1-6,7.2c-0.1,0.4-0.2,0.9-0.3,1.4c-8.8-0.3-17.7-2.5-25.3-6.7
	c-4-2.3-7.8-5.2-10.6-8.7c-2.8-3.5-4.6-7.6-4.8-11.8c-0.1-1.9,0.2-3.8,0.6-5.6c0.5-1.9,1.3-3.7,2.2-5.4c0,0,0,0,0,0
	c1.8-3.2,4.5-5.9,7.8-8c3.3-2.1,7.1-3.6,11-4.8c7.8-2.3,16.2-3.1,24.6-3.1c13.4,0,26.8,2,39.9,5c-0.9,1.9-1.8,3.9-2.6,5.9
	c-6.5,15.7-9.8,32.6-9.9,49.6c0,0,0,0,0,0c0,1.6,0.1,3.2,0.1,4.7c0,0.8,0,1.6,0.1,2.4c0.1,0.8,0.1,1.6,0.2,2.4
	c0.1,1.6,0.2,3.2,0.4,4.7c0.2,1.6,0.4,3.1,0.6,4.7c0.9,6.3,2.1,12.5,4,18.6c0,0.1,0.1,0.2,0.1,0.3c-0.2,0.1-0.4,0.1-0.6,0.2
	c-0.7,0.3-1.4,0.5-2,0.8c-0.4,0.2-0.8,0.3-1.2,0.5c-0.7,0.3-1.4,0.6-2.1,0.9c-0.4,0.2-0.8,0.4-1.1,0.5c-0.7,0.3-1.4,0.7-2.1,1
	c-0.4,0.2-0.8,0.4-1.2,0.6c-0.5,0.3-1.1,0.5-1.6,0.8c-0.1,0.1-0.2,0.1-0.4,0.2c-0.1,0.1-0.2,0.1-0.4,0.2c-0.4,0.2-0.8,0.5-1.2,0.7
	c-0.5,0.3-1.1,0.6-1.6,0.9c-0.5,0.3-0.9,0.6-1.4,0.9c-0.6,0.4-1.1,0.7-1.7,1.1c-0.5,0.3-0.9,0.7-1.4,1c-0.5,0.4-1,0.7-1.5,1.1
	c-0.5,0.4-1,0.8-1.4,1.2c-0.4,0.3-0.7,0.6-1.1,0.9c-0.2,0.2-0.4,0.3-0.5,0.5c-0.1,0.1-0.1,0.1-0.2,0.2c-0.1,0.1-0.3,0.2-0.4,0.4
	c-0.2,0.1-0.3,0.3-0.5,0.4c-0.3,0.3-0.6,0.6-0.9,0.9c-0.1,0.1-0.2,0.2-0.4,0.4c-0.3,0.3-0.6,0.6-0.9,0.9c-0.2,0.2-0.3,0.4-0.5,0.6
	c-0.2,0.2-0.4,0.5-0.6,0.7c-0.3,0.3-0.5,0.6-0.7,0.9c-0.1,0.2-0.2,0.3-0.4,0.5c-0.3,0.4-0.6,0.7-0.9,1.1c-0.1,0.1-0.2,0.2-0.3,0.4
	c-0.3,0.4-0.5,0.7-0.8,1.1c-0.1,0.2-0.2,0.4-0.4,0.6c-0.2,0.3-0.3,0.5-0.5,0.8c-0.2,0.4-0.5,0.8-0.7,1.2c0,0,0,0,0,0
	c0,0-0.1,0.2-0.4,0.7c0,0.1-0.1,0.2-0.1,0.3c0,0,0,0,0,0l0,0c0,0,0,0,0,0l0,0c0,0,0,0,0,0c0,0,0,0,0,0c0,0,0,0,0,0c0,0,0,0,0,0v0
	c0,0,0,0,0,0c0,0,0,0,0,0c0,0,0,0,0,0l0,0l0,0c0,0,0,0,0,0c0,0,0,0,0,0c-2.3,4.5-4,9.5-4.2,14.9c-0.1,3.6,0.8,7.5,2.8,10.8
	c1.9,3.3,4.8,5.8,8,7.6c3.1,1.8,6.5,2.9,9.8,3.6c3.4,0.7,6.7,0.9,10.1,1c4.9,0,9.7-0.5,14.3-1.4c4.7-0.9,9.3-2,13.8-3.4
	c4.4-1.4,8.6-3,12.8-4.7c2.7,2.6,5.4,5.1,8.3,7.5c4.9,4,10,7.8,15.3,11.1c5.4,3.3,10.9,6.4,17,8.8c0,0,0.3,0.1,1,0.4
	c1.6,0.6,3.5-0.2,4.1-1.8c0.6-1.6-0.2-3.5-1.8-4.1l-0.1,0c-0.6-0.2-0.9-0.4-0.9-0.4c-5.5-2.1-10.8-5-15.9-8.2
	c-5.1-3.2-10-6.8-14.6-10.6c-2.1-1.7-4.1-3.5-6.1-5.4c2.3-1.1,4.6-2.2,6.9-3.4c0,0,0,0,0,0c6-3.2,12.2-6.1,18.4-8.7
	c3.1,2.4,6.4,4.7,9.8,6.6c6,3.5,12.3,6.2,18.8,8.3c1.6,0.5,3.3,1,4.9,1.4c1.7,0.4,3.3,0.8,5,1.2c1.7,0.3,3.4,0.6,5,0.9
	c0.4,0.1,0.9,0.1,1.3,0.2c-0.3,0.3-0.6,0.5-0.9,0.8c-1.3,1.1-2.5,2.3-3.7,3.5c-2.4,2.4-4.6,4.9-6.7,7.5c-4.2,5.2-7.9,10.7-11.2,16.5
	l0,0l0,0c0,0,0,0,0,0c-0.4,0.7-0.6,1.6-0.6,2.4c0,1.2,0.6,2.4,1.4,3.2c0.8,0.8,2.1,1.4,3.3,1.4c0,0,0,0,0,0l0,0c0,0,0,0,0,0
	c16.1,0,32.1,0,48.2,0c0,0-0.2,0-0.2,0c0,0,0,0,0,0c0,0,0.1,0,0.4,0c0.3,0,0.7-0.1,1.3-0.3c0.5-0.2,1.2-0.6,1.8-1.2
	c0.6-0.6,1.1-1.6,1.2-2.8c0-0.6,0-0.8,0-0.8c0.1-1.2,0.1-2.4,0.1-3.6c-0.2-5-1-9.9-2.5-14.6c-0.7-2.4-1.6-4.7-2.6-6.9
	c-0.3-0.6-0.5-1.1-0.8-1.7c-0.3-0.6-0.6-1.1-0.9-1.7c-0.2-0.3-0.4-0.6-0.6-1c0.5-0.1,1.1-0.1,1.6-0.2c1.4-0.2,2.8-0.4,4.2-0.6
	c2.8-0.4,5.6-1,8.4-1.7c5.5-1.3,11-3.1,16.2-5.3c0,0,0,0,0,0c6.4-2.8,12.6-5.9,18.5-9.6c1.1,1.6,1.8,3.3,1.9,5.1
	c0.1,3.2-1.3,6.8-3.5,10.1c-2.2,3.3-4.9,6.4-7.8,9.2c-3,2.9-6.2,5.6-9.5,8.1c-3.3,2.5-6.7,4.9-10.1,7.1c0,0-0.1,0.1-0.1,0.1l0,0
	c0,0,0,0-0.1,0c0,0,0,0,0,0c-0.1,0.1-0.2,0.2-0.4,0.3c0,0,0,0-0.1,0.1c-0.1,0.1-0.2,0.2-0.3,0.3c0,0-0.1,0.1-0.1,0.1
	c-0.1,0.1-0.1,0.2-0.2,0.3c-0.1,0.2-0.2,0.3-0.2,0.5c0,0,0,0,0,0c-0.1,0.1-0.1,0.3-0.1,0.5c0,0,0,0,0,0.1c0,0.1,0,0.3-0.1,0.5
	c0,0,0,0.1,0,0.1c0,0.3,0,0.7,0.1,1c0.5,1.7,2.2,2.6,3.9,2.1c0,0,0.1,0,0.1,0l0,0l0,0l0,0c0,0,0,0,0,0c0.1,0,0.2-0.1,0.3-0.1
	c0.5-0.1,0.7-0.2,0.7-0.2c0,0,0,0,0,0c1.6-0.5,3.3-1,4.9-1.5c0.1,0,0.2-0.1,0.2-0.1c1.6-0.5,3.1-1.1,4.6-1.7c0.1,0,0.2-0.1,0.3-0.1
	c1.5-0.6,3-1.2,4.5-1.8c0.1,0,0.2-0.1,0.3-0.1c1.5-0.6,3-1.3,4.5-2c0.1,0,0.2-0.1,0.2-0.1c1.5-0.7,3-1.5,4.4-2.2
	c0.1,0,0.1-0.1,0.2-0.1c1.5-0.8,3-1.6,4.4-2.4c0,0,0.1-0.1,0.1-0.1c1.5-0.8,2.9-1.7,4.3-2.6c0.1,0,0.1-0.1,0.2-0.1
	c1.2-0.8,2.4-1.5,3.5-2.3c0.2-0.1,0.4-0.3,0.6-0.4c0,0,0,0,0,0c0.1-0.1,0.2-0.1,0.2-0.2c1.3-0.9,2.6-1.9,3.9-2.8
	c0.1-0.1,0.2-0.2,0.4-0.3c1.3-1,2.5-1.9,3.7-2.9c0.1-0.1,0.3-0.2,0.4-0.4c1.2-1,2.4-2,3.5-3c0.2-0.1,0.3-0.3,0.5-0.4
	c1.1-1,2.2-2,3.3-3.1c0.2-0.2,0.3-0.4,0.5-0.5c1.1-1,2.1-2.1,3.2-3.2c0.2-0.2,0.4-0.4,0.6-0.6c1-1.1,2-2.1,3-3.2
	c0.2-0.2,0.4-0.5,0.6-0.7c0.9-1.1,1.9-2.2,2.8-3.3c0.2-0.3,0.4-0.5,0.6-0.8c0.8-1,1.6-1.9,2.3-2.9c0.1-0.1,0.2-0.2,0.3-0.3
	c0,0,0-0.1,0.1-0.1c0.2-0.3,0.4-0.5,0.6-0.8c0.8-1.1,1.6-2.2,2.4-3.3c0.2-0.3,0.4-0.7,0.7-1c0.7-1.1,1.5-2.2,2.2-3.3
	c0.2-0.4,0.4-0.7,0.7-1.1c0.7-1.1,1.4-2.2,2-3.4c0.2-0.4,0.4-0.8,0.7-1.2c0.2-0.4,0.5-0.9,0.7-1.3c0.5,0,1,0.1,1.5,0.2
	c0.7,0.1,1.4,0.1,2.1,0.2c0.5,0,1,0.1,1.5,0.1c0.7,0,1.4,0.1,2.1,0.1c0.5,0,1,0.1,1.5,0.1c0.7,0,1.3,0.1,2,0.1c0.5,0,1.1,0,1.6,0.1
	c0.6,0,1.3,0,1.9,0c0.6,0,1.1,0,1.7,0c0,0,0,0,0,0c0,0,0,0,0,0c0.1,0,0.1,0,0.2,0c3.9,0,7.7,0,11.6-0.2c0.2,0,0.3,0,0.5,0
	c1.8-0.1,3.6-0.2,5.4-0.3c0.3,0,0.7-0.1,1-0.1c1.6-0.1,3.2-0.3,4.8-0.4c0.6-0.1,1.1-0.1,1.7-0.2c1.4-0.2,2.7-0.3,4.1-0.5
	c0.8-0.1,1.6-0.3,2.5-0.4c1.1-0.2,2.2-0.3,3.3-0.5c1.1-0.2,2.1-0.4,3.2-0.6c0.8-0.2,1.7-0.3,2.5-0.5c1.3-0.3,2.6-0.6,3.9-0.9
	c0.5-0.1,1.1-0.2,1.6-0.4c0,0,0.1,0,0.1,0c0.1,0,0.3-0.1,0.4-0.1c0.6-0.2,1.1-0.3,1.7-0.5c0.4-0.1,0.8-0.2,1.2-0.3c0,0,0,0,0,0
	c0.7-0.2,1.5-0.4,2.2-0.7c0.2-0.1,0.4-0.1,0.5-0.2c0.5-0.2,0.9-0.3,1.4-0.5c0.3-0.1,0.6-0.2,1-0.3c0.3-0.1,0.5-0.2,0.7-0.3
	c0.6-0.2,1.3-0.5,1.9-0.7c0.1,0,0.2-0.1,0.3-0.1c0.1,0,0.2-0.1,0.3-0.1c0.6-0.2,1.3-0.5,1.9-0.7c0.2-0.1,0.5-0.2,0.7-0.3
	c0.4-0.2,0.8-0.3,1.1-0.5c0.4-0.2,0.8-0.3,1.1-0.5c0.2-0.1,0.5-0.2,0.7-0.3c0.7-0.3,1.3-0.7,2-1c0,0,0,0,0,0
	c0.9-0.4,1.8-0.9,2.6-1.4c0,0,0,0,0,0c0,0,0,0,0,0c0.2-0.1,0.5-0.3,0.7-0.4c0.2-0.1,0.4-0.3,0.6-0.4c0.7-0.4,1.5-0.9,2.2-1.4
	c0.4-0.3,0.8-0.5,1.2-0.8c0.2-0.2,0.4-0.3,0.7-0.5c1.8-1.3,3.6-2.8,5.2-4.5c3-3,5.5-6.8,6.7-11.2c0,0,0,0,0,0l0,0c0,0,0,0,0,0
	c0,0,0,0,0,0c0.1-0.2,0.1-0.4,0.1-0.6c0.5-2.2,0.8-4.5,0.8-6.8c-0.1-5.3-2.2-10.5-5.4-14.5c-3.2-4-7.3-7-11.7-9.3
	c-4.3-2.3-8.9-3.8-13.6-4.9c-4.7-1.1-9.5-1.6-14.3-1.5c-2.5,0-4.9,0.2-7.4,0.6c-1.6-3.5-4.9-6.2-9-6.9c-6.6-1.1-13,3.3-14.1,10
	c-1.1,6.6,3.3,13,10,14.1c0.7,0.1,1.4,0.2,2.1,0.2c5.8,0,11-4.2,12-10.2c0.1-0.3,0.1-0.7,0.1-1c2.1-0.3,4.2-0.5,6.4-0.5
	c8.6-0.1,17.4,1.8,24.9,5.7c3.8,1.9,7.1,4.5,9.7,7.6c2.5,3.1,3.9,6.8,4,10.7c0,1.9-0.3,3.8-0.7,5.6c0,0,0,0,0,0
	c-0.2,0.6-0.3,0.8-0.3,0.8c-1,3-3,5.8-5.5,8.2c-0.6,0.6-1.2,1.2-1.9,1.7c-0.1,0.1-0.2,0.1-0.2,0.2c-0.5,0.4-1,0.8-1.6,1.2
	c-1.3,0.9-2.7,1.8-4.1,2.7c-0.2,0.1-0.3,0.2-0.5,0.3c-0.2,0.1-0.3,0.2-0.5,0.3c-0.7,0.4-1.5,0.8-2.3,1.2c0,0,0,0,0,0
	c-0.8,0.4-1.6,0.8-2.5,1.2c-0.4,0.2-0.9,0.4-1.3,0.6c-0.2,0.1-0.5,0.2-0.7,0.3c-0.2,0.1-0.5,0.2-0.7,0.3c-0.7,0.3-1.4,0.6-2.1,0.8
	c-0.2,0.1-0.5,0.2-0.7,0.3c-0.7,0.3-1.4,0.5-2.1,0.8c-0.5,0.2-1,0.3-1.5,0.5c-0.2,0.1-0.5,0.1-0.7,0.2c-1.3,0.4-2.5,0.8-3.8,1.1
	c-0.7,0.2-1.3,0.4-2,0.5c-0.5,0.1-1,0.2-1.5,0.4c-1.3,0.3-2.6,0.6-3.9,0.9c-0.8,0.2-1.6,0.3-2.4,0.5c-1,0.2-2.1,0.4-3.1,0.6
	c-1.1,0.2-2.1,0.3-3.2,0.5c-0.8,0.1-1.6,0.3-2.4,0.4c-1.3,0.2-2.7,0.3-4,0.5c-0.5,0.1-1.1,0.1-1.6,0.2c-1.6,0.2-3.1,0.3-4.7,0.4
	c-0.3,0-0.7,0.1-1,0.1c-1.8,0.1-3.5,0.2-5.3,0.3c-0.1,0-0.3,0-0.4,0c-1.8,0.1-3.7,0.1-5.5,0.2c-0.1,0-0.1,0-0.2,0
	c-1.8,0-3.5,0-5.3,0c-0.1,0-0.3,0-0.4,0c-4.3-0.1-8.6-0.3-12.9-0.6c0.1-0.2,0.2-0.5,0.3-0.7c0.2-0.4,0.4-0.8,0.6-1.2
	c0.5-1.2,1.1-2.3,1.6-3.5c0.2-0.4,0.3-0.9,0.5-1.3c0.5-1.2,1-2.4,1.4-3.6c0.2-0.4,0.3-0.9,0.5-1.3c0.4-1.1,0.8-2.3,1.2-3.4
	c0-0.1,0-0.1,0.1-0.2c0,0,0,0,0-0.1c0.1-0.4,0.2-0.8,0.4-1.2c0.4-1.2,0.8-2.5,1.2-3.7c0.1-0.4,0.2-0.9,0.3-1.3
	c0.3-1.3,0.7-2.5,1-3.8c0.1-0.4,0.2-0.8,0.3-1.2c0.3-1.3,0.6-2.6,0.9-3.9c0.1-0.4,0.1-0.8,0.2-1.1c0.3-1.3,0.5-2.7,0.7-4
	c0.1-0.3,0.1-0.7,0.1-1c0.2-1.4,0.4-2.8,0.6-4.2c0-0.3,0.1-0.5,0.1-0.8c0.2-1.5,0.3-2.9,0.4-4.4c0-0.2,0-0.3,0-0.5
	c0.3-3.3,0.4-6.6,0.4-9.9c0,0,0,0,0,0c0-7.3-0.6-14.7-1.9-21.9c0-0.2-0.1-0.4-0.1-0.6c0,0,0-0.1,0-0.1l0,0c0,0,0-0.1,0-0.1
	c0,0,0-0.1-0.1-0.3c0,0,0,0,0,0c-0.4-1.6-2-2.7-3.6-2.4c-1.7,0.3-2.8,1.8-2.6,3.5c0,0,0,0,0,0c0,0.1,0,0.1,0,0.2c0,0,0,0,0,0l0,0
	c0,0,0,0,0,0c0,0,0,0,0,0v0c0,0,0,0,0,0c0,0,0,0,0,0c0,0,0,0,0,0c0,0,0,0,0,0l0,0c0,0,0,0,0,0c0,0,0,0,0,0c0,0.2,0.1,0.5,0.1,0.7
	c1.2,6.9,1.8,13.9,1.8,20.9c0,0,0,0,0,0c0,3.2-0.1,6.4-0.4,9.7c0,0.1,0,0.2,0,0.3c-0.1,1.4-0.3,2.9-0.4,4.3c0,0.2,0,0.4-0.1,0.7
	c-0.2,1.4-0.4,2.7-0.6,4.1c0,0.3-0.1,0.6-0.1,0.8c-0.2,1.3-0.5,2.6-0.7,3.9c-0.1,0.3-0.1,0.6-0.2,0.9c-0.3,1.3-0.6,2.5-0.8,3.8
	c-0.1,0.4-0.2,0.7-0.2,1.1c-0.3,1.2-0.6,2.4-1,3.7c-0.1,0.4-0.2,0.8-0.3,1.1c-0.3,1.2-0.7,2.4-1.1,3.6c-0.1,0.4-0.2,0.8-0.4,1.1
	c-0.4,1.2-0.8,2.3-1.2,3.5c-0.1,0.4-0.3,0.8-0.4,1.2c-0.4,1.1-0.9,2.3-1.4,3.4c-0.2,0.4-0.3,0.8-0.5,1.2c-0.5,1.1-1,2.3-1.5,3.4
	c-0.2,0.4-0.3,0.8-0.5,1.1c-0.4,0.9-0.9,1.8-1.4,2.8c-1.2-0.1-2.4-0.3-3.5-0.4c-0.4-0.1-0.8-0.1-1.2-0.2c-0.2,0-0.4-0.1-0.7-0.1
	c-0.9-0.1-1.9-0.3-2.8-0.4c-2.3-0.4-4.6-0.8-6.9-1.2c-0.9-0.2-1.8-0.4-2.6-0.6c-0.3-0.1-0.5-0.1-0.8-0.2c-0.5-0.1-1-0.2-1.5-0.3
	c0.6-1.3,1.2-2.6,1.7-4l0,0l0,0l0,0l0,0l0-0.1c1.1-3.1,1.3-6.4,1.2-9.5c0-0.6-0.1-1.2-0.1-1.8c0.2-0.2,0.5-0.3,0.7-0.5c0,0,0,0,0,0
	l0,0c-0.2,0.7,1.8-6,0.9-3.2l0,0l0,0c0,0,0,0,0,0c0,0,0,0,0,0c0,0,0-0.1,0-0.1c0-0.1,0-0.1-0.1-0.2c0-0.1-0.1-0.2-0.1-0.4
	c-0.1-0.2-0.1-0.5-0.2-0.7c-0.1-0.5-0.3-1-0.5-1.4c-0.4-1-0.8-1.9-1.3-2.8c-0.5-0.9-1.1-1.8-1.7-2.7c-0.2-0.2-0.3-0.4-0.5-0.6
	c-0.1-0.1-0.1-0.2-0.2-0.2l0,0c0,0,0-0.1,0-0.1c0,0,0,0,0,0c0,0,0-0.1,0-0.1c0-0.1,0-0.2,0-0.2c0-0.3,0-0.7,0-1
	c0-1.2-0.3-2.4-0.8-3.5c-0.5-1.1-1.4-2.2-2.5-2.9c0,0,0,0,0,0c-1.2-0.8-2.5-1.3-3.9-1.4c-1-0.1-2.1,0-3.1,0.4c0-0.1-0.1-0.1-0.1-0.2
	c-0.2-0.2-0.3-0.5-0.5-0.7c0,0,0,0,0,0c-0.9-1.6-1.8-3.8-2.4-6c-0.7-2.2-1.3-4.4-1.9-6.7c-0.1-0.4-0.2-0.8-0.3-1.3
	c8-2.1,15.7-5.7,22.2-11.1c3.5-2.9,6.6-6.3,9.1-10.1c2.5-3.8,4.4-8,5.8-12.3c0,0,0,0,0,0c1.2-4,1.9-8.2,2-12.3
	c0.1-6.7-1.2-13.3-3.4-19.5c-2.2-6.2-5.4-11.9-9.2-17.2c-7.5-10.6-17.3-19.3-28-26.2c-10.7-7-22.6-12.1-34.8-15.7
	c-6.2-1.7-12.4-3-18.7-3.9c-6.3-0.9-12.7-1.2-19.1-1.3c0,0,0,0,0,0c-17,0-33.9,3.3-49.6,9.9c-15.7,6.5-30,16.1-42,28.1
	c-8.9,8.9-16.6,19.2-22.5,30.3c-14-3.3-28.3-5.5-42.9-5.5c-8.8,0.1-17.7,0.8-26.4,3.4c-4.3,1.3-8.6,3-12.6,5.5c-4,2.5-7.6,6-10,10.3
	c0,0,0,0,0,0c-1.1,2.2-2.1,4.4-2.7,6.8c-0.6,2.4-0.9,5-0.8,7.5c0.1,2.9,0.8,5.7,1.9,8.3C3,106.8,4.5,109.2,6.2,111.3z M53.4,123.3
	c0.5-1.5,1.5-2.7,2.9-3.4c0.9-0.4,1.8-0.7,2.7-0.7c0.6,0,1.2,0.1,1.8,0.3c1.5,0.5,2.7,1.5,3.4,2.9c0.7,1.4,0.9,3,0.4,4.5
	c-0.5,1.5-1.5,2.7-2.9,3.4c-1.4,0.7-3,0.9-4.5,0.4c-1.5-0.5-2.7-1.5-3.4-2.9c-0.3-0.5-0.5-1.1-0.6-1.7c0,0,0,0,0,0
	c0-0.3,0-0.5-0.1-0.7C53.1,124.6,53.2,124,53.4,123.3z M368.5,128.6c-0.3,1.5-1.1,2.9-2.4,3.8c-1.3,0.9-2.8,1.3-4.4,1
	c-1.5-0.3-2.9-1.1-3.8-2.4c-0.9-1.3-1.3-2.8-1-4.4c0.3-1.5,1.1-2.9,2.4-3.8c1-0.7,2.2-1.1,3.4-1.1c0.3,0,0.7,0,1,0.1
	c1.5,0.3,2.9,1.1,3.8,2.4C368.4,125.5,368.7,127.1,368.5,128.6z M104.2,220c-4.3,1.4-8.7,2.4-13,3.3c-4.4,0.8-8.8,1.3-13.2,1.3
	c-3-0.1-6-0.3-8.8-0.9c-2.8-0.6-5.6-1.5-7.9-2.9c-2.4-1.3-4.4-3.1-5.7-5.3c-1.3-2.2-1.9-4.7-1.9-7.4c0.1-4,1.5-8.2,3.5-12.1
	c0,0,0,0,0,0l0,0l0.1-0.3c0,0,0,0,0,0c0.3-0.5,0.6-1,0.9-1.6c0.1-0.2,0.3-0.5,0.4-0.7c0.1-0.1,0.2-0.3,0.3-0.4
	c0.2-0.3,0.5-0.7,0.7-1c0.1-0.1,0.1-0.2,0.2-0.2c0.2-0.3,0.5-0.7,0.8-1c0.1-0.1,0.2-0.2,0.3-0.4c0.2-0.3,0.4-0.5,0.6-0.8
	c0.2-0.2,0.4-0.4,0.5-0.6c0.1-0.2,0.3-0.3,0.4-0.5c0.3-0.3,0.5-0.5,0.8-0.8c0.1-0.1,0.2-0.2,0.3-0.3c0.3-0.3,0.6-0.5,0.8-0.8
	c0.1-0.1,0.3-0.3,0.4-0.4c0.2-0.2,0.3-0.3,0.5-0.5c0.5-0.4,0.9-0.8,1.4-1.2c0.4-0.4,0.9-0.7,1.3-1.1c0.4-0.3,0.9-0.7,1.4-1
	c0.4-0.3,0.8-0.6,1.3-0.9c0.5-0.3,1-0.7,1.5-1c0.4-0.3,0.8-0.5,1.3-0.8c0.5-0.3,1-0.6,1.5-0.9c0.5-0.3,0.9-0.5,1.4-0.8
	c0.6-0.3,1.2-0.6,1.8-1c0.4-0.2,0.7-0.4,1.1-0.5c0.7-0.3,1.4-0.6,2-1c0.3-0.2,0.7-0.3,1-0.5c0.7-0.3,1.4-0.6,2.1-0.9
	c0.4-0.1,0.7-0.3,1.1-0.4c0.7-0.3,1.3-0.5,2-0.8c0.1,0,0.2-0.1,0.3-0.1c1.4,3.9,2.9,7.7,4.7,11.4c2.8,5.7,5.9,11.2,9.5,16.5
	c3.7,5.5,7.9,10.7,12.4,15.6C110.9,217.7,107.6,218.9,104.2,220z M129.2,209.4C129.2,209.4,129.2,209.4,129.2,209.4
	c-2.9,1.5-5.9,2.9-8.8,4.3c-4.9-5.1-9.4-10.6-13.4-16.5c-3.4-5-6.4-10.2-9-15.6c-1.7-3.5-3.1-7.1-4.4-10.7c0.5-0.2,1-0.3,1.5-0.5
	c0.4-0.1,0.8-0.2,1.2-0.3c0.7-0.2,1.4-0.4,2.1-0.6c0.3-0.1,0.6-0.2,0.9-0.2c0.8-0.2,1.6-0.4,2.4-0.6c0.3-0.1,0.7-0.2,1-0.3
	c0.8-0.2,1.5-0.4,2.3-0.5c0.3-0.1,0.6-0.1,0.8-0.2c0.8-0.2,1.7-0.4,2.5-0.6c0.2,0,0.4-0.1,0.7-0.1c0.9-0.2,1.8-0.4,2.7-0.5
	c0.2,0,0.3-0.1,0.5-0.1c1-0.2,1.9-0.4,2.9-0.5c0.1,0,0.2,0,0.4-0.1c1-0.2,2-0.3,3-0.5c0.1,0,0.2,0,0.3,0c1-0.2,2.1-0.3,3.1-0.5
	c0.1,0,0.2,0,0.3,0c0.1,0,0.2,0,0.2,0c2.2,6.8,5.1,13.4,8.7,19.6c0,0,0,0,0,0c3.8,6.5,8.6,12.4,14.1,17.5
	C139.8,204.1,134.5,206.7,129.2,209.4z M271.2,201c-0.5,0.1-0.9,0.4-1.3,0.7c-0.1,0.1-0.2,0.2-0.3,0.3c-6.1,3.8-12.5,7.2-19.1,10
	c0,0,0,0,0,0c-9.8,4.2-20.3,6.7-31,7.5c0,0,0,0-0.1,0c-1.2,0.1-2.4,0.7-3.2,1.6c-0.8,0.9-1.2,2.1-1.2,3.4c0.1,0.9,0.4,1.7,0.8,2.4
	c0,0,0,0,0,0l0,0l0,0c2.4,3.4,4.1,7.6,5.4,11.8c1.3,4.2,2,8.6,2.2,12.9c0,0.5,0,1,0,1.5c0,0.1,0,0.3,0,0.4c0,0,0,0,0,0.1
	c0,0,0,0.1,0,0.1c0,0,0,0,0,0.1c-14.5,0-29.1,0-43.6,0c0.3-0.5,0.7-1.1,1-1.6c0.8-1.3,1.7-2.7,2.6-4c1.8-2.6,3.6-5.1,5.6-7.6
	c3.9-4.9,8.3-9.4,13.2-13.1l0,0l0,0c0,0,0,0,0,0c0.5-0.4,1-0.9,1.4-1.6c0.3-0.7,0.5-1.4,0.5-2.1c0-1.2-0.4-2.3-1.2-3.2
	c-0.1-0.2-0.3-0.3-0.5-0.5c0,0,0,0,0.1,0c0,0-0.1,0-0.1-0.1c0,0,0,0-0.1,0c-0.1,0-0.1-0.1-0.2-0.1c-0.1-0.1-0.2-0.1-0.2-0.2
	c-0.1-0.1-0.2-0.1-0.3-0.2c0,0-0.1,0-0.1-0.1c-0.1-0.1-0.2-0.1-0.4-0.2c0,0-0.1,0-0.1,0c-0.1,0-0.2-0.1-0.3-0.1
	c-0.2-0.1-0.4-0.1-0.7-0.1c0,0,0,0,0,0c0,0,0,0,0,0l0,0l0,0l0,0c-0.4-0.1-0.8-0.1-1.1-0.2c-1.2-0.2-2.4-0.3-3.7-0.5
	c-1.6-0.3-3.2-0.6-4.7-0.9c-1.6-0.4-3.1-0.7-4.7-1.1c-1.5-0.4-3.1-0.9-4.6-1.3c-6.1-2-12-4.5-17.6-7.7c-11.1-6.4-20.5-15.5-27-26.5
	c0,0,0,0,0,0c-3.1-5.5-5.7-11.2-7.7-17.2c0.1,0,0.2,0,0.3,0c1-0.1,2-0.2,2.9-0.3c0.2,0,0.4,0,0.6-0.1c0.9-0.1,1.9-0.2,2.8-0.2
	c0.3,0,0.6,0,0.9-0.1c0.8-0.1,1.7-0.1,2.5-0.2c0.4,0,0.9-0.1,1.3-0.1c0.7,0,1.4-0.1,2.1-0.1c0.6,0,1.3-0.1,1.9-0.1
	c0.5,0,1-0.1,1.5-0.1c0.9,0,1.8-0.1,2.6-0.1c0.3,0,0.5,0,0.8,0c2.3-0.1,4.6-0.1,6.9-0.1c0,0,0,0,0,0c1.8,0,3.5,0,5.3,0
	c0.9,0,1.8,0,2.8,0c1.9,0,3.9,0.1,5.8,0.2c0.7,0,1.5,0,2.2,0.1c1.5,0.1,2.9,0.1,4.4,0.2c1.2,0.1,2.4,0.1,3.6,0.2
	c0.6,0,1.2,0.1,1.8,0.1c4.7,0.3,9.5,0.7,14.2,1.2c0.1,0,0.3,0,0.4,0c2.5,0.3,5,0.6,7.6,0.9c0.7,0.1,1.5,0.2,2.2,0.3
	c1.9,0.3,3.9,0.5,5.8,0.8c1,0.2,2.1,0.3,3.1,0.5c1.6,0.2,3.2,0.5,4.9,0.8c1.3,0.2,2.6,0.5,3.9,0.7c1.4,0.2,2.7,0.5,4.1,0.7
	c1.6,0.3,3.1,0.6,4.7,0.9c1.1,0.2,2.1,0.4,3.2,0.6c1.7,0.4,3.5,0.8,5.2,1.1c0.9,0.2,1.8,0.4,2.6,0.6c1.7,0.4,3.3,0.8,5,1.2
	c0.9,0.2,1.9,0.4,2.8,0.7c1.9,0.5,3.9,1,5.8,1.5c0.7,0.2,1.3,0.3,2,0.5c2.5,0.7,4.9,1.4,7.4,2.1c0.1,0,0.2,0.1,0.3,0.1
	c2.3,0.7,4.7,1.4,7,2.1c0.2,0.1,0.5,0.1,0.7,0.2c2.6,0.8,5.1,1.6,7.6,2.5c0,0,0,0,0,0c0.9,0.3,1.7,0.6,2.6,0.8
	c1.4,0.5,2.9,0.9,4.3,1.3c0.1,0,0.2,0,0.2,0.1c-0.5,0.7-1.1,1.3-1.7,2c-3.3,3.6-7.1,6.9-11.1,9.9C275,198.5,273.1,199.8,271.2,201z
	 M299.9,187.9c1,0.2,1.9,0.4,2.9,0.6c0.2,0,0.4,0.1,0.7,0.1c1.1,0.2,2.3,0.4,3.4,0.6c0.1,0,0.1,0,0.2,0c1.2,0.2,2.4,0.4,3.6,0.6
	c0.9,0.1,1.7,0.3,2.6,0.4c0.3,0,0.6,0.1,1,0.1c0.6,0.1,1.2,0.2,1.9,0.2c0.2,0,0.3,0,0.5,0.1c0,0,0,0,0,0c-0.6,1.1-1.3,2.2-2,3.3
	c-0.2,0.3-0.4,0.7-0.6,1c-0.7,1.1-1.4,2.2-2.1,3.2c-0.2,0.3-0.4,0.6-0.6,0.9c-0.8,1.1-1.5,2.2-2.3,3.2c-0.2,0.3-0.4,0.5-0.6,0.8
	c-0.8,1.1-1.6,2.1-2.5,3.2c-0.2,0.2-0.4,0.5-0.6,0.7c-0.9,1.1-1.8,2.1-2.7,3.2c-0.2,0.2-0.3,0.4-0.5,0.6c-0.9,1.1-1.9,2.1-2.9,3.1
	c-0.2,0.2-0.3,0.3-0.5,0.5c-1,1-2,2.1-3.1,3.1c-0.1,0.1-0.3,0.3-0.4,0.4c-1.1,1-2.1,2-3.2,3c-0.1,0.1-0.3,0.2-0.4,0.4
	c-1.1,1-2.3,2-3.4,2.9c-0.1,0.1-0.2,0.2-0.3,0.3c-1.2,1-2.4,1.9-3.6,2.8c-0.1,0.1-0.2,0.1-0.3,0.2c-1.3,0.9-2.5,1.9-3.8,2.8
	c-0.1,0-0.1,0.1-0.2,0.1c-1.3,0.9-2.7,1.8-4,2.7c0,0-0.1,0-0.1,0.1c-1.4,0.9-2.8,1.7-4.2,2.5c0,0,0,0,0,0c-1.4,0.8-2.8,1.6-4.3,2.4
	c0,0,0,0-0.1,0c-1,0.5-2,1-3,1.5c0.8-0.8,1.7-1.5,2.5-2.3c3.2-3.1,6.2-6.5,8.7-10.3c1.2-2,2.4-4,3.2-6.4c0.8-2.3,1.4-4.9,1.2-7.5
	c-0.2-1.9-0.6-3.9-1.4-5.6c-0.2-0.4-0.4-0.9-0.6-1.3c-0.2-0.4-0.5-0.8-0.8-1.2c0,0-0.1-0.1-0.1-0.1c1.2-0.9,2.5-1.7,3.7-2.6
	c4.3-3.2,8.4-6.7,12-10.8c1.3-1.4,2.5-2.9,3.6-4.5c0,0,0.1,0,0.1,0c0.7,0.2,1.5,0.3,2.2,0.5C299,187.7,299.4,187.8,299.9,187.9z
	 M286.4,150.4c1.6-0.1,3.1-0.3,4.7-0.4l0,0l0,0c-0.2,0.1,0.1-0.1,0.6-0.1c0.3,0,0.6,0.1,0.9,0.3l0,0c0.1,0.1,0.3,0.2,0.4,0.5
	c0.1,0.2,0.2,0.5,0.2,0.8c0,0.3-0.1,0.5-0.1,0.5c0.2,1.4,0.3,2.7,0.5,4.1l0,0c0,0,0,0,0,0c1.1,1,1.9,2.1,2.6,3.4
	c0.3,0.7,0.7,1.3,0.9,2.1c0.1,0.1,0.1,0.3,0.1,0.4c-1.1,2.5-1.5,3.4-1.6,3.5c0-0.1,0.2-0.5,0.3-0.6c0,0-0.1,0.1-0.1,0.3l0,0
	c0,0,0,0,0,0c0,0,0,0,0,0.1l0,0c0,0.2,0.1,0.4,0.1,0.6c0,0.2,0.1,0.5,0.1,0.7c0.1,0.5,0.1,1,0.1,1.5c0.1,2.5-0.1,4.9-0.9,7.1l0,0
	l0,0l0,0.1c-0.5,1.5-1.2,3-2,4.4c-0.3-0.1-0.6-0.1-0.9-0.2c-0.5-0.1-1-0.3-1.4-0.4c-0.3-0.1-0.6-0.2-0.9-0.3
	c-0.8-0.2-1.6-0.5-2.5-0.7c-1.1-0.3-2.2-0.7-3.3-1.1c0,0,0,0,0,0c0,0,0,0,0,0c-0.7-0.2-1.5-0.5-2.2-0.7c-4.4-1.5-8.9-2.8-13.3-4.1
	c-4.1-1.2-8.1-2.3-12.2-3.3c-1.2-0.3-2.3-0.6-3.5-0.9c-2.3-0.6-4.6-1.1-6.9-1.6c-0.3-0.1-0.7-0.2-1-0.2c-1.6-0.4-3.2-0.7-4.8-1
	c-1.1-0.2-2.1-0.5-3.2-0.7c-0.9-0.2-1.8-0.3-2.7-0.5c-1.8-0.4-3.5-0.7-5.3-1c-1.1-0.2-2.3-0.4-3.4-0.6c-1.5-0.3-3.1-0.6-4.6-0.8
	c0,0,0,0,0,0c0,0,0,0,0,0c-1.6-0.3-3.3-0.5-4.9-0.8c-1-0.2-2.1-0.3-3.1-0.5c-1.1-0.2-2.2-0.3-3.3-0.5c-1.6-0.2-3.2-0.4-4.8-0.6
	c-0.1,0-0.3,0-0.4,0c-2.6-0.3-5.1-0.6-7.7-0.9c-0.4,0-0.8-0.1-1.3-0.1c-2.3-0.2-4.6-0.5-6.9-0.6c-0.7-0.1-1.4-0.1-2.2-0.2
	c-4.7-0.4-9.4-0.7-14.1-0.9c-0.3,0-0.7,0-1,0c-5.1-0.2-10.2-0.3-15.3-0.2c0,0,0,0,0,0c-1.2,0-2.3,0-3.5,0.1c0,0-0.1,0-0.1,0
	c-1.1,0-2.3,0.1-3.4,0.1c-0.2,0-0.4,0-0.7,0c-1,0-1.9,0.1-2.9,0.1c-0.5,0-1,0-1.5,0.1c-0.7,0-1.4,0.1-2.1,0.1
	c-0.7,0-1.4,0.1-2.1,0.1c-0.5,0-0.9,0.1-1.4,0.1c-0.8,0.1-1.6,0.1-2.5,0.2c-0.3,0-0.7,0-1,0.1c-0.9,0.1-1.9,0.2-2.8,0.2
	c-0.2,0-0.4,0-0.7,0.1c-1,0.1-2,0.2-3,0.3c-0.2,0-0.3,0-0.5,0c-0.3,0-0.6,0.1-0.9,0.1c-1.4-6.2-2.2-12.5-2.4-18.8
	c0-12,2.4-24,7.1-35c4.9-11,12-20.9,20.9-29c0.5-0.5,0.9-1.1,1-1.9c0,0,0-0.1,0-0.1l0,0c0,0,0,0,0,0c0.6-5.3,3.1-10.5,6.6-14.8
	c3.5-4.3,8.1-7.9,13.2-10.3l0,0c0.1,0,0.2-0.1,0.4-0.1c0.2,0,0.4,0.1,0.5,0.2c0,0,0,0,0,0c2.1,2.2,4.1,5,5.6,7.7
	c0.7,1.3,2.3,1.9,3.7,1.5c0,0,0,0,0,0l0,0c0,0,0,0,0,0c1.7-0.5,3.4-1,5.1-1.4c6.5-1.6,13.2-2.5,20-2.5c7,0,13.9,0.8,20.7,2.5
	c6.8,1.7,13.3,4.2,19.5,7.4c0,0,0,0,0,0c5.6,3,10.9,6.5,15.3,10.9c2.2,2.2,4.1,4.6,5.5,7.1c0.8,1.3,1.4,2.6,1.9,4
	c0.3,0.7,0.5,1.4,0.7,2.1c0.1,0.3,0.2,0.7,0.3,1.1c0.1,0.3,0.1,0.6,0.2,0.8c0,1.1,0,2.2,0,3.3c0,1.2,0,2.4,0.1,3.7
	c0,2.4,0.2,4.9,0.3,7.3c0.4,4.8,0.9,9.7,1.7,14.5c0.7,4.8,1.7,9.6,2.9,14.3c0.6,2.4,1.3,4.7,2.1,7.1c0.4,1.2,0.8,2.4,1.3,3.5
	c0.2,0.6,0.5,1.2,0.8,1.8c0.3,0.6,0.6,1.3,1,1.9c0,0,0,0,0,0C284,147.8,285.1,149.3,286.4,150.4z M122.5,41.9
	c11.4-11.4,25.1-20.6,40-26.7c14.9-6.2,31-9.4,47.2-9.4c0,0,0,0,0,0c6.1,0.1,12.2,0.4,18.2,1.2c6,0.9,12,2.1,17.9,3.7
	c11.7,3.4,23,8.3,33.1,14.9c10.2,6.6,19.3,14.8,26.3,24.6c3.5,4.9,6.4,10.2,8.4,15.7c2,5.5,3.1,11.4,3,17.2
	c-0.1,3.6-0.7,7.2-1.7,10.6c0,0,0,0,0,0c-2.3,7.6-6.8,14.4-12.9,19.5c-5.6,4.7-12.3,7.9-19.5,9.8c-0.4-2.1-0.8-4.2-1.1-6.3
	c-0.7-4.6-1.2-9.3-1.6-14c-0.3-4.7-0.4-9.3-0.4-14c0,0,0,0,0,0c0,0,0,0,0,0c0,0,0,0,0-0.1c0-0.2,0-0.4-0.1-0.6
	c-0.7-3.6-2-7.1-3.8-10.2c-1.8-3.1-4.1-5.9-6.5-8.4c-5-5-10.8-8.8-16.8-12c0,0,0,0,0,0c-6.6-3.5-13.7-6.2-20.9-8
	c-7.3-1.8-14.8-2.6-22.3-2.6c-7.2,0.1-14.4,1-21.5,2.7c-0.9,0.2-1.8,0.5-2.8,0.7c-0.1,0-0.2,0.1-0.4,0.1l0,0l0,0
	c0-0.1-0.1-0.1-0.1-0.2c-0.5-0.8-1-1.5-1.6-2.3c-1.1-1.5-2.3-3-3.6-4.4c0,0,0,0,0,0c-1.3-1.3-3.1-2.1-4.9-2.1
	c-1.1,0-2.2,0.2-3.2,0.6c0,0,0,0,0,0c-6,2.8-11.3,6.9-15.4,12c-2.1,2.6-3.9,5.4-5.3,8.4c-0.7,1.5-1.3,3.1-1.8,4.7
	c-0.3,0.8-0.4,1.7-0.6,2.5c-0.1,0.4-0.1,0.8-0.2,1.3c0,0.1,0,0.1,0,0.1l0,0l0,0c0,0,0,0,0,0c-0.3,0.3-0.6,0.6-0.9,0.8
	c-0.6,0.6-1.2,1.1-1.7,1.7c-1.1,1.1-2.3,2.2-3.3,3.5c-1,1.2-2.1,2.5-3.1,3.7c-0.3,0.3-0.5,0.6-0.8,0.9c0,0,0,0,0,0.1
	c-11.7-4.8-23.6-9-35.8-12.3C107.5,59.3,114.4,50.1,122.5,41.9z M95.8,81.9c0.9-2.3,2-4.5,3.1-6.8c11.9,3.1,23.6,7.1,35.1,11.8
	c-0.4,0.5-0.7,1-1,1.5c-0.8,1.4-1.6,2.8-2.5,4.2c-0.4,0.7-0.8,1.4-1.2,2.1c-0.4,0.7-0.7,1.5-1.1,2.2c-0.7,1.5-1.4,2.9-2.1,4.4
	c-5.1,11.8-7.7,24.7-7.7,37.6c0.2,6.6,1,13.1,2.4,19.5c-1,0.1-1.9,0.3-2.9,0.4c-0.1,0-0.2,0-0.3,0.1c-1,0.2-2,0.3-3.1,0.5
	c-0.1,0-0.3,0-0.4,0.1c-1,0.2-2,0.3-2.9,0.5c-0.2,0-0.4,0.1-0.6,0.1c-0.9,0.2-1.8,0.4-2.8,0.6c-0.2,0-0.5,0.1-0.7,0.1
	c-0.9,0.2-1.7,0.4-2.6,0.6c-0.3,0.1-0.6,0.1-0.9,0.2c-0.8,0.2-1.5,0.4-2.3,0.6c-0.3,0.1-0.7,0.2-1,0.2c0,0-0.1,0-0.1,0
	c-0.1,0-0.2,0.1-0.4,0.1c-0.7,0.2-1.4,0.4-2.1,0.6c-0.3,0.1-0.6,0.2-0.9,0.3c-0.7,0.2-1.5,0.4-2.2,0.6c-0.4,0.1-0.9,0.2-1.3,0.4
	c-0.6,0.2-1.1,0.3-1.7,0.5c0,0,0-0.1,0-0.1c-1.8-5.7-2.9-11.7-3.8-17.6c-0.2-1.5-0.4-3-0.6-4.5c-0.1-1.5-0.2-3-0.4-4.5
	c-0.1-0.8-0.1-1.5-0.2-2.3c0-0.8,0-1.5-0.1-2.3c0-1.5-0.1-3-0.1-4.5c0,0,0,0,0,0C86.5,113,89.6,96.8,95.8,81.9z"/>
</svg>
