<?xml version="1.0" encoding="UTF-8"?>
<svg width="305px" height="30px" viewBox="0 0 305 30" version="1.1" xmlns="http://www.w3.org/2000/svg" xmlns:xlink="http://www.w3.org/1999/xlink">
    <!-- Generator: Sketch 46.1 (44463) - http://www.bohemiancoding.com/sketch -->
    <title>logo-universe-text</title>
    <desc>Created with Sketch.</desc>
    <defs></defs>
    <g id="Symbols" stroke="none" stroke-width="1" fill="none" fill-rule="evenodd">
        <g id="Footer" transform="translate(-60.000000, -110.000000)" fill-rule="nonzero">
            <g id="Group-2" transform="translate(0.000000, 110.000000)">
                <g id="logo-universe-text" transform="translate(60.000000, 0.000000)">
                    <path d="M21.1186813,20.2351648 C21.1186813,25.3318681 16.832967,29.4659341 11.7296703,29.4659341 L8.92747253,29.4659341 C6.5921842,29.4799606 4.34725603,28.5643502 2.68790753,26.9210818 C1.02855903,25.2778135 0.0911318536,23.0419076 0.0824175824,20.7065934 L0.0824175824,1.52967033 C0.0824175824,0.764835165 0.481318681,0.365934066 1.24615385,0.365934066 L3.68571429,0.365934066 C4.81318681,0.365934066 4.84945055,1.05824176 4.84945055,1.78681319 L4.84945055,20.7098901 C4.88367193,22.9376203 6.69947955,24.7255376 8.92747253,24.7252747 L11.7296703,24.7252747 C14.2335632,24.7472478 16.2831104,22.7389864 16.3120879,20.2351648 L16.3120879,1.77362637 C16.3120879,1.04505495 16.3846154,0.352747253 17.5120879,0.352747253 L19.9153846,0.352747253 C20.7164835,0.352747253 21.1153846,0.751648352 21.1153846,1.51648352 L21.1186813,20.2351648 Z" id="Shape" fill="#F79533"></path>
                    <path d="M65.4032967,28.3120879 C65.3819896,28.9598748 64.8514324,29.4743988 64.2032967,29.4758242 L61.7274725,29.4758242 C61.3112235,29.5031099 60.9158389,29.2907026 60.7087912,28.9285714 C56.343956,22.4175824 52.5593407,16.8131868 48.0824176,10.1901099 L48.0824176,28.321978 C48.0611105,28.969765 47.5305533,29.4842889 46.8824176,29.4857143 L44.3703297,29.4857143 C44.0697539,29.480703 43.7840388,29.3540994 43.5784135,29.1348071 C43.3727881,28.9155148 43.2648065,28.6222546 43.2791209,28.321978 L43.2065934,1.53626374 C43.2119683,0.895789509 43.7298554,0.377902365 44.3703297,0.372527473 L47.0637363,0.372527473 C47.4807431,0.350489402 47.8703855,0.58037843 48.0527473,0.956043956 L48.0527473,0.90989011 L60.5340659,19.7010989 L60.5340659,1.52967033 C60.555373,0.881883399 61.0859302,0.367359463 61.7340659,0.365934066 L64.2098901,0.365934066 C64.8580258,0.367359463 65.3885831,0.881883399 65.4098901,1.52967033 L65.4032967,28.3120879 Z" id="Shape" fill="#F37055"></path>
                    <path d="M92.4395604,28.3120879 C92.4182534,28.9598748 91.8876961,29.4743988 91.2395604,29.4758242 L88.7637363,29.4758242 C88.4631605,29.4708129 88.1774454,29.3442093 87.9718201,29.124917 C87.7661947,28.9056247 87.6582131,28.6123645 87.6725275,28.3120879 L87.6,1.52637363 C87.6053749,0.885899399 88.123262,0.368012255 88.7637363,0.362637363 L91.2395604,0.362637363 C91.8876961,0.364062759 92.4182534,0.878586696 92.4395604,1.52637363 L92.4395604,28.3120879 Z" id="Shape" fill="#EF4E7B"></path>
                    <path d="M136.463736,5.64065934 L132.57033,16.4505495 L128.821978,26.821978 L128.202198,28.532967 C127.948352,29.1164835 127.767033,29.4791209 127.038462,29.4791209 L123.834066,29.4791209 C122.996703,29.4791209 122.815385,29.043956 122.67033,28.5692308 L120.158242,21.3164835 C117.850549,14.7659341 115.872527,8.68681319 113.208791,2.13626374 C113.112973,1.94892348 113.06753,1.73988254 113.076923,1.52967033 C113.076923,0.764835165 113.475824,0.365934066 114.276923,0.365934066 L117.115385,0.365934066 C117.843956,0.365934066 118.025275,0.840659341 118.279121,1.31208791 L125.449451,22.5296703 L132.527473,1.31868132 L132.491209,1.53626374 C132.491209,1.42747253 132.563736,1.42747253 132.563736,1.39120879 C132.781319,0.698901099 133.183516,0.372527473 133.727473,0.372527473 L136.602198,0.372527473 C137.226248,0.415495384 137.722966,0.912213331 137.765934,1.53626374 C137.772527,1.64835165 137.301099,3.27362637 136.463736,5.64065934 Z" id="Shape" fill="#A166AB"></path>
                    <path d="M159.689011,29.4791209 C159.375656,29.4954202 159.07009,29.3780558 158.848215,29.1561808 C158.62634,28.9343057 158.508975,28.6287397 158.525275,28.3153846 L158.452747,1.52967033 C158.453089,1.20834974 158.585898,0.901386236 158.819866,0.68114486 C159.053833,0.460903483 159.368256,0.346872482 159.689011,0.365934066 L177.267033,0.365934066 C178.467033,0.365934066 178.467033,1.05824176 178.467033,1.78681319 L178.467033,3.78791209 C178.467033,5.10659341 178.285714,5.20549451 177.00989,5.20549451 L163.361538,5.20549451 L163.361538,11.6472527 L175.483516,11.6472527 C175.802715,11.6391923 176.110601,11.7656772 176.331948,11.9958031 C176.553295,12.225929 176.667716,12.5384992 176.647253,12.8571429 L176.647253,15.332967 C176.664834,15.6499501 176.54913,15.9598548 176.328115,16.1877573 C176.107099,16.4156599 175.80089,16.5408158 175.483516,16.532967 L163.364835,16.532967 L163.364835,24.6362637 L177.484615,24.6362637 C178.757143,24.6362637 178.941758,24.7450549 178.941758,26.0538462 L178.941758,28.0318681 C178.941758,28.7604396 178.941758,29.489011 177.741758,29.489011 L159.689011,29.4791209 Z" id="Shape" fill="#5073B8"></path>
                    <path d="M214.130769,0.362637363 C217.407692,0.362637363 220.282418,3.23736264 220.282418,6.55054945 C220.282418,9.31648352 218.789011,10.9186813 216.715385,12.3362637 C217.48022,14.3736264 218.208791,16.2659341 218.934066,18.3065934 C220.097802,21.5076923 221.301099,24.7483516 222.56044,27.9857143 C222.959341,28.9747253 222.415385,29.4791209 221.432967,29.4791209 L218.667033,29.4791209 C217.902198,29.4791209 217.678022,29.043956 217.503297,28.5692308 L212.274725,14.7032967 C209.762637,16.021978 207.543956,17.2516484 204.923077,18.5967033 L204.923077,28.0582418 C204.923077,28.7868132 204.886813,29.4758242 203.759341,29.4758242 L201.174725,29.4758242 C200.870456,29.4723691 200.580179,29.3474842 200.368446,29.1289411 C200.156713,28.9103979 200.041077,28.6163145 200.047253,28.3120879 L199.974725,1.52637363 C199.996032,0.878586696 200.52659,0.364062759 201.174725,0.362637363 L214.130769,0.362637363 Z M204.923077,5.2021978 L204.923077,13.1373626 C207.797802,11.7197802 214.275824,8.52197802 215.040659,7.31538462 L215.040659,7.35164835 C215.19316,7.12819173 215.274732,6.86394161 215.274725,6.59340659 C215.279524,6.21837663 215.13015,5.85782131 214.861536,5.59606331 C214.592923,5.3343053 214.228627,5.19430034 213.853846,5.20879121 L204.923077,5.2021978 Z" id="Shape" fill="#1098AD"></path>
                    <path d="M260.367033,27.7318681 C258.718681,29.189011 256.410989,29.8054945 253.773626,29.8054945 L251.007692,29.8054945 C247.93981,29.8368184 245.07302,28.2825195 243.425275,25.6945055 C242.9265,24.983971 242.579709,24.1781583 242.406593,23.3274725 C242.202399,22.3590393 242.117154,21.3693058 242.152747,20.3802198 L242.152747,20.4395604 C242.152747,19.710989 242.189011,19.0186813 243.316484,19.0186813 L245.792308,19.0186813 C246.327935,18.9816508 246.802458,19.3615558 246.883516,19.8923077 C246.996583,20.2691693 247.033564,20.6647556 246.992308,21.056044 C246.992308,21.2373626 247.028571,21.5637363 247.064835,22.0450549 C247.498003,23.8631088 249.125572,25.143864 250.994505,25.1373626 L253.76044,25.1373626 C255.942857,25.1373626 257.838462,23.9373626 258.164835,22.0087912 C258.206981,21.7680599 258.231224,21.5245355 258.237363,21.2802198 C258.273626,20.8054945 258.30989,19.7142857 257.693407,19.1703297 C256.674725,18.2967033 254.452747,17.9340659 251.835165,17.3142857 C247.176923,16.2593407 242.156044,14.8384615 242.156044,9.96263736 L242.156044,9.46153846 C242.110506,8.61811721 242.18375,7.77248158 242.373626,6.94945055 L242.337363,6.98571429 C243.118681,2.94725275 246.867033,0 251.014286,0 L253.78022,0 C255.927184,0.0161036031 258.00521,0.759916036 259.674725,2.10989011 C261.323077,3.42857143 262.331868,5.93076923 262.223077,8.73296703 C262.186813,9.46153846 262.186813,10.1505495 261.059341,10.1505495 L258.656044,10.1505495 C258.020624,10.1332731 257.509584,9.62223333 257.492308,8.98681319 C257.383516,5.89450549 256.107692,4.72747253 253.78022,4.72747253 L251.014286,4.72747253 C249.114707,4.75319381 247.479727,6.07616518 247.058242,7.92857143 L247.058242,7.91208791 C246.949451,8.53186813 246.728571,9.62307692 247.641758,10.532967 C248.072313,10.9794901 248.612148,11.3056637 249.207692,11.4791209 L253.391209,12.6428571 C255.573626,13.2626374 257.13956,13.6615385 258.049451,13.9912088 C258.948415,14.2922776 259.804899,14.7077777 260.597802,15.2274725 C262.091209,16.2461538 263.146154,17.9934066 263.146154,20.4692308 C263.132967,23.2186813 262.005495,26.2747253 260.367033,27.7318681 Z" id="Shape" fill="#07B39B"></path>
                    <path d="M285.62967,29.4791209 C285.316315,29.4954202 285.010749,29.3780558 284.788874,29.1561808 C284.566999,28.9343057 284.449635,28.6287397 284.465934,28.3153846 L284.393407,1.52967033 C284.393748,1.20834974 284.526558,0.901386236 284.760525,0.68114486 C284.994492,0.460903483 285.308915,0.346872482 285.62967,0.365934066 L303.207692,0.365934066 C304.407692,0.365934066 304.407692,1.05824176 304.407692,1.78681319 L304.407692,3.78791209 C304.407692,5.10659341 304.226374,5.20549451 302.950549,5.20549451 L289.302198,5.20549451 L289.302198,11.6472527 L301.420879,11.6472527 C301.740643,11.6382486 302.049416,11.7643193 302.271498,11.994557 C302.49358,12.2247948 302.608438,12.5379115 302.587912,12.8571429 L302.587912,15.332967 C302.605493,15.6499501 302.489789,15.9598548 302.268774,16.1877573 C302.047759,16.4156599 301.741549,16.5408158 301.424176,16.532967 L289.305495,16.532967 L289.305495,24.6362637 L303.425275,24.6362637 C304.697802,24.6362637 304.882418,24.7450549 304.882418,26.0538462 L304.882418,28.0318681 C304.882418,28.7604396 304.882418,29.489011 303.682418,29.489011 L285.62967,29.4791209 Z" id="Shape" fill="#6DBA82"></path>
                    <g id="Group" style="mix-blend-mode: multiply;" transform="translate(4.285714, 0.329670)" fill="#CE89BB">
                        <path d="M16.832967,19.9021978 L16.832967,1.19010989 C16.832967,0.425274725 16.4340659,0.0263736264 15.632967,0.0263736264 L13.2296703,0.0263736264 C12.1021978,0.0263736264 12.0296703,0.718681319 12.0296703,1.44725275 L12.0296703,19.9087912 C11.9881172,22.4066775 9.93877695,24.4030176 7.44065934,24.3791209 L4.63846154,24.3791209 C2.86474796,24.3668683 1.29958678,23.2166012 0.758241758,21.5274725 C1.41758242,26.2912088 3.8967033,28.9153846 8.3010989,29.1098901 C13.0120879,28.6813187 16.832967,24.7087912 16.832967,19.9021978 Z" id="Shape"></path>
                    </g>
                    <path d="M60.5307692,19.6846154 L49.7043956,3.3989011 C49.4878872,3.0732946 49.0836702,2.92791863 48.709373,3.04104293 C48.3350758,3.15416723 48.0790428,3.49909139 48.0791209,3.89010989 L48.0791209,10.1835165 C51.9263736,15.8802198 55.2692308,20.821978 58.9054945,26.2384615 C59.1220029,26.564068 59.5262199,26.709444 59.9005171,26.5963197 C60.2748143,26.4831954 60.5308473,26.1382713 60.5307692,25.7472527 L60.5307692,19.6846154 Z" id="Shape" fill="#CE89BB" style="mix-blend-mode: multiply;"></path>
                    <path d="M132.567033,16.443956 L136.46044,5.63406593 C137.297802,3.26703297 137.779121,1.62857143 137.779121,1.51978022 C137.736153,0.895729815 137.239435,0.399011868 136.615385,0.356043956 L133.740659,0.356043956 C133.193407,0.356043956 132.794505,0.685714286 132.576923,1.37472527 C132.576923,1.41098901 132.504396,1.41098901 132.504396,1.51978022 L132.527473,1.31868132 L125.432967,22.5230769 C126.751648,26.4791209 127.285714,29.0274725 128.198901,28.5296703 L128.818681,26.8186813 L132.567033,16.443956 Z" id="Shape" fill="#CE89BB" style="mix-blend-mode: multiply;"></path>
                    <path d="M87.6395604,16.378022 L87.6725275,28.3120879 C87.6582131,28.6123645 87.7661947,28.9056247 87.9718201,29.124917 C88.1774454,29.3442093 88.4631605,29.4708129 88.7637363,29.4758242 L91.2395604,29.4758242 C91.8876961,29.4743988 92.4182534,28.9598748 92.4395604,28.3120879 L92.4395604,11.8285714 C92.4395604,14.3637363 90.0395604,16.378022 87.6395604,16.378022 Z" id="Shape" fill="#CE89BB" style="mix-blend-mode: multiply;"></path>
                    <path d="M178.941758,28.021978 L178.941758,26.043956 C178.941758,24.7252747 178.76044,24.6230769 177.484615,24.6230769 L163.361538,24.6230769 L163.361538,16.5230769 C160.724176,16.5230769 158.686813,18.3 158.485714,20.943956 L158.518681,28.3120879 C158.502382,28.625443 158.619746,28.931009 158.841621,29.1528841 C159.063496,29.3747591 159.369062,29.4921235 159.682418,29.4758242 L177.738462,29.4758242 C178.941758,29.4758242 178.941758,28.7472527 178.941758,28.021978 Z" id="Shape" fill="#21C0D5" style="mix-blend-mode: multiply;"></path>
                    <path d="M304.846154,28.021978 L304.846154,26.043956 C304.846154,24.7252747 304.664835,24.6230769 303.389011,24.6230769 L289.265934,24.6230769 L289.265934,16.5230769 C286.628571,16.5230769 284.591209,18.3 284.39011,20.943956 L284.423077,28.3120879 C284.406778,28.625443 284.524142,28.931009 284.746017,29.1528841 C284.967892,29.3747591 285.273458,29.4921235 285.586813,29.4758242 L303.642857,29.4758242 C304.846154,29.4758242 304.846154,28.7472527 304.846154,28.021978 Z" id="Shape" fill="#76CEDF" style="mix-blend-mode: multiply;"></path>
                    <path d="M199.974725,23.5615385 L199.974725,28.3120879 C199.96855,28.6157504 200.083736,28.9093365 200.294757,29.1277836 C200.505778,29.3462307 200.795207,29.4714979 201.098901,29.4758242 L203.683516,29.4758242 C204.810989,29.4758242 204.847253,28.7835165 204.847253,28.0549451 L204.847253,18.5934066 C202.045055,19.9681319 200.264835,21.8406593 199.974725,23.5615385 Z" id="Shape" fill="#21C0D5" style="mix-blend-mode: multiply;"></path>
                    <path d="M260.587912,15.2076923 C259.794936,14.6881247 258.938469,14.2726329 258.03956,13.9714286 L257.897802,13.9252747 C257.563436,13.8700843 257.233054,13.7929954 256.908791,13.6945055 C253.424176,12.5967033 251.848352,17.2945055 248.749451,16.5263736 C249.758242,16.8296703 250.806593,17.0835165 251.838462,17.3175824 C254.459341,17.9373626 256.681319,18.3065934 257.7,19.1736264 C258.31978,19.7208791 258.283516,20.821978 258.247253,21.2835165 C258.241114,21.5278322 258.216871,21.7713566 258.174725,22.0120879 C257.845055,23.9406593 255.952747,25.143956 253.77033,25.143956 L251.004396,25.143956 C249.134488,25.1500969 247.506588,23.8677157 247.074725,22.0483516 C247.038462,21.5736264 247.002198,21.2472527 247.002198,21.0593407 C247.043454,20.6680523 247.006473,20.272466 246.893407,19.8956044 C246.812348,19.3648525 246.337825,18.9849475 245.802198,19.021978 L243.326374,19.021978 C242.198901,19.021978 242.162637,19.7142857 242.162637,20.4428571 L242.162637,20.3703297 C242.127077,21.3594149 242.212322,22.3491444 242.416484,23.3175824 C242.589599,24.1682682 242.93639,24.9740809 243.435165,25.6846154 C245.084789,28.2710282 247.949998,29.8257154 251.017582,29.7989011 L253.783516,29.7989011 C256.404396,29.7989011 258.728571,29.1791209 260.376923,27.7252747 C262.025275,26.2714286 263.142857,23.2120879 263.142857,20.4461538 C263.136264,17.9736264 262.087912,16.2263736 260.587912,15.2076923 Z" id="Shape" fill="#21C0D5" style="mix-blend-mode: multiply;"></path>
                </g>
            </g>
        </g>
    </g>
</svg>