<svg xmlns="http://www.w3.org/2000/svg" viewBox="0 0 451 135.7"><title>full</title><g fill="#13191E"><path d="M61.5 54.3l3.5 2c.6.4 1 1 1 1.7v4c0 .7-.4 1.4-1 1.7l-3.5 2c-.6.4-1.4.4-2 0l-3.5-2c-.6-.4-1-1-1-1.7v-4c0-.7.4-1.4 1-1.7l3.5-2c.6-.4 1.4-.4 2 0zm-11 12.6l9 5.2c.6.4 1 1 1 1.7v10.4c0 .7-.4 1.4-1 1.7l-9 5.2c-.6.4-1.4.4-2 0l-9-5.2c-.6-.4-1-1-1-1.7V73.9c0-.7.4-1.4 1-1.7l9-5.2c.6-.4 1.4-.4 2-.1zm333.4-3.1l-14.5 8.4c-.6.4-1 1-1 1.7v16.7c0 .7.4 1.4 1 1.7l14.5 8.4c.6.4 1.4.4 2 0l14.5-8.4c.6-.4 1-1 1-1.7V73.9c0-.7-.4-1.4-1-1.7l-14.5-8.4c-.6-.4-1.4-.4-2 0zm22 31.7l-9 5.2c-.6.4-1 1-1 1.7v10.4c0 .7.4 1.4 1 1.7l9 5.2c.6.4 1.4.4 2 0l9-5.2c.6-.4 1-1 1-1.7v-10.4c0-.7-.4-1.4-1-1.7l-9-5.2c-.6-.4-1.4-.4-2 0zm-165-44.4l-9 5.2c-.6.4-1 1-1 1.7v10.4c0 .7.4 1.4 1 1.7l9 5.2c.6.4 1.4.4 2 0l9-5.2c.6-.4 1-1 1-1.7V58c0-.7-.4-1.4-1-1.7l-9-5.2c-.6-.4-1.3-.4-2 0zM391.4 124l3.5 2c.6.4 1 1 1 1.7v4c0 .7-.4 1.4-1 1.7l-3.5 2c-.6.4-1.4.4-2 0l-3.5-2c-.6-.4-1-1-1-1.7v-4c0-.7.4-1.4 1-1.7l3.5-2c.6-.4 1.4-.4 2 0z"/><path d="M0 0v50.5l10-5.8c.6-.4 1.4-.4 2 0l25.5 14.7c.6.4 1.4.4 2 0l20-11.5c.6-.4 1.4-.4 2 0l9 5.2c.6.4 1 1 1 1.7v1.7c0 1.1.9 2 2 2 .4 0 .7-.1 1-.3l18-10.4c.6-.4 1.4-.4 2 0l9 5.2c.6.4 1.4.4 2 0l20-11.5c.6-.4 1.4-.4 2 0l31 17.9c.6.4 1.4.4 2 0l9-5.2c.6-.4 1.4-.4 2 0l14.5 8.4c.6.4 1.4.4 2 0l14.5-8.4c.6-.4 1.4-.4 2 0l9 5.2c.6.4 1.4.4 2 0L241 44.7c.6-.4 1.4-.4 2 0l14.5 8.4c.6.4 1 1 1 1.7v10.4c0 .7.4 1.4 1 1.7L285 81.6c.6.4 1.4.4 2 0l9-5.2c.6-.4 1.4-.4 2 0L318 88c.6.4 1.4.4 2 0l9-5.2c.6-.4 1.4-.4 2 0l20 11.5c.6.4 1.4.4 2 0l9-5.2c.6-.4 1-1 1-1.7V70.7c0-.7.4-1.4 1-1.7l20-11.5c.6-.4 1.4-.4 2 0L406 69c.6.4 1 1 1 1.7v16.7c0 .7.4 1.4 1 1.7l20 11.5c.6.4 1.4.4 2 0l21-12.1V0H0zm43 38.4l-14.5 8.4c-.6.4-1.4.4-2 0L12 38.4c-.6-.4-1-1-1-1.7V20c0-.7.4-1.4 1-1.7l14.5-8.4c.6-.4 1.4-.4 2 0L43 18.2c.6.4 1 1 1 1.8v16.7c0 .7-.4 1.4-1 1.7zm143 17.9l-9-5.2c-.6-.4-1-1-1-1.7V39c0-.7.4-1.4 1-1.7l9-5.2c.6-.4 1.4-.4 2 0l9 5.2c.6.4 1 1 1 1.7v10.4c0 .7-.4 1.4-1 1.7l-9 5.2c-.6.3-1.4.3-2 0zm71.5-9.5l-3.5-2c-.6-.4-1-1-1-1.7v-4c0-.7.4-1.4 1-1.7l3.5-2c.6-.4 1.4-.4 2 0l3.5 2c.6.4 1 1 1 1.7v4c0 .7-.4 1.4-1 1.7l-3.5 2c-.6.3-1.4.3-2 0z"/></g></svg>